<svg width="100%" height="100%" viewBox="0 0 247 120" fill="none" xmlns="http://www.w3.org/2000/svg">
<path d="M112.984 101.579L113.028 101.601L113.076 101.614C117.253 102.754 122.545 103.51 127.453 103.89C127.638 103.944 127.877 103.984 128.136 104.017C128.435 104.056 128.794 104.089 129.19 104.119C129.982 104.178 130.944 104.226 131.91 104.273L131.991 104.277C132.933 104.323 133.874 104.369 134.676 104.426C135.515 104.485 136.155 104.554 136.483 104.636L136.542 104.651H136.604H245.538V119.5H136.981C135.863 119.5 133.612 119.406 131.389 119.312L131.072 119.298C128.986 119.209 126.972 119.124 126.054 119.123C120.056 118.747 113.683 117.621 108.439 116.123L108.431 116.121L108.423 116.119C106.964 115.754 102.1 113.886 98.7334 112.016L98.7319 112.015C80.3899 101.908 67.6698 82.4471 67.6698 60C67.6698 27.446 94.2384 0.877353 126.792 0.877353C159.177 0.877353 185.266 26.7968 185.907 58.7453H171.056C170.417 34.5541 150.679 15.349 126.792 15.349C102.365 15.349 82.5189 35.1955 82.5189 59.6226C82.5189 77.173 92.8176 92.8215 108.088 99.6973C108.498 99.9002 109.536 100.278 110.529 100.639L110.584 100.659C111.642 101.043 112.64 101.407 112.984 101.579ZM136.604 79.3679H137.104V78.9906H245.16V93.0849H136.226H136.22H136.213H136.206H136.199H136.192H136.184H136.177H136.17H136.162H136.154H136.146H136.138H136.13H136.122H136.114H136.105H136.097H136.088H136.079H136.07H136.061H136.052H136.043H136.034H136.024H136.014H136.005H135.995H135.985H135.975H135.965H135.955H135.945H135.934H135.924H135.913H135.902H135.891H135.88H135.869H135.858H135.847H135.836H135.824H135.813H135.801H135.789H135.777H135.766H135.753H135.741H135.729H135.717H135.704H135.692H135.679H135.667H135.654H135.641H135.628H135.615H135.602H135.588H135.575H135.561H135.548H135.534H135.521H135.507H135.493H135.479H135.465H135.451H135.436H135.422H135.408H135.393H135.379H135.364H135.349H135.334H135.319H135.304H135.289H135.274H135.259H135.244H135.228H135.213H135.197H135.181H135.166H135.15H135.134H135.118H135.102H135.086H135.07H135.054H135.037H135.021H135.004H134.988H134.971H134.955H134.938H134.921H134.904H134.887H134.87H134.853H134.836H134.818H134.801H134.784H134.766H134.749H134.731H134.714H134.696H134.678H134.66H134.642H134.624H134.606H134.588H134.57H134.552H134.534H134.515H134.497H134.478H134.46H134.441H134.423H134.404H134.385H134.367H134.348H134.329H134.31H134.291H134.272H134.253H134.233H134.214H134.195H134.176H134.156H134.137H134.117H134.098H134.078H134.059H134.039H134.019H133.999H133.98H133.96H133.94H133.92H133.9H133.88H133.86H133.84H133.819H133.799H133.779H133.759H133.738H133.718H133.697H133.677H133.657H133.636H133.615H133.595H133.574H133.553H133.533H133.512H133.491H133.47H133.449H133.429H133.408H133.387H133.366H133.345H133.324H133.302H133.281H133.26H133.239H133.218H133.196H133.175H133.154H133.133H133.111H133.09H133.068H133.047H133.026H133.004H132.983H132.961H132.939H132.918H132.896H132.875H132.853H132.831H132.81H132.788H132.766H132.744H132.723H132.701H132.679H132.657H132.635H132.614H132.592H132.57H132.548H132.526H132.504H132.482H132.46H132.438H132.416H132.394H132.372H132.35H132.328H132.306H132.284H132.262H132.24H132.218H132.196H132.174H132.152H132.13H132.108H132.086H132.064H132.042H132.019H131.997H131.975H131.953H131.931H131.909H131.887H131.865H131.843H131.82H131.798H131.776H131.754H131.732H131.71H131.688H131.666H131.644H131.622H131.6H131.577H131.555H131.533H131.511H131.489H131.467H131.445H131.423H131.401H131.379H131.357H131.335H131.313H131.291H131.269H131.248H131.226H131.204H131.182H131.16H131.138H131.116H131.095H131.073H131.051H131.029H131.007H130.986H130.964H130.942H130.921H130.899H130.877H130.856H130.834H130.813H130.791H130.77H130.748H130.727H130.705H130.684H130.662H130.641H130.62H130.598H130.577H130.556H130.535H130.514H130.492H130.471H130.45H130.429H130.408H130.387H130.366H130.345H130.324H130.303H130.283H130.262H130.241H130.22H130.2H130.179H130.158H130.138H130.117H130.097H130.076H130.056H130.035H130.015H129.995H129.974H129.954H129.934H129.914H129.894H129.874H129.854H129.834H129.814H129.794H129.774H129.754H129.735H129.715H129.695H129.676H129.656H129.637H129.617H129.598H129.579H129.559H129.54H129.521H129.502H129.483H129.464H129.445H129.426H129.407H129.388H129.37H129.351H129.332H129.314H129.295H129.277H129.258H129.24H129.222H129.204H129.185H129.167H129.149H129.131H129.113H129.096H129.078H129.06H129.042H129.025H129.007H128.99H128.972H128.955H128.938H128.921H128.904H128.887H128.87H128.853H128.836H128.819H128.802H128.786H128.769H128.753H128.736H128.72H128.704H128.688H128.672H128.656H128.64H128.624H128.608H128.592H128.577H128.561H128.545H128.53H128.515H128.499H128.484H128.469H128.454H128.439H128.424H128.41H128.395H128.38H128.366H128.352H128.337H128.323H128.309H128.295H128.281H128.267H128.253H128.239H128.226H128.212H128.199H128.185H128.172H128.159H128.146H128.133H128.12H128.107H128.094H128.082H128.069H128.057H128.045H128.032H128.02H128.008H127.996H127.984H127.973H127.961H127.949H127.938H127.927H127.915H127.904H127.893H127.882H127.871H127.861H127.85H127.84H127.829H127.819H127.809H127.798H127.788H127.779H127.769H127.759H127.75H127.74H127.731H127.722H127.712H127.703H127.695H127.686H127.677H127.668H127.66H127.652H127.643H127.635H127.627H127.619H127.612H127.604H127.597H127.589H127.582H127.575H127.568H127.561H127.554H127.547C124.228 93.0849 120.149 92.3489 117.152 91.6028C116.924 91.4961 116.582 91.3761 116.204 91.248C116.06 91.1996 115.909 91.1492 115.751 91.0964C115.438 90.9922 115.099 90.879 114.74 90.7542C113.658 90.3779 112.474 89.92 111.578 89.3826L111.556 89.3692L111.532 89.3582C100.391 84.1588 92.9529 72.6395 92.9529 59.6226C92.9529 41.0308 107.823 26.1604 126.415 26.1604C144.457 26.1604 159.227 40.7544 159.863 58.7453H145.758C145.123 48.8815 136.71 40.6321 126.415 40.6321C115.573 40.6321 107.047 49.1578 107.047 60C107.047 67.3429 110.914 73.9404 117.135 77.051C117.924 77.4455 119.853 78.2163 121.789 78.6035C123.689 78.9835 126.367 79.3679 128.302 79.3679H128.309H128.315H128.322H128.329H128.336H128.344H128.351H128.359H128.366H128.374H128.382H128.389H128.397H128.406H128.414H128.422H128.431H128.439H128.448H128.456H128.465H128.474H128.483H128.492H128.502H128.511H128.521H128.53H128.54H128.549H128.559H128.569H128.579H128.589H128.6H128.61H128.621H128.631H128.642H128.652H128.663H128.674H128.685H128.696H128.707H128.719H128.73H128.742H128.753H128.765H128.777H128.788H128.8H128.812H128.824H128.837H128.849H128.861H128.874H128.886H128.899H128.912H128.924H128.937H128.95H128.963H128.976H128.99H129.003H129.016H129.03H129.043H129.057H129.071H129.084H129.098H129.112H129.126H129.14H129.154H129.169H129.183H129.197H129.212H129.226H129.241H129.256H129.271H129.285H129.3H129.315H129.33H129.346H129.361H129.376H129.391H129.407H129.422H129.438H129.454H129.469H129.485H129.501H129.517H129.533H129.549H129.565H129.581H129.597H129.614H129.63H129.646H129.663H129.679H129.696H129.713H129.729H129.746H129.763H129.78H129.797H129.814H129.831H129.848H129.866H129.883H129.9H129.917H129.935H129.952H129.97H129.988H130.005H130.023H130.041H130.059H130.076H130.094H130.112H130.13H130.148H130.167H130.185H130.203H130.221H130.24H130.258H130.276H130.295H130.313H130.332H130.351H130.369H130.388H130.407H130.425H130.444H130.463H130.482H130.501H130.52H130.539H130.558H130.577H130.596H130.616H130.635H130.654H130.674H130.693H130.712H130.732H130.751H130.771H130.79H130.81H130.829H130.849H130.869H130.889H130.908H130.928H130.948H130.968H130.988H131.008H131.028H131.047H131.068H131.088H131.108H131.128H131.148H131.168H131.188H131.208H131.229H131.249H131.269H131.289H131.31H131.33H131.35H131.371H131.391H131.412H131.432H131.453H131.473H131.494H131.514H131.535H131.555H131.576H131.597H131.617H131.638H131.659H131.679H131.7H131.721H131.742H131.762H131.783H131.804H131.825H131.845H131.866H131.887H131.908H131.929H131.95H131.971H131.992H132.012H132.033H132.054H132.075H132.096H132.117H132.138H132.159H132.18H132.201H132.222H132.243H132.264H132.285H132.306H132.327H132.348H132.369H132.39H132.411H132.432H132.453H132.474H132.495H132.516H132.537H132.558H132.579H132.6H132.621H132.642H132.663H132.684H132.705H132.726H132.747H132.768H132.789H132.81H132.831H132.851H132.872H132.893H132.914H132.935H132.956H132.977H132.998H133.019H133.039H133.06H133.081H133.102H133.123H133.143H133.164H133.185H133.206H133.226H133.247H133.268H133.288H133.309H133.33H133.35H133.371H133.391H133.412H133.433H133.453H133.474H133.494H133.514H133.535H133.555H133.576H133.596H133.616H133.637H133.657H133.677H133.697H133.718H133.738H133.758H133.778H133.798H133.818H133.838H133.858H133.878H133.898H133.918H133.938H133.958H133.978H133.997H134.017H134.037H134.057H134.076H134.096H134.115H134.135H134.155H134.174H134.193H134.213H134.232H134.252H134.271H134.29H134.309H134.328H134.348H134.367H134.386H134.405H134.424H134.443H134.461H134.48H134.499H134.518H134.537H134.555H134.574H134.592H134.611H134.629H134.648H134.666H134.684H134.703H134.721H134.739H134.757H134.775H134.793H134.811H134.829H134.847H134.865H134.883H134.9H134.918H134.936H134.953H134.971H134.988H135.006H135.023H135.04H135.057H135.075H135.092H135.109H135.126H135.143H135.159H135.176H135.193H135.21H135.226H135.243H135.259H135.276H135.292H135.308H135.325H135.341H135.357H135.373H135.389H135.405H135.421H135.436H135.452H135.468H135.483H135.499H135.514H135.53H135.545H135.56H135.575H135.59H135.605H135.62H135.635H135.65H135.665H135.679H135.694H135.708H135.723H135.737H135.751H135.765H135.78H135.794H135.807H135.821H135.835H135.849H135.862H135.876H135.889H135.903H135.916H135.929H135.942H135.956H135.968H135.981H135.994H136.007H136.019H136.032H136.044H136.057H136.069H136.081H136.093H136.105H136.117H136.129H136.141H136.153H136.164H136.176H136.187H136.198H136.209H136.221H136.232H136.243H136.253H136.264H136.275H136.285H136.296H136.306H136.316H136.326H136.336H136.346H136.356H136.366H136.376H136.385H136.395H136.404H136.413H136.422H136.431H136.44H136.449H136.458H136.467H136.475H136.484H136.492H136.5H136.508H136.516H136.524H136.532H136.54H136.547H136.555H136.562H136.569H136.576H136.583H136.59H136.597H136.604ZM41.1321 15.349H18.2359V0.5H56.4812V119.123H41.6321V15.849V15.349H41.1321ZM17.8585 39.2453V38.7453H17.3585H0.5V24.2736H32.3302V119.123H17.8585V39.2453Z" fill="white" stroke="black"/>
<path d="M207.292 11.3205C207.292 5.95955 211.95 1.63184 217.358 1.63184C223.132 1.63184 227.424 5.94814 227.424 11.3205C227.424 16.7165 223.108 21.3866 217.358 21.3866C211.974 21.3866 207.292 16.7048 207.292 11.3205ZM208.179 11.3205C208.179 16.5023 212.176 20.4998 217.358 20.4998C222.148 20.4998 226.537 16.5163 226.537 11.3205C226.537 6.13872 222.54 2.14126 217.358 2.14126C212.568 2.14126 208.179 6.12475 208.179 11.3205Z" fill="white" stroke="black"/>
<path d="M220.633 13.9626V14.0121L220.642 14.0607C220.821 14.9558 220.821 15.3937 220.821 15.6533V15.6607C220.821 15.6693 220.821 15.6783 220.821 15.6875C220.821 15.7001 220.821 15.7132 220.821 15.7268H219.787C219.747 15.4407 219.746 14.9237 219.746 13.9626C219.746 13.9505 219.746 13.9381 219.746 13.9253C219.746 13.5681 219.747 12.9488 219.363 12.4362C218.942 11.8752 218.181 11.5758 216.982 11.5758H215.472H214.972V12.0758V15.7268H214.085V6.53809H218.114C218.641 6.53809 219.384 6.62867 219.979 6.9857C220.536 7.31958 221.01 7.91126 221.01 9.05695C221.01 9.33976 220.943 9.60852 220.733 9.88903C220.513 10.1823 220.115 10.5164 219.4 10.8739L218.191 11.4784L219.502 11.8062C220.118 11.9602 220.357 12.2375 220.48 12.5445C220.626 12.9096 220.633 13.3712 220.633 13.9626ZM214.972 10.5664V11.0664H215.472H217.736C218.566 11.0664 219.209 10.8582 219.625 10.3729C220.027 9.90423 220.123 9.28144 220.123 8.6796C220.123 7.98485 219.879 7.42455 219.322 7.07635C218.819 6.762 218.132 6.67016 217.359 6.67016H215.472H214.972V7.17016V10.5664Z" fill="white" stroke="black"/>
</svg>
