<svg width="100%" height="100%" viewBox="0 0 228 120" fill="none" xmlns="http://www.w3.org/2000/svg">
<path d="M88.1805 118.286V110.393C88.3964 110.44 88.6172 110.493 88.8498 110.549C88.8964 110.56 88.9434 110.572 88.991 110.583C89.4313 110.689 89.9071 110.799 90.4232 110.873L90.4268 110.874C92.1111 111.154 93.819 111.439 95.6713 111.582C97.0655 111.72 98.3264 111.594 99.6477 111.461C99.7159 111.454 99.7844 111.447 99.8529 111.44L99.8635 111.439L99.8739 111.438C100.918 111.288 101.816 110.989 102.705 110.544L102.722 110.535L102.739 110.526C103.516 110.06 104.177 109.411 104.506 108.422L104.512 108.404L104.517 108.386C104.678 107.742 104.678 107.236 104.517 106.592L104.504 106.539L104.479 106.49C104.179 105.89 103.868 105.42 103.399 104.95C102.799 104.351 102.063 103.902 101.2 103.599C101.194 103.593 101.188 103.587 101.182 103.582C101.146 103.55 101.09 103.503 101.014 103.465C100.91 103.413 100.804 103.398 100.732 103.395L100.021 103.158C99.5347 102.853 98.9279 102.702 98.417 102.574C98.4043 102.571 98.3917 102.568 98.3791 102.565C96.8426 102.145 95.2064 101.596 93.8581 100.787L93.8416 100.777L93.8244 100.769C92.7667 100.24 91.8304 99.4423 90.8399 98.5933C89.909 97.6585 89.1067 96.4546 88.5701 95.1157C87.6273 92.5514 87.6277 89.577 88.5713 87.013C89.2512 85.2467 90.328 83.6456 91.7805 82.5892L91.7805 82.5893L91.7864 82.5849C93.9765 80.9422 96.5697 79.853 99.2891 79.581L99.2891 79.5812L99.3013 79.5797C101.512 79.3033 103.723 79.3029 105.933 79.5784C107.625 79.8603 109.293 80.139 110.959 80.5554L110.97 80.5583L110.982 80.5606L111.285 80.6212V87.8428C110.845 87.7654 110.397 87.6783 109.944 87.5903C108.802 87.3684 107.627 87.1401 106.474 87.0438C105.032 86.8999 103.45 86.9 102.009 87.0442L101.993 87.0458L101.976 87.0485L101.933 87.0557C101.147 87.1867 100.257 87.3348 99.4892 87.7688C99.4289 87.7848 99.3728 87.809 99.3213 87.8398C99.2885 87.8595 99.2594 87.8812 99.2355 87.9009L99.1567 87.9403C98.8007 88.1183 98.4718 88.4477 98.3348 88.585C98.3303 88.5895 98.326 88.5938 98.3219 88.5979C98.2153 88.7045 98.1205 88.847 98.059 88.9396C98.0552 88.9453 98.0515 88.9507 98.048 88.956C97.968 89.0761 97.9269 89.134 97.8991 89.1617L97.8556 89.2053L97.8239 89.2581C97.3095 90.1154 97.316 90.9869 97.6474 91.8155L97.6551 91.8348L97.6644 91.8534C98.1094 92.7434 98.7508 93.5879 99.7768 93.9337L106.535 96.468L106.543 96.4713L106.552 96.4742C108.187 97.019 109.394 97.692 110.607 98.7701C111.832 99.8592 112.761 101.062 113.289 102.514L113.291 102.522L113.294 102.529C114.373 105.227 114.376 108.339 113.291 111.188L113.287 111.197L113.284 111.207C112.754 112.799 111.684 114.28 110.323 115.505L110.321 115.507C108.83 116.862 107.067 117.812 105.163 118.356L105.153 118.359L105.143 118.363C103.5 118.91 101.851 119.186 100.047 119.325C98.259 119.463 96.4649 119.326 94.6259 119.184L94.6232 119.184C92.671 119.045 90.5774 118.766 88.4833 118.347L88.1805 118.286ZM99.158 87.9729C99.1581 87.9728 99.1588 87.9721 99.1601 87.971C99.1586 87.9724 99.158 87.973 99.158 87.9729Z" fill="white" stroke="black"/>
<path d="M49.8257 80.8541V90.1989C46.7945 88.8064 43.4035 88.1884 40.1275 88.5951C38.0406 88.7474 36.1205 89.6405 34.5114 90.9548C32.7125 92.3078 31.5374 94.3875 30.9537 96.5764L30.9496 96.5917L30.9465 96.6072C30.5117 98.7815 30.504 101.134 31.2479 103.217L31.2477 103.217L31.2521 103.228C31.9887 105.144 33.1688 106.765 34.7852 108.088L34.7851 108.088L34.7894 108.091C37.0179 109.874 39.9651 110.602 42.74 110.456C45.2775 110.322 47.6871 109.696 49.9667 108.695V118.037L49.3425 118.216L49.3321 118.219L49.3218 118.222C44.7634 119.742 40.0677 119.881 35.5052 118.775C31.2442 117.675 27.3952 115.201 24.6454 111.768C19.1457 104.197 19.2864 94.0231 25.055 86.7346C26.9823 84.5343 29.3195 82.7482 31.9284 81.5116C34.6788 80.2746 37.4329 79.7221 40.3402 79.5835C43.5229 79.4453 46.7048 79.8603 49.7479 80.8282L49.8257 80.8541Z" fill="white" stroke="black"/>
<path d="M64.6357 118.62V80.1484H73.644V118.62H64.6357Z" fill="white" stroke="black"/>
<path d="M1.87596 33.928L1.89054 33.9155L1.90411 33.9019C2.66052 33.1455 3.80373 32.6387 4.93368 32.6387C6.04494 32.6387 7.0614 33.1309 7.99132 33.928C8.86478 34.6767 9.36736 35.8056 9.36736 36.9316V47.8991C9.23224 49.0776 8.84415 50.0589 7.99132 50.7899C7.09278 51.5602 6.07983 51.9383 4.93368 51.9383C3.78753 51.9383 2.77449 51.5602 1.87596 50.7899C1.02315 50.0589 0.63513 49.0776 0.5 47.8991V36.9597C0.637306 35.7602 1.0331 34.6505 1.87596 33.928Z" fill="white" stroke="black"/>
<path d="M29.083 20.3977L29.0976 20.3852L29.1111 20.3716C29.8675 19.6152 31.0108 19.1084 32.1407 19.1084C33.252 19.1084 34.2685 19.6006 35.1984 20.3977C36.0719 21.1464 36.5744 22.2753 36.5744 23.4014V47.902C36.4393 49.0805 36.0512 50.0617 35.1984 50.7928C34.2999 51.563 33.2869 51.9411 32.1407 51.9411C30.9946 51.9411 29.9815 51.563 29.083 50.7928C28.2302 50.0617 27.8422 49.0805 27.707 47.902V23.4295C27.8443 22.2299 28.2401 21.1202 29.083 20.3977Z" fill="white" stroke="black"/>
<path d="M56.1484 1.78931L56.163 1.77682L56.1766 1.76324C56.9329 1.0068 58.0761 0.5 59.2061 0.5C60.3173 0.5 61.3337 0.992198 62.2637 1.78931C63.1371 2.53803 63.6397 3.66691 63.6397 4.79296V57.7694C63.5045 58.9479 63.1165 59.9292 62.2637 60.6602C61.3651 61.4304 60.3522 61.8086 59.2061 61.8086C58.0599 61.8086 57.0469 61.4304 56.1484 60.6602C55.2956 59.9292 54.9076 58.9479 54.7725 57.7694V4.82106C54.9098 3.62152 55.3055 2.5118 56.1484 1.78931Z" fill="white" stroke="black"/>
<path d="M83.3506 20.3977L83.3651 20.3852L83.3787 20.3716C84.1351 19.6152 85.2783 19.1084 86.4083 19.1084C87.5195 19.1084 88.536 19.6006 89.466 20.3977L89.7914 20.0181L89.466 20.3977C90.3394 21.1464 90.8419 22.2753 90.8419 23.4014V47.902C90.7068 49.0805 90.3188 50.0617 89.466 50.7928C88.5674 51.563 87.5544 51.9411 86.4083 51.9411C85.2621 51.9411 84.2491 51.563 83.3506 50.7928C82.4978 50.0617 82.1097 49.0805 81.9746 47.902V23.4295C82.1119 22.2299 82.5077 21.1202 83.3506 20.3977Z" fill="white" stroke="black"/>
<path d="M110.558 33.928L110.572 33.9155L110.586 33.9019C111.342 33.1455 112.485 32.6387 113.615 32.6387C114.726 32.6387 115.743 33.1309 116.673 33.928C117.546 34.6767 118.049 35.8056 118.049 36.9316V47.8991C117.914 49.0776 117.526 50.0589 116.673 50.7899C115.774 51.5602 114.761 51.9383 113.615 51.9383C112.469 51.9383 111.456 51.5602 110.558 50.7899C109.705 50.0589 109.317 49.0776 109.182 47.8991V36.9597C109.319 35.7602 109.715 34.6505 110.558 33.928Z" fill="white" stroke="black"/>
<path d="M137.765 20.3977L137.779 20.3852L137.793 20.3716C138.549 19.6152 139.692 19.1084 140.822 19.1084C141.934 19.1084 142.95 19.6006 143.88 20.3977C144.754 21.1464 145.256 22.2753 145.256 23.4014V47.902C145.121 49.0805 144.733 50.0617 143.88 50.7928C142.982 51.563 141.969 51.9411 140.822 51.9411C139.676 51.9411 138.663 51.563 137.765 50.7928C136.912 50.0617 136.524 49.0804 136.389 47.902V23.4295C136.526 22.2299 136.922 21.1202 137.765 20.3977Z" fill="white" stroke="black"/>
<path d="M164.83 1.78931L164.845 1.77682L164.858 1.76324C165.615 1.00679 166.758 0.5 167.888 0.5C168.999 0.5 170.015 0.992206 170.945 1.78931C171.819 2.53801 172.321 3.66689 172.321 4.79296V57.7694C172.186 58.9479 171.798 59.9292 170.945 60.6602C170.047 61.4304 169.034 61.8086 167.888 61.8086C166.742 61.8086 165.729 61.4304 164.83 60.6602C163.977 59.9292 163.589 58.9479 163.454 57.7694V4.82106C163.591 3.62154 163.987 2.51181 164.83 1.78931Z" fill="white" stroke="black"/>
<path d="M192.032 20.3977L192.047 20.3852L192.06 20.3716C192.817 19.6152 193.96 19.1084 195.09 19.1084C196.201 19.1084 197.218 19.6006 198.148 20.3977L198.473 20.0181L198.148 20.3977C199.021 21.1464 199.524 22.2753 199.524 23.4014V47.902C199.388 49.0805 199 50.0617 198.148 50.7928C197.249 51.563 196.236 51.9411 195.09 51.9411C193.944 51.9411 192.931 51.563 192.032 50.7928C191.179 50.0617 190.791 49.0804 190.656 47.902V23.4295C190.794 22.2299 191.189 21.1202 192.032 20.3977Z" fill="white" stroke="black"/>
<path d="M219.098 33.928L219.112 33.9155L219.126 33.9019C219.882 33.1455 221.025 32.6387 222.155 32.6387C223.267 32.6387 224.283 33.1309 225.213 33.928C226.087 34.6767 226.589 35.8056 226.589 36.9316V47.8991C226.454 49.0776 226.066 50.0589 225.213 50.7899C224.315 51.5602 223.302 51.9383 222.155 51.9383C221.009 51.9383 219.996 51.5602 219.098 50.7899C218.245 50.0589 217.857 49.0776 217.722 47.8991V36.9597C217.859 35.7602 218.255 34.6505 219.098 33.928Z" fill="white" stroke="black"/>
<path d="M153.854 80.8541V90.1989C150.823 88.8064 147.432 88.1884 144.156 88.5951C142.069 88.7474 140.149 89.6405 138.54 90.9548C136.741 92.3078 135.566 94.3875 134.982 96.5764L134.978 96.5917L134.975 96.6072C134.54 98.7815 134.532 101.134 135.276 103.217L135.276 103.217L135.28 103.228C136.017 105.144 137.197 106.765 138.814 108.088L138.814 108.088L138.818 108.091C141.046 109.874 143.993 110.602 146.768 110.456C149.306 110.322 151.715 109.696 153.995 108.695V118.037L153.371 118.216L153.36 118.219L153.35 118.222C148.792 119.742 144.096 119.881 139.533 118.775C135.272 117.675 131.423 115.201 128.674 111.768C123.174 104.197 123.315 94.0231 129.083 86.7346C131.011 84.5343 133.348 82.7482 135.957 81.5116C138.707 80.2746 141.461 79.7221 144.368 79.5835C147.551 79.4453 150.733 79.8603 153.776 80.8282L153.854 80.8541Z" fill="white" stroke="black"/>
<path d="M190.067 118.771L190.056 118.773L190.046 118.775C184.14 120.148 177.949 118.64 173.126 114.919C168.322 111.213 165.568 105.442 165.427 99.3844C165.568 92.0993 169.695 85.3567 176.025 81.7776C182.489 78.2027 190.329 78.4773 196.52 82.3297L196.52 82.3297L196.528 82.3346C203.674 86.5949 207.251 94.703 205.877 102.822C204.362 110.939 198.175 117.259 190.067 118.771ZM186.969 88.5973C184.157 88.3013 181.207 89.1877 178.993 90.9597C176.776 92.7329 175.298 95.3911 175.002 98.2053C174.706 101.017 175.592 103.967 177.364 106.182C179.137 108.399 181.795 109.877 184.609 110.173C187.421 110.469 190.371 109.583 192.586 107.811C194.802 106.038 196.28 103.38 196.576 100.565C196.872 97.7533 195.986 94.8035 194.214 92.5884C192.441 90.3719 189.783 88.8936 186.969 88.5973Z" fill="white" stroke="black"/>
</svg>
