<svg width="100%" height="100%" viewBox="0 0 300 300" fill="none" xmlns="http://www.w3.org/2000/svg">
<mask id="path-1-inside-1" fill="white">
<path d="M287.774 251.244C291.647 251.244 295.463 251.244 299.336 251.244C299.336 267.306 299.336 283.368 299.336 299.43C295.463 299.43 291.647 299.43 287.831 299.43C287.774 283.368 287.831 267.306 287.774 251.244ZM246.821 253.579C250.694 251.87 255.023 251.244 259.238 251.244C265.56 251.244 271.882 251.244 278.262 251.244C278.262 254.092 278.262 256.883 278.262 259.73C272.11 259.73 266.016 259.73 259.864 259.73C256.561 259.73 252.915 260.528 250.637 263.148C248.757 265.255 248.188 268.103 247.903 270.837C258.041 270.837 268.123 270.837 278.262 270.837C278.262 273.628 278.262 276.419 278.262 279.21C268.123 279.21 257.985 279.21 247.846 279.21C247.96 282.343 248.359 285.931 250.751 288.21C253.143 290.545 256.674 290.887 259.864 291.001C266.016 291.058 272.167 291.001 278.262 291.001C278.262 293.792 278.262 296.583 278.262 299.373C271.028 299.373 263.794 299.43 256.561 299.373C251.548 299.317 246.479 297.893 242.606 294.589C237.992 290.887 235.885 284.906 235.486 279.153C235.144 273.514 235.543 267.591 237.878 262.351C239.644 258.477 242.891 255.288 246.821 253.579ZM151.985 251.244C155.972 251.244 159.902 251.187 163.889 251.244C167.819 263.547 171.863 275.85 175.85 288.153C179.154 275.85 182.572 263.547 185.932 251.244C190.261 251.187 194.59 251.244 198.976 251.244C202.849 263.547 206.722 275.793 210.652 288.096C214.411 275.85 218.114 263.547 221.816 251.244C225.575 251.244 229.391 251.244 233.151 251.244C227.797 267.306 222.442 283.368 217.031 299.43C212.532 299.43 208.032 299.43 203.532 299.43C199.83 287.526 196.185 275.565 192.425 263.661C189.179 275.565 185.989 287.526 182.742 299.43C178.243 299.43 173.8 299.43 169.3 299.43C163.547 283.368 157.738 267.306 151.985 251.244ZM130.341 261.04C127.778 267.135 125.271 273.23 122.765 279.324C127.891 279.324 133.018 279.324 138.144 279.324C135.638 273.23 132.961 267.135 130.341 261.04ZM124.873 251.244C128.803 251.244 132.676 251.244 136.606 251.244C144.011 267.306 151.415 283.368 158.82 299.43C154.719 299.487 150.618 299.43 146.517 299.43C144.865 295.614 143.327 291.798 141.732 287.982C134.214 287.925 126.695 287.982 119.177 287.982C117.639 291.798 116.101 295.614 114.506 299.43C110.633 299.43 106.703 299.43 102.83 299.43C110.177 283.368 117.582 267.306 124.873 251.244ZM55.4403 251.244C59.0857 251.244 62.731 251.244 66.3194 251.244C66.3764 261.04 66.2625 270.894 66.3764 280.691C66.4903 283.824 66.7751 287.355 69.2243 289.634C71.9583 292.083 75.8315 292.14 79.3059 292.083C82.3817 292.026 85.8562 291.399 87.7927 288.779C89.7863 286.045 89.7863 282.4 89.8432 279.153C89.8432 269.869 89.8432 260.528 89.8432 251.244C93.5455 251.244 97.1909 251.244 100.893 251.244C100.893 261.097 100.893 271.008 100.893 280.862C100.836 284.052 100.722 287.298 99.5831 290.317C98.5579 293.165 96.0517 295.216 93.5455 296.753C88.761 299.487 83.0652 300 77.5972 300C72.2431 299.886 66.6612 299.26 62.0475 296.355C59.7692 294.874 57.6048 292.994 56.6934 290.374C55.7251 287.697 55.5543 284.792 55.5543 281.944C55.4403 271.749 55.4973 261.496 55.4403 251.244ZM0.0767597 251.244C3.77906 251.244 7.4244 251.244 11.1267 251.244C11.1267 257.737 11.0697 264.23 11.1267 270.78C19.2148 270.723 27.3598 270.78 35.4479 270.78C35.4479 264.287 35.4479 257.794 35.4479 251.301C39.1502 251.301 42.7956 251.301 46.4979 251.301C46.4979 267.363 46.4979 283.425 46.4979 299.487C42.7956 299.544 39.1502 299.487 35.4479 299.487C35.391 292.766 35.4479 286.102 35.4479 279.381C27.3598 279.381 19.2148 279.381 11.1267 279.381C11.1267 286.045 11.1267 292.766 11.1267 299.43C7.48136 299.487 3.77906 299.43 0.133717 299.487C0.0198004 283.368 0.0767597 267.306 0.0767597 251.244ZM178.926 196.108C178.3 194.513 180.065 194.342 181.148 194.456C211.449 195.31 241.694 196.564 271.996 197.532C269.262 202.943 265.446 207.841 261.345 212.341C254.282 219.86 244.656 225.783 234.119 225.897C227.683 226.125 221.816 222.992 216.291 220.201C204.785 214.05 193.906 206.702 183.198 199.241C181.774 198.215 180.236 197.304 178.926 196.108ZM27.0751 197.532C57.7187 196.621 88.4193 195.253 119.063 194.342C120.601 194.228 120.658 196.336 119.348 196.791C107.728 205.05 95.8808 213.195 83.2361 219.916C77.882 222.65 72.3 225.612 66.1485 225.669C58.8579 226.068 51.795 223.22 45.8713 219.119C37.9541 213.594 31.8596 205.848 27.0751 197.532ZM2.52597 116.48C3.77906 116.936 4.97518 117.505 6.05739 118.189C26.5624 129.296 46.9535 140.63 67.1168 152.25C85.1726 162.73 103.115 173.324 120.487 184.887C121.056 185.286 121.569 185.798 121.968 186.368C121.626 187.051 121.113 187.792 120.202 187.564C97.9883 187.735 75.7745 187.678 53.5607 187.678C41.7134 187.45 29.866 183.349 20.6388 175.831C10.2723 167.572 2.86772 155.553 0.760261 142.453C-0.663699 133.909 -0.0941159 124.91 2.52597 116.48ZM231.271 152.649C252.858 140.175 274.616 127.986 296.602 116.138C300.419 127.701 300.02 140.459 295.976 151.908C292.444 161.477 286.179 169.964 278.205 176.229C269.775 182.894 259.124 186.767 248.415 187.393C237.024 187.507 225.632 187.45 214.24 187.507C202.051 187.45 189.862 187.621 177.673 187.393C177.331 186.539 177.502 185.571 178.357 185.115C195.558 173.609 213.386 163.072 231.271 152.649ZM253.314 39.8709C259.522 45.6237 264.763 52.4587 269.148 59.6924C274.502 68.6349 278.319 78.9444 277.692 89.4817C277.293 100.304 271.996 110.499 264.421 118.018C249.896 131.973 232.695 142.567 215.494 152.819C201.368 161.078 186.9 168.825 172.262 176.172C171.522 176.742 170.439 176.514 170.098 175.603C170.269 174.179 171.066 172.983 171.636 171.673C182.515 148.263 194.988 125.65 208.602 103.721C222.329 81.6784 237.081 60.1481 253.314 39.8709ZM28.8977 61.9708C33.5114 53.8827 39.2642 46.3642 45.8713 39.8139C60.1679 57.6989 73.2683 76.4952 85.6283 95.7471C101.748 120.98 116.386 147.238 128.86 174.464C129.828 175.546 128.575 177.198 127.322 176.343C106.589 166.034 86.2549 154.87 66.7181 142.453C54.8708 134.821 43.2513 126.676 33.3405 116.594C26.3916 109.132 21.721 99.2216 21.4362 88.9121C20.9805 79.4001 24.3411 70.1728 28.8977 61.9708ZM171.465 0.0569576C180.122 1.59484 189.065 2.79096 196.811 7.17676C206.95 12.8726 214.354 22.8973 217.202 34.1181C218.398 38.8456 218.284 43.801 218.114 48.6425C216.974 64.3061 210.766 79.0583 204.216 93.127C192.254 118.075 177.616 141.656 162.237 164.553C161.098 166.034 160.358 167.856 158.877 168.939C158.535 168.825 157.852 168.597 157.567 168.483C155.972 153.047 154.89 137.498 154.263 121.948C153.523 99.5633 153.694 77.0648 156.314 54.794C157.909 41.5797 160.187 28.4223 164.402 15.7775C166.168 10.3095 168.275 4.84147 171.465 0.0569576ZM111.544 3.30359C116.898 1.93659 122.31 0.854376 127.778 0C129.828 2.90488 131.252 6.15151 132.619 9.4551C136.663 19.6507 139.169 30.3588 140.992 41.124C144.808 64.0213 145.549 87.3173 145.264 110.556C144.865 129.922 143.555 149.231 141.618 168.483C140.935 168.939 139.91 169.11 139.454 168.198C133.189 159.199 127.265 149.972 121.455 140.63C110.234 122.518 99.5831 103.949 91.0963 84.4124C86.9953 74.9573 83.5778 65.1604 81.7551 55.0218C80.1033 44.9972 80.616 34.1751 85.4574 25.0048C90.6407 14.5814 100.267 6.4363 111.544 3.30359Z"/>
</mask>
<path d="M287.774 251.244C291.647 251.244 295.463 251.244 299.336 251.244C299.336 267.306 299.336 283.368 299.336 299.43C295.463 299.43 291.647 299.43 287.831 299.43C287.774 283.368 287.831 267.306 287.774 251.244ZM246.821 253.579C250.694 251.87 255.023 251.244 259.238 251.244C265.56 251.244 271.882 251.244 278.262 251.244C278.262 254.092 278.262 256.883 278.262 259.73C272.11 259.73 266.016 259.73 259.864 259.73C256.561 259.73 252.915 260.528 250.637 263.148C248.757 265.255 248.188 268.103 247.903 270.837C258.041 270.837 268.123 270.837 278.262 270.837C278.262 273.628 278.262 276.419 278.262 279.21C268.123 279.21 257.985 279.21 247.846 279.21C247.96 282.343 248.359 285.931 250.751 288.21C253.143 290.545 256.674 290.887 259.864 291.001C266.016 291.058 272.167 291.001 278.262 291.001C278.262 293.792 278.262 296.583 278.262 299.373C271.028 299.373 263.794 299.43 256.561 299.373C251.548 299.317 246.479 297.893 242.606 294.589C237.992 290.887 235.885 284.906 235.486 279.153C235.144 273.514 235.543 267.591 237.878 262.351C239.644 258.477 242.891 255.288 246.821 253.579ZM151.985 251.244C155.972 251.244 159.902 251.187 163.889 251.244C167.819 263.547 171.863 275.85 175.85 288.153C179.154 275.85 182.572 263.547 185.932 251.244C190.261 251.187 194.59 251.244 198.976 251.244C202.849 263.547 206.722 275.793 210.652 288.096C214.411 275.85 218.114 263.547 221.816 251.244C225.575 251.244 229.391 251.244 233.151 251.244C227.797 267.306 222.442 283.368 217.031 299.43C212.532 299.43 208.032 299.43 203.532 299.43C199.83 287.526 196.185 275.565 192.425 263.661C189.179 275.565 185.989 287.526 182.742 299.43C178.243 299.43 173.8 299.43 169.3 299.43C163.547 283.368 157.738 267.306 151.985 251.244ZM130.341 261.04C127.778 267.135 125.271 273.23 122.765 279.324C127.891 279.324 133.018 279.324 138.144 279.324C135.638 273.23 132.961 267.135 130.341 261.04ZM124.873 251.244C128.803 251.244 132.676 251.244 136.606 251.244C144.011 267.306 151.415 283.368 158.82 299.43C154.719 299.487 150.618 299.43 146.517 299.43C144.865 295.614 143.327 291.798 141.732 287.982C134.214 287.925 126.695 287.982 119.177 287.982C117.639 291.798 116.101 295.614 114.506 299.43C110.633 299.43 106.703 299.43 102.83 299.43C110.177 283.368 117.582 267.306 124.873 251.244ZM55.4403 251.244C59.0857 251.244 62.731 251.244 66.3194 251.244C66.3764 261.04 66.2625 270.894 66.3764 280.691C66.4903 283.824 66.7751 287.355 69.2243 289.634C71.9583 292.083 75.8315 292.14 79.3059 292.083C82.3817 292.026 85.8562 291.399 87.7927 288.779C89.7863 286.045 89.7863 282.4 89.8432 279.153C89.8432 269.869 89.8432 260.528 89.8432 251.244C93.5455 251.244 97.1909 251.244 100.893 251.244C100.893 261.097 100.893 271.008 100.893 280.862C100.836 284.052 100.722 287.298 99.5831 290.317C98.5579 293.165 96.0517 295.216 93.5455 296.753C88.761 299.487 83.0652 300 77.5972 300C72.2431 299.886 66.6612 299.26 62.0475 296.355C59.7692 294.874 57.6048 292.994 56.6934 290.374C55.7251 287.697 55.5543 284.792 55.5543 281.944C55.4403 271.749 55.4973 261.496 55.4403 251.244ZM0.0767597 251.244C3.77906 251.244 7.4244 251.244 11.1267 251.244C11.1267 257.737 11.0697 264.23 11.1267 270.78C19.2148 270.723 27.3598 270.78 35.4479 270.78C35.4479 264.287 35.4479 257.794 35.4479 251.301C39.1502 251.301 42.7956 251.301 46.4979 251.301C46.4979 267.363 46.4979 283.425 46.4979 299.487C42.7956 299.544 39.1502 299.487 35.4479 299.487C35.391 292.766 35.4479 286.102 35.4479 279.381C27.3598 279.381 19.2148 279.381 11.1267 279.381C11.1267 286.045 11.1267 292.766 11.1267 299.43C7.48136 299.487 3.77906 299.43 0.133717 299.487C0.0198004 283.368 0.0767597 267.306 0.0767597 251.244ZM178.926 196.108C178.3 194.513 180.065 194.342 181.148 194.456C211.449 195.31 241.694 196.564 271.996 197.532C269.262 202.943 265.446 207.841 261.345 212.341C254.282 219.86 244.656 225.783 234.119 225.897C227.683 226.125 221.816 222.992 216.291 220.201C204.785 214.05 193.906 206.702 183.198 199.241C181.774 198.215 180.236 197.304 178.926 196.108ZM27.0751 197.532C57.7187 196.621 88.4193 195.253 119.063 194.342C120.601 194.228 120.658 196.336 119.348 196.791C107.728 205.05 95.8808 213.195 83.2361 219.916C77.882 222.65 72.3 225.612 66.1485 225.669C58.8579 226.068 51.795 223.22 45.8713 219.119C37.9541 213.594 31.8596 205.848 27.0751 197.532ZM2.52597 116.48C3.77906 116.936 4.97518 117.505 6.05739 118.189C26.5624 129.296 46.9535 140.63 67.1168 152.25C85.1726 162.73 103.115 173.324 120.487 184.887C121.056 185.286 121.569 185.798 121.968 186.368C121.626 187.051 121.113 187.792 120.202 187.564C97.9883 187.735 75.7745 187.678 53.5607 187.678C41.7134 187.45 29.866 183.349 20.6388 175.831C10.2723 167.572 2.86772 155.553 0.760261 142.453C-0.663699 133.909 -0.0941159 124.91 2.52597 116.48ZM231.271 152.649C252.858 140.175 274.616 127.986 296.602 116.138C300.419 127.701 300.02 140.459 295.976 151.908C292.444 161.477 286.179 169.964 278.205 176.229C269.775 182.894 259.124 186.767 248.415 187.393C237.024 187.507 225.632 187.45 214.24 187.507C202.051 187.45 189.862 187.621 177.673 187.393C177.331 186.539 177.502 185.571 178.357 185.115C195.558 173.609 213.386 163.072 231.271 152.649ZM253.314 39.8709C259.522 45.6237 264.763 52.4587 269.148 59.6924C274.502 68.6349 278.319 78.9444 277.692 89.4817C277.293 100.304 271.996 110.499 264.421 118.018C249.896 131.973 232.695 142.567 215.494 152.819C201.368 161.078 186.9 168.825 172.262 176.172C171.522 176.742 170.439 176.514 170.098 175.603C170.269 174.179 171.066 172.983 171.636 171.673C182.515 148.263 194.988 125.65 208.602 103.721C222.329 81.6784 237.081 60.1481 253.314 39.8709ZM28.8977 61.9708C33.5114 53.8827 39.2642 46.3642 45.8713 39.8139C60.1679 57.6989 73.2683 76.4952 85.6283 95.7471C101.748 120.98 116.386 147.238 128.86 174.464C129.828 175.546 128.575 177.198 127.322 176.343C106.589 166.034 86.2549 154.87 66.7181 142.453C54.8708 134.821 43.2513 126.676 33.3405 116.594C26.3916 109.132 21.721 99.2216 21.4362 88.9121C20.9805 79.4001 24.3411 70.1728 28.8977 61.9708ZM171.465 0.0569576C180.122 1.59484 189.065 2.79096 196.811 7.17676C206.95 12.8726 214.354 22.8973 217.202 34.1181C218.398 38.8456 218.284 43.801 218.114 48.6425C216.974 64.3061 210.766 79.0583 204.216 93.127C192.254 118.075 177.616 141.656 162.237 164.553C161.098 166.034 160.358 167.856 158.877 168.939C158.535 168.825 157.852 168.597 157.567 168.483C155.972 153.047 154.89 137.498 154.263 121.948C153.523 99.5633 153.694 77.0648 156.314 54.794C157.909 41.5797 160.187 28.4223 164.402 15.7775C166.168 10.3095 168.275 4.84147 171.465 0.0569576ZM111.544 3.30359C116.898 1.93659 122.31 0.854376 127.778 0C129.828 2.90488 131.252 6.15151 132.619 9.4551C136.663 19.6507 139.169 30.3588 140.992 41.124C144.808 64.0213 145.549 87.3173 145.264 110.556C144.865 129.922 143.555 149.231 141.618 168.483C140.935 168.939 139.91 169.11 139.454 168.198C133.189 159.199 127.265 149.972 121.455 140.63C110.234 122.518 99.5831 103.949 91.0963 84.4124C86.9953 74.9573 83.5778 65.1604 81.7551 55.0218C80.1033 44.9972 80.616 34.1751 85.4574 25.0048C90.6407 14.5814 100.267 6.4363 111.544 3.30359Z" fill="white" stroke="black" stroke-width="2" mask="url(#path-1-inside-1)"/>
</svg>
