<svg width="100%" height="100%" viewBox="0 0 383 120" fill="none" xmlns="http://www.w3.org/2000/svg">
<path d="M38.0895 64.6741H37.793L37.6508 64.9344L15.7759 104.968H0.85395L24.6548 62.5565L24.931 62.0643L24.4092 61.8495C18.858 59.5636 14.2108 56.312 10.9488 51.7019C7.68878 47.0944 5.78409 41.0901 5.78409 33.2476C5.78409 22.3821 10.0148 14.2151 16.7185 8.7546C23.4348 3.28379 32.6719 0.5 42.7131 0.5H62.9092V104.968H50.0384V65.1741V64.6741H49.5384H38.0895ZM50.0384 9.68804V9.18804H49.5384H42.2728C36.5773 9.18804 30.9388 10.6955 26.7191 14.4906C22.4892 18.2949 19.7557 24.334 19.7557 33.2476C19.7557 41.8238 22.265 47.5944 26.3938 51.2109C30.5101 54.8163 36.1524 56.2063 42.2728 56.2063H49.5384H50.0384V55.7063V9.68804Z" fill="white" stroke="black"/>
<path d="M116.75 62.7527V31.7664H129.621V104.968H116.75V72.2205V71.7205H116.25H95.3341H94.8341V72.2205V104.968H81.7432V31.7664H94.8341V62.7527V63.2527H95.3341H116.25H116.75V62.7527ZM153.519 37.4316V31.5462H194.571V95.7801V96.2801H195.071H201.837V119.5H190.287V105.468V104.968H189.787H151.037H150.537V105.468V119.5H138.767V96.5003H143.772H144.075L144.215 96.2313C152.426 80.4738 153.519 57.2321 153.519 37.4316ZM165.569 40.0141H165.069V40.5141V41.8353C165.069 57.4806 164.181 80.268 156.751 95.7843L156.408 96.5003H157.202H181.421H181.921V96.0003V40.5141V40.0141H181.421H181.201H165.569ZM242.408 97.1609C250.076 97.1609 256.319 94.5227 259.986 92.3384L262.932 100.196C257.126 103.751 249.638 105.849 240.867 105.849C231.625 105.849 224.232 102.808 219.143 97.0188C214.046 91.2204 211.204 82.6006 211.204 71.3398C211.204 59.383 213.235 49.1946 217.598 42.0123C221.942 34.8622 228.609 30.6655 238.005 30.6655C245.494 30.6655 251.605 32.9396 255.861 38.2666C260.135 43.6162 262.604 52.1247 262.604 64.7343V70.6196H225.455H224.955V71.1196C224.955 79.5289 226.391 86.0291 229.304 90.4409C232.239 94.8864 236.64 97.1609 242.408 97.1609ZM224.956 61.3983L224.921 61.9315H225.455H248.793H249.293V61.4315C249.293 55.0314 248.689 49.4446 247.026 45.4416C246.191 43.4338 245.08 41.7976 243.62 40.6629C242.152 39.5227 240.363 38.9132 238.225 38.9131L238.212 38.9134C235.926 38.9705 233.987 39.5727 232.358 40.6745C230.732 41.7742 229.443 43.3525 228.424 45.3209C226.393 49.2423 225.397 54.7784 224.956 61.3983ZM291.925 68.2046L291.181 67.0609L291.928 65.8829L313.578 31.7664H326.699L304.736 66.0056L304.561 66.2781L304.738 66.5491L329.993 105.188H315.996L291.925 68.2046ZM291.006 67.3361V68.4774V104.968H277.915V31.7664H291.006V65.615V66.7925V67.3361ZM333.178 68.2572C333.178 56.6582 335.914 47.2068 341.24 40.6646C346.553 34.1378 354.492 30.4453 365.043 30.4453C372.883 30.4453 377.394 32.0906 381.219 34.173L379.442 43.8502C375.667 41.3423 370.358 39.1334 364.823 39.1334C359.582 39.1334 355.135 41.5377 352.019 46.324C348.919 51.0872 347.15 58.1868 347.15 67.5966C347.15 76.9857 348.473 84.4076 351.285 89.499C354.12 94.6301 358.465 97.381 364.383 97.381C370.935 97.381 376.116 95.3828 379.346 93.0549L382.272 100.663C377.59 103.977 372.037 105.849 363.942 105.849C354.257 105.849 346.595 102.752 341.343 96.5577C336.081 90.3503 333.178 80.9605 333.178 68.2572Z" fill="white" stroke="black"/>
</svg>
