<svg width="100%" height="100%" viewBox="0 0 518 120" fill="none" xmlns="http://www.w3.org/2000/svg">
<mask id="path-1-inside-1" fill="white">
<path d="M504.294 34.6981C502.606 34.6981 501.08 36.1689 501.08 37.912V68.089H463.005V37.912C463.005 36.2234 461.534 34.6981 459.791 34.6981H449.387C447.699 34.6981 446.391 36.1689 446.391 37.912V115.533C446.391 117.222 447.644 118.747 449.387 118.747H459.791C461.48 118.747 463.005 117.276 463.005 115.533V83.2319H501.08V115.533C501.08 117.222 502.551 118.747 504.294 118.747H514.698C516.169 118.747 517.694 117.276 517.694 115.533V37.912C517.694 36.2234 516.223 34.6981 514.698 34.6981H504.294ZM423.459 0.0544911C425.365 0.0544911 426.891 1.52519 426.891 3.26827V12.8552C426.891 14.5438 425.42 16.069 423.459 16.069H358.584C356.895 16.069 355.37 14.5983 355.37 12.8552V3.26827C355.37 1.57966 356.841 0.0544911 358.584 0.0544911H423.459ZM3.2138 0.0544911C1.52519 0.0544911 0 1.52519 0 3.26827V83.2319C0 104.694 6.80889 118.965 33.6087 118.965H36.8225C75.1158 118.965 80.8352 93.636 80.8352 80.6718C80.8352 69.1784 76.5865 41.9428 38.5111 41.9428H17.2674V16.0145H66.4004C68.089 16.0145 69.6142 14.5438 69.6142 12.8007V3.21381C69.6142 1.52521 68.1434 0 66.4004 0H3.2138V0.0544911ZM39.1103 57.685C54.6346 57.685 63.35 66.1825 63.35 80.6718C63.35 95.1067 54.6346 103.005 39.1103 103.005H33.6087C21.8974 103.005 17.2129 98.1026 17.2129 84.9206V57.685H39.1103ZM280.363 36.1689C279.328 36.6046 278.457 37.8575 278.457 38.9469V48.5338C278.457 49.4054 279.11 50.4403 279.71 50.8761C280.581 51.3119 281.398 51.5297 282.27 51.3119C287.989 49.4054 294.58 47.4989 305.42 47.4989C318.82 47.4989 321.162 51.5297 321.162 61.1167V62.8053L302.642 64.0581C272.901 66.1825 271.375 85.5197 271.375 91.5116C271.375 109.16 280.744 120 303.078 120C310.104 120 317.948 117.876 324.757 113.627L326.228 116.841C326.664 117.876 327.699 118.747 329.006 118.747H335.216C336.686 118.747 338.212 117.494 338.212 115.751V61.3346C338.212 41.3436 327.59 31.7567 305.474 31.7567C296.105 31.7022 286.954 33.4453 280.363 36.1689ZM289.079 91.4571C289.079 85.5198 290.168 79.3645 302.478 78.2751L320.999 76.5865L321.217 98.9197C315.279 102.515 310.595 104.476 303.35 104.476C296.323 104.476 289.079 101.698 289.079 91.4571ZM151.757 116.786C152.192 117.821 153.282 118.693 154.535 118.693H161.997C163.468 118.693 164.993 117.44 164.993 115.697V37.912C164.993 36.2234 163.74 34.6981 161.779 34.6981H151.593C149.687 34.6981 148.379 36.1689 148.379 37.912V92.5465C142.823 98.4839 132.855 103.604 125.393 103.604C114.989 103.604 109.868 97.8847 109.868 83.1775V37.8575C109.868 36.1689 108.398 34.6437 106.655 34.6437H96.4685C94.7799 34.6437 93.2546 36.1144 93.2546 37.8575V88.4612C93.2546 106.981 103.277 119.946 122.615 119.946C134.544 119.946 144.948 113.572 150.068 109.106L151.757 116.786ZM413.872 116.786C414.308 117.821 415.343 118.693 416.65 118.693H424.113C425.583 118.693 427.108 117.44 427.108 115.697V37.912C427.108 36.2234 425.801 34.6981 423.895 34.6981H413.709C411.802 34.6981 410.495 36.1689 410.495 37.912V92.5465C404.993 98.4839 394.971 103.604 387.508 103.604C377.104 103.604 371.984 97.8847 371.984 83.1775V37.8575C371.984 36.1689 370.513 34.6437 368.77 34.6437H358.584C356.895 34.6437 355.37 36.1144 355.37 37.8575V88.4612C355.37 106.981 365.338 119.946 384.73 119.946C396.659 119.946 407.063 113.572 412.183 109.106L413.872 116.786ZM191.248 89.1693C190.213 100.445 187.217 103.223 177.631 104.258C176.16 104.476 174.635 106.001 174.635 107.69V116.133C174.635 117.821 176.105 119.346 177.631 119.346C196.369 119.346 205.683 110.413 207.59 88.2978L209.496 68.5247C210.749 54.6891 213.527 50.4403 226.055 50.4403H239.891V115.533C239.891 117.222 241.362 118.747 243.105 118.747H253.291C254.762 118.747 256.505 117.276 256.505 115.533V37.912C256.505 36.2234 254.816 34.6981 253.291 34.6981H225.238C202.034 34.6981 195.225 48.0981 193.318 66.9995L191.248 89.1693Z"/>
</mask>
<path d="M504.294 34.6981C502.606 34.6981 501.08 36.1689 501.08 37.912V68.089H463.005V37.912C463.005 36.2234 461.534 34.6981 459.791 34.6981H449.387C447.699 34.6981 446.391 36.1689 446.391 37.912V115.533C446.391 117.222 447.644 118.747 449.387 118.747H459.791C461.48 118.747 463.005 117.276 463.005 115.533V83.2319H501.08V115.533C501.08 117.222 502.551 118.747 504.294 118.747H514.698C516.169 118.747 517.694 117.276 517.694 115.533V37.912C517.694 36.2234 516.223 34.6981 514.698 34.6981H504.294ZM423.459 0.0544911C425.365 0.0544911 426.891 1.52519 426.891 3.26827V12.8552C426.891 14.5438 425.42 16.069 423.459 16.069H358.584C356.895 16.069 355.37 14.5983 355.37 12.8552V3.26827C355.37 1.57966 356.841 0.0544911 358.584 0.0544911H423.459ZM3.2138 0.0544911C1.52519 0.0544911 0 1.52519 0 3.26827V83.2319C0 104.694 6.80889 118.965 33.6087 118.965H36.8225C75.1158 118.965 80.8352 93.636 80.8352 80.6718C80.8352 69.1784 76.5865 41.9428 38.5111 41.9428H17.2674V16.0145H66.4004C68.089 16.0145 69.6142 14.5438 69.6142 12.8007V3.21381C69.6142 1.52521 68.1434 0 66.4004 0H3.2138V0.0544911ZM39.1103 57.685C54.6346 57.685 63.35 66.1825 63.35 80.6718C63.35 95.1067 54.6346 103.005 39.1103 103.005H33.6087C21.8974 103.005 17.2129 98.1026 17.2129 84.9206V57.685H39.1103ZM280.363 36.1689C279.328 36.6046 278.457 37.8575 278.457 38.9469V48.5338C278.457 49.4054 279.11 50.4403 279.71 50.8761C280.581 51.3119 281.398 51.5297 282.27 51.3119C287.989 49.4054 294.58 47.4989 305.42 47.4989C318.82 47.4989 321.162 51.5297 321.162 61.1167V62.8053L302.642 64.0581C272.901 66.1825 271.375 85.5197 271.375 91.5116C271.375 109.16 280.744 120 303.078 120C310.104 120 317.948 117.876 324.757 113.627L326.228 116.841C326.664 117.876 327.699 118.747 329.006 118.747H335.216C336.686 118.747 338.212 117.494 338.212 115.751V61.3346C338.212 41.3436 327.59 31.7567 305.474 31.7567C296.105 31.7022 286.954 33.4453 280.363 36.1689ZM289.079 91.4571C289.079 85.5198 290.168 79.3645 302.478 78.2751L320.999 76.5865L321.217 98.9197C315.279 102.515 310.595 104.476 303.35 104.476C296.323 104.476 289.079 101.698 289.079 91.4571ZM151.757 116.786C152.192 117.821 153.282 118.693 154.535 118.693H161.997C163.468 118.693 164.993 117.44 164.993 115.697V37.912C164.993 36.2234 163.74 34.6981 161.779 34.6981H151.593C149.687 34.6981 148.379 36.1689 148.379 37.912V92.5465C142.823 98.4839 132.855 103.604 125.393 103.604C114.989 103.604 109.868 97.8847 109.868 83.1775V37.8575C109.868 36.1689 108.398 34.6437 106.655 34.6437H96.4685C94.7799 34.6437 93.2546 36.1144 93.2546 37.8575V88.4612C93.2546 106.981 103.277 119.946 122.615 119.946C134.544 119.946 144.948 113.572 150.068 109.106L151.757 116.786ZM413.872 116.786C414.308 117.821 415.343 118.693 416.65 118.693H424.113C425.583 118.693 427.108 117.44 427.108 115.697V37.912C427.108 36.2234 425.801 34.6981 423.895 34.6981H413.709C411.802 34.6981 410.495 36.1689 410.495 37.912V92.5465C404.993 98.4839 394.971 103.604 387.508 103.604C377.104 103.604 371.984 97.8847 371.984 83.1775V37.8575C371.984 36.1689 370.513 34.6437 368.77 34.6437H358.584C356.895 34.6437 355.37 36.1144 355.37 37.8575V88.4612C355.37 106.981 365.338 119.946 384.73 119.946C396.659 119.946 407.063 113.572 412.183 109.106L413.872 116.786ZM191.248 89.1693C190.213 100.445 187.217 103.223 177.631 104.258C176.16 104.476 174.635 106.001 174.635 107.69V116.133C174.635 117.821 176.105 119.346 177.631 119.346C196.369 119.346 205.683 110.413 207.59 88.2978L209.496 68.5247C210.749 54.6891 213.527 50.4403 226.055 50.4403H239.891V115.533C239.891 117.222 241.362 118.747 243.105 118.747H253.291C254.762 118.747 256.505 117.276 256.505 115.533V37.912C256.505 36.2234 254.816 34.6981 253.291 34.6981H225.238C202.034 34.6981 195.225 48.0981 193.318 66.9995L191.248 89.1693Z" fill="white" stroke="black" stroke-width="2" mask="url(#path-1-inside-1)"/>
</svg>
