<svg width="100%" height="100%" viewBox="0 0 280 120" fill="none" xmlns="http://www.w3.org/2000/svg">
<path d="M278.546 7.95069H233.357L235.841 0.5H278.546V7.95069Z" fill="white" stroke="black"/>
<path d="M155.609 0.5H197.931L200.249 7.95069H155.609V0.5Z" fill="white" stroke="black"/>
<path d="M61.5298 0.5H120.913C127.506 1.02482 133.281 3.66888 138.096 8.13853H61.5298V0.5Z" fill="white" stroke="black"/>
<path d="M0.5 8.13853V0.5H53.7694V8.13853H0.5Z" fill="white" stroke="black"/>
<path d="M230.217 16.4629H278.17V24.1014H227.893L230.217 16.4629Z" fill="white" stroke="black"/>
<path d="M203.374 16.4629L205.699 24.1014H155.609V16.4629H203.374Z" fill="white" stroke="black"/>
<path d="M61.9048 16.4629H145.363C145.574 17.0598 145.805 17.6314 146.035 18.1895C146.068 18.27 146.101 18.3501 146.134 18.4299C146.374 19.0133 146.609 19.583 146.822 20.1707C147.255 21.3657 147.588 22.6167 147.65 24.1014H61.9048V16.4629Z" fill="white" stroke="black"/>
<path d="M0.5 24.1014V16.4629H53.7694V24.1014H0.5Z" fill="white" stroke="black"/>
<path d="M225.134 32.6123H263.147V39.8753H222.658L225.134 32.6123Z" fill="white" stroke="black"/>
<path d="M170.819 32.6123H208.645L211.121 39.8753H170.819V32.6123Z" fill="white" stroke="black"/>
<path d="M148.032 32.6123C147.993 35.1332 147.657 37.902 147.029 40.2509H124.061V32.6123H148.032Z" fill="white" stroke="black"/>
<path d="M15.3345 40.2509V32.6123H37.6197V40.2509H15.3345Z" fill="white" stroke="black"/>
<path d="M77.6787 40.2509V32.6123H99.9638V40.2509H77.6787Z" fill="white" stroke="black"/>
<path d="M194.08 49.7989L193.104 49.9528V55.8378H171.195V48.1992H214.088L216.603 55.7447L216.634 55.8378H196.034L194.08 49.7989ZM217.552 55.7447L220.067 48.1992H263.335V55.8378H241.426V49.9528L240.45 49.7989L238.496 55.8378H217.521L217.552 55.7447Z" fill="white" stroke="black"/>
<path d="M77.6846 49.0454C77.6821 48.7107 77.6807 48.4223 77.6799 48.1992H143.368C141.882 50.7808 139.595 53.8166 137.448 55.8378H77.9169C77.8873 55.6252 77.8602 55.3248 77.8361 54.9554C77.784 54.1568 77.749 53.0858 77.7256 52.0076C77.7021 50.9311 77.6904 49.8539 77.6846 49.0454ZM77.9651 56.09C77.9651 56.09 77.9646 56.089 77.9638 56.0866C77.9647 56.0888 77.9651 56.0899 77.9651 56.09Z" fill="white" stroke="black"/>
<path d="M15.3345 55.8378V48.1992H37.6197V55.8378H15.3345Z" fill="white" stroke="black"/>
<path d="M241.426 71.9891V64.3506H263.335V71.9891H241.426Z" fill="white" stroke="black"/>
<path d="M171.195 71.9891V64.3506H193.104V71.9891H171.195Z" fill="white" stroke="black"/>
<path d="M201.291 71.9891L198.801 64.3506H235.543L233.052 71.9891H201.291Z" fill="white" stroke="black"/>
<path d="M77.6787 64.3506H137.073C139.441 66.563 141.911 69.1998 143.553 71.9891H77.6787V64.3506Z" fill="white" stroke="black"/>
<path d="M15.7104 71.6135V64.3506H37.9956V71.6135H15.7104Z" fill="white" stroke="black"/>
<path d="M241.426 87.7626V80.124H263.335V87.7626H241.426Z" fill="white" stroke="black"/>
<path d="M170.819 87.7626V80.124H192.729V87.7626H170.819Z" fill="white" stroke="black"/>
<path d="M204.261 80.124H230.326C230.245 80.322 230.157 80.5506 230.065 80.8005C229.762 81.6197 229.396 82.707 229.043 83.7883C228.69 84.8709 228.349 85.953 228.097 86.764C227.97 87.1697 227.866 87.5077 227.793 87.7444L227.787 87.7626H206.918L204.261 80.124Z" fill="white" stroke="black"/>
<path d="M77.6787 87.7626V80.124H100.152V87.7626H77.6787Z" fill="white" stroke="black"/>
<path d="M124.812 80.124H147.458C147.907 81.2086 148.152 82.4534 148.322 83.795C148.415 84.5246 148.485 85.2733 148.555 86.0346L148.558 86.0632C148.61 86.626 148.663 87.1956 148.725 87.7626H124.812V80.124Z" fill="white" stroke="black"/>
<path d="M15.7104 87.7626V80.124H37.9956V87.7626H15.7104Z" fill="white" stroke="black"/>
<path d="M241.426 103.725V96.0869H278.546V103.725H241.426Z" fill="white" stroke="black"/>
<path d="M155.609 103.725V96.0869H192.729V103.725H155.609Z" fill="white" stroke="black"/>
<path d="M225.032 96.0869L222.721 103.35H211.434L209.123 96.0869H225.032Z" fill="white" stroke="black"/>
<path d="M0.5 103.725V96.0869H53.7694V103.725H0.5Z" fill="white" stroke="black"/>
<path d="M144.405 103.725H61.9048V96.0869H147.365C147.355 96.1363 147.345 96.1858 147.336 96.2355C147.098 97.4498 146.846 98.7363 146.484 99.9772C146.07 101.391 145.525 102.7 144.729 103.725H144.405Z" fill="white" stroke="black"/>
<path d="M219.768 111.861L217.278 119.5H216.884L214.56 111.861H219.768Z" fill="white" stroke="black"/>
<path d="M241.426 119.5V111.861H278.546V119.5H241.426Z" fill="white" stroke="black"/>
<path d="M61.9048 119.5V111.861H138.841C133.62 116.649 126.965 119.148 119.793 119.5H61.9048Z" fill="white" stroke="black"/>
<path d="M155.609 119.5V111.861H192.729V119.5H155.609Z" fill="white" stroke="black"/>
<path d="M0.5 119.5V111.861H53.7694V119.5H0.5Z" fill="white" stroke="black"/>
</svg>
