<svg width="100%" height="100%" viewBox="0 0 553 80" fill="none" xmlns="http://www.w3.org/2000/svg">
<path d="M1.98837 76.8509V62.6074C11.1882 65.2366 19.4514 66.5571 26.5411 66.5571C31.6458 66.5571 35.5207 65.9864 38.1357 64.7369C39.4513 64.1083 40.4668 63.2991 41.1518 62.2875C41.8391 61.2727 42.1719 60.0863 42.1719 58.7429C42.1719 56.7395 41.3404 55.2431 39.7784 53.8038C38.9778 53.066 37.6202 52.2402 35.7193 51.3213C33.8081 50.3974 31.3113 49.3626 28.2022 48.2166C22.6321 46.1635 18.0615 44.2278 14.4865 42.4386C10.9046 40.646 8.34916 39.0136 6.78814 37.5752L6.78291 37.5704L6.77756 37.5657C2.43145 33.7833 0.5 29.1258 0.5 23.3143C0.5 15.9372 3.64135 10.1575 9.69125 6.36656C15.7909 2.54449 23.8766 0.5 33.9825 0.5C39.5681 0.5 47.3371 1.38423 57.5431 3.16302V16.6649C50.0555 14.0536 42.792 12.5286 36.215 12.5286C31.4785 12.5286 27.8498 13.1001 25.3884 14.3237C24.1501 14.9393 23.1911 15.7279 22.5431 16.706C21.8932 17.6871 21.5762 18.8286 21.5762 20.1143C21.5762 22.1689 22.7093 23.6766 24.5298 24.8748L24.5363 24.8791L24.543 24.8832C25.3245 25.3633 26.8492 26.0635 29.0417 27.0025C31.0328 27.8553 33.6054 28.9177 36.7324 30.2091C37.0686 30.3479 37.4113 30.4894 37.7603 30.6336L37.7636 30.635C47.9355 34.75 54.8019 38.379 58.2004 41.5106L58.2059 41.5157L58.2116 41.5206C62.3076 45.073 64.2403 49.7294 64.2403 55.3143C64.2403 59.4606 63.2688 63.0235 61.3399 66.1062C59.4091 69.1919 56.5012 71.8251 52.5857 74.0803C46.2419 77.6771 37.9066 79.2714 27.7813 79.2714V79.2713L27.7685 79.2716C19.018 79.4956 10.5041 78.617 1.98837 76.8509ZM145.356 64.2714H183.303V77.9H123.283V1.87144H182.559V14.8143H145.356H144.856V15.3143V32.6858V33.1858H145.356H177.598V44.9857H145.356H144.856V45.4857V63.7714V64.2714H145.356ZM251.233 50.7153L272.682 1.87144H300.877V77.9H279.553V23.7714L278.597 23.5668L253.924 78.5857H239.941L216.011 23.572L215.053 23.7714V77.9H199.682V1.87144H229.362L250.316 50.7114L250.77 51.77L251.233 50.7153ZM346.026 64.2714H383.973V77.9H323.705V1.87144H382.981V14.8143H346.026H345.526V15.3143V32.6858V33.1858H346.026H378.268V44.9857H346.026H345.526V45.4857V63.7714V64.2714H346.026ZM456.41 53.0286V1.87144H472.03V77.9H446.279L416.657 25.81L415.723 24.1664V26.0571V77.9H400.352V1.87144H426.843L455.474 53.2719L456.41 54.9538V53.0286ZM489.649 76.8509V62.6074C498.849 65.2366 507.112 66.5571 514.201 66.5571C519.306 66.5571 523.181 65.9864 525.796 64.7369C527.112 64.1083 528.127 63.2991 528.812 62.2875C529.5 61.2727 529.832 60.0863 529.832 58.7429C529.832 56.7492 529.01 55.2635 527.719 53.8361L527.704 53.8192L527.687 53.8038C526.882 53.0617 525.456 52.2348 523.498 51.3186C521.527 50.3962 518.972 49.3626 515.866 48.2179C510.418 46.1642 505.846 44.2279 502.238 42.4378C498.622 40.6435 496.007 39.0116 494.448 37.5752L494.443 37.5704L494.438 37.5657C490.092 33.7833 488.16 29.1258 488.16 23.3143C488.16 15.9479 491.294 10.3883 497.357 6.36327C503.456 2.54336 511.54 0.5 521.643 0.5C527.3 0.5 534.453 1.40685 543.62 3.00457C543.624 3.00534 543.629 3.0061 543.633 3.00687L545.203 3.36937V16.8935C537.716 14.2822 530.452 12.7572 523.875 12.7572C519.139 12.7572 515.51 13.3287 513.049 14.5523C511.81 15.1679 510.851 15.9564 510.203 16.9346C509.553 17.9156 509.237 19.0572 509.237 20.3428C509.237 22.3975 510.37 23.9052 512.19 25.1034L512.197 25.1077L512.203 25.1118C512.985 25.5919 514.51 26.2921 516.702 27.2311C518.694 28.0841 521.267 29.1468 524.395 30.4386L525.421 30.8622L525.424 30.8636C535.578 34.9715 542.21 38.6023 545.867 41.7453C549.732 45.3096 551.901 49.9753 551.901 55.5429C551.901 59.6892 550.929 63.2521 549 66.3348C547.07 69.4201 544.162 72.0529 540.248 74.308C533.904 77.9054 525.568 79.5 515.442 79.5C506.683 79.5 498.164 78.6171 489.649 76.8509ZM78.1387 1.87144H100.703V77.9H78.1387V1.87144Z" fill="white" stroke="black"/>
</svg>
