<svg width="100%" height="100%" viewBox="0 0 605 120" fill="none" xmlns="http://www.w3.org/2000/svg">
<path d="M26.1452 0.5H119.835V94.1899C119.835 107.992 108.327 119.5 94.5251 119.5H45.5865C43.563 119.5 41.5347 119.246 39.4777 118.957L99.9457 42.2089L100.218 41.8627L99.9093 41.5487L78.792 20.0962L78.6451 19.9469H78.4357H58.6592H57.4658L58.3028 20.7976L78.4089 41.2334L15.0706 107.225C14.8394 107.007 14.5959 106.787 14.3517 106.567C14.1488 106.383 13.9453 106.199 13.748 106.016C13.2738 105.576 12.8115 105.119 12.398 104.619L74.7688 41.5808L75.1161 41.2297L74.7694 40.8781L52.1448 17.9302H101.735V67.818L91.1965 56.97L90.7961 56.5578L90.4432 57.0115L81.0578 69.0785L80.7868 69.4269L81.0989 69.739L110.931 99.5714L111.785 100.425V99.2178V8.37988V7.87988H111.285H20.7821H19.5835L20.4268 8.73166L53.1957 41.8316L0.694842 78.9104C0.501094 77.5437 0.5 76.1664 0.5 74.7486V25.8161C0.832048 12.0049 12.3474 0.5 26.1452 0.5Z" fill="white" stroke="black"/>
<path d="M338.548 56.4773H338.804L338.954 56.2689L357.575 30.332H370.077L348.87 59.3696L348.663 59.6528L348.859 59.9437L371.128 93.0191H357.595L339.642 64.4265L339.495 64.1924H339.218H336.201H335.701V64.6924V93.0191H324.634V30.332H335.701V55.9773V56.4773H336.201H338.548Z" fill="white" stroke="black"/>
<path d="M266.651 83.7985V84.2551L267.106 84.2965C270.816 84.6337 273.516 84.6337 276.866 84.6337H276.871C280.283 84.6337 282.788 83.9522 284.599 82.1409C286.393 80.3468 287.42 77.5295 287.76 73.7879L287.763 73.7653V73.7426C287.763 70.927 286.703 68.7891 285.27 67.3556C283.448 65.5342 280.594 64.8628 276.871 64.8628H276.862C273.851 64.8628 270.478 64.8628 267.101 65.2005L266.651 65.2455V65.698V83.7985ZM292.306 60.0486L292.315 60.0568L292.326 60.0645C296.196 62.9674 298.159 67.1607 298.159 73.4074C298.159 80.6489 295.534 85.8474 290.994 89.09L290.994 89.0899L290.985 89.0969C287.071 92.0324 282.157 93.3544 276.536 93.3544C274.874 93.3544 273.127 93.2712 271.365 93.1873L271.358 93.187C269.611 93.1038 267.849 93.0199 266.168 93.0192C262.616 92.6976 259.067 92.6846 255.249 92.6841V30.332H293.802V40.6146C289.209 39.6961 284.05 39.3879 279.218 39.3879H266.816H266.316V39.8879V55.6421V56.2007L266.871 56.1391C269.886 55.804 273.214 55.4717 276.536 55.4717C282.849 55.4717 288.411 56.8028 292.306 60.0486Z" fill="white" stroke="black"/>
<path d="M217.542 56.4773H217.802L217.951 56.2655L236.237 30.332H249.072L227.865 59.3696L227.658 59.6528L227.854 59.9437L250.123 93.0191H236.59L218.636 64.4265L218.489 64.1924H218.213H215.196H214.696V64.6924V93.0191H203.629V30.332H214.696V55.9773V56.4773H215.196H217.542Z" fill="white" stroke="black"/>
<path d="M171.267 43.2224L171.26 43.229L171.254 43.2358C166.771 48.0631 165.087 55.5894 165.087 62.6822C165.087 68.7929 166.781 74.6096 170.22 78.7437C172.993 82.547 177.499 84.9754 182.698 84.6346C187.233 84.6309 191.74 83.102 195.925 80.9412V90.5269C192.028 92.401 186.842 93.3553 180.335 93.3553C172.726 93.3553 166.17 91.0416 161.595 86.1399L161.594 86.1391C156.677 80.8939 153.685 72.6505 153.685 62.0117C153.685 50.7218 157.335 41.4875 163.907 35.5709C168.837 31.2994 175.086 28.9922 182.347 28.9922C186.845 28.9922 191.654 29.9301 195.857 31.8004L193.765 42.2598C190.727 39.5761 186.861 38.3833 183.017 38.3833C177.839 38.3833 174.029 40.4605 171.267 43.2224Z" fill="white" stroke="black"/>
<path d="M450.168 63.1823H450.668V62.6823V44.0762H461.064V93.0203H450.668V72.403V71.903H450.168H430.726H430.226V72.403V93.0203H419.83V44.0762H430.226V62.6823V63.1823H430.726H450.168Z" fill="white" stroke="black"/>
<path d="M401.349 78.9785L401.351 78.9747C402.725 75.8822 403.401 71.7941 403.738 68.4303L403.74 68.4055V68.3805C403.74 64.6171 402.717 60.1829 401.006 56.7603L401.001 56.7506L400.995 56.7411C399.251 53.6005 396.084 51.1208 391.843 51.1208C389.569 51.1208 387.707 51.7352 386.192 52.8045C384.682 53.87 383.545 55.3676 382.681 57.0955C380.96 60.5386 380.282 64.9796 380.282 68.3805C380.282 72.1022 380.955 76.8976 383.03 80.3625C384.781 83.5097 387.617 85.6403 391.843 85.6403C396.45 85.6403 399.616 82.7898 401.349 78.9785ZM369.215 68.3805C369.215 62.1053 370.865 56.5053 373.822 51.9003C377.757 46.3319 383.64 42.7354 391.843 42.7354C400.07 42.7354 405.282 45.6823 408.868 50.2384C412.147 55.1652 413.801 61.4258 413.801 68.3805C413.801 74.3219 412.151 79.9258 409.523 84.2002C405.583 90.1064 399.699 94.0258 391.173 94.0258C382.95 94.0258 377.403 90.7477 373.813 85.8528C370.546 81.2784 369.215 75.0292 369.215 68.3805Z" fill="white" stroke="black"/>
<path d="M535.164 81.2633L535.662 82.9053L536.124 81.2526L546.413 44.4114H557.766C552.461 62.2806 546.837 79.7691 541.217 93.6559C538.866 98.693 536.551 103.643 532.927 107.596L532.926 107.597C529.644 111.207 525.748 113.467 520.558 113.467C518.115 113.467 515.959 112.893 514.088 112.011L515.901 103.249C517.374 103.795 518.659 104.076 520.223 104.076C524.853 104.076 528.369 100.524 529.421 96.6687L529.461 96.5221L529.412 96.3781L511.868 44.0762H523.875L535.164 81.2633Z" fill="white" stroke="black"/>
<path d="M573.691 82.4585V82.7158L573.9 82.8654C576.384 84.6397 579.877 84.9697 582.57 84.9697C586.759 84.9697 589.603 83.2099 591.373 80.3788C593.807 76.5527 594.132 71.0467 594.132 66.034C594.132 63.3522 593.804 59.2151 592.057 56.4037C591.363 55.0217 590.48 53.8645 589.308 53.053C588.124 52.2339 586.681 51.791 584.917 51.791C580.042 51.791 576.548 53.8974 573.786 57.6952L573.691 57.8267V57.9893V82.4585ZM600.59 49.5516L600.59 49.5516L600.595 49.5588C603.522 53.786 604.527 59.6897 604.194 66.3442L604.193 66.366L604.194 66.3877C604.527 75.3737 602.523 83.2515 597.636 88.1385L597.628 88.1461L597.621 88.1542C594.049 92.0506 588.498 94.3608 581.23 94.3608C578.961 94.3608 576.34 93.7098 573.993 93.0392L573.355 92.8571V93.5199V112.126H562.624V44.0759H570.443L571.693 49.3887L571.934 50.4135L572.576 49.5791C575.815 45.3676 581.353 43.0703 586.928 43.0703C593.486 43.0703 598.013 45.6853 600.59 49.5516Z" fill="white" stroke="black"/>
<path d="M482.176 52.6265V52.1265H481.676H479.329C475.306 52.1265 470.594 52.4595 466.531 53.4672H466.421V44.0762H507.321V53.3332C503.389 52.4298 498.923 52.1265 495.083 52.1265H492.737H492.237V52.6265V92.6851H482.176V52.6265Z" fill="white" stroke="black"/>
</svg>
