<svg width="100%" height="100%" viewBox="0 0 382 120" fill="none" xmlns="http://www.w3.org/2000/svg">
<mask id="path-1-inside-1" fill="white">
<path d="M367.86 100.873C369.091 100.873 370.358 100.873 371.589 100.873C371.589 103.52 371.589 106.205 371.626 108.852C373.714 106.205 375.727 103.52 377.778 100.873C378.971 100.873 380.127 100.873 381.32 100.873C381.32 105.422 381.32 109.933 381.32 114.482C380.052 114.482 378.822 114.482 377.554 114.482C377.554 111.835 377.554 109.15 377.554 106.503C375.503 109.15 373.453 111.798 371.402 114.482C370.209 114.482 369.016 114.482 367.823 114.482C367.86 109.971 367.86 105.422 367.86 100.873ZM355.743 106.279C357.831 106.317 359.919 106.317 362.044 106.279C361.596 105.012 360.776 103.558 359.248 103.632C357.495 103.371 356.228 104.788 355.743 106.279ZM354.885 101.917C357.57 99.9785 361.932 100.128 364.057 102.849C365.399 104.49 365.698 106.652 365.735 108.703C362.417 108.74 359.098 108.666 355.817 108.74C356.265 109.523 356.638 110.493 357.495 110.903C359.77 112.133 362.529 111.537 364.766 110.493C364.728 111.537 364.728 112.58 364.691 113.662C361.037 115.563 355.743 115.414 353.245 111.723C351.232 108.703 351.903 104.08 354.885 101.917ZM338.257 100.911C342.172 100.911 346.086 100.911 349.964 100.911C349.964 105.459 349.964 109.971 349.964 114.519C348.659 114.519 347.354 114.519 346.086 114.519C346.086 111.052 346.086 107.622 346.086 104.154C344.707 104.154 343.327 104.154 341.948 104.154C341.799 107.1 342.022 110.418 340.233 112.953C339.114 114.594 336.989 114.743 335.199 114.557C335.162 113.513 335.162 112.506 335.162 111.462C335.833 111.238 336.765 111.425 337.25 110.754C337.809 109.971 337.921 108.964 338.033 108.069C338.219 105.646 338.182 103.259 338.257 100.911ZM324.424 106.279C326.512 106.317 328.637 106.317 330.725 106.279C330.278 105.012 329.458 103.558 327.929 103.632C326.177 103.371 324.909 104.788 324.424 106.279ZM324.238 101.507C325.655 100.65 327.407 100.575 329.01 100.724C331.135 100.948 332.925 102.588 333.708 104.527C334.267 105.869 334.379 107.286 334.416 108.703C331.098 108.778 327.78 108.703 324.462 108.74C324.946 109.635 325.394 110.642 326.4 111.052C328.675 112.096 331.285 111.499 333.447 110.53C333.41 111.574 333.41 112.618 333.41 113.662C331.098 114.743 328.414 115.302 325.916 114.519C323.641 113.923 321.665 112.096 321.069 109.784C320.099 106.727 321.404 103.036 324.238 101.507ZM307.796 100.911C311.897 100.911 316.035 100.911 320.137 100.911C320.137 101.992 320.137 103.073 320.137 104.154C318.72 104.154 317.266 104.154 315.849 104.154C315.849 107.622 315.849 111.052 315.849 114.519C314.581 114.519 313.276 114.519 312.009 114.519C312.009 111.052 312.009 107.622 312.009 104.154C310.592 104.154 309.175 104.154 307.758 104.154C307.758 103.036 307.758 101.955 307.796 100.911ZM296.983 108.815C295.977 109.374 296.051 111.052 297.095 111.537C298.363 112.133 299.966 111.909 301.122 111.126C301.867 110.716 301.681 109.784 301.867 109.076C300.376 108.479 298.512 107.957 296.983 108.815ZM294.075 101.582C296.275 100.65 298.698 100.463 301.047 100.761C302.986 101.06 304.925 102.402 305.372 104.415C305.894 106.615 305.409 108.889 305.67 111.089C306.155 111.425 306.752 111.499 307.311 111.686C307.274 112.58 307.274 113.475 307.236 114.37C306.192 114.594 305.111 114.855 304.067 114.557C303.247 114.333 302.688 113.662 302.091 113.177C300.041 114.855 296.983 115.489 294.597 114.109C292.062 112.767 291.726 108.703 294.075 107.025C296.349 105.31 299.407 105.832 301.942 106.578C301.644 105.683 301.532 104.527 300.525 104.154C298.4 103.259 296.051 103.931 294.038 104.825C294.075 103.744 294.075 102.663 294.075 101.582ZM275.135 114.519C275.135 109.971 275.135 105.459 275.135 100.911C276.365 100.911 277.596 100.911 278.826 100.911C280.168 102.588 281.51 104.303 282.815 105.981C284.195 104.303 285.5 102.588 286.842 100.911C288.072 100.911 289.34 100.911 290.57 100.911C290.608 105.459 290.57 109.971 290.57 114.519C289.377 114.519 288.147 114.519 286.954 114.519C286.954 111.723 286.954 108.964 286.954 106.168C285.798 107.622 284.642 109.076 283.486 110.493C282.89 110.343 282.181 110.418 281.734 109.896C280.69 108.703 279.758 107.398 278.751 106.168C278.714 108.964 278.751 111.723 278.751 114.519C277.521 114.519 276.328 114.519 275.135 114.519ZM258.618 114.519C258.618 109.971 258.581 105.422 258.655 100.911C259.886 100.911 261.153 100.911 262.384 100.911C262.384 103.558 262.384 106.205 262.421 108.889C264.472 106.242 266.485 103.558 268.573 100.911C269.766 100.911 270.959 100.911 272.115 100.911C272.115 105.459 272.115 109.971 272.115 114.519C270.847 114.519 269.579 114.519 268.349 114.519C268.349 111.872 268.349 109.188 268.349 106.54C266.298 109.188 264.248 111.835 262.234 114.519C261.004 114.519 259.811 114.519 258.618 114.519ZM242.325 100.911C243.592 100.911 244.86 100.911 246.09 100.911C246.09 102.588 246.09 104.303 246.09 105.981C247.955 105.981 249.819 105.981 251.683 105.981C251.683 104.303 251.683 102.588 251.683 100.873C252.951 100.873 254.218 100.873 255.486 100.873C255.598 105.422 255.523 109.971 255.523 114.482C254.218 114.482 252.951 114.482 251.683 114.482C251.683 112.692 251.683 110.903 251.683 109.15C249.819 109.15 247.955 109.15 246.09 109.225C246.09 110.977 246.09 112.73 246.09 114.519C244.823 114.519 243.555 114.519 242.288 114.519C242.325 109.971 242.325 105.422 242.325 100.911ZM215.033 104.117C213.989 104.49 212.796 105.31 212.833 106.578C212.87 107.957 212.423 109.747 213.765 110.642C215.704 112.394 219.171 111.387 219.731 108.815C220.737 106.056 217.829 103.036 215.033 104.117ZM209.067 100.911C210.335 100.911 211.603 100.911 212.87 100.911C212.87 101.395 212.833 101.917 212.833 102.402C214.921 100.5 218.277 100.016 220.663 101.582C223.496 103.446 224.354 107.361 223.273 110.455C222.49 112.916 220.141 114.818 217.531 114.892C215.741 115.041 214.175 114.109 212.833 113.028C212.87 115.339 212.87 117.688 212.87 120H209.105C209.03 113.624 209.067 107.249 209.067 100.911ZM192.849 112.17C192.923 108.405 192.7 104.639 193.035 100.873C197.36 100.873 201.685 100.873 205.973 100.873C206.047 105.422 205.973 109.933 206.01 114.482C204.705 114.482 203.438 114.482 202.133 114.482C202.133 111.015 202.133 107.584 202.133 104.117C200.343 104.117 198.553 104.117 196.764 104.117C196.764 107.584 196.764 111.015 196.764 114.482C195.571 114.482 194.34 114.519 193.147 114.445C192.662 113.811 192.923 112.916 192.849 112.17ZM180.806 104.154C180.769 106.578 180.471 109.038 179.613 111.313C181.403 111.313 183.192 111.313 184.982 111.313C184.982 108.927 184.982 106.54 184.982 104.154C183.602 104.154 182.223 104.154 180.806 104.154ZM175.81 111.238C177.376 108.032 177.301 104.378 177.376 100.873C181.179 100.873 184.945 100.873 188.748 100.873C188.785 104.341 188.748 107.808 188.748 111.276C189.493 111.276 190.239 111.276 190.947 111.276C190.947 113.475 190.947 115.712 190.947 117.912C189.754 117.912 188.598 117.912 187.405 117.912C187.405 116.756 187.405 115.638 187.405 114.482C184.124 114.482 180.806 114.445 177.525 114.482C177.525 115.638 177.525 116.756 177.525 117.912C176.332 117.912 175.139 117.912 173.946 117.912C173.946 115.712 173.946 113.475 173.946 111.276C174.58 111.276 175.214 111.276 175.81 111.238ZM164.96 103.931C163.954 104.341 163.618 105.422 163.133 106.317C165.221 106.354 167.347 106.354 169.434 106.317C169.062 105.496 168.763 104.49 167.943 104.005C167.048 103.52 165.893 103.52 164.96 103.931ZM160.934 103.297C163.357 99.9039 169.323 99.6056 171.746 103.222C172.902 104.788 173.126 106.839 173.126 108.74C169.845 108.777 166.526 108.703 163.245 108.777C163.73 109.71 164.252 110.716 165.296 111.126C167.533 112.133 170.143 111.499 172.268 110.493C172.268 111.537 172.268 112.58 172.231 113.624C169.173 115.19 165.184 115.489 162.313 113.401C159.107 111.164 158.659 106.317 160.934 103.297ZM127.565 100.911C131.927 100.911 136.252 100.911 140.614 100.911C140.614 105.459 140.614 109.971 140.614 114.519C139.346 114.519 138.079 114.519 136.811 114.519C136.811 111.052 136.811 107.622 136.811 104.154C134.984 104.154 133.194 104.154 131.405 104.154C131.405 107.622 131.405 111.052 131.405 114.519C130.137 114.519 128.869 114.519 127.602 114.519C127.564 109.971 127.527 105.422 127.565 100.911ZM108.736 104.937C108.96 105.72 108.96 106.876 109.929 107.1C111.16 107.323 112.464 107.212 113.695 107.249C113.695 106.13 113.695 105.049 113.695 103.931C112.017 103.968 110.041 103.558 108.736 104.937ZM108.512 101.097C111.495 100.65 114.515 100.985 117.535 100.873C117.572 105.422 117.535 109.933 117.535 114.482C116.267 114.482 115 114.482 113.732 114.482C113.732 112.991 113.732 111.499 113.732 110.008C112.949 110.008 112.203 110.008 111.421 110.008C110.377 111.499 109.333 112.991 108.326 114.482C106.872 114.482 105.455 114.482 104.001 114.482C105.194 112.804 106.35 111.126 107.58 109.449C106.275 108.666 104.97 107.473 105.008 105.832C104.635 103.595 106.275 101.433 108.512 101.097ZM90.5042 100.873C94.3817 100.873 98.2592 100.873 102.137 100.873C102.174 105.422 102.137 109.933 102.137 114.482C100.869 114.482 99.6015 114.482 98.3338 114.482C98.3338 111.015 98.3338 107.584 98.3338 104.117C96.9543 104.117 95.5375 104.117 94.158 104.117C93.897 106.951 94.1953 110.045 92.6666 112.58C91.6973 114.296 89.4975 114.855 87.6706 114.482C86.9622 113.662 87.4469 112.394 87.2977 111.387C87.9688 111.238 88.8264 111.35 89.3484 110.791C90.1686 109.672 90.2059 108.256 90.2432 106.913C90.3177 104.937 90.4669 102.924 90.5042 100.873ZM76.5599 104.154C76.5972 106.578 76.2244 109.001 75.4414 111.313C77.231 111.313 79.0207 111.313 80.8103 111.313C80.8103 108.927 80.8103 106.54 80.8103 104.154C79.3935 104.154 77.9767 104.117 76.5599 104.154ZM73.1298 100.911C76.9328 100.911 80.773 100.911 84.576 100.911C84.576 104.378 84.576 107.845 84.576 111.313C85.3217 111.313 86.0674 111.313 86.813 111.313C86.813 113.55 86.813 115.75 86.813 117.949C85.5827 117.949 84.3896 117.949 83.1592 117.949C83.1592 116.794 83.1592 115.675 83.1592 114.519C79.9155 114.519 76.6345 114.519 73.3908 114.519C73.3908 115.675 73.3908 116.794 73.3908 117.949C72.1604 117.949 70.93 117.949 69.6997 117.949C69.6997 115.75 69.6997 113.513 69.6997 111.313C70.3335 111.313 70.93 111.313 71.5639 111.276C73.2416 108.069 73.0925 104.378 73.1298 100.911ZM48.5596 100.911C49.7527 100.911 50.9458 100.873 52.1389 100.948C52.81 102.439 52.288 104.229 52.4371 105.795C54.0031 104.154 55.569 102.514 57.1349 100.873C58.6636 100.873 60.1922 100.873 61.7582 100.873C59.8194 102.924 57.8433 104.975 55.8673 107.025C58.1416 109.523 60.4159 112.021 62.6903 114.482C61.0498 114.482 59.4093 114.482 57.7688 114.519C55.9791 112.58 54.2268 110.679 52.4744 108.74C52.3253 110.642 52.7727 112.655 52.2134 114.482C50.9831 114.594 49.7527 114.519 48.5596 114.519C48.5596 109.971 48.5596 105.422 48.5596 100.911ZM32.3038 100.873C33.5714 100.873 34.8391 100.873 36.1067 100.873C36.1067 102.551 36.1067 104.266 36.1067 105.981C37.9709 105.981 39.7979 105.981 41.6621 105.981C41.6621 104.266 41.6621 102.588 41.6621 100.873C42.9297 100.873 44.1974 100.873 45.465 100.873C45.5023 105.422 45.465 109.971 45.465 114.482C44.1974 114.482 42.9297 114.482 41.6621 114.482C41.6621 112.73 41.6621 110.94 41.6621 109.188C39.7979 109.113 37.9336 109.113 36.1067 109.188C36.1067 110.94 36.1067 112.73 36.1067 114.482C34.8391 114.482 33.5341 114.482 32.2665 114.482C32.3038 109.971 32.2665 105.422 32.3038 100.873ZM20 108.852C18.9933 109.449 19.1425 111.164 20.2237 111.574C21.6405 112.17 23.3929 111.835 24.5487 110.828C24.7724 110.269 24.8469 109.672 24.9588 109.113C23.4302 108.479 21.5287 107.92 20 108.852ZM17.1291 101.619C19.2916 100.687 21.6778 100.5 24.0267 100.799C25.8909 101.097 27.7551 102.253 28.3516 104.117C29.0973 106.54 28.2025 109.188 28.9855 111.611C29.3583 111.574 30.0667 111.537 30.4023 111.537C30.365 112.506 30.3277 113.475 30.2904 114.482C29.1719 114.668 27.9788 114.967 26.8603 114.557C26.1892 114.258 25.7045 113.736 25.1452 113.252C23.0573 114.892 20 115.526 17.6138 114.146C15.1158 112.804 14.8175 108.815 17.0919 107.1C19.3662 105.385 22.4608 105.832 24.9961 106.652C24.6978 105.832 24.6605 104.751 23.803 104.303C21.6405 103.259 19.2171 103.968 17.1291 104.863C17.1291 103.744 17.1291 102.663 17.1291 101.619ZM235.763 100.911C236.956 100.911 238.112 100.911 239.305 100.911C239.305 105.459 239.305 109.971 239.305 114.519C238.037 114.519 236.769 114.519 235.539 114.519C235.539 111.872 235.539 109.188 235.539 106.54C233.526 109.225 231.438 111.872 229.425 114.519C228.231 114.519 227.038 114.519 225.845 114.519C225.845 109.971 225.808 105.459 225.845 100.911C227.113 100.911 228.343 100.911 229.611 100.911C229.611 103.558 229.611 106.242 229.648 108.889C231.662 106.205 233.675 103.52 235.763 100.911ZM149.488 104.192C148.406 104.639 147.288 105.608 147.474 106.951C147.549 108.069 147.139 109.523 148.145 110.381C149.264 111.574 151.203 111.947 152.619 111.089C154.968 109.933 155.155 106.205 153.104 104.676C152.06 103.893 150.643 103.781 149.488 104.192ZM147.437 102.439C149.562 100.314 153.179 99.9785 155.602 101.805C159.554 104.788 159.181 111.947 154.67 114.221C152.284 115.489 149.301 114.855 147.437 112.991C147.474 115.302 147.437 117.614 147.474 119.963C146.207 119.963 144.902 119.963 143.597 119.963C143.597 113.624 143.597 107.286 143.597 100.948C144.902 100.948 146.169 100.948 147.474 100.948C147.474 101.395 147.474 101.917 147.437 102.439ZM3.66961 106.951C3.89331 108.144 3.96788 109.523 4.82541 110.493C5.98122 111.909 8.29283 112.021 9.67234 110.828C10.8654 109.784 11.1264 107.808 10.3807 106.429C9.59777 105.124 7.84542 104.676 6.46591 105.124C5.34739 105.422 4.52714 106.242 3.66961 106.951ZM3.78146 97.9278C6.54048 96.1755 9.82147 95.5789 12.9533 95.0197C12.9533 96.2128 12.9533 97.3686 12.9533 98.5617C10.3807 99.0836 7.62171 99.1955 5.34739 100.612C4.1543 101.358 3.70689 102.7 3.37133 103.968C4.41529 103.185 5.45924 102.327 6.76418 102.029C9.03851 101.433 11.7602 101.992 13.2516 103.931C15.5259 106.839 14.743 111.574 11.6857 113.624C8.77752 115.6 4.378 115.302 2.02911 112.58C0.015768 110.157 -0.24522 106.801 0.164904 103.781C0.463177 101.395 1.76812 99.1955 3.78146 97.9278ZM369.575 94.8333C370.507 94.8333 371.439 94.796 372.372 94.796C372.744 95.7281 373.304 96.9212 374.497 96.8093C375.727 96.9957 376.398 95.8027 376.808 94.8333C377.74 94.8333 378.673 94.8333 379.642 94.8706C379.344 95.9145 379.195 97.033 378.449 97.8533C376.622 99.9412 373.043 100.016 371.029 98.1888C370.06 97.294 369.836 96.0264 369.575 94.8333ZM112.092 1.66043C117.274 1.66043 122.419 1.66043 127.602 1.66043C127.676 6.80563 127.49 11.9881 127.825 17.1333C128.012 20.4889 129.988 23.7326 133.045 25.2239C135.394 26.4543 138.116 26.4916 140.688 26.2306C143.075 25.9323 145.237 24.7765 147.288 23.5834C147.288 16.2758 147.288 8.9681 147.288 1.66043C152.247 1.66043 157.205 1.66043 162.164 1.66043C162.164 19.3331 162.164 37.043 162.164 54.7156C157.168 54.7156 152.135 54.7156 147.139 54.7156C147.139 49.0485 147.139 43.3813 147.139 37.7141C142.478 38.8699 137.743 40.063 132.896 39.6902C126.744 39.4292 120.704 36.4837 117.013 31.4877C113.658 26.939 112.39 21.1973 112.129 15.6047C112.017 10.9442 112.166 6.28365 112.092 1.66043ZM0.0157681 1.69771C15.3768 1.69771 30.7751 1.69771 46.1361 1.69771C46.1361 6.13451 46.1361 10.5713 46.1361 15.0081C40.9537 15.0454 35.7712 15.0081 30.626 15.0081C30.626 28.1694 30.626 41.2934 30.626 54.4546C25.6299 54.4546 20.6711 54.4546 15.6751 54.4546C15.6751 41.3679 15.6751 28.2812 15.6751 15.1945C10.4553 15.1945 5.23554 15.1945 0.0157681 15.1945C0.0157681 10.6832 0.0157681 6.20908 0.0157681 1.69771ZM209.142 1.58586C213.803 1.58586 218.463 1.58586 223.161 1.58586C223.31 7.81229 222.713 14.337 219.47 19.8178C217.456 23.3225 214.287 26.0442 210.857 28.1321C214.287 34.2467 218.053 40.1748 221.595 46.2149C223.161 48.9739 225.1 51.5838 226.106 54.6411C220.737 54.6783 215.368 54.6783 210.037 54.6411C205.936 47.4825 201.797 40.3613 197.696 33.24C194.937 33.3519 192.215 33.6129 189.493 33.7247C189.493 40.6968 189.493 47.6317 189.493 54.6038C184.385 54.6038 179.315 54.6411 174.207 54.5665C174.207 36.9311 174.207 19.3331 174.207 1.69771C179.24 1.69771 184.274 1.69771 189.307 1.69771C189.307 8.22242 189.307 14.7471 189.307 21.2346C193.259 21.2718 197.509 21.6074 201.089 19.5941C204.034 18.14 206.197 15.3437 206.98 12.1745C207.949 8.70711 208.396 5.12784 209.142 1.58586ZM252.764 30.1082C250.005 30.6674 247.358 32.4943 246.538 35.2906C246.09 36.9311 246.165 38.7581 246.911 40.324C247.992 42.4119 250.266 43.6796 252.578 43.7914C256.083 44.0524 259.774 43.1203 262.607 40.9951C264.695 39.4664 265.665 36.8193 265.553 34.284C265.478 33.7247 265.702 32.9045 264.993 32.6435C261.414 30.4437 256.977 29.4743 252.764 30.1082ZM235.427 4.23303C242.176 1.13845 249.707 0.169065 257.052 0.243633C263.241 0.579189 269.878 1.58586 274.837 5.64982C278.789 8.85625 280.616 14.0387 280.69 18.9975C280.839 26.0815 280.727 33.1282 280.765 40.2121C280.839 41.5916 280.839 43.0084 281.287 44.3507C281.958 46.0657 284.083 46.0284 285.612 46.4013C285.612 49.1976 285.612 52.0312 285.574 54.8275C281.249 55.8714 276.328 56.3561 272.338 54.0072C269.952 52.5904 269.132 49.7568 268.796 47.1842C265.963 51.4719 261.302 54.4174 256.232 55.3122C250.415 56.3188 244.04 55.9833 238.932 52.665C235.017 50.167 231.96 46.103 231.401 41.4052C230.655 36.6701 231.289 31.4877 234.16 27.4983C236.844 23.6953 241.244 21.3837 245.755 20.5634C249.446 19.8923 253.249 19.4822 256.94 20.3025C259.923 20.9736 262.831 21.9802 265.739 22.9496C265.702 20.7126 266.224 18.2145 264.919 16.2012C263.651 14.2624 261.34 13.4049 259.214 12.8456C256.791 12.2118 254.256 11.9881 251.758 12.0627C246.762 12.1 241.728 12.9948 237.254 15.2318C236.77 11.5407 235.912 7.92415 235.427 4.23303ZM77.231 13.7777C73.6145 14.076 70.0352 15.8284 67.9473 18.8484C65.1883 22.8378 64.5917 28.1321 65.8967 32.7553C66.6796 35.8126 68.432 38.7208 71.1537 40.4358C73.9873 42.2255 77.4547 42.6729 80.7357 42.2255C83.271 41.8153 85.5827 40.4358 87.2604 38.4971C90.3177 34.8805 91.7345 29.9217 90.8024 25.2612C90.1686 22.2412 88.9755 19.2212 86.7757 16.9842C84.315 14.4861 80.6612 13.4422 77.231 13.7777ZM74.0246 0.318201C80.3629 -0.6139 87.0367 0.504621 92.6293 3.63648C97.9237 6.50735 102.323 11.1679 104.411 16.9096C106.499 22.6886 106.76 29.1015 105.567 35.1415C104.038 42.7474 98.7066 49.3467 91.8091 52.8141C86.2165 55.685 79.7291 56.2443 73.5399 55.5732C67.0152 54.7529 60.7888 51.5465 56.4265 46.625C52.9964 42.8593 50.9085 37.9751 50.2374 32.9417C49.1934 25.3731 50.4238 17.1333 55.1589 10.9069C59.5584 4.86685 66.6796 1.21302 74.0246 0.318201Z"/>
</mask>
<path d="M367.86 100.873C369.091 100.873 370.358 100.873 371.589 100.873C371.589 103.52 371.589 106.205 371.626 108.852C373.714 106.205 375.727 103.52 377.778 100.873C378.971 100.873 380.127 100.873 381.32 100.873C381.32 105.422 381.32 109.933 381.32 114.482C380.052 114.482 378.822 114.482 377.554 114.482C377.554 111.835 377.554 109.15 377.554 106.503C375.503 109.15 373.453 111.798 371.402 114.482C370.209 114.482 369.016 114.482 367.823 114.482C367.86 109.971 367.86 105.422 367.86 100.873ZM355.743 106.279C357.831 106.317 359.919 106.317 362.044 106.279C361.596 105.012 360.776 103.558 359.248 103.632C357.495 103.371 356.228 104.788 355.743 106.279ZM354.885 101.917C357.57 99.9785 361.932 100.128 364.057 102.849C365.399 104.49 365.698 106.652 365.735 108.703C362.417 108.74 359.098 108.666 355.817 108.74C356.265 109.523 356.638 110.493 357.495 110.903C359.77 112.133 362.529 111.537 364.766 110.493C364.728 111.537 364.728 112.58 364.691 113.662C361.037 115.563 355.743 115.414 353.245 111.723C351.232 108.703 351.903 104.08 354.885 101.917ZM338.257 100.911C342.172 100.911 346.086 100.911 349.964 100.911C349.964 105.459 349.964 109.971 349.964 114.519C348.659 114.519 347.354 114.519 346.086 114.519C346.086 111.052 346.086 107.622 346.086 104.154C344.707 104.154 343.327 104.154 341.948 104.154C341.799 107.1 342.022 110.418 340.233 112.953C339.114 114.594 336.989 114.743 335.199 114.557C335.162 113.513 335.162 112.506 335.162 111.462C335.833 111.238 336.765 111.425 337.25 110.754C337.809 109.971 337.921 108.964 338.033 108.069C338.219 105.646 338.182 103.259 338.257 100.911ZM324.424 106.279C326.512 106.317 328.637 106.317 330.725 106.279C330.278 105.012 329.458 103.558 327.929 103.632C326.177 103.371 324.909 104.788 324.424 106.279ZM324.238 101.507C325.655 100.65 327.407 100.575 329.01 100.724C331.135 100.948 332.925 102.588 333.708 104.527C334.267 105.869 334.379 107.286 334.416 108.703C331.098 108.778 327.78 108.703 324.462 108.74C324.946 109.635 325.394 110.642 326.4 111.052C328.675 112.096 331.285 111.499 333.447 110.53C333.41 111.574 333.41 112.618 333.41 113.662C331.098 114.743 328.414 115.302 325.916 114.519C323.641 113.923 321.665 112.096 321.069 109.784C320.099 106.727 321.404 103.036 324.238 101.507ZM307.796 100.911C311.897 100.911 316.035 100.911 320.137 100.911C320.137 101.992 320.137 103.073 320.137 104.154C318.72 104.154 317.266 104.154 315.849 104.154C315.849 107.622 315.849 111.052 315.849 114.519C314.581 114.519 313.276 114.519 312.009 114.519C312.009 111.052 312.009 107.622 312.009 104.154C310.592 104.154 309.175 104.154 307.758 104.154C307.758 103.036 307.758 101.955 307.796 100.911ZM296.983 108.815C295.977 109.374 296.051 111.052 297.095 111.537C298.363 112.133 299.966 111.909 301.122 111.126C301.867 110.716 301.681 109.784 301.867 109.076C300.376 108.479 298.512 107.957 296.983 108.815ZM294.075 101.582C296.275 100.65 298.698 100.463 301.047 100.761C302.986 101.06 304.925 102.402 305.372 104.415C305.894 106.615 305.409 108.889 305.67 111.089C306.155 111.425 306.752 111.499 307.311 111.686C307.274 112.58 307.274 113.475 307.236 114.37C306.192 114.594 305.111 114.855 304.067 114.557C303.247 114.333 302.688 113.662 302.091 113.177C300.041 114.855 296.983 115.489 294.597 114.109C292.062 112.767 291.726 108.703 294.075 107.025C296.349 105.31 299.407 105.832 301.942 106.578C301.644 105.683 301.532 104.527 300.525 104.154C298.4 103.259 296.051 103.931 294.038 104.825C294.075 103.744 294.075 102.663 294.075 101.582ZM275.135 114.519C275.135 109.971 275.135 105.459 275.135 100.911C276.365 100.911 277.596 100.911 278.826 100.911C280.168 102.588 281.51 104.303 282.815 105.981C284.195 104.303 285.5 102.588 286.842 100.911C288.072 100.911 289.34 100.911 290.57 100.911C290.608 105.459 290.57 109.971 290.57 114.519C289.377 114.519 288.147 114.519 286.954 114.519C286.954 111.723 286.954 108.964 286.954 106.168C285.798 107.622 284.642 109.076 283.486 110.493C282.89 110.343 282.181 110.418 281.734 109.896C280.69 108.703 279.758 107.398 278.751 106.168C278.714 108.964 278.751 111.723 278.751 114.519C277.521 114.519 276.328 114.519 275.135 114.519ZM258.618 114.519C258.618 109.971 258.581 105.422 258.655 100.911C259.886 100.911 261.153 100.911 262.384 100.911C262.384 103.558 262.384 106.205 262.421 108.889C264.472 106.242 266.485 103.558 268.573 100.911C269.766 100.911 270.959 100.911 272.115 100.911C272.115 105.459 272.115 109.971 272.115 114.519C270.847 114.519 269.579 114.519 268.349 114.519C268.349 111.872 268.349 109.188 268.349 106.54C266.298 109.188 264.248 111.835 262.234 114.519C261.004 114.519 259.811 114.519 258.618 114.519ZM242.325 100.911C243.592 100.911 244.86 100.911 246.09 100.911C246.09 102.588 246.09 104.303 246.09 105.981C247.955 105.981 249.819 105.981 251.683 105.981C251.683 104.303 251.683 102.588 251.683 100.873C252.951 100.873 254.218 100.873 255.486 100.873C255.598 105.422 255.523 109.971 255.523 114.482C254.218 114.482 252.951 114.482 251.683 114.482C251.683 112.692 251.683 110.903 251.683 109.15C249.819 109.15 247.955 109.15 246.09 109.225C246.09 110.977 246.09 112.73 246.09 114.519C244.823 114.519 243.555 114.519 242.288 114.519C242.325 109.971 242.325 105.422 242.325 100.911ZM215.033 104.117C213.989 104.49 212.796 105.31 212.833 106.578C212.87 107.957 212.423 109.747 213.765 110.642C215.704 112.394 219.171 111.387 219.731 108.815C220.737 106.056 217.829 103.036 215.033 104.117ZM209.067 100.911C210.335 100.911 211.603 100.911 212.87 100.911C212.87 101.395 212.833 101.917 212.833 102.402C214.921 100.5 218.277 100.016 220.663 101.582C223.496 103.446 224.354 107.361 223.273 110.455C222.49 112.916 220.141 114.818 217.531 114.892C215.741 115.041 214.175 114.109 212.833 113.028C212.87 115.339 212.87 117.688 212.87 120H209.105C209.03 113.624 209.067 107.249 209.067 100.911ZM192.849 112.17C192.923 108.405 192.7 104.639 193.035 100.873C197.36 100.873 201.685 100.873 205.973 100.873C206.047 105.422 205.973 109.933 206.01 114.482C204.705 114.482 203.438 114.482 202.133 114.482C202.133 111.015 202.133 107.584 202.133 104.117C200.343 104.117 198.553 104.117 196.764 104.117C196.764 107.584 196.764 111.015 196.764 114.482C195.571 114.482 194.34 114.519 193.147 114.445C192.662 113.811 192.923 112.916 192.849 112.17ZM180.806 104.154C180.769 106.578 180.471 109.038 179.613 111.313C181.403 111.313 183.192 111.313 184.982 111.313C184.982 108.927 184.982 106.54 184.982 104.154C183.602 104.154 182.223 104.154 180.806 104.154ZM175.81 111.238C177.376 108.032 177.301 104.378 177.376 100.873C181.179 100.873 184.945 100.873 188.748 100.873C188.785 104.341 188.748 107.808 188.748 111.276C189.493 111.276 190.239 111.276 190.947 111.276C190.947 113.475 190.947 115.712 190.947 117.912C189.754 117.912 188.598 117.912 187.405 117.912C187.405 116.756 187.405 115.638 187.405 114.482C184.124 114.482 180.806 114.445 177.525 114.482C177.525 115.638 177.525 116.756 177.525 117.912C176.332 117.912 175.139 117.912 173.946 117.912C173.946 115.712 173.946 113.475 173.946 111.276C174.58 111.276 175.214 111.276 175.81 111.238ZM164.96 103.931C163.954 104.341 163.618 105.422 163.133 106.317C165.221 106.354 167.347 106.354 169.434 106.317C169.062 105.496 168.763 104.49 167.943 104.005C167.048 103.52 165.893 103.52 164.96 103.931ZM160.934 103.297C163.357 99.9039 169.323 99.6056 171.746 103.222C172.902 104.788 173.126 106.839 173.126 108.74C169.845 108.777 166.526 108.703 163.245 108.777C163.73 109.71 164.252 110.716 165.296 111.126C167.533 112.133 170.143 111.499 172.268 110.493C172.268 111.537 172.268 112.58 172.231 113.624C169.173 115.19 165.184 115.489 162.313 113.401C159.107 111.164 158.659 106.317 160.934 103.297ZM127.565 100.911C131.927 100.911 136.252 100.911 140.614 100.911C140.614 105.459 140.614 109.971 140.614 114.519C139.346 114.519 138.079 114.519 136.811 114.519C136.811 111.052 136.811 107.622 136.811 104.154C134.984 104.154 133.194 104.154 131.405 104.154C131.405 107.622 131.405 111.052 131.405 114.519C130.137 114.519 128.869 114.519 127.602 114.519C127.564 109.971 127.527 105.422 127.565 100.911ZM108.736 104.937C108.96 105.72 108.96 106.876 109.929 107.1C111.16 107.323 112.464 107.212 113.695 107.249C113.695 106.13 113.695 105.049 113.695 103.931C112.017 103.968 110.041 103.558 108.736 104.937ZM108.512 101.097C111.495 100.65 114.515 100.985 117.535 100.873C117.572 105.422 117.535 109.933 117.535 114.482C116.267 114.482 115 114.482 113.732 114.482C113.732 112.991 113.732 111.499 113.732 110.008C112.949 110.008 112.203 110.008 111.421 110.008C110.377 111.499 109.333 112.991 108.326 114.482C106.872 114.482 105.455 114.482 104.001 114.482C105.194 112.804 106.35 111.126 107.58 109.449C106.275 108.666 104.97 107.473 105.008 105.832C104.635 103.595 106.275 101.433 108.512 101.097ZM90.5042 100.873C94.3817 100.873 98.2592 100.873 102.137 100.873C102.174 105.422 102.137 109.933 102.137 114.482C100.869 114.482 99.6015 114.482 98.3338 114.482C98.3338 111.015 98.3338 107.584 98.3338 104.117C96.9543 104.117 95.5375 104.117 94.158 104.117C93.897 106.951 94.1953 110.045 92.6666 112.58C91.6973 114.296 89.4975 114.855 87.6706 114.482C86.9622 113.662 87.4469 112.394 87.2977 111.387C87.9688 111.238 88.8264 111.35 89.3484 110.791C90.1686 109.672 90.2059 108.256 90.2432 106.913C90.3177 104.937 90.4669 102.924 90.5042 100.873ZM76.5599 104.154C76.5972 106.578 76.2244 109.001 75.4414 111.313C77.231 111.313 79.0207 111.313 80.8103 111.313C80.8103 108.927 80.8103 106.54 80.8103 104.154C79.3935 104.154 77.9767 104.117 76.5599 104.154ZM73.1298 100.911C76.9328 100.911 80.773 100.911 84.576 100.911C84.576 104.378 84.576 107.845 84.576 111.313C85.3217 111.313 86.0674 111.313 86.813 111.313C86.813 113.55 86.813 115.75 86.813 117.949C85.5827 117.949 84.3896 117.949 83.1592 117.949C83.1592 116.794 83.1592 115.675 83.1592 114.519C79.9155 114.519 76.6345 114.519 73.3908 114.519C73.3908 115.675 73.3908 116.794 73.3908 117.949C72.1604 117.949 70.93 117.949 69.6997 117.949C69.6997 115.75 69.6997 113.513 69.6997 111.313C70.3335 111.313 70.93 111.313 71.5639 111.276C73.2416 108.069 73.0925 104.378 73.1298 100.911ZM48.5596 100.911C49.7527 100.911 50.9458 100.873 52.1389 100.948C52.81 102.439 52.288 104.229 52.4371 105.795C54.0031 104.154 55.569 102.514 57.1349 100.873C58.6636 100.873 60.1922 100.873 61.7582 100.873C59.8194 102.924 57.8433 104.975 55.8673 107.025C58.1416 109.523 60.4159 112.021 62.6903 114.482C61.0498 114.482 59.4093 114.482 57.7688 114.519C55.9791 112.58 54.2268 110.679 52.4744 108.74C52.3253 110.642 52.7727 112.655 52.2134 114.482C50.9831 114.594 49.7527 114.519 48.5596 114.519C48.5596 109.971 48.5596 105.422 48.5596 100.911ZM32.3038 100.873C33.5714 100.873 34.8391 100.873 36.1067 100.873C36.1067 102.551 36.1067 104.266 36.1067 105.981C37.9709 105.981 39.7979 105.981 41.6621 105.981C41.6621 104.266 41.6621 102.588 41.6621 100.873C42.9297 100.873 44.1974 100.873 45.465 100.873C45.5023 105.422 45.465 109.971 45.465 114.482C44.1974 114.482 42.9297 114.482 41.6621 114.482C41.6621 112.73 41.6621 110.94 41.6621 109.188C39.7979 109.113 37.9336 109.113 36.1067 109.188C36.1067 110.94 36.1067 112.73 36.1067 114.482C34.8391 114.482 33.5341 114.482 32.2665 114.482C32.3038 109.971 32.2665 105.422 32.3038 100.873ZM20 108.852C18.9933 109.449 19.1425 111.164 20.2237 111.574C21.6405 112.17 23.3929 111.835 24.5487 110.828C24.7724 110.269 24.8469 109.672 24.9588 109.113C23.4302 108.479 21.5287 107.92 20 108.852ZM17.1291 101.619C19.2916 100.687 21.6778 100.5 24.0267 100.799C25.8909 101.097 27.7551 102.253 28.3516 104.117C29.0973 106.54 28.2025 109.188 28.9855 111.611C29.3583 111.574 30.0667 111.537 30.4023 111.537C30.365 112.506 30.3277 113.475 30.2904 114.482C29.1719 114.668 27.9788 114.967 26.8603 114.557C26.1892 114.258 25.7045 113.736 25.1452 113.252C23.0573 114.892 20 115.526 17.6138 114.146C15.1158 112.804 14.8175 108.815 17.0919 107.1C19.3662 105.385 22.4608 105.832 24.9961 106.652C24.6978 105.832 24.6605 104.751 23.803 104.303C21.6405 103.259 19.2171 103.968 17.1291 104.863C17.1291 103.744 17.1291 102.663 17.1291 101.619ZM235.763 100.911C236.956 100.911 238.112 100.911 239.305 100.911C239.305 105.459 239.305 109.971 239.305 114.519C238.037 114.519 236.769 114.519 235.539 114.519C235.539 111.872 235.539 109.188 235.539 106.54C233.526 109.225 231.438 111.872 229.425 114.519C228.231 114.519 227.038 114.519 225.845 114.519C225.845 109.971 225.808 105.459 225.845 100.911C227.113 100.911 228.343 100.911 229.611 100.911C229.611 103.558 229.611 106.242 229.648 108.889C231.662 106.205 233.675 103.52 235.763 100.911ZM149.488 104.192C148.406 104.639 147.288 105.608 147.474 106.951C147.549 108.069 147.139 109.523 148.145 110.381C149.264 111.574 151.203 111.947 152.619 111.089C154.968 109.933 155.155 106.205 153.104 104.676C152.06 103.893 150.643 103.781 149.488 104.192ZM147.437 102.439C149.562 100.314 153.179 99.9785 155.602 101.805C159.554 104.788 159.181 111.947 154.67 114.221C152.284 115.489 149.301 114.855 147.437 112.991C147.474 115.302 147.437 117.614 147.474 119.963C146.207 119.963 144.902 119.963 143.597 119.963C143.597 113.624 143.597 107.286 143.597 100.948C144.902 100.948 146.169 100.948 147.474 100.948C147.474 101.395 147.474 101.917 147.437 102.439ZM3.66961 106.951C3.89331 108.144 3.96788 109.523 4.82541 110.493C5.98122 111.909 8.29283 112.021 9.67234 110.828C10.8654 109.784 11.1264 107.808 10.3807 106.429C9.59777 105.124 7.84542 104.676 6.46591 105.124C5.34739 105.422 4.52714 106.242 3.66961 106.951ZM3.78146 97.9278C6.54048 96.1755 9.82147 95.5789 12.9533 95.0197C12.9533 96.2128 12.9533 97.3686 12.9533 98.5617C10.3807 99.0836 7.62171 99.1955 5.34739 100.612C4.1543 101.358 3.70689 102.7 3.37133 103.968C4.41529 103.185 5.45924 102.327 6.76418 102.029C9.03851 101.433 11.7602 101.992 13.2516 103.931C15.5259 106.839 14.743 111.574 11.6857 113.624C8.77752 115.6 4.378 115.302 2.02911 112.58C0.015768 110.157 -0.24522 106.801 0.164904 103.781C0.463177 101.395 1.76812 99.1955 3.78146 97.9278ZM369.575 94.8333C370.507 94.8333 371.439 94.796 372.372 94.796C372.744 95.7281 373.304 96.9212 374.497 96.8093C375.727 96.9957 376.398 95.8027 376.808 94.8333C377.74 94.8333 378.673 94.8333 379.642 94.8706C379.344 95.9145 379.195 97.033 378.449 97.8533C376.622 99.9412 373.043 100.016 371.029 98.1888C370.06 97.294 369.836 96.0264 369.575 94.8333ZM112.092 1.66043C117.274 1.66043 122.419 1.66043 127.602 1.66043C127.676 6.80563 127.49 11.9881 127.825 17.1333C128.012 20.4889 129.988 23.7326 133.045 25.2239C135.394 26.4543 138.116 26.4916 140.688 26.2306C143.075 25.9323 145.237 24.7765 147.288 23.5834C147.288 16.2758 147.288 8.9681 147.288 1.66043C152.247 1.66043 157.205 1.66043 162.164 1.66043C162.164 19.3331 162.164 37.043 162.164 54.7156C157.168 54.7156 152.135 54.7156 147.139 54.7156C147.139 49.0485 147.139 43.3813 147.139 37.7141C142.478 38.8699 137.743 40.063 132.896 39.6902C126.744 39.4292 120.704 36.4837 117.013 31.4877C113.658 26.939 112.39 21.1973 112.129 15.6047C112.017 10.9442 112.166 6.28365 112.092 1.66043ZM0.0157681 1.69771C15.3768 1.69771 30.7751 1.69771 46.1361 1.69771C46.1361 6.13451 46.1361 10.5713 46.1361 15.0081C40.9537 15.0454 35.7712 15.0081 30.626 15.0081C30.626 28.1694 30.626 41.2934 30.626 54.4546C25.6299 54.4546 20.6711 54.4546 15.6751 54.4546C15.6751 41.3679 15.6751 28.2812 15.6751 15.1945C10.4553 15.1945 5.23554 15.1945 0.0157681 15.1945C0.0157681 10.6832 0.0157681 6.20908 0.0157681 1.69771ZM209.142 1.58586C213.803 1.58586 218.463 1.58586 223.161 1.58586C223.31 7.81229 222.713 14.337 219.47 19.8178C217.456 23.3225 214.287 26.0442 210.857 28.1321C214.287 34.2467 218.053 40.1748 221.595 46.2149C223.161 48.9739 225.1 51.5838 226.106 54.6411C220.737 54.6783 215.368 54.6783 210.037 54.6411C205.936 47.4825 201.797 40.3613 197.696 33.24C194.937 33.3519 192.215 33.6129 189.493 33.7247C189.493 40.6968 189.493 47.6317 189.493 54.6038C184.385 54.6038 179.315 54.6411 174.207 54.5665C174.207 36.9311 174.207 19.3331 174.207 1.69771C179.24 1.69771 184.274 1.69771 189.307 1.69771C189.307 8.22242 189.307 14.7471 189.307 21.2346C193.259 21.2718 197.509 21.6074 201.089 19.5941C204.034 18.14 206.197 15.3437 206.98 12.1745C207.949 8.70711 208.396 5.12784 209.142 1.58586ZM252.764 30.1082C250.005 30.6674 247.358 32.4943 246.538 35.2906C246.09 36.9311 246.165 38.7581 246.911 40.324C247.992 42.4119 250.266 43.6796 252.578 43.7914C256.083 44.0524 259.774 43.1203 262.607 40.9951C264.695 39.4664 265.665 36.8193 265.553 34.284C265.478 33.7247 265.702 32.9045 264.993 32.6435C261.414 30.4437 256.977 29.4743 252.764 30.1082ZM235.427 4.23303C242.176 1.13845 249.707 0.169065 257.052 0.243633C263.241 0.579189 269.878 1.58586 274.837 5.64982C278.789 8.85625 280.616 14.0387 280.69 18.9975C280.839 26.0815 280.727 33.1282 280.765 40.2121C280.839 41.5916 280.839 43.0084 281.287 44.3507C281.958 46.0657 284.083 46.0284 285.612 46.4013C285.612 49.1976 285.612 52.0312 285.574 54.8275C281.249 55.8714 276.328 56.3561 272.338 54.0072C269.952 52.5904 269.132 49.7568 268.796 47.1842C265.963 51.4719 261.302 54.4174 256.232 55.3122C250.415 56.3188 244.04 55.9833 238.932 52.665C235.017 50.167 231.96 46.103 231.401 41.4052C230.655 36.6701 231.289 31.4877 234.16 27.4983C236.844 23.6953 241.244 21.3837 245.755 20.5634C249.446 19.8923 253.249 19.4822 256.94 20.3025C259.923 20.9736 262.831 21.9802 265.739 22.9496C265.702 20.7126 266.224 18.2145 264.919 16.2012C263.651 14.2624 261.34 13.4049 259.214 12.8456C256.791 12.2118 254.256 11.9881 251.758 12.0627C246.762 12.1 241.728 12.9948 237.254 15.2318C236.77 11.5407 235.912 7.92415 235.427 4.23303ZM77.231 13.7777C73.6145 14.076 70.0352 15.8284 67.9473 18.8484C65.1883 22.8378 64.5917 28.1321 65.8967 32.7553C66.6796 35.8126 68.432 38.7208 71.1537 40.4358C73.9873 42.2255 77.4547 42.6729 80.7357 42.2255C83.271 41.8153 85.5827 40.4358 87.2604 38.4971C90.3177 34.8805 91.7345 29.9217 90.8024 25.2612C90.1686 22.2412 88.9755 19.2212 86.7757 16.9842C84.315 14.4861 80.6612 13.4422 77.231 13.7777ZM74.0246 0.318201C80.3629 -0.6139 87.0367 0.504621 92.6293 3.63648C97.9237 6.50735 102.323 11.1679 104.411 16.9096C106.499 22.6886 106.76 29.1015 105.567 35.1415C104.038 42.7474 98.7066 49.3467 91.8091 52.8141C86.2165 55.685 79.7291 56.2443 73.5399 55.5732C67.0152 54.7529 60.7888 51.5465 56.4265 46.625C52.9964 42.8593 50.9085 37.9751 50.2374 32.9417C49.1934 25.3731 50.4238 17.1333 55.1589 10.9069C59.5584 4.86685 66.6796 1.21302 74.0246 0.318201Z" fill="white" stroke="black" stroke-width="2" mask="url(#path-1-inside-1)"/>
</svg>
