<svg width="100%" height="100%" viewBox="0 0 835 400" fill="none" xmlns="http://www.w3.org/2000/svg">
<path d="M323.044 0C333.905 22.5434 339.452 47.3211 341.908 72.1099C344.921 105.158 341.953 138.528 335.116 170.932C328.869 198.688 320.221 226.212 306.181 251.078C296.021 245.243 285.75 239.54 275.823 233.359C262.551 210.483 249.178 187.628 236.272 164.551C236.105 152.968 236.272 141.385 236.194 129.802C260.505 123.177 279.692 104.836 293.409 84.3709C304.014 68.6194 311.861 51.0894 317.23 32.9035C319.365 24.4109 321.844 15.896 322.122 7.09205C322.277 4.71321 322.577 2.34549 323.044 0Z" fill="white"/>
<path d="M588.995 144.275C596.543 134.816 608.293 129.169 620.254 128.079C628.535 126.612 636.928 127.879 645.198 128.813C653.569 130.247 661.917 132.448 669.52 136.305C669.442 143.086 669.542 149.878 669.476 156.659C665.852 155.836 663.328 152.879 660.149 151.189C650.778 145.809 640.096 142.085 629.169 142.575C620.698 142.219 611.661 144.675 605.658 150.923C600.078 156.559 599.634 165.863 603.213 172.677C605.781 177.09 610.194 180.147 614.952 181.825C628.947 186.583 644.242 187.272 657.593 193.975C666.397 198.244 672.966 206.937 674.167 216.708C674.822 223.788 674.511 231.181 671.276 237.661C666.185 249.489 654.491 257.281 642.286 260.238C633.682 262.55 624.689 261.85 615.907 261.65C603.758 260.416 591.752 257.092 580.87 251.545C581.047 244.298 580.747 237.05 581.059 229.813C586.917 233.848 592.541 238.339 599.155 241.152C612.061 246.877 627.046 249.211 640.696 244.742C647.01 242.597 652.857 237.906 654.702 231.281C656.503 224.233 655.369 215.752 649.589 210.794C643.464 205.769 635.338 204.78 627.924 202.846C616.063 199.945 603.046 198.433 593.353 190.307C579.802 179.535 578.046 157.47 588.995 144.275Z" fill="white"/>
<path d="M207.904 130.613C214.051 130.68 220.109 129.391 226.256 129.579C226.167 141.385 226.534 153.246 226.067 165.029C213.929 186.46 201.501 207.748 189.24 229.113C187.995 231.169 187.028 233.637 184.704 234.704C175.356 240.207 165.896 245.509 156.603 251.1C146.632 241.829 134.804 234.537 121.754 230.502C102.712 224.01 82.2922 223.054 62.3611 224.322C40.8293 226.411 18.964 230.88 0 241.718C23.3215 207.559 57.659 182.359 94.3865 164.195C129.969 146.743 168.486 134.982 207.904 130.613Z" fill="white"/>
<path d="M481.792 129.681C510.405 129.703 539.018 129.703 567.631 129.681C567.742 134.827 567.642 139.985 567.719 145.132C545.098 145.132 522.488 145.176 499.878 145.11C499.556 156.948 499.867 168.809 499.711 180.648C520.832 180.759 541.964 180.659 563.084 180.703C563.129 185.85 563.118 190.997 563.095 196.144C541.975 196.166 520.843 196.11 499.723 196.177C499.767 212.162 499.756 228.147 499.723 244.132C522.377 244.276 545.021 244.143 567.675 244.198C567.686 249.301 567.664 254.414 567.719 259.516C539.04 259.527 510.372 259.516 481.692 259.527C481.781 216.241 481.592 172.955 481.792 129.681Z" fill="white"/>
<path d="M679.08 129.724C716.008 129.647 752.947 129.713 789.874 129.691C789.996 134.838 789.885 139.985 789.963 145.131C774.623 145.154 759.271 145.131 743.92 145.142C743.865 178.257 743.92 211.383 743.898 244.498C743.809 249.5 744.12 254.524 743.642 259.516C737.54 259.527 731.448 259.527 725.368 259.505C725.412 221.376 725.412 183.259 725.368 145.142C709.927 145.087 694.487 145.243 679.047 145.076C679.069 139.951 679.036 134.838 679.08 129.724Z" fill="white"/>
<path d="M369.731 130.403C373.499 129.324 377.446 129.758 381.325 129.691C391.318 129.736 401.334 129.613 411.338 129.747C419.709 130.914 428.413 129.558 436.494 132.604C445.943 135.316 454.524 142.553 456.27 152.59C456.77 158.904 457.203 165.674 454.057 171.421C450.767 178.691 444.153 183.638 437.172 187.05C444.887 189.774 452.99 193.275 457.626 200.401C463.451 208.426 464.206 218.964 462.461 228.435C460.327 238.506 453.29 247.121 444.364 252.046C434.549 258.137 422.655 259.56 411.327 259.516C397.477 259.505 383.626 259.571 369.775 259.471C369.798 216.452 369.887 173.422 369.731 130.403ZM388.239 144.809C388.339 157.415 388.217 170.02 388.295 182.626C397.821 182.526 407.359 182.871 416.885 182.437C425.022 181.703 434.66 178.035 436.872 169.264C438.073 162.873 438.673 154.891 433.548 149.967C429.257 146.432 423.522 144.943 418.053 144.92C408.115 144.709 398.177 144.831 388.239 144.809ZM388.206 197.066C388.361 213.017 388.239 228.969 388.273 244.92C400.033 244.809 411.872 245.465 423.555 243.664C432.448 241.841 441.674 236.183 443.708 226.723C444.687 220.398 444.664 213.473 441.663 207.648C437.839 201.39 430.391 198.511 423.455 197.455C411.716 196.743 399.956 197.166 388.206 197.066Z" fill="white"/>
<path d="M227.057 195.309C238.062 192.441 250.19 201.99 249.745 213.373C250.334 223.722 240.474 233.148 230.136 232.037C220.543 231.87 212.228 222.911 212.751 213.329C212.473 204.903 219.098 197.366 227.057 195.309Z" fill="white"/>
<path d="M187.15 244.808C189.496 243.597 191.808 241.807 194.598 241.952C219.642 242.029 244.698 241.84 269.731 242.041C280.525 247.265 290.641 253.868 301.101 259.76C294.198 285.982 301.946 313.55 314.229 336.916C327.835 361.794 346.377 384.66 370.498 400C348.655 398.655 327.357 392.396 307.159 384.204C277.746 371.876 250.701 354.346 226.323 333.87C201.367 312.416 178.257 288.217 161.316 259.848C169.854 254.713 178.569 249.877 187.15 244.808Z" fill="white"/>
<path d="M680.948 278.435C687.028 273.577 695.988 274.088 702.58 277.646C703.769 279.235 702.847 281.547 703.102 283.426C698.445 279.747 692.464 278.035 686.639 279.646C678.936 284.16 678.069 295.398 682.471 302.479C685.972 307.848 693.198 308.281 698.678 305.992C698.645 303.046 698.645 300.1 698.689 297.154C696.01 297.132 693.353 297.099 690.708 296.954C690.708 295.576 690.741 294.209 690.797 292.841C694.921 292.852 699.056 292.852 703.191 292.83C703.202 297.977 703.202 303.124 703.202 308.281C697.544 310.794 691.019 311.972 685.027 310.049C678.391 307.626 674.723 300.245 675.212 293.442C674.745 287.917 676.724 282.125 680.948 278.435Z" fill="white"/>
<path d="M369.665 275.723C377.001 275.234 384.471 274.978 391.786 275.901C391.741 277.101 391.73 278.313 391.719 279.525C385.916 279.603 380.102 279.525 374.311 279.58C374.289 282.815 374.289 286.061 374.311 289.307C379.78 289.374 385.249 289.218 390.729 289.429C390.418 290.863 390.096 292.286 389.751 293.709C384.593 293.609 379.436 293.642 374.289 293.687C374.3 297.855 374.289 302.035 374.3 306.203C380.025 306.259 385.761 306.237 391.508 306.214C391.585 307.582 391.708 308.949 391.886 310.327C384.482 310.639 377.068 310.405 369.676 310.461C369.676 298.878 369.698 287.306 369.665 275.723Z" fill="white"/>
<path d="M396.477 275.411C397.622 275.4 399.911 275.367 401.056 275.356C401.201 280.691 401.067 286.038 401.145 291.374C406.303 286.283 410.738 280.525 415.796 275.333C417.497 275.356 419.209 275.411 420.954 275.489C416.497 280.958 411.25 285.716 406.759 291.163C411.55 297.243 416.185 303.479 421.31 309.293C425.178 298.032 428.902 286.727 432.793 275.478C434.594 275.411 436.394 275.367 438.217 275.322C442.319 286.961 446.221 298.677 450.089 310.405C448.922 310.438 446.588 310.493 445.432 310.527C444.231 307.214 443.242 303.835 441.774 300.622C437.461 300.711 433.137 300.678 428.835 300.667C427.724 303.757 427.012 307.003 425.601 309.971C422.61 311.183 419.053 310.193 415.863 310.427C411.772 304.947 407.393 299.678 403.28 294.231C402.39 295.431 400.923 296.509 401.134 298.177C401.045 302.279 401.156 306.381 401.123 310.482C399.956 310.471 397.61 310.449 396.432 310.449C396.465 298.766 396.377 287.094 396.477 275.411ZM430.258 296.432C433.793 296.565 437.328 296.554 440.874 296.398C438.918 291.24 437.361 285.949 435.594 280.725C433.382 285.805 431.926 291.163 430.258 296.432Z" fill="white"/>
<path d="M449.856 275.378C459.104 275.367 468.364 275.4 477.624 275.367C477.713 276.4 477.879 278.468 477.968 279.502C474.055 279.591 470.143 279.557 466.241 279.557C466.163 289.884 466.263 300.2 466.196 310.516C464.673 310.46 463.173 310.438 461.694 310.427C461.761 300.2 461.628 289.962 461.761 279.735C457.737 279.435 453.702 279.591 449.689 279.524C449.722 278.49 449.811 276.412 449.856 275.378Z" fill="white"/>
<path d="M481.759 275.378C488.873 275.412 495.987 275.301 503.113 275.445C503.146 276.812 503.179 278.18 503.235 279.547C497.621 279.547 492.008 279.614 486.405 279.491C486.116 282.737 485.672 285.972 485.572 289.229C491.03 289.407 496.488 289.307 501.957 289.296C502.001 290.552 502.068 291.797 502.146 293.053C496.843 293.164 491.552 293.053 486.261 293.142C486.116 297.51 486.172 301.879 486.183 306.259C491.841 306.225 497.51 306.225 503.179 306.237C503.168 307.293 503.157 309.416 503.146 310.483C495.987 310.461 488.829 310.483 481.681 310.472C481.737 298.778 481.603 287.072 481.759 275.378Z" fill="white"/>
<path d="M508.493 275.679C513.151 275.868 517.842 275.49 522.5 276.046C527.057 276.501 530.67 281.003 529.97 285.572C530.47 290.252 526.479 293.387 522.978 295.61C527.102 300.401 531.27 305.17 534.872 310.372C532.982 310.439 531.103 310.472 529.247 310.472C525.556 305.748 521.855 301.034 518.02 296.432C516.319 296.421 514.629 296.421 512.962 296.421C512.851 301.112 512.973 305.814 512.851 310.528C511.761 310.505 509.572 310.472 508.482 310.461C508.471 298.867 508.449 287.273 508.493 275.679ZM512.94 279.492C512.884 283.905 512.906 288.318 512.918 292.731C515.886 292.497 519.231 293.387 521.922 291.697C525.623 289.852 526.424 284.105 523.633 281.181C520.565 278.747 516.53 279.614 512.94 279.492Z" fill="white"/>
<path d="M536.605 275.367C541.062 275.378 545.52 275.378 549.989 275.367C549.966 276.334 549.933 278.257 549.911 279.224C548.421 279.302 546.954 279.402 545.498 279.502C545.609 288.628 545.509 297.754 545.553 306.881C547.132 307.003 548.732 307.125 550.355 307.259C550.211 308.048 549.933 309.604 549.789 310.382C545.442 310.527 541.096 310.616 536.772 310.316C536.672 309.549 536.46 308.037 536.36 307.27C537.861 307.148 539.373 307.025 540.918 306.936C541.118 297.743 540.885 288.55 541.04 279.357C539.54 279.302 538.05 279.246 536.583 279.202C536.594 278.246 536.605 276.334 536.605 275.367Z" fill="white"/>
<path d="M556.114 275.344C558.293 275.644 561.061 274.544 562.751 276.467C567.553 284.893 571.177 293.975 576.234 302.256C576.59 293.33 576.268 284.382 576.39 275.455C577.824 275.4 579.28 275.366 580.748 275.333C580.881 287.038 580.77 298.743 580.803 310.46C579.069 310.46 577.357 310.471 575.656 310.493C570.132 300.778 566.019 290.251 559.927 280.88C559.916 290.762 559.983 300.633 559.927 310.504C558.86 310.482 556.737 310.438 555.67 310.415C555.892 298.732 555.125 286.994 556.114 275.344Z" fill="white"/>
<path d="M587.795 275.4C594.153 275.778 601.345 274.066 607.048 277.59C611.861 281.092 609.682 287.895 605.625 291.04C607.537 292.308 609.616 293.575 610.727 295.698C611.494 299.566 611.694 304.302 608.337 307.059C602.79 312.25 594.587 309.982 587.762 310.449C587.784 298.766 587.728 287.083 587.795 275.4ZM592.197 279.591C592.197 282.915 592.197 286.249 592.186 289.573C595.376 289.673 598.644 289.973 601.823 289.351C604.469 288.161 606.459 284.249 604.369 281.77C601.557 277.935 596.21 279.936 592.197 279.591ZM592.252 293.897C592.164 297.999 592.197 302.101 592.186 306.203C596.521 306.014 601.946 307.57 605.28 303.935C607.159 302.301 606.481 299.489 606.381 297.31C603.669 291.996 596.988 294.275 592.252 293.897Z" fill="white"/>
<path d="M615.44 275.867C616.919 275.634 618.408 275.4 619.942 275.189C620.232 283.148 619.909 291.107 620.098 299.055C620.332 301.79 621.221 304.98 623.944 306.225C627.079 308.148 631.414 307.459 634.038 304.969C635.594 303.012 636.272 300.422 636.216 297.955C636.239 290.429 636.139 282.904 636.25 275.378C637.728 275.367 639.229 275.367 640.741 275.367C640.774 283.615 640.863 291.863 640.718 300.122C640.496 305.158 636.772 310.327 631.492 310.76C627.246 311.172 622.221 311.327 619.053 307.981C616.196 305.447 615.485 301.467 615.474 297.844C615.44 290.518 615.518 283.193 615.44 275.867Z" fill="white"/>
<path d="M647.466 275.401C653.569 275.623 660.383 274.3 665.818 277.813C669.698 280.458 669.42 285.839 668.286 289.851C666.875 292.319 664.451 293.909 662.239 295.554C666.219 300.556 670.387 305.414 674.378 310.416C672.321 310.472 670.287 310.472 668.275 310.438C664.585 305.67 660.939 300.845 656.937 296.332C655.28 296.399 653.658 296.477 652.046 296.566C652.046 301.212 652.079 305.87 652.035 310.516C650.467 310.483 648.911 310.449 647.377 310.405C647.488 298.733 647.333 287.061 647.466 275.401ZM652.079 279.469C652.035 283.893 652.046 288.317 652.079 292.742C655.203 292.542 658.693 293.386 661.472 291.485C664.373 289.64 665.074 285.561 663.829 282.559C661.272 278.513 656.092 279.58 652.079 279.469Z" fill="white"/>
<path d="M723.489 275.211C725.134 275.444 726.823 275.722 728.502 276.011C728.535 284.76 728.146 293.53 728.713 302.256C730.681 309.493 742.997 308.737 743.864 301.134C744.465 292.585 743.887 283.982 744.153 275.411C745.643 275.378 747.144 275.367 748.667 275.344C748.744 283.626 748.778 291.907 748.667 300.189C748.544 305.28 744.587 310.416 739.307 310.782C735.283 311.127 730.67 311.316 727.479 308.426C724.378 305.925 723.6 301.7 723.422 297.943C723.411 290.362 723.344 282.781 723.489 275.211Z" fill="white"/>
<path d="M755.469 275.389C761.705 275.723 769.042 274.055 774.311 278.302C777.368 280.491 777.079 284.571 776.768 287.895C776.39 291.607 772.933 293.619 770.154 295.498C774.222 300.467 778.268 305.458 782.403 310.371C780.302 310.449 778.235 310.46 776.178 310.427C772.966 306.036 769.587 301.779 766.063 297.655C764.651 295.687 761.939 296.654 759.927 296.376C759.827 301.078 759.893 305.78 759.871 310.483C758.771 310.483 756.559 310.483 755.458 310.483C755.447 298.777 755.414 287.083 755.469 275.389ZM759.882 279.535C759.871 283.926 759.871 288.317 759.893 292.708C763.284 292.575 767.186 293.453 770.065 291.085C772.555 289.218 772.41 285.705 771.977 282.937C769.62 278.446 764.029 279.547 759.882 279.535Z" fill="white"/>
<path d="M785.25 275.679C792.053 275.823 798.867 275.712 805.681 275.745C805.681 276.701 805.681 278.613 805.692 279.558C800.379 279.558 795.076 279.558 789.785 279.569C789.729 282.893 789.729 286.217 789.752 289.54C794.943 289.552 800.134 289.54 805.347 289.563C805.325 290.63 805.281 292.764 805.258 293.831C800.067 293.82 794.887 293.831 789.707 293.853C789.774 299.356 789.718 304.869 789.763 310.383C788.684 310.45 786.506 310.561 785.427 310.617C784.994 298.978 785.339 287.328 785.25 275.679Z" fill="white"/>
<path d="M809.749 275.4C811.239 275.378 812.751 275.367 814.285 275.356C814.607 284.138 813.984 292.964 814.607 301.723C816.13 308.915 827.646 309.138 829.725 302.257C830.358 293.52 829.903 284.727 829.98 275.967C831.503 275.689 833.037 275.412 834.616 275.167C834.86 283.415 834.749 291.685 834.694 299.934C834.883 304.68 831.614 309.282 827.024 310.549C823.755 311.139 820.354 311.127 817.119 310.449C812.684 309.049 809.749 304.558 809.771 299.989C809.627 291.797 809.705 283.593 809.749 275.4Z" fill="white"/>
</svg>
