<svg width="100" height="100" viewBox="0 0 105 104" fill="none" xmlns="http://www.w3.org/2000/svg">
<g clip-path="url(#clip0)">
<path d="M52.4056 101.889C80.0184 101.889 102.403 79.5047 102.403 51.8919C102.403 24.2791 80.0184 1.89453 52.4056 1.89453C24.7928 1.89453 2.4082 24.2791 2.4082 51.8919C2.4082 79.5047 24.7928 101.889 52.4056 101.889Z" fill="#D9D9D9"/>
<path d="M52.4067 86.3728C71.4501 86.3728 86.8877 70.9352 86.8877 51.8919C86.8877 32.8485 71.4501 17.4109 52.4067 17.4109C33.3634 17.4109 17.9258 32.8485 17.9258 51.8919C17.9258 70.9352 33.3634 86.3728 52.4067 86.3728Z" fill="#F7E4BA"/>
<path d="M16.089 39.7977C16.0148 40.7046 16.1201 41.6182 16.4027 42.4837C11.2393 43.9216 8.21703 49.273 9.65492 54.4382C10.4049 57.1346 12.284 59.3758 14.8081 60.5862C14.3787 61.3879 14.1133 62.2671 14.0288 63.1723C13.7908 67.272 16.9183 70.7908 21.0181 71.0373C22.1749 71.1339 23.3368 70.9753 24.4264 70.5753L30.1002 55.5555L29.9933 43.2717L27.6279 34.3326C26.6262 33.7465 25.5073 33.386 24.3523 33.2775C20.2715 32.7979 16.5735 35.7167 16.089 39.7977Z" fill="#6B9777"/>
<path d="M85.1648 26.0312C85.1769 22.2349 82.1098 19.147 78.3136 19.1351C75.7861 19.1264 73.4586 20.5057 72.2518 22.7262C63.7334 18.3972 53.3166 21.7953 48.9893 30.3137C44.6621 38.8322 48.0584 49.249 56.5768 53.5762C65.0953 57.9036 75.5121 54.5072 79.8393 45.9887C81.9736 41.7872 82.303 36.8961 80.7497 32.448C83.4063 31.4273 85.1614 28.8776 85.1648 26.0312Z" fill="#EBEBEB"/>
<path d="M62.7523 45.8577C67.0371 45.8577 70.5105 42.3843 70.5105 38.0995C70.5105 33.8148 67.0371 30.3413 62.7523 30.3413C58.4676 30.3413 54.9941 33.8148 54.9941 38.0995C54.9941 42.3843 58.4676 45.8577 62.7523 45.8577Z" fill="#FBB540"/>
<path d="M36.8888 88.0969C46.4104 88.0969 54.1292 80.3781 54.1292 70.8565C54.1292 61.3349 46.4104 53.6161 36.8888 53.6161C27.3672 53.6161 19.6484 61.3349 19.6484 70.8565C19.6484 80.3781 27.3672 88.0969 36.8888 88.0969Z" fill="#F7BA61"/>
<path d="M28.2711 55.3386C32.0797 55.3386 35.1672 52.2511 35.1672 48.4425C35.1672 44.6339 32.0797 41.5464 28.2711 41.5464C24.4625 41.5464 21.375 44.6339 21.375 48.4425C21.375 52.2511 24.4625 55.3386 28.2711 55.3386Z" fill="#DC4D41"/>
<path d="M29.3219 40.9944C33.1305 40.9944 36.218 37.9069 36.218 34.0983C36.218 30.2896 33.1305 27.2021 29.3219 27.2021C25.5133 27.2021 22.4258 30.2896 22.4258 34.0983C22.4258 37.9069 25.5133 40.9944 29.3219 40.9944Z" fill="#DC4D41"/>
<path d="M88.2766 59.0605C87.325 59.0605 86.5526 58.2899 86.5508 57.3381C86.5508 57.2727 86.5542 57.207 86.5629 57.1399L87.5852 48.2473C87.6921 47.3007 88.5473 46.6215 89.4936 46.7302C89.8022 46.7647 90.0971 46.8835 90.3436 47.0716L98.2742 53.1058C99.0328 53.6817 99.1793 54.7644 98.6017 55.5212C98.3879 55.8022 98.0931 56.0107 97.7569 56.1194L88.8023 58.9813C88.6318 59.0362 88.4542 59.0621 88.2766 59.0605Z" fill="#8F563B"/>
<path d="M58.7184 97.2496C58.1391 97.2496 57.5995 96.9582 57.2805 96.4756L52.3377 89.0121C51.8118 88.2191 52.0292 87.1483 52.8238 86.6226C53.0824 86.4519 53.3824 86.3537 53.6909 86.3382L63.6438 85.8486C64.5954 85.8022 65.4042 86.5366 65.4488 87.4866C65.466 87.8399 65.373 88.1917 65.1849 88.4917L60.1852 96.4447C59.873 96.9394 59.3318 97.2429 58.7473 97.2498L58.7184 97.2496Z" fill="#8F563B"/>
<path d="M43.788 62.2362H40.3398V65.6844H43.788V62.2362Z" fill="#F26B32"/>
<path d="M48.9579 67.4081H45.5098V70.8562H48.9579V67.4081Z" fill="#F26B32"/>
<path d="M43.788 74.3048H40.3398V77.753H43.788V74.3048Z" fill="#F26B32"/>
<path d="M29.995 74.3048H26.5469V77.753H29.995V74.3048Z" fill="#F26B32"/>
<path d="M33.4423 62.2362H29.9941V65.6844H33.4423V62.2362Z" fill="#F26B32"/>
<path d="M36.8915 79.4767H33.4434V82.9248H36.8915V79.4767Z" fill="#F26B32"/>
<path d="M36.8915 69.1322H33.4434V72.5804H36.8915V69.1322Z" fill="#F26B32"/>
<path d="M66.9685 90.2985C65.1496 90.3019 63.4256 89.495 62.2619 88.0969L62.2497 88.0832C60.0482 85.4557 60.3946 81.5404 63.0221 79.3405C63.1807 79.2077 63.3446 79.0837 63.5153 78.9663L67.4409 75.7614C71.8234 72.1944 75.387 67.7256 77.8904 62.6587L79.6627 59.0865C81.0781 55.8402 84.8572 54.3574 88.1035 55.7711C91.3499 57.1847 92.8326 60.9656 91.419 64.212L89.0535 69.1996C85.9898 75.6458 81.3798 81.2317 75.6318 85.4626L70.3718 89.3192C69.3495 89.9536 68.1718 90.2933 66.9685 90.2985Z" fill="#8F563B"/>
<path d="M52.4069 0.17041C23.8412 0.17041 0.685547 23.326 0.685547 51.8918C0.685547 80.4575 23.8412 103.613 52.4069 103.613C80.9726 103.613 104.128 80.4575 104.128 51.8918C104.096 23.3398 80.9589 0.20314 52.4069 0.17041ZM52.4069 100.165C25.7464 100.165 4.1337 78.5525 4.1337 51.8918C4.1337 25.231 25.7464 3.61857 52.4069 3.61857C79.0674 3.61857 100.68 25.2312 100.68 51.8918C100.649 78.5404 79.0555 100.134 52.4069 100.165Z" fill="black"/>
<path d="M62.7498 28.6172C57.5122 28.6172 53.2676 32.8618 53.2676 38.0994C53.2676 43.337 57.5122 47.5815 62.7498 47.5815C67.9874 47.5815 72.2319 43.337 72.2319 38.0994C72.2251 32.8652 67.9839 28.6241 62.7498 28.6172ZM62.7498 44.1336C59.4172 44.1336 56.7155 41.432 56.7155 38.0994C56.7155 34.7668 59.4172 32.0651 62.7498 32.0651C66.0824 32.0651 68.784 34.7668 68.784 38.0994C68.784 41.432 66.0824 44.1336 62.7498 44.1336Z" fill="black"/>
<path d="M86.888 26.0309C86.9017 21.2847 83.0659 17.4246 78.3194 17.4107C75.7368 17.402 73.2869 18.5572 71.6492 20.5535C70.7406 20.1846 69.8028 19.8898 68.8476 19.6674C68.8011 19.626 68.751 19.588 68.6993 19.5518C55.1396 12.7299 38.7663 15.0832 27.6774 25.4462C27.617 25.517 27.5636 25.5945 27.5153 25.6737C24.3585 26.3667 21.8553 28.7667 21.0296 31.8924C17.4022 32.8234 14.7454 35.9233 14.3799 39.6506C14.3282 40.2386 14.3403 40.8299 14.4145 41.416C8.66129 43.9193 6.02693 50.6121 8.53037 56.3653C9.40276 58.3721 10.8372 60.084 12.6612 61.2944C12.4871 61.8546 12.3715 62.4341 12.3163 63.0184C12.0266 66.9389 14.3266 70.5921 17.9885 72.0248C18.6213 82.4656 27.5966 90.417 38.0374 89.7842C40.8114 89.6169 43.5146 88.8395 45.9542 87.5103C47.9713 87.8705 50.0143 88.062 52.0626 88.081C52.0626 88.4119 52.1591 88.7344 52.3402 89.012L57.283 96.4754C57.602 96.9581 58.1416 97.2494 58.7209 97.2494H58.7415C59.326 97.2426 59.8672 96.9391 60.1794 96.4443L64.405 89.7343C65.2085 90.1066 66.0841 90.2998 66.9704 90.298C68.1738 90.2927 69.3514 89.9531 70.3719 89.3187L75.632 85.4533C81.3799 81.2225 85.99 75.6366 89.0536 69.1904L91.4191 64.2027C92.2638 62.2787 92.0793 60.0581 90.9312 58.2978L97.7584 56.1152C98.6653 55.8239 99.1635 54.8533 98.8738 53.9463C98.7651 53.6101 98.5566 53.3154 98.2756 53.1016L90.3451 47.0674C89.8503 46.6898 89.1916 46.6088 88.6211 46.8536C88.4986 46.9088 88.3831 46.9777 88.2762 47.0587C87.6091 42.0779 85.9057 37.2921 83.2764 33.0095C85.5433 31.41 86.8914 28.8067 86.888 26.0309ZM29.3203 28.9255C32.1771 28.9255 34.4925 31.2409 34.4925 34.0977C34.4925 36.9545 32.1771 39.2698 29.3203 39.2698C26.4635 39.2698 24.1482 36.9545 24.1482 34.0977C24.1482 31.2411 26.4635 28.9255 29.3203 28.9255ZM30.9479 52.8571C30.4635 53.0176 29.9808 53.183 29.5084 53.3744C29.4068 53.4174 29.3118 53.4691 29.2118 53.5124C26.4033 54.0364 23.7017 52.1848 23.1794 49.3765C22.6553 46.568 24.507 43.8663 27.3153 43.3441C30.1236 42.8218 32.8236 44.6716 33.3477 47.4799C33.7425 49.5953 32.7875 51.7332 30.9479 52.8487V52.8571ZM15.7469 63.3239C15.8142 62.6446 16.0124 61.986 16.333 61.3843L17.1381 59.8551L15.6071 59.0552C11.6193 57.1726 9.9125 52.4125 11.7953 48.4247C12.7935 46.3093 14.6676 44.7387 16.9244 44.1265L18.5726 43.6093L18.0451 41.9611C17.8329 41.3146 17.7519 40.6319 17.8089 39.9527C18.0002 38.082 19.1555 36.4477 20.8552 35.6426C21.2431 37.746 22.4016 39.6286 24.1033 40.9235C24.0585 40.9475 24.0068 40.9614 23.9619 40.9873C19.8414 43.3578 18.4225 48.6196 20.7932 52.7418C21.6983 54.314 23.0776 55.5624 24.7327 56.3037C21.1243 59.3138 18.7657 63.5602 18.1158 68.2152C16.5072 67.127 15.6039 65.26 15.7469 63.3239ZM21.3742 70.8562C21.3742 62.286 28.3204 55.3398 36.8906 55.3398C45.4608 55.3398 52.407 62.286 52.407 70.8562C52.407 79.4264 45.4608 86.3726 36.8906 86.3726C28.3342 86.3863 21.388 79.4609 21.3742 70.9045C21.3742 70.8889 21.3742 70.8715 21.3742 70.8562ZM58.6843 92.348L56.8896 89.6345L60.5101 89.4621L58.6843 92.348ZM88.2671 62.7893L85.931 67.7131C83.1121 73.6421 78.871 78.7833 73.5833 82.6743L68.4492 86.4568C67.2751 87.1723 65.7544 86.9155 64.8822 85.8533C63.9082 84.6827 64.0668 82.9432 65.2374 81.969C65.3168 81.9035 65.3994 81.8413 65.4857 81.7845L69.6234 78.4226C74.387 74.5454 78.259 69.6886 80.9797 64.1821L82.7899 60.5271C83.4382 59.0237 85.1828 58.3289 86.6862 58.9772C87.3947 59.2823 87.9586 59.8531 88.2534 60.5669C88.5534 61.2772 88.5568 62.0755 88.2671 62.7893ZM90.6602 51.6486L93.5445 53.8415L90.2895 54.8759L90.6602 51.6486ZM84.9709 55.3242C82.6382 55.4881 80.5901 56.9344 79.6557 59.0774L77.8919 62.6497C75.3887 67.7165 71.825 72.1854 67.4424 75.7523L63.5168 78.9591C62.0808 79.9365 61.1205 81.471 60.8687 83.1899C60.8516 83.3071 60.8687 83.4245 60.855 83.5348C57.3087 84.4726 53.6296 84.8157 49.9711 84.5486C57.5464 77.3353 57.8396 65.3462 50.6263 57.7707C47.047 54.0122 42.0818 51.8864 36.8906 51.8916C36.6338 51.8916 36.3734 51.9193 36.1251 51.9296C37.763 48.2919 36.6769 44.0041 33.5029 41.5853C37.6459 39.3078 39.1577 34.1029 36.8803 29.9601C35.8786 28.1378 34.2494 26.7431 32.2961 26.0362C38.0406 21.5536 45.1212 19.1245 52.407 19.1348C54.7258 19.1366 57.0361 19.3831 59.3032 19.8692C49.2296 22.7173 43.3712 33.1943 46.2211 43.2679C49.071 53.3414 59.5462 59.1999 69.6198 56.35C76.8262 54.3122 82.1587 48.221 83.2243 40.8077C84.9052 45.4505 85.5053 50.4141 84.9794 55.3242H84.9709ZM80.1176 30.8428L78.5659 31.4445L79.1108 33.0168C81.9349 41.1249 77.6523 49.9866 69.5442 52.8105C61.4361 55.6345 52.5743 51.352 49.7505 43.2438C46.9266 35.1357 51.209 26.274 59.3171 23.4501C63.3083 22.0605 67.6925 22.3553 71.4613 24.2655L72.9457 25.0189L73.7508 23.5586C75.1145 21.0588 78.2453 20.1381 80.7453 21.5019C83.2453 22.8656 84.1658 25.9964 82.802 28.4964C82.2141 29.572 81.2623 30.4048 80.1176 30.8428Z" fill="black"/>
<path d="M43.786 62.2362H40.3379V65.6844H43.786V62.2362Z" fill="black"/>
<path d="M48.9579 67.4081H45.5098V70.8562H48.9579V67.4081Z" fill="black"/>
<path d="M43.786 74.3041H40.3379V77.7522H43.786V74.3041Z" fill="black"/>
<path d="M29.995 74.3041H26.5469V77.7522H29.995V74.3041Z" fill="black"/>
<path d="M33.4423 62.2362H29.9941V65.6844H33.4423V62.2362Z" fill="black"/>
<path d="M36.8915 79.4767H33.4434V82.9248H36.8915V79.4767Z" fill="black"/>
<path d="M36.8915 69.1322H33.4434V72.5804H36.8915V69.1322Z" fill="black"/>
</g>
<defs>
<clipPath id="clip0">
<rect width="103.443" height="103.443" fill="white" transform="translate(0.685547 0.17041)"/>
</clipPath>
</defs>
</svg>
