<svg width="30" height="20" viewBox="0 0 191 68" fill="none" xmlns="http://www.w3.org/2000/svg">
<path d="M58.3171 6.14463V22.5769H188V45.4231H58.3171V61.8554C58.3171 64.1533 55.8395 65.598 53.8397 64.4663L4.61405 36.611C2.584 35.4622 2.584 32.5378 4.61405 31.389L53.8397 3.53367C55.8396 2.40199 58.3171 3.84675 58.3171 6.14463Z" stroke="#009992" stroke-opacity="0.7" stroke-width="5"/>
<path d="M56.5 6.21702V25H185.5V43H56.5V61.783C56.5 62.5494 55.6732 63.031 55.0066 62.6528L6.03318 34.8698C5.35776 34.4866 5.35776 33.5134 6.03318 33.1302L55.0066 5.34724C55.6732 4.96905 56.5 5.45058 56.5 6.21702Z" fill="white"/>
<path d="M52 14.6952V29H180.5V39H52V53.305C52 54.0665 51.1828 54.5486 50.5163 54.1803L15.5838 34.8754C14.8953 34.495 14.8953 33.5054 15.5838 33.125L50.5163 13.8199C51.1828 13.4516 52 13.9337 52 14.6952Z" fill="#A8A8A8"/>
<path d="M52 14.6952V29H180.5V39H52V53.305C52 54.0665 51.1828 54.5486 50.5163 54.1803L15.5838 34.8754C14.8953 34.495 14.8953 33.5054 15.5838 33.125L50.5163 13.8199C51.1828 13.4516 52 13.9337 52 14.6952Z" fill="url(#paint0_linear)"/>
<defs>
<linearGradient id="paint0_linear" x1="97.25" y1="13" x2="97.25" y2="55.0002" gradientUnits="userSpaceOnUse">
<stop stop-color="#009992"/>
<stop offset="1" stop-color="white" stop-opacity="0"/>
</linearGradient>
</defs>
</svg>
