<svg width="30" height="20" viewBox="0 0 191 68" fill="none" xmlns="http://www.w3.org/2000/svg">
<path d="M132.683 61.8554V45.4231L3 45.4231V22.5769L132.683 22.5769V6.14463C132.683 3.84675 135.16 2.40199 137.16 3.53367L186.386 31.389C188.416 32.5378 188.416 35.4622 186.386 36.611L137.16 64.4663C135.16 65.598 132.683 64.1532 132.683 61.8554Z" stroke="#009992" stroke-opacity="0.7" stroke-width="5"/>
<path d="M134.5 61.783V43L5.5 43V25L134.5 25V6.21702C134.5 5.45058 135.327 4.96905 135.993 5.34724L184.967 33.1302C185.642 33.5134 185.642 34.4866 184.967 34.8698L135.993 62.6528C135.327 63.031 134.5 62.5494 134.5 61.783Z" fill="white"/>
<path d="M139 53.3048V39L10.5 39V29L139 29V14.695C139 13.9335 139.817 13.4514 140.484 13.8197L175.416 33.1246C176.105 33.505 176.105 34.4946 175.416 34.875L140.484 54.1801C139.817 54.5484 139 54.0663 139 53.3048Z" fill="#A8A8A8"/>
<path d="M139 53.3048V39L10.5 39V29L139 29V14.695C139 13.9335 139.817 13.4514 140.484 13.8197L175.416 33.1246C176.105 33.505 176.105 34.4946 175.416 34.875L140.484 54.1801C139.817 54.5484 139 54.0663 139 53.3048Z" fill="url(#paint0_linear)"/>
<defs>
<linearGradient id="paint0_linear" x1="93.75" y1="55" x2="93.75" y2="12.9998" gradientUnits="userSpaceOnUse">
<stop stop-color="#009992"/>
<stop offset="1" stop-color="white" stop-opacity="0"/>
</linearGradient>
</defs>
</svg>
