<svg width="20" height="30" viewBox="0 0 68 191" fill="none" xmlns="http://www.w3.org/2000/svg">
<path d="M6.14463 132.683H22.5769L22.5769 3H45.4231L45.4231 132.683H61.8554C64.1533 132.683 65.598 135.16 64.4663 137.16L36.611 186.386C35.4622 188.416 32.5378 188.416 31.389 186.386L3.53367 137.16C2.40199 135.16 3.84675 132.683 6.14463 132.683Z" stroke="#009992" stroke-opacity="0.7" stroke-width="5"/>
<path d="M6.21702 134.5H25L25 5.5H43L43 134.5H61.783C62.5494 134.5 63.031 135.327 62.6528 135.993L34.8698 184.967C34.4866 185.642 33.5134 185.642 33.1302 184.967L5.34724 135.993C4.96905 135.327 5.45058 134.5 6.21702 134.5Z" fill="white"/>
<path d="M14.6952 139H29L29 10.5H39L39 139H53.305C54.0665 139 54.5486 139.817 54.1803 140.484L34.8754 175.416C34.495 176.105 33.5054 176.105 33.125 175.416L13.8199 140.484C13.4516 139.817 13.9337 139 14.6952 139Z" fill="#A8A8A8"/>
<path d="M14.6952 139H29L29 10.5H39L39 139H53.305C54.0665 139 54.5486 139.817 54.1803 140.484L34.8754 175.416C34.495 176.105 33.5054 176.105 33.125 175.416L13.8199 140.484C13.4516 139.817 13.9337 139 14.6952 139Z" fill="url(#paint0_linear)"/>
<defs>
<linearGradient id="paint0_linear" x1="13" y1="93.75" x2="55.0002" y2="93.75" gradientUnits="userSpaceOnUse">
<stop stop-color="#009992"/>
<stop offset="1" stop-color="white" stop-opacity="0"/>
</linearGradient>
</defs>
</svg>
