<?xml version="1.0" encoding="utf-8"?>
<!-- Generator: Adobe Illustrator 23.0.5, SVG Export Plug-In . SVG Version: 6.00 Build 0)  -->
<svg version="1.1" id="Слой_1" xmlns="http://www.w3.org/2000/svg" xmlns:xlink="http://www.w3.org/1999/xlink" x="0px" y="0px"
	 width="100%" height="100%" viewBox="0 0 728 265" style="enable-background:new 0 0 728 265;" xml:space="preserve">
<style type="text/css">
	.st0{fill:#FFFFFF;}
</style>
<g>
	<path class="st0" d="M219.2,63.3c11.8-0.1,23.6,0,35.4,0c-14,12.6-28,25.2-42,37.8C214.7,88.4,217,75.9,219.2,63.3z"/>
</g>
<g>
	<path class="st0" d="M102.7,88.7c8.4-7.9,19.7-13.1,31.3-13c9.5,0,19.1,0,28.6,0c-4.6,25.9-9.1,51.8-13.7,77.7c-6.7,0-13.3,0-20,0
		c1-6.1,2.1-12.2,3.2-18.3c-14.9,0-29.8,0-44.7,0c6.2-5.6,11.8-12.3,19.8-15.2c8.8-3.9,18.7-2.2,28-2.6c1.4-8,2.8-16,4.2-24
		c-8-0.6-16.7,0.3-22.9,6c-19.6,18-39.3,35.9-58.9,53.9c-8.6,0.1-17.1,0-25.7,0.1C55.5,131.9,79.1,110.3,102.7,88.7z"/>
	<path class="st0" d="M186.4,75.7c6.6,0,13.2,0,19.8,0c-3.1,17.9-6.3,35.7-9.4,53.6c19.6-17.9,39.3-35.7,59-53.6
		c8.1,0,16.1,0,24.1,0c-4.5,25.9-9.1,51.8-13.7,77.7c-6.6,0-13.2,0-19.8,0c3.2-18.2,6.5-36.4,9.6-54.6
		c-15.8,14.3-31.5,28.6-47.2,42.9c-5.9,5.2-12.9,9.2-20.6,11c-5.1,1.2-10.3,0.7-15.4,0.8C177.2,127.6,181.8,101.7,186.4,75.7z"/>
	<path class="st0" d="M300,75.8c30,0,59.9,0.1,89.8,0c-7.8,4.4-14.6,10.5-19.7,17.8c-8.3,0.1-16.5-0.1-24.7,0.1
		c-3.4,20-7,40-10.5,60c-6.6,0-13.2,0-19.8,0c3.5-20,7-40,10.6-60c-9.6-0.1-19.2,0-28.8,0C297.9,87.6,299,81.7,300,75.8z"/>
	<path class="st0" d="M381.4,116c3.2-22.5,24.7-41.1,47.6-40.3c12.7,0.1,25.3-0.1,38,0c8.6,0.2,16.7,6.7,18.2,15.2
		c3.2,16.4-11.8,32.7-28.1,32.5c-15.7,0-31.4,0-47.1,0c-2.9-6-1.1-13,3.2-17.7c15,0,30,0,45,0c3.6,0.2,7.1-2.3,7.9-5.9
		c1.1-3.1-1.8-6.6-5-6.3c-11.3-0.1-22.7,0-34-0.1c-13.9-0.3-26.9,12.6-25.9,26.6c0.5,8.6,8.3,15.7,16.8,15.7c19.9,0,39.8,0,59.7,0
		c-1,5.9-2.1,11.8-3.1,17.7c-18.1,0-36.3,0-54.4,0c-5.2,0-10.4,0.4-15.4-1c-8.1-2-15.4-7.4-19.4-14.6
		C381.5,131.3,380.3,123.4,381.4,116z"/>
	<path class="st0" d="M508.3,75.8c6.6,0,13.2,0,19.8,0c-1.8,10-3.5,20-5.3,30c6.2-0.2,12.5,0.4,18.7-0.3c11.1-9.7,21.7-20,32.8-29.8
		c8.6,0.1,17.3,0,25.9,0c-13.9,12.7-27.8,25.4-41.7,38.1c9.8,13.2,19.6,26.4,29.3,39.6c-4.6-0.1-9.1,0.2-13.7-0.1
		c-6.9-0.7-13.7-4.1-17.8-9.8c-5-6.7-9.9-13.3-14.8-20.1c-7.3-0.1-14.5,0-21.8,0c-1.8,10-3.5,20-5.3,30c-6.6,0-13.2,0-19.9,0
		C499.1,127.6,503.7,101.7,508.3,75.8z"/>
	<path class="st0" d="M633.4,76.6c8.4-1.7,17-0.6,25.5-0.9c7.3-0.3,14.9,0.3,21.3,4c9.3,4.9,15.5,14.8,16.2,25.3
		c0.9,13.6-4.7,27.6-15,36.5c-10,8.5-23.4,12.9-36.5,12.1c-7.7-0.3-15.4,0.5-23-0.5c-10.5-1.7-20-9.1-23.8-19.1
		c-3.6-9-2.8-19.3,0.8-28.1C604.9,91.4,618.1,80,633.4,76.6 M634.3,94.6c-9.8,3-17.7,12.1-18.5,22.5c-0.6,6.8,3.1,13.9,9.4,16.8
		c5.2,2.7,11.2,1.7,16.8,1.9c5.6-0.2,11.3,0.7,16.7-1.2c9.5-3.3,17.3-12.3,17.9-22.6c0.4-6.4-2.8-13-8.5-16.1
		c-5.1-3.1-11.3-2.3-17-2.4C645.5,93.7,639.8,92.8,634.3,94.6z"/>
</g>
<g>
	<path class="st0" d="M448.7,168.4c1.8-0.4,3.6-0.9,5.5-1.3c0.9,1.6,1.5,4.2,3.9,3.9c2.2,0.2,2.6-2.4,3.3-4c1.7,0.5,3.3,0.9,5,1.4
		c-1.3,5.4-7.6,8.1-12.6,5.9C451,173.5,449.7,170.8,448.7,168.4z"/>
	<path class="st0" d="M117.9,177c2.2,0,4.3,0,6.5,0c0,5.4,0.2,10.9-0.4,16.3c3.1-5.9,7.4-10.9,11.3-16.3c1.4,0,2.7,0,4.1,0
		c0,8.7,0,17.3,0,26c-2.2,0-4.3,0-6.5,0c0-5.2-0.1-10.5,0.3-15.7c-3,5.7-7.5,10.4-11.2,15.7c-1.4,0-2.7,0-4.1,0
		C117.9,194.3,117.9,185.7,117.9,177z"/>
	<path class="st0" d="M144.9,177c2.2,0,4.4,0,6.5,0c0,3.3,0,6.7,0,10c2.7,0,5.4,0,8.1,0c0-3.3,0-6.7,0-10c2.2,0,4.3,0,6.5,0
		c0,8.7,0,17.3,0,26c-2.2,0-4.3,0-6.5,0c0-3.7,0-7.3,0-11c-2.7,0-5.4,0-8.1,0c0,3.7,0,7.3,0,11c-2.2,0-4.4,0-6.5,0
		C144.9,194.3,144.9,185.7,144.9,177z"/>
	<path class="st0" d="M171.9,177c2.2,0,4.4,0,6.5,0c0,3.3,0,6.7,0,10c2.7,0,5.4,0,8.1,0c0-3.3,0-6.7,0-10c2.2,0,4.3,0,6.5,0
		c0,8.7,0,17.3,0,26c-2.2,0-4.3,0-6.5,0c0-3.7,0-7.3,0-11c-2.7,0-5.4,0-8.1,0c0,3.7,0,7.3,0,11c-2.2,0-4.4,0-6.5,0
		C171.9,194.3,171.9,185.7,171.9,177z"/>
	<path class="st0" d="M205.4,177.6c5.3-1.7,12.2,0.1,14.5,5.5c1.7,4.4,1.8,9.5,0,13.8c-3.6,8.5-18.2,8.2-21.2-0.7
		C196.2,189.7,197.6,179.7,205.4,177.6 M207.4,182.4c-2.4,1.2-3,4.1-3,6.5c-0.1,2.8,0,6.3,2.4,8.2c2.1,1.7,5.6,1,6.7-1.5
		c1.4-3.3,1.4-7.2,0.3-10.6C213,182.5,209.8,181.1,207.4,182.4z"/>
	<path class="st0" d="M225.9,177.6c5.5-0.6,11.5-1.5,16.8,0.7c4.5,2.4,3.3,9.3-1,11.3c1.2,0.7,2.6,1.2,3.6,2.1
		c2.4,3.1,1.3,8.5-2.6,9.9c-5.3,2.1-11.3,1.5-16.8,0.7C225.9,194.1,225.9,185.9,225.9,177.6 M232.3,181.9c0,2.1,0,4.1,0,6.2
		c1.8-0.2,3.6,0.2,5.3-0.5c2.1-0.8,2.5-4.5,0.1-5.2C235.9,181.9,234.1,182,232.3,181.9 M232.3,191.9c0,2,0,4.1,0,6.1
		c2.6-0.2,7.6,0.7,7.7-3.2C239.7,191.2,234.9,192.1,232.3,191.9z"/>
	<path class="st0" d="M250.6,178.7c5.1-1.4,10.7-2.8,15.7-0.8c3.1,1.3,3.9,5.1,3.8,8.1c-0.1,5.7-0.8,11.4,0.4,17
		c-1.7,0-3.4-0.1-5.1-0.1c-0.4-1.2-0.7-2.4-1-3.5c-2.8,3.2-7.6,4.8-11.5,2.8c-4.6-2-5.1-9.4-0.9-12c3.5-2.3,7.9-2.2,11.9-2.3
		c-0.4-1.9,0.4-4.9-2-5.7c-3.3-0.8-6.6,0.3-9.7,1.1C251.7,181.8,251.1,180.3,250.6,178.7 M255.8,194.9c-0.2,3.7,4.9,3.9,6.8,1.8
		c1.4-1.1,1-3.2,1.3-4.8C261.2,192.2,256.6,191.3,255.8,194.9z"/>
	<path class="st0" d="M275.9,177c2.2,0,4.4,0,6.5,0c0,7,0,14,0,21c2.6,0,5.1,0,7.7,0c0-7,0-14,0-21c2.2,0,4.3,0,6.5,0c0,7,0,14,0,21
		c0.9,0,2.8,0,3.7,0c0,3.7,0,7.3,0,11c-1.6,0-3.2,0-4.7,0c-0.3-2-0.5-4-0.8-6c-6.3,0-12.6,0-18.9,0
		C275.9,194.3,275.9,185.7,275.9,177z"/>
	<path class="st0" d="M303.9,177c2.2,0,4.3,0,6.5,0c0,5.4,0.2,10.9-0.4,16.4c3.1-5.9,7.5-10.9,11.3-16.4c1.4,0,2.7,0,4.1,0
		c0,8.7,0,17.3,0,26c-2.2,0-4.4,0-6.5,0c0-5.2-0.1-10.5,0.3-15.7c-3,5.7-7.5,10.4-11.2,15.7c-1.4,0-2.7,0-4.1,0
		C303.9,194.3,303.9,185.7,303.9,177z"/>
	<path class="st0" d="M337.4,177.5c5.3-1.7,12.2,0.1,14.5,5.6c1.7,4.4,1.8,9.5,0,13.9c-3.7,8.5-18.3,8.1-21.2-0.8
		C328.2,189.6,329.6,179.6,337.4,177.5 M339.4,182.4c-3.7,2-3.1,6.9-2.8,10.5c0.2,3,3,6,6.2,5c4.3-1.6,4-7.2,3.5-10.9
		C346.2,183.6,342.6,180.6,339.4,182.4z"/>
	<path class="st0" d="M357.9,177c2.2,0,4.4,0,6.5,0c0,3.3,0,6.7,0,10c2.7,0,5.4,0,8.1,0c0-3.3,0-6.7,0-10c2.1,0,4.3,0,6.5,0
		c0,8.7,0,17.3,0,26c-2.2,0-4.3,0-6.5,0c0-3.7,0-7.3,0-11c-2.7,0-5.4,0-8.1,0c0,3.7,0,7.3,0,11c-2.2,0-4.4,0-6.5,0
		C357.9,194.3,357.9,185.7,357.9,177z"/>
	<path class="st0" d="M384.9,177c2.2,0,4.4,0,6.5,0c0,3.3,0,6.7,0,10c2.7,0,5.4,0,8.1,0c0-3.3,0-6.7,0-10c2.1,0,4.3,0,6.5,0
		c0,8.7,0,17.3,0,26c-2.2,0-4.3,0-6.5,0c0-3.7,0-7.3,0-11c-2.7,0-5.4,0-8.1,0c0,3.7,0,7.3,0,11c-2.2,0-4.4,0-6.5,0
		C384.9,194.3,384.9,185.7,384.9,177z"/>
	<path class="st0" d="M411.9,177c2.2,0,4.4,0,6.5,0c0,3.1,0,6.2-0.1,9.3c4.2-0.4,9.7-1.1,12.5,2.9c2.4,4.3,1.3,11.3-4,12.9
		c-4.9,1.4-10.1,1.1-15,0.4C411.9,194,411.8,185.5,411.9,177 M418.4,191.1c0,2.3,0,4.7,0,7c2.8,0.2,7.6,0.1,6.9-4
		C425.3,190.4,420.9,191,418.4,191.1z"/>
	<path class="st0" d="M434.7,177c2.2,0,4.3,0,6.5,0c0,8.7,0,17.3,0,26c-2.2,0-4.4,0-6.5,0C434.7,194.3,434.7,185.7,434.7,177z"/>
	<path class="st0" d="M446.9,177c2.2,0,4.3,0,6.5,0c0,5.4,0.1,10.8-0.3,16.3c2.9-5.9,7.5-10.7,11.1-16.2c1.4,0,2.8,0,4.2,0
		c0,8.7,0,17.3,0,26c-2.2,0-4.4,0-6.6,0c0-5.2-0.1-10.4,0.3-15.6c-3.1,5.6-7.4,10.5-11.3,15.6c-1.4,0-2.7,0-4.1,0
		C446.9,194.3,446.9,185.7,446.9,177z"/>
	<path class="st0" d="M486.9,177c2.2,0,4.4,0,6.5,0c0,7,0,14,0,21c2.6,0,5.1,0,7.7,0c0-7,0-14,0-21c2.2,0,4.3,0,6.5,0c0,7,0,14,0,21
		c0.9,0,2.8,0,3.7,0c0,3.7,0,7.3,0,11c-1.6,0-3.2,0-4.7,0c-0.3-2-0.5-4-0.8-6c-6.3,0-12.6,0-18.9,0
		C486.9,194.3,486.9,185.7,486.9,177z"/>
	<path class="st0" d="M518.1,179.1c4.4-3,11.2-3.2,15.2,0.7c3.1,3.3,2.3,8.1,2.1,12.2c-5.2,0-10.3-0.1-15.5,0.1
		c0.7,1.8,0.9,4.1,2.8,5.1c3.2,1.8,7,0.5,10.1-0.9c0.7,1.4,1.3,2.8,2,4.2c-4.8,2.4-10.6,3.7-15.6,1.3c-4-2-5.5-6.7-5.6-10.8
		C513.5,186.7,514.4,181.8,518.1,179.1 M521.8,183.7c-0.8,1.3-1.2,2.8-1.7,4.2c3.3,0.1,6.5,0.1,9.8,0c-0.2-2.4-1-4.7-2.9-6.3
		C525.2,182.2,522.9,182,521.8,183.7z"/>
	<path class="st0" d="M539.9,177c2.2,0,4.3,0,6.5,0c0,3.3,0,6.7,0,10c2.7,0,5.4,0,8.1,0c0-3.3,0-6.7,0-10c2.1,0,4.3,0,6.5,0
		c0,8.7,0,17.3,0,26c-2.2,0-4.3,0-6.5,0c0-3.7,0-7.3,0-11c-2.7,0-5.5-0.1-8.2,0c0,3.7,0,7.3,0,11c-2.2,0-4.4,0-6.5,0
		C539.9,194.3,539.9,185.7,539.9,177z"/>
	<path class="st0" d="M564,177c7,0,13.9,0,20.9,0c0,1.7,0,3.3,0,5c-2.4,0-4.8,0-7.1,0c0,7,0,14,0,21c-2.2,0-4.4,0-6.6,0
		c0-7,0-14,0-21c-2.4,0-4.8,0-7.1,0C564,180.3,564,178.7,564,177z"/>
	<path class="st0" d="M587.9,177c1.6,0,3.2,0,4.7,0c0.2,0.9,0.5,2.7,0.7,3.6c3.9-5.1,13.2-5,15.8,1.2c1.9,5.7,2,12.7-1.8,17.6
		c-3.1,3.8-8.6,4.3-13,2.9c0.1,3.6,0.1,7.2,0.1,10.8c-2.2,0-4.4,0-6.5,0C587.9,201,587.9,189,587.9,177 M594.8,184.8
		c-0.9,4-0.2,8.2-0.5,12.3c2.5,1.1,6,1.8,7.8-0.9c2.1-3.3,1.8-7.6,1-11.2C602.3,181,595.9,181,594.8,184.8z"/>
</g>
</svg>
