<svg width="100%" height="100%" viewBox="0 0 204 208" fill="none" xmlns="http://www.w3.org/2000/svg">
<path d="M108.297 46.9375L104.641 33.1562H49.5156L43.75 80.4062C47.5938 77.5938 52.1875 75.2969 57.5312 73.5156C62.875 71.6406 68.7812 70.6562 75.25 70.5625C94.9375 70.2812 110.172 76.2344 120.953 88.4219C131.734 100.609 137.125 117.578 137.125 139.328C137.125 159.016 131.172 175.375 119.266 188.406C107.453 201.438 90.3906 207.953 68.0781 207.953C49.3281 207.953 33.25 202.844 19.8438 192.625C6.4375 182.312 -0.03125 168.156 0.4375 150.156L0.71875 149.453L40.0938 147.484C40.0938 156.578 42.6719 163.703 47.8281 168.859C52.9844 173.922 59.7344 176.453 68.0781 176.453C77.6406 176.453 84.7188 173.031 89.3125 166.188C93.9062 159.344 96.2031 150.484 96.2031 139.609C96.2031 127.797 93.7656 118.328 88.8906 111.203C84.0156 104.078 76.75 100.516 67.0938 100.516C59.3125 100.516 53.3125 101.969 49.0938 104.875C44.9688 107.781 42.0156 111.719 40.2344 116.688L3.95312 114.297L15.7656 0.25H133.609V46.9375H108.297ZM203.641 205H162.719V169H203.641V205Z" fill="#009992"/>
</svg>
