<svg width="100%" height="100%" viewBox="0 0 209 211" fill="none" xmlns="http://www.w3.org/2000/svg">
<path d="M46.1875 88.1875H69.25C79 88.1875 86.2188 85.6562 90.9062 80.5938C95.5938 75.4375 97.9375 68.3125 97.9375 59.2188C97.9375 50.9687 95.5938 44.3594 90.9062 39.3906C86.2188 34.4219 79.4219 31.9375 70.5156 31.9375C62.8281 31.9375 56.3594 34.1875 51.1094 38.6875C45.8594 43.1875 43.2344 49.0938 43.2344 56.4062H3.4375L3.15625 55.5625C2.59375 39.5312 8.73438 26.3125 21.5781 15.9062C34.4219 5.5 50.3594 0.296875 69.3906 0.296875C90.5781 0.296875 107.453 5.35938 120.016 15.4844C132.672 25.6094 139 40.0469 139 58.7969C139 67.7031 136.188 76.1875 130.562 84.25C124.938 92.2188 117.203 98.4531 107.359 102.953C118.703 106.984 127.328 113.172 133.234 121.516C139.234 129.859 142.234 139.562 142.234 150.625C142.234 169.375 135.391 184.141 121.703 194.922C108.109 205.609 90.6719 210.953 69.3906 210.953C50.3594 210.953 34 205.938 20.3125 195.906C6.71875 185.781 0.15625 171.531 0.625 153.156L0.90625 152.312H40.7031C40.7031 160.188 43.5156 166.703 49.1406 171.859C54.7656 176.922 61.8906 179.453 70.5156 179.453C79.9844 179.453 87.4375 176.828 92.875 171.578C98.4062 166.328 101.172 159.203 101.172 150.203C101.172 139.422 98.4531 131.547 93.0156 126.578C87.6719 121.516 79.75 118.984 69.25 118.984H46.1875V88.1875ZM208.047 208H167.125V172H208.047V208Z" fill="#009992"/>
</svg>
