<svg width="100%" height="100%" viewBox="0 0 212 208" fill="none" xmlns="http://www.w3.org/2000/svg">
<path d="M3.46875 208V181.141L69.7031 110.125C79.2656 99.1562 86.0625 89.9219 90.0938 82.4219C94.125 74.8281 96.1406 67.7969 96.1406 61.3281C96.1406 52.7031 93.7969 45.6719 89.1094 40.2344C84.5156 34.7031 77.9531 31.9375 69.4219 31.9375C59.9531 31.9375 52.7344 35.1719 47.7656 41.6406C42.8906 48.0156 40.4531 56.5469 40.4531 67.2344H0.515625L0.234375 66.3906C-0.234375 47.9219 5.8125 32.3125 18.375 19.5625C31.0312 6.71875 48.0469 0.296875 69.4219 0.296875C90.5156 0.296875 107.109 5.78125 119.203 16.75C131.297 27.7188 137.344 42.3438 137.344 60.625C137.344 73 133.922 84.4375 127.078 94.9375C120.328 105.438 109.078 119.125 93.3281 136L56.9062 175.797L57.1875 176.5H110.344L112.031 156.25H143.25V208H3.46875ZM211.453 208H170.531V172H211.453V208Z" fill="#009992"/>
</svg>
