<svg width="418" height="200" viewBox="0 0 418 200" fill="none" xmlns="http://www.w3.org/2000/svg">
<path d="M161.522 0C166.952 11.2717 169.726 23.6605 170.954 36.0549C172.46 52.579 170.976 69.2642 167.558 85.4658C164.434 99.3442 160.11 113.106 153.091 125.539C148.011 122.621 142.875 119.77 137.912 116.68C131.275 105.241 124.589 93.814 118.136 82.2755C118.053 76.484 118.136 70.6926 118.097 64.9011C130.253 61.5885 139.846 52.4178 146.704 42.1854C152.007 34.3097 155.931 25.5447 158.615 16.4518C159.682 12.2054 160.922 7.94798 161.061 3.54602C161.139 2.35661 161.289 1.17274 161.522 0Z" fill="white"/>
<path d="M294.497 72.1379C298.271 67.408 304.146 64.5845 310.127 64.0398C314.267 63.3062 318.464 63.9398 322.599 64.4067C326.784 65.1237 330.958 66.2241 334.76 68.1528C334.721 71.5432 334.771 74.9391 334.738 78.3295C332.926 77.9182 331.664 76.4398 330.074 75.595C325.389 72.9049 320.048 71.043 314.584 71.2875C310.349 71.1097 305.83 72.338 302.829 75.4616C300.039 78.2795 299.817 82.9316 301.606 86.3387C302.89 88.5452 305.097 90.0737 307.476 90.9129C314.473 93.2917 322.121 93.6364 328.796 96.9878C333.198 99.1221 336.483 103.469 337.083 108.354C337.411 111.894 337.255 115.591 335.638 118.831C333.092 124.745 327.245 128.641 321.143 130.119C316.841 131.275 312.344 130.925 307.953 130.825C301.879 130.208 295.876 128.546 290.435 125.773C290.523 122.149 290.373 118.525 290.529 114.907C293.458 116.924 296.27 119.17 299.578 120.576C306.03 123.439 313.523 124.606 320.348 122.371C323.505 121.299 326.428 118.953 327.351 115.641C328.251 112.117 327.684 107.876 324.794 105.397C321.732 102.885 317.669 102.39 313.962 101.423C308.031 99.9725 301.523 99.2166 296.676 95.1537C289.901 89.768 289.023 78.7353 294.497 72.1379Z" fill="white"/>
<path d="M103.952 65.3076C107.025 65.341 110.055 64.6962 113.128 64.7907C113.084 70.6933 113.267 76.6238 113.034 82.5153C106.964 93.2312 100.75 103.875 94.6199 114.557C93.9974 115.586 93.5139 116.819 92.3522 117.353C87.6779 120.104 82.948 122.755 78.3015 125.551C73.316 120.916 67.4022 117.27 60.8771 115.252C51.3562 112.006 41.1461 111.528 31.1806 112.162C20.4147 113.207 9.482 115.441 0 120.86C11.6607 103.78 28.8295 91.1802 47.1932 82.0984C64.9845 73.3723 84.2431 67.4919 103.952 65.3076Z" fill="white"/>
<path d="M240.896 64.8398C255.203 64.851 269.509 64.851 283.815 64.8398C283.871 67.4132 283.821 69.9921 283.86 72.5655C272.549 72.5655 261.244 72.5877 249.939 72.5544C249.778 78.4737 249.934 84.4041 249.856 90.3234C260.416 90.379 270.982 90.329 281.542 90.3512C281.564 92.9246 281.559 95.4979 281.548 98.0713C270.987 98.0824 260.422 98.0546 249.861 98.088C249.884 106.08 249.878 114.073 249.861 122.065C261.189 122.138 272.51 122.071 283.838 122.099C283.843 124.65 283.832 127.206 283.86 129.758C269.52 129.763 255.186 129.758 240.846 129.763C240.891 108.12 240.796 86.4773 240.896 64.8398Z" fill="white"/>
<path d="M339.54 64.8632C358.004 64.8243 376.473 64.8577 394.937 64.8466C394.998 67.4199 394.943 69.9933 394.981 72.5667C387.311 72.5778 379.636 72.5667 371.96 72.5722C371.932 89.1296 371.96 105.693 371.949 122.25C371.905 124.751 372.06 127.263 371.821 129.759C368.77 129.764 365.724 129.764 362.684 129.753C362.706 110.689 362.706 91.6307 362.684 72.5722C354.964 72.5444 347.244 72.6222 339.523 72.5389C339.535 69.9766 339.518 67.4199 339.54 64.8632Z" fill="white"/>
<path d="M184.865 65.2016C186.749 64.6625 188.723 64.8792 190.662 64.8459C195.659 64.8681 200.667 64.807 205.669 64.8737C209.854 65.4573 214.206 64.7792 218.247 66.3021C222.971 67.6582 227.262 71.2765 228.135 76.2954C228.385 79.4524 228.601 82.8372 227.028 85.7107C225.383 89.3457 222.076 91.819 218.586 93.5253C222.443 94.887 226.495 96.6378 228.813 100.201C231.725 104.213 232.103 109.482 231.23 114.218C230.163 119.253 226.645 123.561 222.182 126.023C217.274 129.069 211.327 129.78 205.663 129.758C198.738 129.753 191.813 129.786 184.887 129.736C184.899 108.226 184.943 86.7112 184.865 65.2016ZM194.119 72.4048C194.169 78.7076 194.108 85.0104 194.147 91.3132C198.91 91.2632 203.679 91.4355 208.442 91.2187C212.511 90.8519 217.33 89.0178 218.436 84.6325C219.036 81.4366 219.336 77.4459 216.774 74.9837C214.628 73.2163 211.761 72.4715 209.026 72.4604C204.057 72.3548 199.088 72.4159 194.119 72.4048ZM194.103 98.5331C194.18 106.509 194.119 114.485 194.136 122.46C200.016 122.405 205.936 122.733 211.777 121.832C216.224 120.921 220.837 118.092 221.854 113.362C222.343 110.199 222.332 106.737 220.831 103.824C218.919 100.695 215.195 99.2556 211.727 98.7276C205.858 98.3719 199.978 98.5831 194.103 98.5331Z" fill="white"/>
<path d="M113.529 97.6557C119.031 96.2217 125.095 100.996 124.873 106.687C125.167 111.862 120.237 116.575 115.068 116.019C110.272 115.936 106.114 111.456 106.375 106.665C106.237 102.452 109.549 98.6839 113.529 97.6557Z" fill="white"/>
<path d="M93.5751 122.405C94.7478 121.799 95.9039 120.905 97.2989 120.977C109.821 121.016 122.349 120.921 134.866 121.021C140.263 123.634 145.32 126.935 150.55 129.881C147.099 142.992 150.973 156.776 157.114 168.459C163.917 180.898 173.188 192.331 185.249 200.001C174.328 199.328 163.679 196.199 153.58 192.103C138.873 185.939 125.35 177.174 113.162 166.936C100.684 156.209 89.1286 144.109 80.6582 129.925C84.9268 127.357 89.2843 124.94 93.5751 122.405Z" fill="white"/>
<path d="M340.474 139.217C343.514 136.788 347.994 137.044 351.29 138.822C351.884 139.617 351.423 140.773 351.551 141.712C349.222 139.873 346.232 139.017 343.319 139.823C339.468 142.079 339.034 147.698 341.235 151.239C342.986 153.923 346.599 154.14 349.339 152.995C349.322 151.522 349.322 150.05 349.344 148.577C348.005 148.566 346.676 148.549 345.354 148.477C345.354 147.787 345.37 147.104 345.398 146.42C347.46 146.426 349.528 146.426 351.595 146.415C351.601 148.988 351.601 151.561 351.601 154.14C348.772 155.396 345.509 155.986 342.513 155.024C339.195 153.812 337.361 150.122 337.606 146.72C337.372 143.958 338.362 141.062 340.474 139.217Z" fill="white"/>
<path d="M184.832 137.861C188.5 137.617 192.235 137.489 195.893 137.95C195.87 138.55 195.865 139.156 195.859 139.762C192.958 139.801 190.051 139.762 187.155 139.79C187.144 141.407 187.144 143.03 187.155 144.653C189.89 144.686 192.624 144.609 195.364 144.714C195.209 145.431 195.048 146.143 194.875 146.854C192.296 146.804 189.718 146.821 187.144 146.843C187.15 148.927 187.144 151.017 187.15 153.101C190.012 153.129 192.88 153.118 195.754 153.107C195.792 153.79 195.854 154.474 195.943 155.163C192.241 155.319 188.534 155.202 184.838 155.23C184.838 149.438 184.849 143.653 184.832 137.861Z" fill="white"/>
<path d="M198.239 137.705C198.811 137.699 199.956 137.682 200.528 137.677C200.601 140.345 200.534 143.018 200.573 145.686C203.152 143.14 205.369 140.261 207.898 137.666C208.749 137.677 209.605 137.705 210.477 137.744C208.249 140.478 205.625 142.857 203.38 145.58C205.775 148.621 208.093 151.739 210.655 154.645C212.589 149.015 214.451 143.363 216.397 137.738C217.297 137.705 218.197 137.682 219.109 137.66C221.16 143.479 223.111 149.338 225.045 155.201C224.461 155.218 223.294 155.246 222.716 155.262C222.116 153.606 221.621 151.916 220.887 150.31C218.731 150.355 216.569 150.338 214.418 150.332C213.862 151.878 213.506 153.501 212.801 154.985C211.305 155.59 209.527 155.096 207.932 155.212C205.886 152.472 203.697 149.838 201.64 147.114C201.195 147.715 200.462 148.254 200.567 149.087C200.523 151.138 200.578 153.189 200.562 155.24C199.978 155.235 198.805 155.224 198.216 155.224C198.233 149.382 198.188 143.546 198.239 137.705ZM215.129 148.215C216.897 148.282 218.664 148.276 220.437 148.198C219.459 145.619 218.681 142.974 217.797 140.361C216.691 142.901 215.963 145.58 215.129 148.215Z" fill="white"/>
<path d="M224.928 137.689C229.552 137.684 234.182 137.7 238.812 137.684C238.857 138.2 238.94 139.234 238.984 139.751C237.028 139.796 235.072 139.779 233.121 139.779C233.082 144.942 233.132 150.1 233.098 155.258C232.337 155.23 231.587 155.219 230.847 155.214C230.881 150.1 230.814 144.981 230.881 139.868C228.869 139.718 226.851 139.796 224.845 139.762C224.861 139.245 224.906 138.206 224.928 137.689Z" fill="white"/>
<path d="M240.879 137.688C244.436 137.705 247.993 137.65 251.556 137.722C251.573 138.405 251.59 139.089 251.617 139.773C248.81 139.773 246.004 139.806 243.202 139.745C243.058 141.368 242.836 142.985 242.786 144.614C245.515 144.703 248.244 144.653 250.978 144.647C251 145.275 251.034 145.898 251.073 146.526C248.421 146.581 245.776 146.526 243.13 146.57C243.058 148.755 243.086 150.939 243.091 153.129C245.92 153.112 248.755 153.112 251.589 153.118C251.584 153.646 251.578 154.707 251.573 155.241C247.993 155.23 244.414 155.241 240.84 155.235C240.868 149.388 240.801 143.536 240.879 137.688Z" fill="white"/>
<path d="M254.247 137.84C256.576 137.934 258.921 137.745 261.25 138.023C263.529 138.251 265.335 140.502 264.985 142.787C265.235 145.126 263.24 146.694 261.489 147.805C263.551 150.201 265.635 152.585 267.436 155.186C266.491 155.22 265.552 155.236 264.623 155.236C262.778 152.874 260.927 150.518 259.01 148.217C258.16 148.211 257.315 148.211 256.481 148.211C256.425 150.557 256.487 152.908 256.425 155.264C255.881 155.253 254.786 155.236 254.241 155.231C254.236 149.434 254.224 143.637 254.247 137.84ZM256.47 139.746C256.442 141.953 256.453 144.159 256.459 146.366C257.943 146.249 259.616 146.694 260.961 145.849C262.812 144.926 263.212 142.053 261.817 140.591C260.283 139.374 258.265 139.807 256.47 139.746Z" fill="white"/>
<path d="M268.302 137.684C270.531 137.689 272.76 137.689 274.994 137.684C274.983 138.167 274.967 139.129 274.955 139.612C274.211 139.651 273.477 139.701 272.749 139.751C272.804 144.314 272.754 148.877 272.777 153.441C273.566 153.502 274.366 153.563 275.178 153.63C275.105 154.024 274.967 154.802 274.894 155.191C272.721 155.264 270.548 155.308 268.386 155.158C268.336 154.775 268.23 154.019 268.18 153.635C268.931 153.574 269.686 153.513 270.459 153.468C270.559 148.872 270.442 144.275 270.52 139.679C269.77 139.651 269.025 139.623 268.291 139.601C268.297 139.123 268.302 138.167 268.302 137.684Z" fill="white"/>
<path d="M278.057 137.672C279.147 137.822 280.53 137.272 281.375 138.233C283.776 142.446 285.588 146.987 288.117 151.128C288.295 146.665 288.134 142.191 288.195 137.728C288.912 137.7 289.64 137.683 290.374 137.667C290.44 143.519 290.385 149.372 290.402 155.23C289.534 155.23 288.679 155.235 287.828 155.247C285.066 150.389 283.009 145.125 279.964 140.44C279.958 145.381 279.991 150.317 279.964 155.252C279.43 155.241 278.368 155.219 277.835 155.208C277.946 149.366 277.562 143.497 278.057 137.672Z" fill="white"/>
<path d="M293.897 137.7C297.077 137.889 300.673 137.033 303.524 138.795C305.931 140.546 304.841 143.948 302.813 145.52C303.769 146.154 304.808 146.788 305.364 147.849C305.747 149.783 305.847 152.151 304.169 153.53C301.395 156.125 297.293 154.991 293.881 155.225C293.892 149.383 293.864 143.542 293.897 137.7ZM296.098 139.796C296.098 141.458 296.098 143.125 296.093 144.787C297.688 144.837 299.322 144.987 300.912 144.676C302.235 144.081 303.229 142.125 302.185 140.885C300.778 138.968 298.105 139.968 296.098 139.796ZM296.126 146.949C296.082 149 296.098 151.051 296.093 153.102C298.26 153.007 300.973 153.785 302.64 151.968C303.58 151.151 303.24 149.745 303.19 148.655C301.834 145.998 298.494 147.138 296.126 146.949Z" fill="white"/>
<path d="M307.72 137.933C308.459 137.816 309.204 137.699 309.971 137.594C310.116 141.573 309.955 145.553 310.049 149.527C310.166 150.894 310.61 152.489 311.972 153.112C313.539 154.073 315.707 153.729 317.019 152.484C317.797 151.506 318.136 150.21 318.108 148.977C318.119 145.214 318.069 141.451 318.125 137.688C318.864 137.683 319.614 137.683 320.37 137.683C320.387 141.807 320.431 145.931 320.359 150.06C320.248 152.578 318.386 155.163 315.746 155.379C313.623 155.585 311.111 155.663 309.527 153.99C308.098 152.723 307.742 150.733 307.737 148.921C307.72 145.258 307.759 141.596 307.72 137.933Z" fill="white"/>
<path d="M323.733 137.701C326.784 137.812 330.191 137.151 332.909 138.907C334.849 140.23 334.71 142.92 334.143 144.927C333.437 146.161 332.226 146.955 331.12 147.778C333.109 150.279 335.194 152.708 337.189 155.209C336.161 155.237 335.144 155.237 334.138 155.22C332.292 152.836 330.469 150.424 328.468 148.167C327.64 148.2 326.829 148.239 326.023 148.284C326.023 150.607 326.04 152.936 326.017 155.259C325.234 155.242 324.455 155.226 323.688 155.203C323.744 149.368 323.666 143.532 323.733 137.701ZM326.04 139.735C326.017 141.948 326.023 144.16 326.04 146.372C327.601 146.272 329.347 146.694 330.736 145.744C332.187 144.821 332.537 142.781 331.914 141.281C330.636 139.257 328.046 139.791 326.04 139.735Z" fill="white"/>
<path d="M361.744 137.605C362.567 137.722 363.411 137.861 364.251 138.006C364.267 142.38 364.073 146.765 364.356 151.128C365.34 154.746 371.498 154.368 371.932 150.567C372.232 146.293 371.943 141.991 372.077 137.706C372.821 137.689 373.572 137.683 374.333 137.672C374.372 141.813 374.389 145.954 374.333 150.094C374.272 152.64 372.293 155.208 369.653 155.391C367.641 155.563 365.335 155.658 363.739 154.213C362.189 152.962 361.8 150.85 361.711 148.972C361.705 145.181 361.672 141.39 361.744 137.605Z" fill="white"/>
<path d="M377.734 137.695C380.852 137.862 384.521 137.028 387.155 139.151C388.684 140.246 388.539 142.286 388.384 143.948C388.195 145.804 386.466 146.81 385.077 147.749C387.111 150.234 389.134 152.729 391.201 155.186C390.151 155.225 389.117 155.23 388.089 155.214C386.483 153.018 384.793 150.89 383.031 148.828C382.325 147.844 380.969 148.327 379.963 148.188C379.913 150.539 379.946 152.89 379.935 155.242C379.385 155.242 378.279 155.242 377.729 155.242C377.723 149.389 377.707 143.542 377.734 137.695ZM379.941 139.768C379.935 141.963 379.935 144.159 379.946 146.354C381.642 146.288 383.593 146.727 385.032 145.543C386.277 144.609 386.205 142.853 385.988 141.469C384.81 139.223 382.014 139.774 379.941 139.768Z" fill="white"/>
<path d="M392.625 137.84C396.026 137.912 399.433 137.857 402.84 137.873C402.84 138.351 402.84 139.307 402.846 139.78C400.189 139.78 397.538 139.78 394.892 139.785C394.865 141.447 394.865 143.109 394.876 144.771C397.471 144.776 400.067 144.771 402.674 144.782C402.663 145.315 402.64 146.383 402.629 146.916C400.034 146.911 397.444 146.916 394.854 146.927C394.887 149.678 394.859 152.435 394.881 155.192C394.342 155.225 393.253 155.281 392.714 155.309C392.497 149.489 392.669 143.665 392.625 137.84Z" fill="white"/>
<path d="M404.874 137.699C405.619 137.688 406.375 137.682 407.142 137.677C407.303 142.067 406.992 146.48 407.303 150.86C408.065 154.456 413.823 154.567 414.862 151.127C415.179 146.758 414.951 142.362 414.99 137.982C415.751 137.843 416.518 137.704 417.308 137.582C417.43 141.706 417.374 145.841 417.347 149.965C417.441 152.339 415.807 154.64 413.512 155.273C411.877 155.568 410.177 155.562 408.559 155.223C406.342 154.523 404.874 152.277 404.885 149.993C404.813 145.897 404.852 141.795 404.874 137.699Z" fill="white"/>
</svg>
