<svg width="100%" height="100%" viewBox="0 0 496 496" fill="none" xmlns="http://www.w3.org/2000/svg">
<path d="M312 32C327.096 32 341.184 40.832 347.904 54.496L357.72 74.48L379.872 72.224C381.288 72.072 382.656 72 384 72C410.472 72 432 93.528 432 120C432 129.016 429.408 137.856 424.496 145.576L408.064 171.408L433.144 188.96C452.472 202.496 464 224.56 464 248C464 273.888 449.888 297.92 427.184 310.712L403.64 323.976L412.776 349.416C414.912 355.368 416 361.624 416 368C416 394.528 397.168 417.608 371.216 422.88L355.408 426.088L348.208 440.784C341.632 454.888 327.424 464 312 464C289.944 464 272 446.056 272 424L272 72C272 49.944 289.944 32 312 32Z" fill="#F05E5E"/>
<path d="M72 384C49.9086 384 32 401.909 32 424C32 446.091 49.9086 464 72 464C94.0914 464 112 446.091 112 424C112 401.909 94.0914 384 72 384Z" fill="#F05E5E"/>
<path d="M40 248C17.9086 248 0 265.909 0 288C0 310.091 17.9086 328 40 328C62.0914 328 80 310.091 80 288C80 265.909 62.0914 248 40 248Z" fill="#F05E5E"/>
<path d="M40 168C17.9086 168 0 185.909 0 208C0 230.091 17.9086 248 40 248C62.0914 248 80 230.091 80 208C80 185.909 62.0914 168 40 168Z" fill="#F05E5E"/>
<path d="M72 32C49.9086 32 32 49.9086 32 72C32 94.0914 49.9086 112 72 112C94.0914 112 112 94.0914 112 72C112 49.9086 94.0914 32 72 32Z" fill="#F05E5E"/>
<path d="M240 200H128V216H240V280H224V296H240V328H160V344H240L240 424C240 463.696 272.304 496 312 496C340.856 496 365.736 478.896 377.216 454.32L377.592 454.24C418.392 445.96 448 409.688 448 368C448 357.92 446.288 348.056 442.896 338.592C475.384 320.288 496 285.512 496 248C496 213.976 479.136 182.096 451.504 162.752C459.376 150.368 464 135.728 464 120C464 75.888 428.112 40 384 40C381.592 40 379.144 40.128 376.616 40.376C364.64 15.992 339.432 0 312 0C272.304 0 240 32.304 240 72L240 152H200V168H240V200ZM256 72C256 41.12 281.12 16 312 16C335 16 355.992 30.464 364.248 51.992L366.6 58.136L373.08 57.016C377 56.328 380.576 56 384 56C419.288 56 448 84.712 448 120C448 155.288 419.288 184 384 184V200C406.576 200 426.952 190.56 441.512 175.472C465.328 191.792 480 218.912 480 248C480 281.88 460.112 313.12 429.336 327.592L422.168 330.96L425.464 338.16C429.8 347.656 432 357.688 432 368C432 399.112 411.824 426.472 382.88 436.208C383.568 432.232 384 428.168 384 424C384 411.344 380.664 398.896 374.36 388L360.512 396.008C365.408 404.472 368 414.16 368 424C368 454.88 342.88 480 312 480C281.12 480 256 454.88 256 424L256 72Z" fill="white"/>
<path d="M312 48V32C289.944 32 272 49.944 272 72H288C288 58.768 298.768 48 312 48Z" fill="white"/>
<path d="M416 120H432C432 93.528 410.472 72 384 72V88C401.648 88 416 102.352 416 120Z" fill="white"/>
<path d="M64 94.528L64 128C64 150.056 81.944 168 104 168H184V152H104C90.768 152 80 141.232 80 128L80 94.528C89.288 91.216 96 82.416 96 72C96 58.768 85.232 48 72 48C58.768 48 48 58.768 48 72C48 82.416 54.712 91.216 64 94.528ZM72 64C76.408 64 80 67.592 80 72C80 76.408 76.408 80 72 80C67.592 80 64 76.408 64 72C64 67.592 67.592 64 72 64Z" fill="white"/>
<path d="M40 232C50.416 232 59.216 225.288 62.528 216H112V200H62.528C59.216 190.712 50.416 184 40 184C26.768 184 16 194.768 16 208C16 221.232 26.768 232 40 232ZM40 200C44.408 200 48 203.592 48 208C48 212.408 44.408 216 40 216C35.592 216 32 212.408 32 208C32 203.592 35.592 200 40 200Z" fill="white"/>
<path d="M62.528 296H208V280H62.528C59.216 270.712 50.416 264 40 264C26.768 264 16 274.768 16 288C16 301.232 26.768 312 40 312C50.416 312 59.216 305.288 62.528 296ZM40 296C35.592 296 32 292.408 32 288C32 283.592 35.592 280 40 280C44.408 280 48 283.592 48 288C48 292.408 44.408 296 40 296Z" fill="white"/>
<path d="M64 368L64 401.472C54.712 404.784 48 413.584 48 424C48 437.232 58.768 448 72 448C85.232 448 96 437.232 96 424C96 413.584 89.288 404.784 80 401.472V368C80 354.768 90.768 344 104 344H144L144 328H104C81.944 328 64 345.944 64 368ZM72 432C67.592 432 64 428.408 64 424C64 419.592 67.592 416 72 416C76.408 416 80 419.592 80 424C80 428.408 76.408 432 72 432Z" fill="white"/>
<path d="M408.968 288.968C424.568 273.376 424.568 247.992 408.968 232.4L397.656 243.712C407.008 253.072 407.008 268.296 397.656 277.656C388.296 287.024 373.072 287.016 363.712 277.656L352.4 288.968C368 304.56 393.376 304.568 408.968 288.968Z" fill="white"/>
<path d="M312 464C334.056 464 352 446.056 352 424H336C336 437.232 325.232 448 312 448C298.768 448 288 437.232 288 424H272C272 446.056 289.944 464 312 464Z" fill="white"/>
<path d="M280 312C280 334.056 297.944 352 320 352V336C306.768 336 296 325.232 296 312C296 298.768 306.768 288 320 288V272C297.944 272 280 289.944 280 312Z" fill="white"/>
<path d="M360 144C360 121.944 342.056 104 320 104V120C333.232 120 344 130.768 344 144C344 157.232 333.232 168 320 168V184C342.056 184 360 166.056 360 144Z" fill="white"/>
</svg>
