<?xml version="1.0" encoding="UTF-8" standalone="no"?>
<svg
   xmlns:dc="http://purl.org/dc/elements/1.1/"
   xmlns:cc="http://creativecommons.org/ns#"
   xmlns:rdf="http://www.w3.org/1999/02/22-rdf-syntax-ns#"
   xmlns:svg="http://www.w3.org/2000/svg"
   xmlns="http://www.w3.org/2000/svg"
   viewBox="0 0 666.66669 666.66669"
   height="100%"
   width="100%"
   xml:space="preserve"
   id="svg2"
   version="1.1"><metadata
     id="metadata8"><rdf:RDF><cc:Work
         rdf:about=""><dc:format>image/svg+xml</dc:format><dc:type
           rdf:resource="http://purl.org/dc/dcmitype/StillImage" /></cc:Work></rdf:RDF></metadata><defs
     id="defs6" /><g
     transform="matrix(1.3333333,0,0,-1.3333333,0,666.66667)"
     id="g10"><g
       transform="scale(0.1)"
       id="g12"><path
         id="path20"
         style="fill:#d1d0ce;fill-opacity:1;fill-rule:nonzero;stroke:none"
         d="m 4460.82,3680.42 v -2251.3 c 0,-54.7 -34.7,-101.2 -83.3,-118.7 -13.3,-4.91 -27.81,-7.5 -42.81,-7.5 H 665.32 c -17.3,0 -33.8,3.5 -48.703,9.69 -45.496,19.11 -77.5,64.11 -77.5,116.51 v 2251.3 c 0,16.9 3.305,33 9.403,47.7 12.601,31 37.203,55.8 68.097,68.7 15,6.3 31.403,9.8 48.703,9.8 h 3669.39 c 34.81,0 66.41,-14.1 89.21,-37 22.8,-22.8 36.9,-54.3 36.9,-89.2" /><path
         id="path22"
         style="fill:#dcdede;fill-opacity:1;fill-rule:nonzero;stroke:none"
         d="M 616.617,3796.82 V 1312.61 c -45.496,19.11 -77.5,64.11 -77.5,116.51 v 2251.3 c 0,16.9 3.305,33 9.403,47.7 12.601,31 37.203,55.8 68.097,68.7" /><path
         id="path28"
         style="fill:#3c6bb5;fill-opacity:1;fill-rule:nonzero;stroke:none"
         d="m 692.395,3332.35 h 3615.21 v 331.488 H 692.395 Z" /><path
         id="path32"
         style="fill:#3c6bb5;fill-opacity:1;fill-rule:nonzero;stroke:none"
         d="m 3212.41,3530.17 c -7.46,0 -14.92,-2.84 -20.6,-8.51 -11.34,-11.36 -11.34,-29.83 0,-41.18 11.36,-11.35 29.84,-11.35 41.19,0 11.35,11.35 11.35,29.82 0,41.18 -5.68,5.67 -13.14,8.51 -20.59,8.51 z m 0,-76.44 c -12.13,0 -24.27,4.61 -33.5,13.85 -18.47,18.47 -18.47,48.51 0,66.98 18.46,18.47 48.53,18.47 67,0 18.46,-18.47 18.46,-48.51 0,-66.98 -9.24,-9.24 -21.37,-13.85 -33.5,-13.85" /><path
         id="path34"
         style="fill:#3c6bb5;fill-opacity:1;fill-rule:nonzero;stroke:none"
         d="m 3276.12,3428.23 c -2.33,0 -4.67,0.89 -6.45,2.67 l -35.61,35.61 c -3.56,3.56 -3.56,9.34 0,12.9 3.56,3.57 9.34,3.57 12.9,0 l 35.61,-35.6 c 3.56,-3.57 3.56,-9.34 0,-12.91 -1.78,-1.78 -4.12,-2.67 -6.45,-2.67" /><path
         id="path42"
         style="fill:#d1d0ce;fill-opacity:1;fill-rule:nonzero;stroke:none"
         d="M 4994.11,3524.76 H 2259.58 c -69.68,0 -126.16,-56.48 -126.16,-126.16 v -209 h 2860.69 v 335.16" /><path
         id="path46"
         style="fill:#3c6bb5;fill-opacity:1;fill-rule:nonzero;stroke:none"
         d="m 2286.67,3189.6 h 2707.44 v 192.379 H 2286.67 Z" /><path
         id="path50"
         style="fill:#3c6bb5;fill-opacity:1;fill-rule:nonzero;stroke:none"
         d="m 4786.09,3239.8 c 5.68,5.67 13.14,8.51 20.6,8.51 7.45,0 14.91,-2.84 20.58,-8.51 11.36,-11.35 11.36,-29.82 0,-41.18 -11.34,-11.35 -29.82,-11.35 -41.18,0 -11.35,11.36 -11.35,29.83 0,41.18 z m 57.26,-50.2 c 15.01,18.58 14.1,45.84 -3.17,63.1 -18.46,18.47 -48.53,18.47 -66.99,0 -17.26,-17.26 -18.17,-44.52 -3.16,-63.1 h 73.32" /><path
         id="path58"
         style="fill:#dedfde;fill-opacity:1;fill-rule:nonzero;stroke:none"
         d="m 4646.83,1361.9 c 0,-32.06 -6.11,-62.66 -17.18,-90.82 -8.55,-21.66 -20.01,-41.86 -34.1,-60.13 -4.08,-5.44 -8.35,-10.58 -12.92,-15.63 -45.45,-50.03 -110.92,-81.4 -183.77,-81.4 H 601.18 c -80.137,0 -151.332,37.98 -196.696,97.03 -32.148,41.77 -51.285,94.12 -51.285,150.95 H 4646.83" /><path
         id="path60"
         style="fill:#e8eef0;fill-opacity:1;fill-rule:nonzero;stroke:none"
         d="M 4430.21,1271.16 H 1722.94 c -11.45,0 -20.73,9.29 -20.73,20.73 v 0 c 0,4.06 1.17,7.85 3.19,11.05 3.67,5.82 10.15,9.67 17.54,9.67 h 2707.27 c 11.46,0 20.74,-9.27 20.74,-20.72 v 0 c 0,-8.42 -5.01,-15.65 -12.22,-18.91 -2.6,-1.17 -5.48,-1.82 -8.52,-1.82" /><path
         id="path62"
         style="fill:#d1d0ce;fill-opacity:1;fill-rule:nonzero;stroke:none"
         d="m 4595.55,1210.95 c -4.08,-5.44 -8.35,-10.58 -12.92,-15.63 -45.45,-50.03 -110.92,-81.4 -183.77,-81.4 H 601.18 c -80.137,0 -151.332,37.98 -196.696,97.03 H 4595.55" /><path
         id="path64"
         style="fill:#d1d0ce;fill-opacity:1;fill-rule:nonzero;stroke:none"
         d="m 0,2920.33 h 2041.95 v 171.848 H 0 Z" /><path
         id="path66"
         style="fill:#d1d0ce;fill-opacity:1;fill-rule:nonzero;stroke:none"
         d="M 3625.87,1925.75 H 5000 v 126.359 H 3625.87 Z" /><path
         id="path68"
         style="fill:#d1d0ce;fill-opacity:1;fill-rule:nonzero;stroke:none"
         d="m 3765.02,525.27 h 435.59 v 126.359 h -435.59 z" /><path
         id="path70"
         style="fill:#d1d0ce;fill-opacity:1;fill-rule:nonzero;stroke:none"
         d="M 803.184,759.07 H 1238.77 V 885.429 H 803.184 Z" /><path
         id="path72"
         style="fill:#d1d0ce;fill-opacity:1;fill-rule:nonzero;stroke:none"
         d="m 993.594,4316.6 h 435.586 v 126.359 H 993.594 Z" /><path
         id="path74"
         style="fill:#d1d0ce;fill-opacity:1;fill-rule:nonzero;stroke:none"
         d="m 2847.55,4060.25 h 435.59 v 126.363 h -435.59 z" /><path
         id="path76"
         style="fill:#d1d0ce;fill-opacity:1;fill-rule:nonzero;stroke:none"
         d="m 102.531,1866.14 h 1281.62 v 73.4805 H 102.531 Z" /><path
         id="path78"
         style="fill:#3c6bb5;fill-opacity:1;fill-rule:nonzero;stroke:none"
         d="m 430.043,2709.58 h 2080.7 v 101.09 h -2080.7 z" /><path
         id="path80"
         style="fill:#3c6bb5;fill-opacity:1;fill-rule:nonzero;stroke:none"
         d="m 2674.85,1726.4 h 2080.7 v 101.098 h -2080.7 z" /><path
         id="path82"
         style="fill:#3c6bb5;fill-opacity:1;fill-rule:nonzero;stroke:none"
         d="m 3255.43,766.961 h 577.891 V 868.039 H 3255.43 Z" /><path
         id="path84"
         style="fill:#3c6bb5;fill-opacity:1;fill-rule:nonzero;stroke:none"
         d="m 540.598,4072.89 h 577.891 v 101.09 H 540.598 Z" /><path
         id="path86"
         style="fill:#ef3432;fill-opacity:1;fill-rule:nonzero;stroke:none"
         d="m 1708.28,2194.11 h -58.51 v -103.4 h 201.46 v 48.51 h -142.95 v 54.89" /><path
         id="path88"
         style="fill:#ef3432;fill-opacity:1;fill-rule:nonzero;stroke:none"
         d="m 2129.33,2194.11 h -195.16 v -103.4 h 58.51 v 74.07 h 59.63 l 41.11,-74.07 h 66.29 l -55.19,85.55 c 9.74,4.58 17.91,10.66 24.81,17.85" /><path
         id="path90"
         style="fill:#ef3432;fill-opacity:1;fill-rule:nonzero;stroke:none"
         d="M 2434.46,2194.11 H 2239.3 v -103.4 h 58.52 v 74.07 h 59.62 l 41.11,-74.07 h 66.29 l -55.18,85.55 c 9.73,4.58 17.91,10.66 24.8,17.85" /><path
         id="path92"
         style="fill:#ef3432;fill-opacity:1;fill-rule:nonzero;stroke:none"
         d="m 2740.24,2194.11 c -10.49,-32.25 -39.79,-54.89 -74.33,-54.89 -34.54,0 -64.79,22.64 -75.67,54.89 h -61.75 c 12.17,-61.82 66.94,-105.99 136.67,-105.99 69.7,0 124.45,44.41 136.65,105.99 h -61.57" /><path
         id="path94"
         style="fill:#ef3432;fill-opacity:1;fill-rule:nonzero;stroke:none"
         d="m 3075.1,2194.11 h -195.16 v -103.4 h 58.51 v 74.07 h 59.62 l 41.11,-74.07 h 66.29 l -55.18,85.55 c 9.74,4.58 17.91,10.66 24.81,17.85" /><path
         id="path96"
         style="fill:#ef3432;fill-opacity:1;fill-rule:nonzero;stroke:none"
         d="m 3317.73,2194.11 -1.95,-3.78 v -40.73 h 121.1 v -58.89 h 53.7 v 58.89 h 35.55 v 44.51 h -208.4" /><path
         id="path98"
         style="fill:#ef3432;fill-opacity:1;fill-rule:nonzero;stroke:none"
         d="m 3726.86,2194.11 c -3.7,-42.69 -17.31,-61.93 -42.24,-61.93 -25.24,0 -38.9,19.24 -42.61,61.93 h -56.39 c 6.92,-67.86 41.34,-104.89 99,-104.89 57.32,0 91.72,37.03 98.63,104.89 h -56.39" /><path
         id="path100"
         style="fill:#ef3432;fill-opacity:1;fill-rule:nonzero;stroke:none"
         d="m 3848.76,2194.11 -1.96,-3.78 v -40.73 h 121.1 v -58.89 h 53.7 v 58.89 h 35.55 v 44.51 h -208.39" /><path
         id="path102"
         style="fill:#ef3432;fill-opacity:1;fill-rule:nonzero;stroke:none"
         d="m 3683.21,2603.11 h 369.25 v 55.6797 h -369.25 z" /><g
         transform="scale(10)"
         id="g104"><text
           id="text108"
           style="font-variant:normal;font-weight:600;font-size:37.03099823px;font-family:Montserrat;-inkscape-font-specification:Montserrat-SemiBold;writing-mode:lr-tb;fill:#ef3432;fill-opacity:1;fill-rule:nonzero;stroke:none"
           transform="matrix(1,0,0,-1,126.003,224.827)"><tspan
             id="tspan106"
             y="0"
             x="0 28.439919 58.953121 89.466812 123.01712 153.53032 168.34233 194.89313 221.44394">ERROR 404</tspan></text>
<text
           id="text112"
           style="font-variant:normal;font-weight:600;font-size:11.78629971px;font-family:Montserrat;-inkscape-font-specification:Montserrat-SemiBold;writing-mode:lr-tb;fill:#ef3432;fill-opacity:1;fill-rule:nonzero;stroke:none"
           transform="matrix(1,0,0,-1,124.81277,152.8469)"><tspan
             id="tspan110"
             y="0"
             x="0 10.230509 21.121109 32.011215 43.868114 54.758713 60.651783 70.281189 79.910103 89.539474 95.432541 102.17425 108.06734 117.82661 128.90471 140.04341 150.27393 156.1665 167.81102 179.43311 188.87354 194.76611 204.13625 215.99364 227.30814 238.95264">ERROR 404 - PAGE NOT FOUND</tspan></text>
</g></g></g></svg>