<svg width="100%" height="100%" viewBox="0 0 94 108" fill="none" xmlns="http://www.w3.org/2000/svg">
<g opacity="0.2">
<path opacity="0.2" d="M0 39.8438V98.4375C0 103.615 4.19766 107.812 9.375 107.812H84.375C89.5523 107.812 93.75 103.615 93.75 98.4375V39.8438H0Z" fill="#231F20"/>
</g>
<path d="M0 35.1562V93.75C0 98.9273 4.19766 103.125 9.375 103.125H84.375C89.5523 103.125 93.75 98.9273 93.75 93.75V35.1562H0Z" fill="white"/>
<g opacity="0.2">
<path opacity="0.2" d="M84.375 14.0625H9.375C4.19766 14.0625 0 18.2602 0 23.4375V39.8438H93.75V23.4375C93.75 18.2602 89.5523 14.0625 84.375 14.0625Z" fill="#231F20"/>
</g>
<path d="M84.375 9.375H9.375C4.19766 9.375 0 13.5727 0 18.75V35.1562H93.75V18.75C93.75 13.5727 89.5523 9.375 84.375 9.375Z" fill="#C75C5C"/>
<path d="M46.875 93.75C44.2875 93.75 42.1875 91.65 42.1875 89.0625C42.1875 76.1367 46.3055 66.9023 50.3695 60.9375H35.1562C32.5688 60.9375 30.4688 58.8375 30.4688 56.25C30.4688 53.6625 32.5688 51.5625 35.1562 51.5625H60.9375C62.9789 51.5625 64.7859 52.882 65.4047 54.8297C66.0234 56.7773 65.3133 58.8961 63.6469 60.075C63.1805 60.4172 51.5625 69.1242 51.5625 89.0625C51.5625 91.65 49.4625 93.75 46.875 93.75Z" fill="#4F5D73"/>
<g opacity="0.2">
<path opacity="0.2" d="M18.75 30.4688C16.1602 30.4688 14.0625 28.3711 14.0625 25.7812V9.375C14.0625 6.78516 16.1602 4.6875 18.75 4.6875C21.3398 4.6875 23.4375 6.78516 23.4375 9.375V25.7812C23.4375 28.3711 21.3398 30.4688 18.75 30.4688Z" fill="#231F20"/>
</g>
<g opacity="0.2">
<path opacity="0.2" d="M77.3438 30.4688C74.7539 30.4688 72.6562 28.3711 72.6562 25.7812V9.375C72.6562 6.78516 74.7539 4.6875 77.3438 4.6875C79.9336 4.6875 82.0312 6.78516 82.0312 9.375V25.7812C82.0312 28.3711 79.9336 30.4688 77.3438 30.4688Z" fill="#231F20"/>
</g>
<path d="M18.75 25.7812C16.1602 25.7812 14.0625 23.6836 14.0625 21.0938V4.6875C14.0625 2.09766 16.1602 0 18.75 0C21.3398 0 23.4375 2.09766 23.4375 4.6875V21.0938C23.4375 23.6836 21.3398 25.7812 18.75 25.7812Z" fill="#E0E0D1"/>
<path d="M77.3438 25.7812C74.7539 25.7812 72.6562 23.6836 72.6562 21.0938V4.6875C72.6562 2.09766 74.7539 0 77.3438 0C79.9336 0 82.0312 2.09766 82.0312 4.6875V21.0938C82.0312 23.6836 79.9336 25.7812 77.3438 25.7812Z" fill="#E0E0D1"/>
</svg>
