<svg width="100%" height="100%" viewBox="0 0 112 100" fill="none" xmlns="http://www.w3.org/2000/svg">
<g opacity="0.2">
<g opacity="0.2">
<path opacity="0.2" d="M97.8509 87.8785C97.8509 94.5726 92.4234 100 85.7293 100H25.1216C18.4274 100 13 94.5726 13 87.8785V27.2707C13 20.5766 18.4274 15.1492 25.1216 15.1492H85.7293C92.4234 15.1492 97.8509 20.5766 97.8509 27.2707V87.8785Z" fill="#231F20"/>
</g>
</g>
<path d="M25.1213 87.8785C21.7788 87.8785 19.0605 85.1602 19.0605 81.8177V21.2099C19.0605 17.8674 21.7788 15.1492 25.1213 15.1492H85.7291C89.0716 15.1492 91.7899 17.8674 91.7899 21.2099V81.8177C91.7899 85.1602 89.0716 87.8785 85.7291 87.8785H25.1213Z" fill="white"/>
<path d="M85.7293 21.2099V81.8177H25.1216V21.2099H85.7293ZM85.7293 9.08838H25.1216C18.4274 9.08838 13 14.5158 13 21.2099V81.8177C13 88.5118 18.4274 93.9393 25.1216 93.9393H85.7293C92.4234 93.9393 97.8509 88.5118 97.8509 81.8177V21.2099C97.8509 14.5158 92.4234 9.08838 85.7293 9.08838Z" fill="#4F5D73"/>
<g opacity="0.2">
<g opacity="0.2">
<path opacity="0.2" d="M56.7966 75.7572C54.9238 75.7572 53.1389 74.8875 51.9844 73.3784L33.4414 49.1353C31.408 46.4776 31.9171 42.6745 34.5748 40.6411C37.2324 38.6107 41.0356 39.1138 43.069 41.7744L55.7572 58.3628C62.7574 45.7715 77.9578 22.6557 102.14 7.03103C104.949 5.2128 108.707 6.02192 110.519 8.83109C112.338 11.6433 111.528 15.3949 108.719 17.2101C77.7851 37.1986 62.5089 71.7662 62.3574 72.1117C61.4998 74.0814 59.6664 75.4542 57.533 75.7118C57.2845 75.7421 57.0391 75.7572 56.7966 75.7572Z" fill="#231F20"/>
</g>
</g>
<path d="M56.7947 69.6963C54.9219 69.6963 53.137 68.8266 51.9794 67.3174L33.4365 43.0743C31.4031 40.4167 31.9092 36.6105 34.5698 34.5771C37.2275 32.5468 41.0367 33.0528 43.0671 35.7105L55.7583 52.3019C62.7555 39.7106 77.9559 16.5948 102.138 0.970124C104.954 -0.845079 108.702 -0.0389899 110.52 2.77018C112.339 5.58238 111.533 9.334 108.72 11.1522C77.7862 31.1407 62.507 65.7083 62.3555 66.0538C61.5009 68.0235 59.6645 69.3963 57.5311 69.6539C57.2826 69.6812 57.0371 69.6963 56.7947 69.6963Z" fill="#C75C5C"/>
</svg>
