<svg width="100%" height="100%" viewBox="0 0 141 99" fill="none" xmlns="http://www.w3.org/2000/svg">
<g opacity="0.2">
<path opacity="0.2" d="M74.5 25.7834V4.6897H44.0312C40.1477 4.6897 37 7.83735 37 11.7209V91.4084C37 95.292 40.1477 98.4397 44.0312 98.4397H95.5938C99.4773 98.4397 102.625 95.292 102.625 91.4084V32.8147H81.5312C77.6477 32.8147 74.5 29.667 74.5 25.7834Z" fill="#231F20"/>
</g>
<path d="M95.5938 0.00219727H74.5H44.0312C40.1477 0.00219727 37 3.14985 37 7.03345V65.6272V86.7209C37 90.6045 40.1477 93.7522 44.0312 93.7522H65.125H95.5938C99.4773 93.7522 102.625 90.6045 102.625 86.7209V28.1272V7.03345C102.625 3.14985 99.4773 0.00219727 95.5938 0.00219727Z" fill="white"/>
<g opacity="0.2">
<path opacity="0.2" d="M69.8125 16.4084H46.375V21.0959H69.8125V16.4084Z" fill="#231F20"/>
</g>
<g opacity="0.2">
<path opacity="0.2" d="M93.25 53.9084H46.375V58.5959H93.25V53.9084Z" fill="#231F20"/>
</g>
<g opacity="0.2">
<path opacity="0.2" d="M93.25 42.1897H46.375V46.8772H93.25V42.1897Z" fill="#231F20"/>
</g>
<g opacity="0.2">
<path opacity="0.2" d="M93.25 30.4709H46.375V35.1584H93.25V30.4709Z" fill="#231F20"/>
</g>
<g opacity="0.2">
<path opacity="0.2" d="M93.25 65.6272H46.375V70.3147H93.25V65.6272Z" fill="#231F20"/>
</g>
<g opacity="0.2">
<path opacity="0.2" d="M93.25 77.3459H46.375V82.0334H93.25V77.3459Z" fill="#231F20"/>
</g>
<g opacity="0.2">
<path opacity="0.2" d="M138.066 23.1211L121.493 6.54844C118.746 3.80156 114.295 3.80156 111.548 6.54844L103.261 14.8359L101.604 16.493L63.4898 54.6094L59.0695 76.7063L56.8594 87.7547L67.9078 85.5445L90.0047 81.1242L128.121 43.0078L129.778 41.3508L138.066 33.0633C140.812 30.3188 140.812 25.868 138.066 23.1211Z" fill="#231F20"/>
</g>
<path d="M128.122 38.5219C125.375 41.2687 120.925 41.2687 118.178 38.5219L101.605 21.9492C98.8582 19.2023 98.8582 14.7516 101.605 12.0047L111.55 2.06016C114.296 -0.686719 118.747 -0.686719 121.494 2.06016L138.067 18.6328C140.814 21.3797 140.814 25.8305 138.067 28.5773L128.122 38.5219Z" fill="#C75C5C"/>
<path d="M103.263 10.3489L63.4883 50.1233L70.1173 56.7524L109.892 16.978L103.263 10.3489Z" fill="#E0995E"/>
<path d="M109.892 16.976L66.8027 60.0649L80.0609 73.3231L123.15 30.2342L109.892 16.976Z" fill="#F5CF87"/>
<path d="M123.147 30.2366L83.373 70.011L90.0021 76.64L129.776 36.8657L123.147 30.2366Z" fill="#E0995E"/>
<path d="M56.8594 83.2689L67.9078 81.0587L59.0695 72.2205L56.8594 83.2689Z" fill="#4F5D73"/>
<path d="M63.4887 50.1235L59.0684 72.2204L67.9066 81.0587L90.0035 76.6384L86.6895 73.3243V66.6962H73.4309V53.4376H66.8027L63.4887 50.1235Z" fill="white"/>
</svg>
