<svg width="100%" height="100%" viewBox="0 0 123 77" fill="none" xmlns="http://www.w3.org/2000/svg">
<g opacity="0.2">
<path opacity="0.2" d="M122.176 33.7563L109.789 21.3696L95.0586 6.63911C94.0414 5.62192 92.3914 5.62192 91.3766 6.63911L82.1703 15.8454L72.9641 25.0516C71.9469 26.0688 71.9469 27.7165 72.9641 28.7336L87.6945 43.4641L100.081 55.8508C101.098 56.868 102.746 56.868 103.763 55.8508L112.97 46.6446L122.176 37.4383C123.191 36.4235 123.191 34.7735 122.176 33.7563Z" fill="#231F20"/>
<path opacity="0.2" d="M41.8343 15.8454L32.6281 6.63911C31.6109 5.62192 29.9632 5.62192 28.9461 6.63911L14.2156 21.3696L1.82887 33.7563C0.809343 34.7735 0.0452802 37.2438 1.06247 38.261L10.2687 47.4672L19.475 56.6735C20.4922 57.6907 22.1398 57.6907 23.157 56.6735L36.3078 43.4641L51.0382 28.7336C52.0554 27.7165 52.0554 26.0688 51.0382 25.0516L41.8343 15.8454Z" fill="#231F20"/>
</g>
<path d="M98.7379 27.7305L87.6895 38.7789L100.076 51.1656C101.093 52.1828 102.741 52.1828 103.758 51.1656L112.964 41.9594L98.7379 27.7305Z" fill="white"/>
<path d="M109.786 16.6821L95.0558 1.95161C94.0386 0.934424 92.3909 0.934424 91.3737 1.95161L82.1675 11.1579L98.7401 27.7305L109.786 16.6821Z" fill="white"/>
<path d="M112.968 41.9596L122.174 32.7533C123.191 31.7361 123.191 30.0885 122.174 29.0713L109.787 16.6846L98.7388 27.733L112.968 41.9596Z" fill="#4F5D73"/>
<path d="M82.1654 11.1577L72.9592 20.364C71.942 21.3812 71.942 23.0288 72.9592 24.046L87.6896 38.7765L98.7381 27.728L82.1654 11.1577Z" fill="#4F5D73"/>
<path d="M25.2611 27.7305L36.3096 38.7789L23.1588 51.9883C22.1416 53.0055 20.4939 53.0055 19.4768 51.9883L10.2705 42.782L25.2611 27.7305Z" fill="white"/>
<path d="M14.2129 16.6821L28.9434 1.95161C29.9605 0.934424 31.6082 0.934424 32.6254 1.95161L41.8316 11.1579L25.259 27.7305L14.2129 16.6821Z" fill="white"/>
<path d="M10.2684 42.7798L1.06215 33.5735C0.0449655 32.5563 0.809027 30.086 1.82387 29.0688L14.2106 16.6821L25.259 27.7306L10.2684 42.7798Z" fill="#4F5D73"/>
<path d="M41.8334 11.1577L51.0396 20.364C52.0568 21.3812 52.0568 23.0288 51.0396 24.046L36.3092 38.7765L25.2607 27.728L41.8334 11.1577Z" fill="#4F5D73"/>
<g opacity="0.2">
<path opacity="0.2" d="M28.1765 76.6633C27.2765 76.6633 26.3765 76.3211 25.6897 75.6344C24.3163 74.2633 24.3163 72.0344 25.6897 70.6633L92.3858 3.96953C93.7593 2.59609 95.9835 2.59609 97.3569 3.96953C98.7304 5.34062 98.7304 7.56953 97.3569 8.94063L30.6608 75.6344C29.9741 76.3211 29.0765 76.6633 28.1765 76.6633Z" fill="#231F20"/>
</g>
<path d="M94.8705 1.7666L28.1768 68.4604" stroke="#E0E0D1" stroke-width="3" stroke-miterlimit="10" stroke-linecap="round" stroke-linejoin="round"/>
<g opacity="0.2">
<path opacity="0.2" d="M95.8224 76.6633C94.9224 76.6633 94.0224 76.3211 93.3356 75.6344L26.6419 8.94063C25.2685 7.56953 25.2685 5.34062 26.6419 3.96953C28.0153 2.59609 30.2396 2.59609 31.613 3.96953L98.3091 70.6633C99.6825 72.0344 99.6825 74.2633 98.3091 75.6344C97.6224 76.3211 96.7224 76.6633 95.8224 76.6633Z" fill="#231F20"/>
</g>
<path d="M29.1289 1.7666L95.8227 68.4604" stroke="#E0E0D1" stroke-width="3" stroke-miterlimit="10" stroke-linecap="round" stroke-linejoin="round"/>
</svg>
