<svg width="100%" height="100%" viewBox="0 0 133 128" fill="none" xmlns="http://www.w3.org/2000/svg">
<g filter="url(#filter0_d)">
<path d="M21.4417 15.2055C28.7407 8.50563 37.9876 3.86916 47.8017 2C44.3741 5.10717 42.2042 9.5009 41.7603 14.0646C50.8347 8.60274 61.4625 5.81114 72.0656 5.88396C81.7564 6.07816 91.4472 8.60274 99.8311 13.4577C107.549 17.8514 114.182 24.0658 119.04 31.421C124.342 39.4074 127.498 48.7289 128.139 58.2446C128.682 66.4009 127.547 74.7029 124.687 82.398C120.963 92.5206 114.33 101.551 105.922 108.372C104.812 109.197 103.53 109.804 102.544 110.799C101.804 111.503 100.916 112.013 100.053 112.547C92.8527 117.087 84.6908 120.097 76.2329 121.335C65.8764 122.864 55.1252 121.747 45.3358 118.082C33.5737 113.712 23.3404 105.629 16.3128 95.385C23.3651 102.716 32.9326 107.668 43.0672 109.149C46.3715 109.707 49.725 109.561 53.0539 109.561C57.2459 109.246 61.4132 108.469 65.3832 107.085C74.4328 103.905 82.4715 97.9824 87.995 90.2387C92.5075 83.9516 95.4172 76.5235 96.2063 68.8527C96.1816 67.5904 96.0337 66.1582 94.9241 65.3571C93.0007 63.9492 90.4609 63.9492 88.1676 64.0463C87.7977 67.5904 85.8497 70.7704 83.3839 73.3192C80.918 75.6496 77.9837 77.4459 75.0986 79.218C70.4875 81.961 65.7037 84.4614 60.8953 86.8403C56.6294 88.7823 52.2402 90.5058 47.703 91.7681C46.6427 91.9865 45.5331 92.4235 44.4481 92.1807C43.6097 91.9865 43.6097 90.9913 43.8316 90.3358C44.3248 88.8308 45.2372 87.4957 46.3221 86.3548C49.6017 83.1505 53.1279 80.2133 56.8267 77.4702C58.5774 76.1837 60.0323 74.3631 60.5501 72.2269C61.1912 69.8722 60.6734 67.4205 60.3775 65.0415C60.3282 64.4347 59.6131 64.1677 59.0953 64.459C53.7444 67.202 48.1715 69.4838 42.5987 71.7656C37.7903 73.6591 33.0066 75.7953 27.9516 77.0333C23.1185 78.2227 17.9895 78.8539 13.0825 77.713C12.0715 77.4217 10.9619 77.1789 10.1235 76.5235C7.31241 72.0084 5.75893 66.8621 4.69861 61.6916C4.37805 59.337 3.9342 56.958 4.00818 54.5791C4.25476 49.6271 4.72327 44.6507 6.12881 39.8929C8.79193 30.45 14.1675 21.8082 21.4417 15.2055ZM23.3158 39.6501C20.9732 40.2327 19.1485 42.466 19.2471 44.8692C19.1238 46.8355 20.2828 48.7532 22.0089 49.6999C24.3268 51.035 27.6064 50.4281 29.1845 48.2677C30.9846 46.0344 30.5654 42.3932 28.2475 40.6697C26.8913 39.5531 25.0172 39.2618 23.3158 39.6501Z" fill="#009992"/>
</g>
<defs>
<filter id="filter0_d" x="0" y="0" width="132.27" height="128" filterUnits="userSpaceOnUse" color-interpolation-filters="sRGB">
<feFlood flood-opacity="0" result="BackgroundImageFix"/>
<feColorMatrix in="SourceAlpha" type="matrix" values="0 0 0 0 0 0 0 0 0 0 0 0 0 0 0 0 0 0 127 0"/>
<feOffset dy="2"/>
<feGaussianBlur stdDeviation="2"/>
<feColorMatrix type="matrix" values="0 0 0 0 0 0 0 0 0 0 0 0 0 0 0 0 0 0 0.25 0"/>
<feBlend mode="normal" in2="BackgroundImageFix" result="effect1_dropShadow"/>
<feBlend mode="normal" in="SourceGraphic" in2="effect1_dropShadow" result="shape"/>
</filter>
</defs>
</svg>
