<svg width="100%" height="100%" viewBox="0 0 108 108" fill="none" xmlns="http://www.w3.org/2000/svg">
<g filter="url(#filter0_d)">
<path d="M54 100C26.39 100 4 77.61 4 50C4 22.39 26.39 0 54 0C81.61 0 104 22.39 104 50C104 77.61 81.61 100 54 100Z" fill="#009992"/>
<path d="M53.9999 22.0211C63.1099 22.0211 64.1899 22.0511 67.7899 22.2211C71.1199 22.3711 72.9299 22.9311 74.1299 23.4011C75.7199 24.0211 76.8599 24.7611 78.0499 25.9511C79.2399 27.1411 79.9799 28.2811 80.5999 29.8711C81.0699 31.0711 81.6199 32.8811 81.7799 36.2111C81.9399 39.8111 81.9799 40.8911 81.9799 50.0011C81.9799 59.1111 81.9499 60.1911 81.7799 63.7911C81.6299 67.1211 81.0699 68.9311 80.5999 70.1311C79.9799 71.7211 79.2399 72.8611 78.0499 74.0511C76.8599 75.2411 75.7199 75.9811 74.1299 76.6011C72.9299 77.0711 71.1199 77.6211 67.7899 77.7811C64.1899 77.9411 63.1099 77.9811 53.9999 77.9811C44.8899 77.9811 43.8099 77.9511 40.2099 77.7811C36.8799 77.6311 35.0699 77.0711 33.8699 76.6011C32.2799 75.9811 31.1399 75.2411 29.9499 74.0511C28.7599 72.8611 28.0199 71.7211 27.3999 70.1311C26.9299 68.9311 26.3799 67.1211 26.2199 63.7911C26.0599 60.1911 26.0199 59.1111 26.0199 50.0011C26.0199 40.8911 26.0499 39.8111 26.2199 36.2111C26.3699 32.8811 26.9299 31.0711 27.3999 29.8711C28.0199 28.2811 28.7599 27.1411 29.9499 25.9511C31.1399 24.7611 32.2799 24.0211 33.8699 23.4011C35.0699 22.9311 36.8799 22.3811 40.2099 22.2211C43.8099 22.0511 44.8899 22.0211 53.9999 22.0211ZM53.9999 15.8711C44.7299 15.8711 43.5699 15.9111 39.9299 16.0811C36.2999 16.2511 33.8199 16.8211 31.6399 17.6711C29.3999 18.5311 27.4899 19.7011 25.5999 21.6011C23.6999 23.5011 22.5399 25.4011 21.6599 27.6511C20.8199 29.8211 20.2399 32.3011 20.0699 35.9411C19.8999 39.5811 19.8599 40.7411 19.8599 50.0111C19.8599 59.2811 19.8999 60.4411 20.0699 64.0811C20.2399 67.7111 20.8099 70.1911 21.6599 72.3711C22.5299 74.6011 23.6999 76.5111 25.5999 78.4011C27.4999 80.3011 29.3999 81.4611 31.6499 82.3411C33.8199 83.1811 36.2999 83.7611 39.9399 83.9311C43.5799 84.1011 44.7399 84.1411 54.0099 84.1411C63.2799 84.1411 64.4399 84.1011 68.0799 83.9311C71.7099 83.7611 74.1899 83.1911 76.3699 82.3411C78.5999 81.4711 80.5099 80.3011 82.3999 78.4011C84.2999 76.5011 85.4599 74.6011 86.3399 72.3511C87.1799 70.1811 87.7599 67.7011 87.9299 64.0611C88.0999 60.4211 88.1399 59.2611 88.1399 49.9911C88.1399 40.7211 88.0999 39.5611 87.9299 35.9211C87.7599 32.2911 87.1899 29.8111 86.3399 27.6311C85.4699 25.4011 84.2999 23.4911 82.3999 21.6011C80.4999 19.7011 78.5999 18.5411 76.3499 17.6611C74.1799 16.8211 71.6999 16.2411 68.0599 16.0711C64.4299 15.9111 63.2699 15.8711 53.9999 15.8711Z" fill="white"/>
<path d="M53.9997 32.4707C44.3197 32.4707 36.4697 40.3207 36.4697 50.0007C36.4697 59.6807 44.3197 67.5307 53.9997 67.5307C63.6797 67.5307 71.5297 59.6807 71.5297 50.0007C71.5297 40.3207 63.6797 32.4707 53.9997 32.4707ZM53.9997 61.3807C47.7197 61.3807 42.6197 56.2907 42.6197 50.0007C42.6197 43.7107 47.7197 38.6207 53.9997 38.6207C60.2797 38.6207 65.3797 43.7107 65.3797 50.0007C65.3797 56.2907 60.2797 61.3807 53.9997 61.3807Z" fill="white"/>
<path d="M72.2196 35.8816C74.484 35.8816 76.3196 34.046 76.3196 31.7816C76.3196 29.5173 74.484 27.6816 72.2196 27.6816C69.9553 27.6816 68.1196 29.5173 68.1196 31.7816C68.1196 34.046 69.9553 35.8816 72.2196 35.8816Z" fill="white"/>
</g>
<defs>
<filter id="filter0_d" x="0" y="0" width="108" height="108" filterUnits="userSpaceOnUse" color-interpolation-filters="sRGB">
<feFlood flood-opacity="0" result="BackgroundImageFix"/>
<feColorMatrix in="SourceAlpha" type="matrix" values="0 0 0 0 0 0 0 0 0 0 0 0 0 0 0 0 0 0 127 0"/>
<feOffset dy="4"/>
<feGaussianBlur stdDeviation="2"/>
<feColorMatrix type="matrix" values="0 0 0 0 0 0 0 0 0 0 0 0 0 0 0 0 0 0 0.25 0"/>
<feBlend mode="normal" in2="BackgroundImageFix" result="effect1_dropShadow"/>
<feBlend mode="normal" in="SourceGraphic" in2="effect1_dropShadow" result="shape"/>
</filter>
</defs>
</svg>
