<svg width="100%" height="100%" viewBox="0 0 270 200" fill="none" xmlns="http://www.w3.org/2000/svg">
<path d="M119.55 31.44C121.11 29.53 124.55 30.62 124.85 33.03C124.99 36.5199 125.09 40.0299 124.78 43.5099C124.18 46.7599 118.79 46.2599 118.72 43.0099C118.93 39.2199 117.72 34.84 119.55 31.44Z" fill="white"/>
<path d="M149.5 31.4702C151.08 29.5402 154.58 30.5902 154.86 33.0402C155.04 36.0502 154.95 39.0602 154.92 42.0702C155 43.4502 154.45 45.1002 152.97 45.5202C150.77 46.5302 148.21 44.3602 148.65 42.0202C148.96 38.5602 147.77 34.5802 149.5 31.4702Z" fill="white"/>
<path d="M106.94 56.2305C126.8 56.2505 146.67 56.2205 166.54 56.2405C166.5 71.1905 166.58 86.1405 166.5 101.08C166.56 102.45 165.75 104.43 164.07 104.2C146.38 104.33 128.68 104.22 110.99 104.25C109 104.6 106.74 103.32 106.92 101.09C106.84 86.1405 106.83 71.1805 106.94 56.2305ZM133.19 86.4905C130.39 84.7105 127.79 82.6305 124.92 80.9805C122.75 82.1405 121.48 84.8205 119.76 86.6505C124.73 90.0305 129.66 93.4805 134.58 96.9305C141.63 87.8305 148.77 78.8005 155.84 69.7205C153.81 68.0605 151.78 66.3905 149.76 64.7105C144.14 71.9005 138.7 79.2205 133.19 86.4905Z" fill="white"/>
<path d="M28.0798 136.321C30.7198 136.311 33.3598 136.311 35.9898 136.311C36.0098 149.311 35.9998 162.311 35.9998 175.311C33.3598 175.301 30.7098 175.301 28.0698 175.311C28.0798 162.311 28.0598 149.321 28.0798 136.321Z" fill="white"/>
<path d="M40.7897 136.321C50.8897 136.301 60.9897 136.321 71.0997 136.311C71.1097 138.501 71.1097 140.681 71.1197 142.861C67.4097 142.871 63.6997 142.871 59.9897 142.871C59.9797 153.681 59.9897 164.491 59.9797 175.311C57.2897 175.311 54.5897 175.311 51.8997 175.301C51.9097 164.481 51.8997 153.671 51.9097 142.861C48.1797 142.871 44.4497 142.891 40.7197 142.821C40.7597 140.651 40.7697 138.491 40.7897 136.321Z" fill="white"/>
<path d="M92.25 136.311C100.38 136.311 108.51 136.331 116.64 136.301C116.62 138.451 116.62 140.591 116.61 142.731C111.19 142.751 105.78 142.781 100.37 142.721C100.27 146.021 100.3 149.341 100.31 152.651C104.57 152.631 108.84 152.631 113.1 152.651C113.09 154.671 113.09 156.701 113.07 158.721C108.82 158.771 104.56 158.741 100.31 158.761C100.3 162.141 100.3 165.511 100.31 168.901C105.72 168.861 111.14 168.961 116.56 168.831C116.63 170.981 116.63 173.141 116.62 175.301C108.49 175.301 100.37 175.321 92.25 175.291C92.26 162.301 92.25 149.301 92.25 136.311Z" fill="white"/>
<path d="M209.36 140.06C210.68 138.63 212.97 139.52 214.71 139.24C214.72 142.08 214.72 144.92 214.71 147.76C217.01 147.76 219.31 147.76 221.61 147.73C221.63 149.45 221.63 151.16 221.67 152.88C219.35 152.95 217.04 152.95 214.72 152.92C214.79 158.41 214.52 163.91 214.91 169.39C216.56 169.87 218.23 169.55 219.79 168.92C220.58 170.26 221.35 171.62 222.09 172.99C223.83 171.58 224.88 169.2 226.97 168.33C229.56 169.23 232.05 171.16 234.95 170.39C237.18 170.29 238.52 166.88 236.27 165.74C233.43 164.04 229.84 163.92 227.19 161.83C223 158.78 223.61 151.56 227.99 148.97C232.98 145.86 239.6 146.86 244.17 150.29C243.47 151.61 242.76 152.92 242.05 154.23C239.01 154.06 236.13 151.61 233.07 152.89C231.44 153.21 230.65 155.87 232.22 156.74C235.57 158.95 240.27 158.91 242.99 162.15C245.89 166.18 243.9 172.55 239.38 174.49C234.41 176.67 227.9 176.12 223.88 172.3C219.65 176.51 209.96 177.76 207.75 170.88C206.69 165.04 207.53 159.01 207.28 153.1C206.39 153.04 204.61 152.93 203.72 152.87C203.47 151.43 203.35 149.96 203.3 148.51C204.77 148.23 206.23 147.96 207.7 147.7C208.27 145.16 208.66 142.57 209.36 140.06Z" fill="white"/>
<path d="M150.55 150.53C155.04 146.39 162.55 145.88 167.44 149.62C170.53 152.08 171.9 156.21 171.65 160.08C171.75 161.17 171.46 162.87 169.97 162.64C164.55 162.79 159.14 162.62 153.72 162.7C154.09 165.43 155.14 168.59 158.03 169.55C161.64 171.01 165.1 168.74 168.34 167.42C169.5 168.58 170.59 169.81 171.63 171.09C165.8 177.43 153.7 177.58 148.81 170.02C145.28 164.12 145.4 155.48 150.55 150.53ZM153.77 158.12C157.6 158.16 161.43 158.15 165.26 158.13C165.02 155.32 163.22 152.28 160.03 152.44C156.56 151.99 154.39 155.12 153.77 158.12Z" fill="white"/>
<path d="M183.06 150.459C186.2 147.489 190.99 146.089 195.07 147.909C198.62 149.379 200.22 153.399 200.29 157.009C200.35 163.109 200.28 169.199 200.3 175.299C197.83 175.299 195.35 175.299 192.88 175.299C192.81 168.889 193.04 162.469 192.77 156.069C191.96 151.509 185.69 152.429 183.56 155.439C183.32 162.049 183.55 168.679 183.47 175.299C181 175.309 178.53 175.309 176.06 175.299C176.06 166.049 176.06 156.799 176.07 147.539C178.05 147.539 180.04 147.569 182.02 147.739C182.37 148.649 182.71 149.549 183.06 150.459Z" fill="white"/>
<path d="M117.74 147.579C120.3 147.809 123.31 146.889 125.58 148.239C127.94 154.579 130.15 161.02 131.86 167.57C133.62 161 135.95 154.579 138.32 148.219C140.47 146.859 143.37 147.869 145.8 147.559C142.29 156.829 138.63 166.039 135.09 175.299C132.88 175.299 130.66 175.299 128.45 175.329C124.81 166.109 121.32 156.829 117.74 147.579Z" fill="white"/>
<path d="M70.1396 155.9C74.7996 155.91 79.4597 155.9 84.1197 155.91C84.1197 157.98 84.1197 160.05 84.1197 162.12C79.4597 162.12 74.7996 162.13 70.1396 162.11C70.1396 160.04 70.1396 157.97 70.1396 155.9Z" fill="white"/>
<path d="M99.6301 46.0306C99.4501 41.4606 103.43 37.3806 107.88 36.9506C110.44 36.7606 113 36.8806 115.56 36.8906C115.83 40.4206 114.54 44.7706 117.46 47.5106C120.54 50.7706 126.75 49.2606 127.94 44.9106C128.41 42.2606 128.15 39.5506 128.18 36.8806C134 36.9006 139.82 36.8106 145.65 36.9406C145.83 40.2806 144.82 44.1906 147.08 47.0306C149.69 50.4606 155.73 49.8206 157.6 45.9406C158.83 43.1106 158.28 39.9406 158.35 36.9506C162.6 36.9506 167.57 36.0206 171.05 39.1306C173.67 41.2306 174.55 44.7006 174.33 47.9306C174.28 65.9406 174.34 83.9506 174.3 101.961C174.64 107.031 170.09 111.671 165.05 111.601C146.36 111.621 127.66 111.631 108.97 111.601C104.26 111.691 99.7201 107.731 99.6401 102.931C99.6101 83.9606 99.6301 65.0006 99.6301 46.0306ZM106.94 56.2306C106.83 71.1806 106.84 86.1406 106.92 101.091C106.74 103.321 109 104.601 110.99 104.251C128.68 104.221 146.38 104.331 164.07 104.201C165.75 104.431 166.56 102.451 166.5 101.081C166.58 86.1406 166.5 71.1906 166.54 56.2406C146.67 56.2206 126.8 56.2506 106.94 56.2306Z" fill="#D04961"/>
<path d="M133.19 86.4909C138.7 79.2209 144.14 71.9009 149.76 64.7109C151.78 66.3909 153.81 68.0609 155.84 69.7209C148.77 78.8009 141.63 87.8309 134.58 96.9309C129.66 93.4809 124.73 90.0309 119.76 86.6509C121.48 84.8209 122.75 82.1409 124.92 80.9809C127.79 82.6309 130.39 84.7109 133.19 86.4909Z" fill="#1D173B"/>
</svg>
