<svg width="100%" height="100%" viewBox="0 0 200 99" fill="none" xmlns="http://www.w3.org/2000/svg">
<rect x="28.1572" y="49.3617" width="68.808" height="68.808" transform="rotate(-45 28.1572 49.3617)" stroke="black"/>
<rect x="52.7141" y="49.4857" width="68.808" height="68.808" transform="rotate(-45 52.7141 49.4857)" stroke="black"/>
<rect x="77.4959" y="49.4857" width="68.808" height="68.808" transform="rotate(-45 77.4959 49.4857)" stroke="black"/>
<line y1="49.0637" x2="200" y2="49.0637" stroke="black"/>
<path d="M72.6939 66.2095H72.4791C70.435 66.2095 68.5474 65.6404 66.8129 64.499C65.0773 63.3586 63.8078 61.8641 63 60.0085L68.7028 57.5165C69.4146 59.131 70.6726 59.9389 72.4791 59.9389H72.6939C73.8331 59.9389 74.7963 59.5355 75.5801 58.7277C76.3651 57.9199 76.7559 56.9441 76.7559 55.8038V31H83.0288V55.8038C83.0288 58.6569 82.0176 61.102 79.9986 63.1461C77.9796 65.1891 75.5436 66.2095 72.6939 66.2095Z" fill="black"/>
<path d="M126.087 31H133V66.2095H126.8V44.8998L117.391 66.2095H110.621L101.283 44.8998V66.2095H95.0117V31H101.924L114.041 58.442L126.087 31Z" fill="black"/>
</svg>
