<svg width="300" class="A" style="margin: -60px -40px" height="300" viewBox="0 0 170 170" fill="none" xmlns="http://www.w3.org/2000/svg">
<g filter="url(#filter0_dddd)">
<path d="M69.6668 37L65.0511 47.0706L73.0237 43.2941L83.0943 40.3569L95.6826 40.7765L104.494 42.8745L113.726 47.0706L120.859 52.9452L125.475 57.9805L129.251 63.0158L132.608 70.5688L134.706 77.7021L135.965 86.0943L135.126 94.4865L133.028 102.879L129.671 110.851L121.698 121.342L114.145 127.636L105.334 133.091L98.2003 135.189L90.2277 136.448H79.7375L73.4433 135.608L64.6315 132.251L56.2393 127.636L51.6236 123.44L48.2667 120.083L44.9099 115.047L47.4275 116.726L49.9452 118.824L52.4628 120.502L55.8197 122.181L59.5962 123.859L63.7923 125.118L68.8276 125.957H74.7021L78.8982 125.538L83.514 124.279L86.8708 123.02L90.2277 121.342L93.5846 119.244L97.3611 116.306L100.298 112.53L103.236 108.753L104.494 107.494L105.753 104.557L107.012 102.459L107.851 99.1022L108.691 96.5846L109.11 93.6473V92.3885V91.5493V90.7101L108.271 89.8708L107.851 89.4512L106.592 89.0316L104.914 88.612H104.075H102.816V89.4512L102.396 90.7101L101.557 92.8081L100.718 94.4865L93.165 100.361L82.6747 106.236L76.8002 109.173L69.2472 111.691L67.9884 112.11L66.7296 111.691L66.31 110.851L67.1492 108.753L68.408 107.494L72.6041 103.298L77.2198 99.9415L78.8982 97.8434L80.5767 94.0669L80.1571 89.4512L78.8982 89.0316L73.0237 91.9689L67.5688 94.4865L61.2746 97.0042L55.8197 99.1022L50.7844 99.9415L45.3295 100.361L39.0353 99.1022L37.3569 95.7454L35.6784 91.1297L34.4196 85.6747L34 79.8002L34.8392 71.408L36.9373 64.2746L41.1334 56.302L47.8471 48.3295L56.6589 42.0353L69.6668 37Z" stroke="white" stroke-width="7"/>
</g>
<g filter="url(#filter1_dddd)">
<path d="M67.5256 75.9726C67.5256 75.9726 67.5256 68 59.9726 68C52.4196 68 52 75.9726 52 75.9726C52 75.9726 53.2588 83.9452 59.9726 83.5256C66.6863 83.1059 67.5256 75.9726 67.5256 75.9726Z" stroke="white" stroke-width="5"/>
</g>
<defs>
<filter id="filter0_dddd" x="0.488281" y="0.625732" width="169.004" height="169.322" filterUnits="userSpaceOnUse" color-interpolation-filters="sRGB">
<feFlood flood-opacity="0" result="BackgroundImageFix"/>
<feColorMatrix in="SourceAlpha" type="matrix" values="0 0 0 0 0 0 0 0 0 0 0 0 0 0 0 0 0 0 127 0"/>
<feOffset/>
<feGaussianBlur stdDeviation="15"/>
<feColorMatrix type="matrix" values="0 0 0 0 0 0 0 0 0 0.6 0 0 0 0 0.572549 0 0 0 0.5 0"/>
<feBlend mode="normal" in2="BackgroundImageFix" result="effect1_dropShadow"/>
<feColorMatrix in="SourceAlpha" type="matrix" values="0 0 0 0 0 0 0 0 0 0 0 0 0 0 0 0 0 0 127 0"/>
<feOffset/>
<feGaussianBlur stdDeviation="5"/>
<feColorMatrix type="matrix" values="0 0 0 0 0 0 0 0 0 0.6 0 0 0 0 0.572549 0 0 0 0.5 0"/>
<feBlend mode="normal" in2="effect1_dropShadow" result="effect2_dropShadow"/>
<feColorMatrix in="SourceAlpha" type="matrix" values="0 0 0 0 0 0 0 0 0 0 0 0 0 0 0 0 0 0 127 0"/>
<feOffset/>
<feGaussianBlur stdDeviation="15"/>
<feColorMatrix type="matrix" values="0 0 0 0 0 0 0 0 0 0.6 0 0 0 0 0.572549 0 0 0 0.5 0"/>
<feBlend mode="normal" in2="effect2_dropShadow" result="effect3_dropShadow"/>
<feColorMatrix in="SourceAlpha" type="matrix" values="0 0 0 0 0 0 0 0 0 0 0 0 0 0 0 0 0 0 127 0"/>
<feOffset/>
<feGaussianBlur stdDeviation="5"/>
<feColorMatrix type="matrix" values="0 0 0 0 0 0 0 0 0 0.6 0 0 0 0 0.572549 0 0 0 0.5 0"/>
<feBlend mode="normal" in2="effect3_dropShadow" result="effect4_dropShadow"/>
<feBlend mode="normal" in="SourceGraphic" in2="effect4_dropShadow" result="shape"/>
</filter>
<filter id="filter1_dddd" x="19.4902" y="35.5" width="80.5359" height="80.542" filterUnits="userSpaceOnUse" color-interpolation-filters="sRGB">
<feFlood flood-opacity="0" result="BackgroundImageFix"/>
<feColorMatrix in="SourceAlpha" type="matrix" values="0 0 0 0 0 0 0 0 0 0 0 0 0 0 0 0 0 0 127 0"/>
<feOffset/>
<feGaussianBlur stdDeviation="15"/>
<feColorMatrix type="matrix" values="0 0 0 0 0 0 0 0 0 0.6 0 0 0 0 0.572549 0 0 0 0.5 0"/>
<feBlend mode="normal" in2="BackgroundImageFix" result="effect1_dropShadow"/>
<feColorMatrix in="SourceAlpha" type="matrix" values="0 0 0 0 0 0 0 0 0 0 0 0 0 0 0 0 0 0 127 0"/>
<feOffset/>
<feGaussianBlur stdDeviation="5"/>
<feColorMatrix type="matrix" values="0 0 0 0 0 0 0 0 0 0.6 0 0 0 0 0.572549 0 0 0 0.5 0"/>
<feBlend mode="normal" in2="effect1_dropShadow" result="effect2_dropShadow"/>
<feColorMatrix in="SourceAlpha" type="matrix" values="0 0 0 0 0 0 0 0 0 0 0 0 0 0 0 0 0 0 127 0"/>
<feOffset/>
<feGaussianBlur stdDeviation="15"/>
<feColorMatrix type="matrix" values="0 0 0 0 0 0 0 0 0 0.6 0 0 0 0 0.572549 0 0 0 0.5 0"/>
<feBlend mode="normal" in2="effect2_dropShadow" result="effect3_dropShadow"/>
<feColorMatrix in="SourceAlpha" type="matrix" values="0 0 0 0 0 0 0 0 0 0 0 0 0 0 0 0 0 0 127 0"/>
<feOffset/>
<feGaussianBlur stdDeviation="5"/>
<feColorMatrix type="matrix" values="0 0 0 0 0 0 0 0 0 0.6 0 0 0 0 0.572549 0 0 0 0.5 0"/>
<feBlend mode="normal" in2="effect3_dropShadow" result="effect4_dropShadow"/>
<feBlend mode="normal" in="SourceGraphic" in2="effect4_dropShadow" result="shape"/>
</filter>
</defs>
</svg>
