<svg width="50" height="50" viewBox="0 0 70 70" fill="none" xmlns="http://www.w3.org/2000/svg">
<path d="M35 70C54.33 70 70 54.33 70 35C70 15.67 54.33 0 35 0C15.67 0 0 15.67 0 35C0 54.33 15.67 70 35 70Z" fill="#77B3D4"/>
<g opacity="0.2">
<path opacity="0.2" d="M35 13.125C21.7317 13.125 10.9375 23.9192 10.9375 37.1875C10.9375 50.4558 21.7317 61.25 35 61.25C38.8281 61.25 42.6366 60.3291 46.0162 58.5845C47.0892 58.0311 47.5114 56.712 46.9569 55.638C46.4023 54.5639 45.0822 54.1417 44.0103 54.6973C41.2092 56.1422 38.1773 56.875 35 56.875C24.1445 56.875 15.3125 48.043 15.3125 37.1875C15.3125 26.332 24.1445 17.5 35 17.5C45.8555 17.5 54.6875 26.332 54.6875 37.1875C54.6875 40.5136 53.865 43.7303 52.2933 46.6069C50.3759 45.0898 47.4873 42.0175 47.4873 37.2783V27.6642C47.4873 26.4567 46.5073 25.4767 45.2998 25.4767C44.0923 25.4767 43.1123 26.4567 43.1123 27.6642V27.755C40.9325 25.8781 38.1019 24.7373 35 24.7373C28.1236 24.7373 22.5498 30.3111 22.5498 37.1875C22.5498 44.0639 28.1236 49.6377 35 49.6377C39.0841 49.6377 42.6978 47.6623 44.9684 44.6239C47.4884 49.2669 51.7114 51.4959 51.9641 51.625C52.9375 52.1259 54.1297 51.8262 54.7553 50.9283C57.5728 46.8836 59.0625 42.1323 59.0625 37.1875C59.0625 23.9192 48.2683 13.125 35 13.125ZM35 45.2627C30.5473 45.2627 26.9248 41.6402 26.9248 37.1875C26.9248 32.7348 30.5473 29.1123 35 29.1123C39.4527 29.1123 43.0752 32.7348 43.0752 37.1875C43.0752 41.6402 39.4527 45.2627 35 45.2627Z" fill="#231F20"/>
</g>
<path d="M35 59.0625C21.7317 59.0625 10.9375 48.2683 10.9375 35C10.9375 21.7317 21.7317 10.9375 35 10.9375C48.2683 10.9375 59.0625 21.7317 59.0625 35C59.0625 39.9448 57.5739 44.6972 54.7553 48.7408C54.1308 49.6387 52.9364 49.9352 51.9641 49.4375C51.602 49.2527 43.1113 44.7934 43.1113 35.0908V25.4778C43.1113 24.2703 44.0902 23.2903 45.2988 23.2903C46.5062 23.2903 47.4863 24.2703 47.4863 25.4778V35.0908C47.4863 39.83 50.3748 42.9034 52.2933 44.4194C53.865 41.5428 54.6875 38.3261 54.6875 35C54.6875 24.1445 45.8555 15.3125 35 15.3125C24.1445 15.3125 15.3125 24.1445 15.3125 35C15.3125 45.8555 24.1445 54.6875 35 54.6875C38.1773 54.6875 41.2092 53.9547 44.0103 52.5098C45.0811 51.9542 46.4034 52.3764 46.9569 53.4505C47.5114 54.5234 47.0892 55.8436 46.0162 56.397C42.6366 58.1405 38.827 59.0625 35 59.0625Z" fill="white"/>
<path d="M35 26.9258C39.4526 26.9258 43.0751 30.5483 43.0751 35.0009C43.0751 39.4536 39.4526 43.0761 35 43.0761C30.5473 43.0761 26.9248 39.4536 26.9248 35.0009C26.9248 30.5483 30.5473 26.9258 35 26.9258ZM35 22.5508C28.1236 22.5508 22.5498 28.1245 22.5498 35.0009C22.5498 41.8773 28.1236 47.4511 35 47.4511C41.8764 47.4511 47.4501 41.8773 47.4501 35.0009C47.4501 28.1245 41.8764 22.5508 35 22.5508Z" fill="white"/>
</svg>
