<svg width="100%" height="100%" viewBox="0 0 510 95" fill="none" xmlns="http://www.w3.org/2000/svg">
<path d="M276.669 47.9524V61.7387C276.669 62.2507 276.251 62.6936 275.711 62.6936H264.827C256.037 62.5518 252.508 58.4971 252.373 49.6822C252.508 41.1405 255.656 36.8784 264.879 36.7504V36.7697H287.819V27.3321H264.879C248.536 27.4151 241.804 34.3654 241.479 49.1376L241.465 50.2966L241.479 50.316C241.828 64.6523 248.547 71.6925 264.419 71.9278V71.9389H281.215C285.093 71.9389 287.875 68.7007 287.875 65.2861V47.9503H276.669V47.9524ZM366.601 71.916V53.5493H394.516V44.4368H366.601V30.6747C366.601 30.1489 367.026 29.713 367.562 29.713H395.163V20.2788H362.058C358.184 20.2788 355.395 23.51 355.395 26.9315V71.916H366.601ZM206.509 62.5303C205.963 62.5303 205.547 62.0909 205.547 61.572V53.6012H233.452V44.4956H205.547V37.7045C205.547 37.1856 205.963 36.7428 206.509 36.7428H234.113V27.3051H201.005C197.123 27.3051 194.335 30.5502 194.335 33.9647V65.3083C194.335 68.7332 197.123 71.9714 201.005 71.9714H234.113V62.5303H206.509ZM176.063 19.2188C170.822 19.2188 167.476 22.0141 164.996 27.6358L150.404 61.2488L135.801 27.6358C133.317 22.0141 129.971 19.2188 124.727 19.2188C119.821 19.2188 114.753 22.7302 114.753 30.3585V71.9735H125.938V31.4967L140.627 64.826C142.602 69.4826 145.775 72.4059 150.393 72.4128H150.404C155.019 72.4045 158.199 69.4826 160.171 64.826L174.856 31.4967V71.9735H186.041V30.3585C186.041 22.7302 180.966 19.2188 176.064 19.2188H176.063ZM313.361 53.6018L320.249 37.3869C320.467 36.8784 320.861 36.7435 321.159 36.7435H321.164C321.462 36.7435 321.863 36.8785 322.074 37.3869L328.973 53.6018H313.36H313.361ZM330.365 32.291C328.486 28.2226 324.753 26.2403 321.166 26.2403H321.16C317.569 26.2403 313.836 28.2226 311.972 32.291L293.667 71.9721H305.575L309.564 62.5413H332.767L336.759 71.9721H348.667L330.366 32.291H330.365ZM495.425 27.3061V57.1586L476.193 30.9179C474.571 28.8768 472.765 27.3061 469.053 27.3061C465.645 27.3061 461.435 30.0011 461.435 35.1178V72.0001H472.637V42.1545L491.782 68.4817C493.449 70.7512 495.172 72.0001 499.005 72.0001C502.417 72.0001 506.623 69.5542 506.623 64.185V27.3061H495.425ZM428.305 63.1602C416.867 63.1602 413.577 58.9603 413.577 49.6092V49.5607C413.577 40.4863 416.715 36.027 428.305 36.027C439.908 36.027 443.039 40.4863 443.039 49.5607V49.6092C443.039 58.9603 439.742 63.1602 428.305 63.1602ZM453.943 49.5607C453.941 33.9236 447.699 26.6308 428.305 26.6308C408.924 26.6308 402.68 33.9236 402.669 49.5607V49.592C402.669 64.987 409.087 72.4112 428.305 72.4112C447.529 72.4112 453.943 64.987 453.943 49.592V49.5607Z" fill="white"/>
<path d="M38.9138 39.6375C35.821 39.6375 33.3094 37.1293 33.3094 34.0399C33.3094 30.9436 35.821 28.4354 38.9138 28.4354C42.0067 28.4354 44.5114 30.9436 44.5114 34.0399C44.5114 37.1293 42.0067 39.6375 38.9138 39.6375ZM47.5039 2.68945C22.7508 2.68945 2.6958 22.7479 2.6958 47.4976C2.6958 68.9745 17.8106 86.9226 37.9763 91.292V51.0817L37.9791 51.0789C38.0242 49.1381 39.5705 47.5744 41.494 47.5017V47.4989H43.3587H47.1538C47.4167 47.4989 47.6312 47.2914 47.6451 47.0319L47.6478 2.69748L47.5039 2.68945ZM78.3818 71.9414C75.2924 71.9414 72.7808 69.4333 72.7808 66.337C72.7808 63.251 75.2924 60.7429 78.3818 60.7429C81.4712 60.7429 83.9828 63.251 83.9828 66.337C83.9828 69.4333 81.4712 71.9414 78.3818 71.9414ZM65.2528 71.9414C62.1634 71.9414 59.6552 69.4333 59.6552 66.337C59.6552 63.251 62.1634 60.7429 65.2528 60.7429C68.3456 60.7429 70.8538 63.251 70.8538 66.337C70.8538 69.4333 68.3456 71.9414 65.2528 71.9414ZM52.1169 71.9414C49.0275 71.9414 46.5124 69.4333 46.5124 66.337C46.5124 63.251 49.0275 60.7429 52.1169 60.7429C55.2132 60.7429 57.7213 63.251 57.7213 66.337C57.7213 69.4333 55.2132 71.9414 52.1169 71.9414ZM53.0337 3.02716V47.4962V49.226V49.2573L53.0226 49.2684C53.006 51.268 51.3758 52.8836 49.3693 52.8836H47.6464H43.8548C43.578 52.8836 43.3566 53.105 43.3566 53.3783V92.1184C44.7231 92.2429 46.1 92.3121 47.5011 92.3121C72.2508 92.3121 92.3093 72.2467 92.3093 47.4971C92.3093 24.626 75.1706 5.75412 53.033 3.02799" fill="white"/>
</svg>
