<svg width="100%" height="100%" viewBox="0 0 510 95" fill="none" xmlns="http://www.w3.org/2000/svg">
<g clip-path="url(#clip0)">
<path d="M0.21875 18.5723C10.5632 18.6425 20.9077 18.7069 31.2521 18.6367C34.7178 18.3439 38.1367 20.4105 39.7817 23.4137C46.9181 35.9886 54.0427 48.5694 61.1732 61.1502C62.0162 62.9709 64.5335 63.5036 66.1258 62.3562C67.3377 61.6888 67.6714 60.2369 67.6304 58.9607C67.6304 45.5252 67.6187 32.0897 67.6304 18.6542C73.3149 18.6601 79.0052 18.6542 84.6955 18.6601C84.7306 32.2888 84.6487 45.9233 84.7365 59.552C84.7014 62.7543 85.1463 66.2727 83.3725 69.1295C81.6103 72.1913 78.0451 74.0354 74.5443 73.8715C67.5133 73.8363 60.4882 73.8656 53.4573 73.8598C50.6004 73.8305 47.4274 72.6655 46.0107 70.0252C38.687 57.2513 31.3692 44.4773 23.9987 31.7326C23.1088 29.7597 20.5505 28.9518 18.683 29.9998C17.2253 30.913 17.1492 32.7805 17.1551 34.3143C17.1609 47.4864 17.1785 60.6584 17.1434 73.8246C11.4999 73.8832 5.86224 73.8422 0.21875 73.8481V18.5723Z" fill="white"/>
<path d="M111.028 23.9171C112.316 21.2651 114.886 19.4445 117.69 18.6893C125.57 18.619 133.456 18.6717 141.335 18.6658C144.456 19.1459 147.143 21.3588 148.554 24.1454C157.399 40.7364 166.474 57.2102 175.267 73.8246C168.206 73.8772 161.146 73.8772 154.086 73.8187C147.195 59.8329 140.252 45.8705 133.35 31.8906C132.659 30.3451 131.389 28.94 129.609 28.7527C127.917 28.981 126.635 30.2865 125.968 31.7911C119.001 45.8061 112.064 59.8388 105.08 73.8421C98.0022 73.8421 90.9186 73.9007 83.8408 73.8128C92.7334 57.0931 102.018 40.5783 111.028 23.9171Z" fill="white"/>
<path d="M171.783 18.6611C177.479 18.6611 183.176 18.6435 188.872 18.6552C188.907 30.7267 189.229 42.7923 189.533 54.8637C189.504 56.8132 191.208 58.2475 192.929 58.8095C198.168 60.5248 203.759 59.9101 209.18 60.033C213.852 59.9862 218.676 60.3199 223.166 58.751C224.817 58.1772 226.462 56.8073 226.427 54.9106C226.725 42.8333 227.053 30.7501 227.106 18.6728C232.802 18.626 238.492 18.6611 244.188 18.6611C244.188 27.4015 244.188 36.136 244.188 44.8705C244.171 51.1053 244.294 57.4279 242.942 63.5456C242.093 67.3567 238.99 70.3248 235.343 71.5015C229.957 73.2988 224.226 73.6324 218.6 73.849C211.569 73.8549 204.538 73.8666 197.507 73.8432C191.881 73.6266 186.155 73.3222 180.769 71.5542C177.333 70.4477 174.271 67.8484 173.258 64.3008C171.889 59.5237 171.935 54.4949 171.783 49.5715C171.766 39.268 171.766 28.9646 171.783 18.6611Z" fill="white"/>
<path d="M248.029 27.8571C248.012 22.8225 252.748 18.2444 257.8 18.6425C264.462 18.6894 271.124 18.6367 277.786 18.6659C279.484 18.8767 281.041 19.8017 282.382 20.832C284.589 22.5473 285.403 25.3222 286.591 27.7283C290.683 36.4804 294.611 45.3145 298.815 54.008C303.721 44.05 308.135 33.846 312.906 23.8177C314.235 21.1072 316.963 19.146 319.931 18.6718C326.54 18.625 333.15 18.6894 339.765 18.6425C344.835 18.2327 349.454 22.8576 349.495 27.8688C349.577 43.1835 349.53 58.5041 349.512 73.8188C343.98 73.8832 338.442 73.8656 332.91 73.8305C332.869 59.8974 333.085 45.9584 332.951 32.0253C332.769 28.7821 327.618 27.9098 326.447 30.9774C320.967 43.2713 315.564 55.5945 310.125 67.906C309.218 70.0955 307.502 71.9864 305.313 72.9348C302.544 74.293 299.383 73.772 296.414 73.8539C292.756 73.8773 289.208 71.6293 287.738 68.269C282.516 56.5488 277.283 44.8344 272.108 33.0908C271.47 31.7736 271.06 30.1286 269.62 29.4495C267.67 28.3196 264.62 29.6309 264.597 32.0253C264.526 45.9643 264.602 59.9033 264.567 73.8422C259.059 73.8715 253.55 73.8539 248.041 73.8539C248.006 58.5216 248.029 43.1894 248.029 27.8571Z" fill="white"/>
<path d="M353.645 27.9042C353.581 22.9457 358.159 18.391 363.141 18.6428C382.425 18.6838 401.715 18.6428 420.999 18.6603C420.946 23.0159 421.11 27.3715 420.887 31.7153C405.157 31.7563 389.427 31.6919 373.69 31.7446C369.388 31.9144 369.335 39.6829 373.661 39.841C389.397 39.923 405.134 39.841 420.87 39.8761C421.063 43.9858 421.057 48.1072 420.893 52.2169C405.163 52.2813 389.438 52.2052 373.714 52.252C369.417 52.4042 369.335 60.1026 373.608 60.3543C389.362 60.3777 405.116 60.3894 420.87 60.3484C421.098 64.8445 421.04 69.364 420.911 73.8659C402.833 73.8425 384.761 73.86 366.683 73.8542C364.3 73.8191 361.795 74.1176 359.564 73.1165C356.233 71.7525 353.675 68.4156 353.657 64.7567C353.634 52.4745 353.651 40.1864 353.645 27.9042Z" fill="white"/>
<path d="M433 18.6602C440.956 18.6485 448.917 18.6719 456.879 18.6485C458.723 18.5899 460.409 19.5208 461.885 20.5335C463.969 22.0205 464.94 24.4735 466.193 26.6103C472.703 38.0846 479.196 49.5647 485.705 61.0332C486.472 62.649 488.492 63.4803 490.137 62.6665C491.648 62.1338 492.356 60.4829 492.28 58.9725C492.291 45.5312 492.274 32.0957 492.291 18.6543C498.04 18.7773 503.801 18.426 509.538 18.8475V60.1726C509.011 62.9007 509.72 65.9508 508.326 68.4857C506.751 71.7699 503.186 73.9126 499.557 73.8599C492.537 73.854 485.518 73.8482 478.499 73.8599C475.712 73.8891 472.563 73.0168 470.959 70.5698C463.336 57.4738 455.948 44.2257 448.227 31.1883C446.705 28.4192 441.799 29.1686 441.863 32.5582C441.781 46.3156 441.875 60.079 441.816 73.8423C436.12 73.8423 430.418 73.895 424.716 73.8189C424.728 58.4983 424.687 43.1778 424.734 27.8572C424.763 23.326 428.533 19.1812 433 18.6602Z" fill="white"/>
</g>
<defs>
<clipPath id="clip0">
<rect width="509.319" height="95" fill="white"/>
</clipPath>
</defs>
</svg>
