<svg width="100%" height="100%" viewBox="0 0 496 496" fill="none" xmlns="http://www.w3.org/2000/svg">
<path d="M184 464C168.904 464 154.816 455.168 148.096 441.504L138.28 421.52L116.128 423.776C114.712 423.928 113.344 424 112 424C85.528 424 64 402.472 64 376C64 366.984 66.592 358.144 71.504 350.424L87.936 324.592L62.856 307.04C43.528 293.504 32 271.44 32 248C32 222.112 46.112 198.08 68.816 185.288L92.36 172.024L83.224 146.584C81.088 140.632 80 134.376 80 128C80 101.472 98.832 78.392 124.784 73.12L140.592 69.912L147.792 55.216C154.368 41.112 168.576 32 184 32C206.056 32 224 49.944 224 72V424C224 446.056 206.056 464 184 464Z" fill="#5E87F0"/>
<path d="M424 112C446.091 112 464 94.0914 464 72C464 49.9086 446.091 32 424 32C401.909 32 384 49.9086 384 72C384 94.0914 401.909 112 424 112Z" fill="#5E87F0"/>
<path d="M456 248C478.091 248 496 230.091 496 208C496 185.909 478.091 168 456 168C433.909 168 416 185.909 416 208C416 230.091 433.909 248 456 248Z" fill="#5E87F0"/>
<path d="M456 328C478.091 328 496 310.091 496 288C496 265.909 478.091 248 456 248C433.909 248 416 265.909 416 288C416 310.091 433.909 328 456 328Z" fill="#5E87F0"/>
<path d="M424 464C446.091 464 464 446.091 464 424C464 401.909 446.091 384 424 384C401.909 384 384 401.909 384 424C384 446.091 401.909 464 424 464Z" fill="#5E87F0"/>
<path d="M256 296H368V280H256V216H272V200H256V168H336V152H256V72C256 32.304 223.696 0 184 0C155.144 0 130.264 17.104 118.784 41.68L118.408 41.76C77.608 50.04 48 86.312 48 128C48 138.08 49.712 147.944 53.104 157.408C20.616 175.712 0 210.488 0 248C0 282.024 16.864 313.904 44.496 333.248C36.624 345.632 32 360.272 32 376C32 420.112 67.888 456 112 456C114.408 456 116.856 455.872 119.384 455.624C131.36 480.008 156.568 496 184 496C223.696 496 256 463.696 256 424V344H296V328H256V296ZM240 424C240 454.88 214.88 480 184 480C161 480 140.008 465.536 131.752 444.008L129.4 437.864L122.92 438.984C119 439.672 115.424 440 112 440C76.712 440 48 411.288 48 376C48 340.712 76.712 312 112 312V296C89.424 296 69.048 305.44 54.488 320.528C30.672 304.208 16 277.088 16 248C16 214.12 35.888 182.88 66.664 168.408L73.832 165.04L70.536 157.84C66.2 148.344 64 138.312 64 128C64 96.888 84.176 69.528 113.12 59.792C112.432 63.768 112 67.832 112 72C112 84.656 115.336 97.104 121.64 108L135.488 99.992C130.592 91.528 128 81.84 128 72C128 41.12 153.12 16 184 16C214.88 16 240 41.12 240 72V424Z" fill="white"/>
<path d="M184 448V464C206.056 464 224 446.056 224 424H208C208 437.232 197.232 448 184 448Z" fill="white"/>
<path d="M80 376H64C64 402.472 85.528 424 112 424V408C94.352 408 80 393.648 80 376Z" fill="white"/>
<path d="M432 401.472V368C432 345.944 414.056 328 392 328H312V344H392C405.232 344 416 354.768 416 368V401.472C406.712 404.784 400 413.584 400 424C400 437.232 410.768 448 424 448C437.232 448 448 437.232 448 424C448 413.584 441.288 404.784 432 401.472ZM424 432C419.592 432 416 428.408 416 424C416 419.592 419.592 416 424 416C428.408 416 432 419.592 432 424C432 428.408 428.408 432 424 432Z" fill="white"/>
<path d="M456 264C445.584 264 436.784 270.712 433.472 280H384V296H433.472C436.784 305.288 445.584 312 456 312C469.232 312 480 301.232 480 288C480 274.768 469.232 264 456 264ZM456 296C451.592 296 448 292.408 448 288C448 283.592 451.592 280 456 280C460.408 280 464 283.592 464 288C464 292.408 460.408 296 456 296Z" fill="white"/>
<path d="M433.472 200H288V216H433.472C436.784 225.288 445.584 232 456 232C469.232 232 480 221.232 480 208C480 194.768 469.232 184 456 184C445.584 184 436.784 190.712 433.472 200ZM456 200C460.408 200 464 203.592 464 208C464 212.408 460.408 216 456 216C451.592 216 448 212.408 448 208C448 203.592 451.592 200 456 200Z" fill="white"/>
<path d="M432 128V94.528C441.288 91.216 448 82.416 448 72C448 58.768 437.232 48 424 48C410.768 48 400 58.768 400 72C400 82.416 406.712 91.216 416 94.528V128C416 141.232 405.232 152 392 152H352V168H392C414.056 168 432 150.056 432 128ZM424 64C428.408 64 432 67.592 432 72C432 76.408 428.408 80 424 80C419.592 80 416 76.408 416 72C416 67.592 419.592 64 424 64Z" fill="white"/>
<path d="M87.032 207.032C71.432 222.624 71.432 248.008 87.032 263.6L98.344 252.288C88.992 242.928 88.992 227.704 98.344 218.344C107.704 208.976 122.928 208.984 132.288 218.344L143.6 207.032C128 191.44 102.624 191.432 87.032 207.032Z" fill="white"/>
<path d="M184 32C161.944 32 144 49.944 144 72H160C160 58.768 170.768 48 184 48C197.232 48 208 58.768 208 72H224C224 49.944 206.056 32 184 32Z" fill="white"/>
<path d="M216 184C216 161.944 198.056 144 176 144V160C189.232 160 200 170.768 200 184C200 197.232 189.232 208 176 208V224C198.056 224 216 206.056 216 184Z" fill="white"/>
<path d="M136 352C136 374.056 153.944 392 176 392V376C162.768 376 152 365.232 152 352C152 338.768 162.768 328 176 328V312C153.944 312 136 329.944 136 352Z" fill="white"/>
</svg>
