<svg width="100" height="100" viewBox="0 0 105 104" fill="none" xmlns="http://www.w3.org/2000/svg">
<path d="M102.468 100.403L96.8969 97.1753L91.3252 100.403L85.7622 97.1753L80.2016 100.403L74.6417 97.1753L69.0874 100.403L63.5267 97.1753L57.9669 100.403L52.4078 97.1753L46.8534 100.403L41.2936 97.1753L35.7408 100.403L30.1849 97.1753L24.6353 100.403L19.0794 97.1753L13.5282 100.403L7.97147 97.1753L2.41556 100.403V1.96436H102.468V100.403Z" fill="#FFE082"/>
<path d="M92.7847 18.1021H60.5098V56.8319H92.7847V18.1021Z" fill="#A6E7FF"/>
<path d="M60.5098 56.8319V54.4255C60.5098 52.9843 61.4656 51.718 62.8516 51.3225L71.806 48.7632H81.4885L90.4428 51.3225C91.8289 51.718 92.7847 52.9843 92.7847 54.4255V56.8319H60.5098Z" fill="#FF8A65"/>
<path d="M79.875 42.3081H73.42V48.7631H79.875V42.3081Z" fill="#FFD54F"/>
<path d="M92.7847 69.7412H12.0974V85.8787H92.7847V69.7412Z" fill="#CFD8DC"/>
<path d="M54.0547 24.5566H12.0973V34.2391H54.0547V24.5566Z" fill="#CFD8DC"/>
<path d="M54.0547 40.6943H12.0973V56.8318H54.0547V40.6943Z" fill="#CFD8DC"/>
<path d="M70.1911 31.0117V40.6422L74.495 43.9217H78.7972L83.1011 40.6422V31.0117H70.1911Z" fill="#FFE082"/>
<path d="M86.3286 31.0116C85.3799 27.2184 81.972 24.5566 78.0613 24.5566H73.4187C71.6363 24.5566 70.1912 26.0018 70.1912 27.7841V31.0116H86.3286Z" fill="#464A5E"/>
<path d="M94.3975 10.0332H62.1226V13.2607H94.3975V10.0332Z" fill="white"/>
<path d="M55.6675 16.4883H25.0063V19.7158H55.6675V16.4883Z" fill="white"/>
<path d="M58.8951 64.9003H62.1226V61.6729H58.8951V64.9003ZM65.35 64.9003H94.3975V61.6729H65.35V64.9003Z" fill="white"/>
<path d="M104.081 0.350586V103.202L96.8959 99.0404L91.3227 102.268L85.7612 99.0404L80.2006 102.268L74.6407 99.0404L69.0848 102.268L63.5258 99.0404L57.9659 102.268L52.4068 99.0404L46.8525 102.268L41.2942 99.0404L35.7399 102.268L30.1839 99.0404L24.6343 102.268L19.0768 99.0404L13.5288 102.268L7.96895 99.0404L0.800858 103.206V0.350586H104.081ZM4.02835 97.6L7.96895 95.3102L13.5288 98.5377L19.0768 95.3102L24.6343 98.5377L30.1839 95.3102L35.7399 98.5377L41.2942 95.3102L46.8525 98.5377L52.4068 95.3102L57.9659 98.5377L63.5258 95.3102L69.0848 98.5377L74.6407 95.3102L80.2006 98.5377L85.7612 95.3102L91.3258 98.5377L96.8959 95.3102L100.853 97.6032V3.57808H4.02835V97.6Z" fill="black"/>
<path d="M58.8951 16.4883H94.3975V58.4457H58.8951V16.4883ZM78.26 55.2182H91.17V54.4255C91.1708 53.7053 90.6933 53.0718 89.9998 52.8732L81.2614 50.3769H78.26V55.2182ZM83.9081 29.3982C82.6442 27.3874 80.4348 26.1684 78.0599 26.1708H73.4188C72.5276 26.1708 71.805 26.8933 71.805 27.7845V39.8442L75.0325 42.3082H78.2442L81.4717 39.8442V32.6257H75.0168V29.3982H83.9081ZM78.26 45.5357H75.0325V47.1896L78.26 47.1691V45.5357ZM62.1226 55.2182H75.0325V50.3769H72.0312L63.2943 52.8732C62.6008 53.071 62.1226 53.7045 62.1226 54.4255V55.2182ZM62.1226 49.8766C62.2179 49.8427 62.3085 49.7978 62.4062 49.7702L71.363 47.2125H71.805V43.9038L68.5775 41.4446V27.7845C68.5775 25.1109 70.7452 22.9433 73.4188 22.9433H78.0614C82.7136 22.9385 86.77 26.1054 87.8944 30.6196L88.3956 32.6257H84.715V41.4414L81.4875 43.9007V47.1494L90.8879 49.7702C90.9864 49.7978 91.0746 49.8427 91.17 49.8766V19.7158H62.1226V49.8766Z" fill="black"/>
<path d="M10.4827 68.1284H94.3975V87.4934H10.4827V68.1284ZM13.7102 84.2659H91.17V71.3559H13.7102V84.2659Z" fill="black"/>
<path d="M10.4826 22.9429H55.6675V35.8528H10.4826V22.9429ZM13.7101 32.6253H52.44V26.1704H13.7101V32.6253Z" fill="black"/>
<path d="M10.4826 39.0806H55.6675V58.4455H10.4826V39.0806ZM13.7101 55.218H52.44V42.3081H13.7101V55.218Z" fill="black"/>
</svg>
