<svg width="100" height="100" viewBox="0 0 104 104" fill="none" xmlns="http://www.w3.org/2000/svg">
<path d="M40.7324 103.772V63.6941C40.7324 60.6029 42.9149 57.9423 45.9459 57.3359L65.0503 53.5149H78.0199L97.1243 57.3359C100.155 57.9423 102.338 60.6029 102.338 63.6941V103.772H40.7324Z" fill="#A6E7FF"/>
<path d="M71.5343 87.5599L89.3674 71.3916L86.1686 64.8632L89.3674 61.6209V55.7844L78.0191 53.5149H65.0495L53.7012 55.7844V61.6209L56.9 64.8632L53.7012 71.3916L71.5343 87.5599Z" fill="#E2FC85"/>
<path d="M81.2618 54.1634V69.727L71.5346 77.833L61.8074 69.727V54.1634L65.0498 53.5151V43.5774C62.1549 45.82 58.5959 47.0343 54.9332 47.0303H53.7015V38.9244L48.8379 37.3032L53.7015 29.1972V16.2277H78.0194V53.5151L81.2618 54.1634Z" fill="#FFDECF"/>
<path d="M95.8524 48.6514H71.5345V17.8488C65.1376 21.0468 58.0844 22.7124 50.9324 22.7124H50.459C50.459 11.7986 60.6207 1.63684 73.1557 1.63684C85.6906 1.63684 95.8524 11.7986 95.8524 24.3335V48.6514Z" fill="#50575E"/>
<path d="M43.9733 81.0756C43.9733 92.7153 34.5374 102.151 22.8978 102.151C11.2581 102.151 1.82227 92.7153 1.82227 81.0756C1.82227 69.436 11.2581 60.0001 22.8978 60.0001C34.5374 60.0001 43.9733 69.436 43.9733 81.0756Z" fill="#FF8A65"/>
<path d="M18.0352 71.3483V90.8026L32.6259 81.0754L18.0352 71.3483Z" fill="white"/>
<path d="M31.0037 37.303V42.1666H1.82227V22.7123H31.0037V27.5759L40.7309 24.3335V40.5454L31.0037 37.303Z" fill="#E2FC85"/>
<path d="M76.3984 89.1812H79.6408V92.4235H76.3984V89.1812Z" fill="white"/>
<path d="M76.3984 97.2875H79.6408V100.53H76.3984V97.2875Z" fill="white"/>
<path d="M97.4427 55.7457L79.6404 52.1859V50.2726H97.4735V24.3335C97.4585 10.9096 86.5796 0.0306655 73.1556 0.015625C60.2004 0.015625 48.8378 10.6215 48.8378 22.7123V24.3335H50.9323C51.3147 24.3335 51.6978 24.3121 52.0801 24.3042V28.7483L46.406 38.2031L52.0801 40.0935V48.6514H54.9283C57.8905 48.657 60.8091 47.9366 63.4285 46.5537V52.1859L45.6262 55.7521C41.844 56.5175 39.1217 59.8359 39.1106 63.6942V65.2219C32.6638 58.6169 22.8583 56.5737 14.3098 60.0544C5.76135 63.5343 0.171875 71.8452 0.171875 81.0753C0.171875 90.3053 5.76135 98.6163 14.3098 102.096C22.8583 105.577 32.6638 103.534 39.1106 96.9286V103.772H42.353V92.7054C46.6759 85.5549 46.6759 76.5956 42.353 69.4451V63.6942C42.3585 61.3779 43.9924 59.3847 46.2635 58.9248L52.0801 57.7627V62.2859L54.9386 65.1879L51.7089 71.7795L69.9133 88.278V103.772H73.1556V88.278L91.36 71.7748L88.1303 65.1879L90.9888 62.2859V57.7627L96.8054 58.9248C99.0765 59.3847 100.71 61.3779 100.716 63.6942V103.772H103.958V63.6942C103.95 59.8335 101.227 56.5112 97.4427 55.7457V55.7457ZM22.8987 100.53C12.1543 100.53 3.44434 91.8196 3.44434 81.0753C3.44434 70.3309 12.1543 61.621 22.8987 61.621C33.643 61.621 42.353 70.3309 42.353 81.0753C42.3411 91.8149 33.6383 100.518 22.8987 100.53ZM52.829 17.8258C60.437 17.6786 67.8377 15.3204 74.1285 11.0394L72.1828 8.44615C66.8284 12.0313 60.6191 14.1338 54.1874 14.5399C58.0021 7.62288 65.2571 3.30788 73.1556 3.25801C84.7898 3.27147 94.2177 12.6994 94.2312 24.3335V47.0302H73.1556V18.8003C75.3286 17.4759 77.3448 15.9093 79.1655 14.1314L76.873 11.8374C75.0626 13.6192 73.0235 15.1526 70.8101 16.3978C65.0077 19.2903 58.6464 20.8853 52.1664 21.0729C52.2796 19.9718 52.5021 18.8842 52.829 17.8258ZM55.3225 57.1144L60.1861 56.1415V65.8133L56.4688 62.0959L56.4577 62.107L55.3225 60.956V57.1144ZM69.9133 83.9029L55.6938 71.0109L57.372 67.5841L60.1861 70.3982V70.4853L69.9133 78.5912V83.9029ZM71.5345 75.7257L63.4285 68.9717V55.4932L66.6709 54.8441V44.3523C67.0635 44.0277 67.449 43.681 67.8171 43.3129L65.5246 41.0204C62.8174 43.7443 59.1618 45.3172 55.3225 45.409V37.7551L51.2695 36.403L55.3225 29.6459V24.1182C60.3515 23.6496 65.2761 22.3917 69.9133 20.389V50.2726H76.398V54.8441L79.6404 55.4932V68.9686L71.5345 75.7257ZM73.1556 83.906V78.5912L82.8828 70.4853V70.3982L85.6969 67.5841L87.3751 71.0109L73.1556 83.906ZM87.7464 60.956L86.6112 62.107L86.6002 62.0959L82.8828 65.8133V56.1415L87.7464 57.1144V60.956Z" fill="black"/>
<path d="M48.8379 77.8329H52.0803V103.772H48.8379V77.8329Z" fill="black"/>
<path d="M90.9883 77.8329H94.2307V103.772H90.9883V77.8329Z" fill="black"/>
<path d="M16.4141 93.8325L35.5438 81.0751L16.4141 68.3177V93.8325ZM19.6564 74.3782L29.7082 81.0751L19.6564 87.7721V74.3782Z" fill="black"/>
<path d="M32.625 39.552L42.3522 42.7944V22.0846L32.625 25.327V21.0912H0.201172V43.7879H32.625V39.552ZM29.3826 40.5455H3.44356V24.3336H29.3826V29.8249L39.1098 26.5825V38.2966L29.3826 35.0542V40.5455Z" fill="black"/>
<path d="M13.1719 47.0303H16.4143V56.7574H13.1719V47.0303Z" fill="black"/>
<path d="M5.06641 47.0303H8.30879V59.9998H5.06641V47.0303Z" fill="black"/>
<path d="M21.2773 47.0303H24.5197V55.1362H21.2773V47.0303Z" fill="black"/>
<path d="M27.8769 7.99813L30.1694 5.70567C22.5677 -1.87943 10.2599 -1.87943 2.6582 5.70567L4.95067 7.99813C11.2858 1.67722 21.5418 1.67722 27.8769 7.99813Z" fill="black"/>
<path d="M25.5851 10.294C20.5157 5.23809 12.3116 5.23809 7.24219 10.294L9.53466 12.5865C13.3367 8.79395 19.4906 8.79395 23.2926 12.5865L25.5851 10.294Z" fill="black"/>
<path d="M11.8281 14.8852L14.1206 17.1777C15.403 15.9523 17.4231 15.9523 18.7055 17.1777L20.998 14.8852C18.4332 12.4336 14.3929 12.4336 11.8281 14.8852Z" fill="black"/>
</svg>
