<svg width="100" height="100" viewBox="0 0 105 104" fill="none" xmlns="http://www.w3.org/2000/svg">
<g clip-path="url(#clip0)">
<path d="M7.16639 43.821H78.2708C80.9489 43.821 83.1189 45.9918 83.1189 48.6691V97.1494C83.1189 99.8267 80.9489 101.997 78.2708 101.997H7.16639C4.48908 101.997 2.31836 99.8267 2.31836 97.1494V48.6691C2.31836 45.9918 4.48908 43.821 7.16639 43.821V43.821Z" fill="#CFD8DC"/>
<path d="M8.7832 50.2853H76.6557V79.3734H8.7832V50.2853Z" fill="#A6E7FF"/>
<path d="M40.5156 31.8062L46.23 37.5207L64.5119 19.2372L54.2272 18.0946L40.5156 31.8062Z" fill="#E2FC85"/>
<path d="M29.791 63.2131L58.8792 34.1249L70.1905 45.4362L41.1023 74.5251L29.791 63.2131Z" fill="#2AC3F2"/>
<path d="M72.5105 63.8012L66.7969 58.0876L85.0803 39.8057L86.2229 50.0896L72.5105 63.8012Z" fill="#E2FC85"/>
<path d="M102.221 2.09552C90.6846 0.653898 79.1295 4.61896 70.909 12.8395L53.084 30.6637L73.6526 51.2323L91.4776 33.4081C99.6982 25.1868 103.662 13.6317 102.221 2.09552V2.09552Z" fill="#FF8A65"/>
<path d="M102.222 2.09526C94.2864 1.10656 86.2427 2.66733 79.2539 6.5527L97.7646 25.0642C101.651 18.0747 103.212 10.0309 102.222 2.09526V2.09526Z" fill="#E2FC85"/>
<path d="M49.1836 85.8373H73.4237V95.5333H49.1836V85.8373Z" fill="#E2FC85"/>
<path d="M63.7285 85.8373H73.4246V95.5333H63.7285V85.8373Z" fill="#8EDF78"/>
<path d="M78.2246 23.8066L80.5105 21.5215L82.7957 23.8066L80.5105 26.0918L78.2246 23.8066Z" fill="white"/>
<path d="M30.2656 71.7667L52.8898 49.1426L55.1749 51.4277L32.5508 74.0519L30.2656 71.7667Z" fill="white"/>
<path d="M7.16797 92.3015H42.7202V95.5335H7.16797V92.3015Z" fill="white"/>
<path d="M7.16797 85.8373H13.632V89.0693H7.16797V85.8373Z" fill="white"/>
<path d="M16.8633 85.8373H23.3273V89.0693H16.8633V85.8373Z" fill="white"/>
<path d="M26.5586 85.8373H42.7187V89.0693H26.5586V85.8373Z" fill="white"/>
<path d="M92.6189 34.5501C101.225 25.9982 105.366 13.9302 103.822 1.89609L103.661 0.647785L102.414 0.486815C90.3795 -1.05266 78.3139 3.08995 69.7635 11.6971L63.9165 17.5449L53.6326 16.4023L38.2284 31.8065L46.228 39.8061L53.0826 32.9491L55.4262 35.2926L48.5131 42.2056H7.16521C3.59547 42.2056 0.701172 45.0999 0.701172 48.6697V97.15C0.701172 100.72 3.59547 103.614 7.16521 103.614H78.2697C81.8402 103.614 84.7337 100.72 84.7337 97.15V53.8617L87.9129 50.6834L86.7703 40.4002L92.6189 34.5501ZM100.75 3.56339C101.345 10.0259 100.172 16.5286 97.3564 22.3756L81.9396 6.95717C87.7874 4.14335 94.2885 2.9708 100.75 3.56339ZM50.7975 30.6639L46.228 35.2358L42.7987 31.8065L54.8186 19.785L60.9899 20.4715L55.3986 26.0613L50.7975 30.6639ZM57.7113 37.5769L61.0822 40.9486L56.5103 45.5181L58.7955 47.8033L63.3673 43.233L66.7382 46.6047L53.2783 60.0622L55.5635 62.3474L69.0234 48.889L71.3661 51.2325L64.5099 58.0895L72.5087 66.0867L75.0377 63.5562V77.7578H10.3972V51.9017H38.8171L35.5022 55.2142L37.7874 57.4993L57.7113 37.5769ZM81.5017 97.15C81.5017 98.9348 80.0553 100.382 78.2697 100.382H7.16521C5.38034 100.382 3.93319 98.9348 3.93319 97.15V48.6697C3.93319 46.8848 5.38034 45.4376 7.16521 45.4376H45.2811L42.0491 48.6697H7.16521V80.9899H78.2697V60.3258L81.5017 57.0937V97.15ZM72.5087 61.5165L69.0794 58.0895L73.6513 53.5177L83.8421 43.3253L84.527 49.4966L72.5087 61.5165ZM73.6513 48.9458L65.6525 40.9486L72.5087 34.0916L70.2236 31.8065L63.3673 38.6619L55.3678 30.6639L72.0487 13.9822C74.1302 11.9023 76.458 10.0842 78.979 8.56687L95.7491 25.3361C94.2309 27.8564 92.4129 30.1834 90.3337 32.2657L73.6513 48.9458Z" fill="black"/>
<path d="M38.3438 13.5896L51.2726 0.661499L53.5578 2.94664L40.6289 15.8747L38.3438 13.5896Z" fill="black"/>
<path d="M25.416 13.5893L35.1121 3.89404L37.3972 6.17918L27.7012 15.8752L25.416 13.5893Z" fill="black"/>
<path d="M88.4414 63.6856L101.37 50.7576L103.655 53.0427L90.7273 65.9708L88.4414 63.6856Z" fill="black"/>
<path d="M88.4414 76.6139L98.1367 66.9186L100.423 69.2037L90.7266 78.8998L88.4414 76.6139Z" fill="black"/>
<path d="M28.6484 62.0699L33.2195 57.4996L35.5046 59.7848L30.9336 64.3559L28.6484 62.0699Z" fill="black"/>
<path d="M46.4238 66.9178L50.9949 62.3475L53.28 64.6327L48.709 69.2037L46.4238 66.9178Z" fill="black"/>
<path d="M47.5664 97.1492H75.0386V84.2211H47.5664V97.1492ZM65.3425 87.4531H71.8065V93.9172H65.3425V87.4531ZM50.7984 87.4531H62.1105V93.9172H50.7984V87.4531Z" fill="black"/>
</g>
<defs>
<clipPath id="clip0">
<rect width="103.443" height="103.443" fill="white" transform="translate(0.685547 0.170898)"/>
</clipPath>
</defs>
</svg>
