<svg width="100" height="100" viewBox="0 0 104 104" fill="none" xmlns="http://www.w3.org/2000/svg">
<g clip-path="url(#clip0)">
<path d="M90.266 55.2296L97.3715 38.1746C100.022 37.2907 101.945 34.8182 101.945 31.8716C101.945 28.1861 98.9568 25.1979 95.2713 25.1979C91.5857 25.1979 88.5976 28.1861 88.5976 31.8716C88.5976 33.1343 88.9682 34.3026 89.5784 35.3087L81.9238 51.8928L90.266 55.2296Z" fill="#E6E9ED"/>
<path d="M53.5619 98.6086H19.9782C18.221 98.6086 16.7643 97.2473 16.6478 95.4933L13.5195 48.5557V31.8714H53.5619V98.6086Z" fill="#E6E9ED"/>
<path d="M53.5598 48.5554V42.4642C51.594 43.4018 50.2229 45.3921 50.2229 47.713V48.4405L47.8107 50.0487C46.1871 51.1314 45.2176 52.9432 45.2176 54.8951V57.0361C42.1675 58.8063 39.8873 61.7456 38.983 65.2413H35.207V78.5888C35.207 87.0914 39.7871 94.5236 46.596 98.61H53.5598V48.5554Z" fill="#CCD1D9"/>
<path d="M48.5563 53.561C40.2142 53.561 33.5405 48.5557 26.8667 48.5557C20.87 48.5557 14.8888 51.2416 13.7344 51.7891L16.6476 95.4933C16.7657 97.2473 18.2207 98.6086 19.978 98.6086H53.5616V54.1866L48.5563 53.561Z" fill="#FCD770"/>
<path d="M45.4449 53.3363C45.304 53.8398 45.2176 54.3587 45.2176 54.8956V57.0365C42.1675 58.8068 39.8873 61.7461 38.983 65.2418H35.207V78.5893C35.207 87.0919 39.7871 94.5241 46.596 98.6104H53.5598V54.1868L48.5545 53.5612C47.4913 53.5612 46.4575 53.4781 45.4449 53.3363Z" fill="#FFC729"/>
<path d="M91.9214 51.259C89.9002 50.0908 87.6615 49.2631 85.2794 48.8598L83.9426 47.5229L81.9238 51.8928L90.266 55.2297L91.9214 51.259Z" fill="#CCD1D9"/>
<path d="M48.5566 58.5664V54.8939C48.5566 54.0614 48.9737 53.2825 49.6662 52.8206L52.4524 50.9632C53.1448 50.5013 53.5619 49.7241 53.5619 48.8915V47.7119C53.5619 46.3351 54.678 45.219 56.0548 45.219H57.0275C57.9717 45.219 58.8344 44.6854 59.2564 43.8406L59.5464 43.2606C59.9684 42.4157 60.8312 41.8821 61.7754 41.8821C62.8483 41.8821 63.8014 42.5681 64.1395 43.5856L64.6723 45.1823C65.012 46.2015 65.9652 46.8874 67.0381 46.8874C67.9823 46.8874 68.845 46.3538 69.267 45.509L69.557 44.929C69.979 44.0842 70.8417 43.5506 71.7859 43.5506H72.0417C72.9859 43.5506 73.8487 44.0842 74.2707 44.929L74.5607 45.509C74.9843 46.3538 75.847 46.8874 76.7912 46.8874H77.5554C78.2161 46.8874 78.8507 47.1498 79.3175 47.6182L83.5937 51.8927V68.577H48.5566V58.5664Z" fill="#A0D468"/>
<path d="M58.5661 98.6085C47.5095 98.6085 38.5449 89.644 38.5449 78.5874V68.5768H101.945V78.5874C101.945 89.644 92.9807 98.6085 81.9241 98.6085H58.5661Z" fill="#DFB28B"/>
<path d="M51.8935 55.2291C50.7391 55.2291 49.6263 55.3912 48.5566 55.6682V68.5766H65.2409C65.2409 61.2169 59.2532 55.2291 51.8935 55.2291Z" fill="#8CC152"/>
<path d="M41.8809 68.577C41.8809 63.0479 46.3623 58.5664 51.8914 58.5664C57.4206 58.5664 61.902 63.0479 61.902 68.577H41.8809Z" fill="#FC6E51"/>
<path d="M80.3369 48.6351C70.0395 49.4498 61.9043 58.0722 61.9043 68.5765H83.5939V51.8922L80.3369 48.6351Z" fill="#8CC152"/>
<path d="M65.2422 68.5769C65.2422 59.3622 72.7118 51.8926 81.9265 51.8926C91.1412 51.8926 98.6108 59.3622 98.6108 68.5769H65.2422Z" fill="#FFEAA7"/>
<path d="M71.9141 68.577C71.9141 63.0479 76.3955 58.5664 81.9246 58.5664C87.4538 58.5664 91.9352 63.0479 91.9352 68.577H71.9141Z" fill="#FCD770"/>
<path d="M42.4633 65.2399C42.0927 66.2843 41.8809 67.4053 41.8809 68.5767H61.902C61.902 67.4053 61.6902 66.2843 61.3195 65.2399H42.4633Z" fill="#E9573F"/>
<path d="M65.5778 65.2399C65.3587 66.3177 65.2422 67.4338 65.2422 68.5767H98.6108C98.6108 67.4338 98.4943 66.3177 98.2752 65.2399H65.5778Z" fill="#FCD770"/>
<path d="M72.4965 65.2399C72.1259 66.2843 71.9141 67.4053 71.9141 68.5767H91.9352C91.9352 67.4053 91.7234 66.2843 91.3527 65.2399H72.4965Z" fill="#FFC729"/>
<path d="M31.9335 21.1081C28.7514 18.454 24.6586 16.8556 20.1926 16.8556C10.0565 16.8556 1.83984 25.0723 1.83984 35.2083C1.83984 39.6743 3.43821 43.7672 6.09239 46.9493L31.9335 21.1081Z" fill="#FFC729"/>
<path d="M27.1784 25.8631C25.2281 24.4032 22.8151 23.5291 20.1927 23.5291C13.7422 23.5291 8.51367 28.7576 8.51367 35.2081C8.51367 37.8305 9.38781 40.2436 10.8477 42.1939L27.1784 25.8631Z" fill="#FCD770"/>
<path d="M92.6916 53.7458L98.6394 39.4712C101.644 38.1466 103.615 35.1829 103.615 31.8713C103.615 27.2717 99.872 23.5291 95.2724 23.5291C90.6728 23.5291 86.9303 27.2717 86.9303 31.8713C86.9303 33.0656 87.2007 34.2574 87.718 35.3613L81.9396 47.8802L80.4985 46.4382C79.7123 45.6505 78.6663 45.2187 77.5551 45.2187H76.791C76.4806 45.2187 76.1938 45.0403 76.0553 44.7649L75.7653 44.1808C75.0557 42.7625 73.6293 41.8818 72.0447 41.8818H71.7873C70.2028 41.8818 68.7747 42.7625 68.0667 44.1824L67.7767 44.7633C67.4794 45.3572 66.4684 45.2839 66.2582 44.6566L65.7262 43.0566C65.1543 41.3564 63.5673 40.2134 61.7751 40.2134C60.1906 40.2134 58.7625 41.0941 58.0545 42.514L57.7645 43.0949C57.626 43.3719 57.3376 43.5503 57.0272 43.5503H56.0545C55.7726 43.5503 55.4973 43.5804 55.2301 43.6334V30.2028H38.6761L43.2562 6.8448H55.2301V3.50793H40.5091L35.2757 30.2028H25.1983L34.4065 20.9947L33.0036 19.8248C29.4126 16.8334 24.8643 15.1869 20.193 15.1869C9.15272 15.1869 0.171875 24.1678 0.171875 35.2081C0.171875 39.881 1.81831 44.4293 4.81138 48.0187L5.97961 49.4199L11.8509 43.5486L11.8525 48.6655L14.9825 95.6024C15.156 98.2248 17.3515 100.277 19.978 100.277H81.925C93.8842 100.277 103.615 90.5466 103.615 78.5873V66.9083H100.193C99.7034 61.5022 96.8561 56.778 92.6916 53.7458V53.7458ZM96.8423 66.9083H93.4704C92.6565 61.257 87.7963 56.8977 81.925 56.8977C76.0537 56.8977 71.1934 61.257 70.3796 66.9083H67.0077C67.8403 59.4118 74.2085 53.5609 81.925 53.5609C89.6415 53.5609 96.0097 59.4118 96.8423 66.9083ZM90.0985 66.9083H73.7515C74.527 63.1063 77.8956 60.2346 81.925 60.2346C85.9543 60.2346 89.3229 63.1063 90.0985 66.9083V66.9083ZM51.8932 60.2346C55.9209 60.2346 59.2912 63.1063 60.0667 66.9083H43.7197C44.4953 63.1063 47.8655 60.2346 51.8932 60.2346ZM91.4671 35.2032L91.0077 34.4456C90.5156 33.635 90.2671 32.769 90.2671 31.8713C90.2671 29.112 92.5132 26.866 95.2724 26.866C98.0317 26.866 100.278 29.112 100.278 31.8713C100.278 34.0106 98.8977 35.9071 96.8439 36.593L96.1229 36.8334L89.7946 52.0228C88.1433 51.2334 86.36 50.6875 84.483 50.4244L84.4529 50.3943L91.4671 35.2032ZM56.0545 46.8871H57.0272C58.6118 46.8871 60.0399 46.0065 60.7478 44.5865L61.0378 44.0057C61.3368 43.4118 62.3445 43.4851 62.5564 44.1124L63.0883 45.7124C63.6586 47.4126 65.2456 48.5556 67.0378 48.5556C68.6223 48.5556 70.0504 47.6749 70.7584 46.255L71.0484 45.6741C71.1869 45.3971 71.4753 45.2187 71.7857 45.2187H72.0431C72.3535 45.2187 72.6403 45.3971 72.7787 45.6725L73.0688 46.2566C73.7783 47.6749 75.2048 48.5556 76.7893 48.5556H77.5535C77.7743 48.5556 77.9812 48.6403 78.1376 48.7975L79.7107 50.3706C71.1787 51.402 64.435 58.3022 63.6553 66.9083H63.4386C62.6248 61.257 57.7645 56.8977 51.8932 56.8977C51.3262 56.8977 50.7722 56.9531 50.2248 57.0313V54.8936C50.2248 54.6167 50.3617 54.3617 50.5922 54.2085L53.3784 52.3511C54.5376 51.5771 55.2301 50.2843 55.2301 48.8896V47.7116C55.2301 47.2578 55.6008 46.8871 56.0545 46.8871V46.8871ZM51.8932 33.5397V36.8765H46.8879V40.2134H51.8932V48.8912C51.8932 49.1682 51.7564 49.4232 51.5258 49.5763L48.7397 51.4338C48.5466 51.5617 48.3877 51.7238 48.2223 51.881C44.237 51.811 40.5849 50.5295 37.0525 49.2782C36.3853 49.0427 35.7279 48.8105 35.0721 48.589L36.7136 40.2134H43.5511V36.8765H37.3678L38.0219 33.5397H51.8932ZM34.6199 33.5397L33.9657 36.8765H18.5246L21.8615 33.5397H34.6199ZM10.1825 35.2081C10.1825 29.6871 14.6721 25.1975 20.193 25.1975C21.6977 25.1975 23.1478 25.5527 24.4863 26.1971L11.1821 39.503C10.5377 38.1645 10.1825 36.7128 10.1825 35.2081ZM3.50874 35.2081C3.50874 26.0081 10.993 18.5238 20.193 18.5238C23.4696 18.5238 26.6745 19.4965 29.3914 21.292L26.9385 23.7442C24.8879 22.5295 22.5939 21.8607 20.193 21.8607C12.8334 21.8607 6.8456 27.8484 6.8456 35.2081C6.8456 37.6089 7.51444 39.9046 8.7291 41.9535L6.27696 44.4065C4.48144 41.692 3.50874 38.4863 3.50874 35.2081V35.2081ZM33.3116 40.2134L31.8639 47.6016C30.2085 47.169 28.5572 46.8871 26.8668 46.8871C22.3405 46.8871 17.8957 48.2989 15.2391 49.3344L15.1878 48.5556V40.2134H33.3116ZM19.978 96.94C19.1038 96.94 18.3715 96.2557 18.3144 95.3816L15.4745 52.8415C17.6106 51.9389 22.2688 50.224 26.8668 50.224C28.2802 50.224 29.7295 50.4863 31.2195 50.8847L23.5617 89.9462L26.8366 90.5881L34.4244 51.8924C34.9254 52.0659 35.4289 52.2427 35.9397 52.4228C39.2081 53.5812 42.8619 54.8725 46.8879 55.1657V58.0423C43.4313 59.692 40.9132 62.9841 40.3478 66.9099H36.8773V78.5889C36.8773 86.3071 40.9303 93.0956 47.0183 96.9417H19.978V96.94ZM81.925 96.94H58.5669C48.448 96.94 40.2142 88.7062 40.2142 78.5873V76.9189H91.9356V73.582H40.2142V70.2452H100.278V73.582H95.2724V76.9189H100.278V78.5873C100.278 88.7062 92.0439 96.94 81.925 96.94Z" fill="black"/>
<path d="M50.2246 61.9026H53.5615V65.2395H50.2246V61.9026Z" fill="black"/>
<path d="M93.6035 30.2029H96.9404V33.5398H93.6035V30.2029Z" fill="black"/>
</g>
<defs>
<clipPath id="clip0">
<rect width="103.443" height="103.443" fill="white" transform="translate(0.171875 0.170898)"/>
</clipPath>
</defs>
</svg>
