<svg width="100" height="100" viewBox="0 0 113 113" fill="none" xmlns="http://www.w3.org/2000/svg">
<path d="M51.3105 2.30164H61.8164V12.8075H51.3105V2.30164Z" fill="#DEDDDC"/>
<path d="M56.5617 9.30579C28.5175 9.30579 5.7832 32.0401 5.7832 60.0843V61.8353H107.34V60.0843C107.34 32.0401 84.6059 9.30579 56.5617 9.30579Z" fill="#F7F4F0"/>
<path d="M4.03419 61.8353H109.093C109.558 61.8353 110.003 62.0198 110.331 62.3482C110.66 62.6765 110.844 63.1219 110.844 63.5863C110.844 64.9795 110.291 66.3156 109.306 67.3007C108.32 68.2858 106.984 68.8393 105.591 68.8393H7.53615C6.14298 68.8393 4.80688 68.2858 3.82176 67.3007C2.83664 66.3156 2.2832 64.9795 2.2832 63.5863C2.2832 63.1219 2.46768 62.6765 2.79605 62.3482C3.12443 62.0198 3.5698 61.8353 4.03419 61.8353V61.8353Z" fill="#FFD9DC"/>
<path d="M56.5625 68.8391C57.4913 68.8391 58.382 69.2081 59.0388 69.8648C59.6955 70.5216 60.0645 71.4123 60.0645 72.3411V102.108H53.0605V72.3411C53.0605 71.4123 53.4295 70.5216 54.0862 69.8648C54.743 69.2081 55.6337 68.8391 56.5625 68.8391V68.8391Z" fill="#F2BB88"/>
<path d="M73.4482 69.1046C74.312 69.4464 75.0046 70.1173 75.3737 70.9698C75.7428 71.8222 75.7581 72.7864 75.4163 73.6501L64.4622 101.333L57.9485 98.7557L68.9027 71.0727C69.2445 70.2089 69.9154 69.5163 70.7679 69.1472C71.6203 68.7781 72.5845 68.7628 73.4482 69.1046Z" fill="#F2D1A5"/>
<path d="M92.0834 70.5901C90.2229 70.5901 88.3883 71.0259 86.7266 71.8626C85.0648 72.6993 83.6222 73.9136 82.5142 75.4081L66.0907 97.5629C65.8671 97.8646 65.5524 98.0864 65.1931 98.1955C64.8338 98.3047 64.4489 98.2955 64.0952 98.1692L43.1272 90.6809C42.4471 90.4378 41.8589 89.9904 41.4429 89.4C41.027 88.8096 40.8038 88.1051 40.8039 87.3829V77.594C40.8039 72.4888 38.8154 68.8391 33.71 68.8391C33.3425 68.8391 32.9843 68.9548 32.6862 69.1696C32.3881 69.3845 32.1652 69.6877 32.0489 70.0363L26.6958 85.1813C26.213 86.5469 25.3187 87.7293 24.1361 88.5656C22.9534 89.4019 21.5406 89.8509 20.0921 89.8509H0.53125V110.863H72.3216L93.6076 73.2028C93.7582 72.9364 93.8363 72.6352 93.8343 72.3292C93.8322 72.0232 93.7499 71.7231 93.5957 71.4587C93.4415 71.1944 93.2208 70.9751 92.9554 70.8227C92.69 70.6703 92.3894 70.5901 92.0834 70.5901V70.5901Z" fill="#FFE4C2"/>
<path d="M71.363 83.8935L75.4229 73.6303C75.5921 73.2027 75.6754 72.7459 75.668 72.286C75.6606 71.8262 75.5628 71.3723 75.38 70.9503C75.1972 70.5283 74.9331 70.1464 74.6028 69.8265C74.2724 69.5065 73.8822 69.2548 73.4546 69.0856C73.0269 68.9165 72.5702 68.8332 72.1103 68.8405C71.6505 68.8479 71.1966 68.9458 70.7746 69.1285C70.3526 69.3113 69.9707 69.5754 69.6507 69.9058C69.3308 70.2362 69.0791 70.6263 68.9099 71.054L66.5117 77.1167C68.3859 79.1801 70.0139 81.4543 71.363 83.8935V83.8935Z" fill="#F2BB88"/>
<path d="M75.8231 102.108C75.8231 103.02 75.7939 103.924 75.7355 104.822L93.6067 73.2036C93.7574 72.9372 93.8357 72.6359 93.8337 72.3299C93.8318 72.0238 93.7496 71.7236 93.5954 71.4592C93.4413 71.1948 93.2205 70.9754 92.9551 70.8229C92.6897 70.6705 92.389 70.5902 92.0829 70.5902C90.2224 70.5902 88.3878 71.026 86.7261 71.8627C85.0644 72.6994 83.6217 73.9137 82.5138 75.4083L73.3242 87.8046C74.9825 92.3908 75.8281 97.2311 75.8231 102.108V102.108Z" fill="#F2D1A5"/>
<path d="M91.514 23.2499C91.1244 30.9096 88.9727 38.3761 85.2263 45.0685C81.48 51.7609 76.24 57.4986 69.9141 61.8352H107.341V60.0842C107.35 53.1905 105.95 46.3676 103.228 40.0339C100.507 33.7001 96.5206 27.9887 91.514 23.2499V23.2499Z" fill="#EBE9E6"/>
<path d="M26.7959 102.108C29.697 102.108 32.0489 99.7561 32.0489 96.8549C32.0489 93.9538 29.697 91.602 26.7959 91.602C23.8948 91.602 21.543 93.9538 21.543 96.8549C21.543 99.7561 23.8948 102.108 26.7959 102.108Z" fill="#FCF8F0"/>
<path d="M39.0527 103.859C40.9868 103.859 42.5547 102.291 42.5547 100.357C42.5547 98.4229 40.9868 96.855 39.0527 96.855C37.1187 96.855 35.5508 98.4229 35.5508 100.357C35.5508 102.291 37.1187 103.859 39.0527 103.859Z" fill="#FCF8F0"/>
<path d="M109.091 61.8353H69.9156C65.3122 65.0024 60.2075 67.3703 54.8164 68.8393H105.589C106.982 68.8393 108.318 68.2858 109.303 67.3007C110.288 66.3156 110.842 64.9795 110.842 63.5863C110.842 63.1219 110.657 62.6765 110.329 62.3482C110.001 62.0198 109.555 61.8353 109.091 61.8353V61.8353Z" fill="#FFCCD2"/>
<path d="M40.8033 85.065V77.594C40.8033 72.4888 38.8149 68.8391 33.7095 68.8391C33.342 68.8391 32.9838 68.9548 32.6857 69.1696C32.3876 69.3845 32.1646 69.6877 32.0484 70.0363L29.0801 78.4341C33.3194 79.9986 37.2782 82.2378 40.8033 85.065V85.065Z" fill="#F2D1A5"/>
<path d="M44.3047 18.0605C46.2388 18.0605 47.8067 16.4926 47.8067 14.5585C47.8067 12.6245 46.2388 11.0566 44.3047 11.0566C42.3706 11.0566 40.8027 12.6245 40.8027 14.5585C40.8027 16.4926 42.3706 18.0605 44.3047 18.0605Z" fill="white"/>
<path d="M32.9253 21.5625C34.3759 21.5625 35.5518 20.3866 35.5518 18.936C35.5518 17.4855 34.3759 16.3096 32.9253 16.3096C31.4747 16.3096 30.2988 17.4855 30.2988 18.936C30.2988 20.3866 31.4747 21.5625 32.9253 21.5625Z" fill="white"/>
<path d="M109.092 60.0842H44.2424C43.778 60.0842 43.3326 60.2686 43.0042 60.597C42.6759 60.9254 42.4914 61.3708 42.4914 61.8352C42.4914 62.2995 42.6759 62.7449 43.0042 63.0733C43.3326 63.4017 43.778 63.5861 44.2424 63.5861H109.092C109.089 64.5138 108.719 65.4025 108.063 66.0585C107.407 66.7145 106.518 67.0846 105.59 67.0881H72.1364C72.1145 67.0881 72.0926 67.0881 72.0707 67.0881H7.53518C6.60749 67.0846 5.71879 66.7145 5.0628 66.0585C4.40682 65.4025 4.03673 64.5138 4.03322 63.5861H30.2345C30.6989 63.5861 31.1442 63.4017 31.4726 63.0733C31.801 62.7449 31.9855 62.2995 31.9855 61.8352C31.9855 61.3708 31.801 60.9254 31.4726 60.597C31.1442 60.2686 30.6989 60.0842 30.2345 60.0842H4.03322C3.10481 60.0854 2.21478 60.4547 1.5583 61.1112C0.901813 61.7677 0.532466 62.6577 0.53125 63.5861C0.530991 64.506 0.711977 65.4169 1.06387 66.2667C1.41575 67.1166 1.93165 67.8888 2.58208 68.5392C3.2325 69.1897 4.00471 69.7056 4.85459 70.0575C5.70446 70.4093 6.61534 70.5903 7.53518 70.5901H29.9961L25.045 84.5979C24.6818 85.6214 24.0108 86.5074 23.1241 87.1344C22.2374 87.7614 21.1784 88.0986 20.0924 88.0999H2.28223C1.81784 88.0999 1.37247 88.2844 1.0441 88.6127C0.715728 88.9411 0.53125 89.3865 0.53125 89.8509C0.53125 90.3153 0.715728 90.7606 1.0441 91.089C1.37247 91.4174 1.81784 91.6019 2.28223 91.6019H20.0921C21.9022 91.5998 23.6673 91.0377 25.1452 89.9926C26.6231 88.9475 27.7413 87.4706 28.3465 85.7647L33.6997 70.62L33.71 70.5901C36.0035 70.5901 39.0529 71.3161 39.0529 77.594V87.3831C39.0545 88.4661 39.3901 89.5222 40.014 90.4075C40.6379 91.2927 41.5197 91.9639 42.5391 92.3296L63.5071 99.8177C64.0994 100.032 64.7389 100.082 65.3571 99.9606C65.9754 99.8396 66.5491 99.5529 67.017 99.1311C67.0248 99.1241 67.0325 99.1173 67.0402 99.1092C67.2084 98.9564 67.3615 98.7879 67.4974 98.6058L83.9218 76.4508C84.8691 75.1785 86.0999 74.1446 87.5167 73.4312C88.9334 72.7178 90.497 72.3445 92.0832 72.341L71.2999 109.112H2.28223C1.81784 109.112 1.37247 109.296 1.0441 109.625C0.715728 109.953 0.53125 110.398 0.53125 110.863C0.53125 111.327 0.715728 111.772 1.0441 112.101C1.37247 112.429 1.81784 112.614 2.28223 112.614H73.3433L95.1318 74.0642C95.4349 73.5349 95.593 72.935 95.5902 72.325C95.5873 71.715 95.4236 71.1166 95.1156 70.5901H105.59C106.51 70.5903 107.421 70.4093 108.271 70.0575C109.121 69.7056 109.893 69.1897 110.543 68.5392C111.194 67.8888 111.71 67.1166 112.062 66.2667C112.413 65.4169 112.594 64.506 112.594 63.5861C112.593 62.6579 112.223 61.7681 111.567 61.1117C110.91 60.4553 110.02 60.0858 109.092 60.0842ZM51.3098 72.341V91.7437L43.7168 89.0319C43.3771 88.91 43.0831 88.6862 42.8752 88.3912C42.6672 88.0961 42.5554 87.7441 42.5548 87.3831V77.594C42.5548 74.6957 41.9466 72.3349 40.7993 70.5901H51.6116C51.4118 71.1522 51.3097 71.7444 51.3098 72.341ZM54.8117 92.9943V72.341C54.8117 71.8767 54.9962 71.4313 55.3246 71.1029C55.653 70.7745 56.0983 70.5901 56.5627 70.5901C57.0271 70.5901 57.4725 70.7745 57.8008 71.1029C58.1292 71.4313 58.3137 71.8767 58.3137 72.341V79.345C58.3137 79.8094 58.4982 80.2547 58.8265 80.5831C59.1549 80.9115 59.6003 81.096 60.0647 81.096C60.5291 81.096 60.9744 80.9115 61.3028 80.5831C61.6312 80.2547 61.8157 79.8094 61.8157 79.345V72.341C61.8159 71.7445 61.7141 71.1523 61.5145 70.5901H67.21L57.9079 94.1001L54.8117 92.9943ZM64.5093 96.4576L61.2079 95.2789L70.5378 71.698C70.6223 71.4842 70.7482 71.2891 70.9081 71.1238C71.0681 70.9586 71.259 70.8266 71.47 70.7351C71.681 70.6437 71.908 70.5948 72.1379 70.591C72.3678 70.5873 72.5962 70.6289 72.8101 70.7135C73.0239 70.7981 73.219 70.9239 73.3842 71.0839C73.5495 71.2438 73.6815 71.4348 73.773 71.6458C73.8644 71.8568 73.9133 72.0837 73.917 72.3137C73.9207 72.5436 73.8791 72.772 73.7946 72.9859L64.5093 96.4576ZM81.1078 74.3652L72.3321 86.2031L77.0521 74.2715C77.5198 73.0931 77.5439 71.7849 77.1199 70.5901H85.4134C83.7274 71.5297 82.2598 72.8164 81.1078 74.3652Z" fill="black"/>
<path d="M37.2373 63.5861C38.2044 63.5861 38.9883 62.8022 38.9883 61.8352C38.9883 60.8681 38.2044 60.0842 37.2373 60.0842C36.2703 60.0842 35.4863 60.8681 35.4863 61.8352C35.4863 62.8022 36.2703 63.5861 37.2373 63.5861Z" fill="black"/>
<path d="M37.4571 14.7754C37.683 14.7751 37.9067 14.7312 38.1159 14.646C43.9739 12.265 50.2391 11.0459 56.5625 11.0567H56.5691C68.7034 11.0206 80.4171 15.5008 89.4302 23.6254C98.4432 31.75 104.111 42.9375 105.33 55.0106C105.373 55.4418 105.575 55.8416 105.896 56.1321C106.218 56.4226 106.636 56.583 107.07 56.5823C107.13 56.5827 107.191 56.5797 107.251 56.5735C107.713 56.5255 108.137 56.2961 108.43 55.9358C108.723 55.5756 108.861 55.1138 108.814 54.6518L108.812 54.6431C107.601 42.92 102.479 31.9457 94.2713 23.4881C86.0636 15.0304 75.248 9.58162 63.5665 8.01944V4.05281H65.3174C65.7818 4.05281 66.2272 3.86833 66.5556 3.53996C66.8839 3.21158 67.0684 2.76622 67.0684 2.30183C67.0684 1.83744 66.8839 1.39207 66.5556 1.06369C66.2272 0.73532 65.7818 0.550842 65.3174 0.550842H47.8076C47.3432 0.550842 46.8978 0.73532 46.5695 1.06369C46.2411 1.39207 46.0566 1.83744 46.0566 2.30183C46.0566 2.76622 46.2411 3.21158 46.5695 3.53996C46.8978 3.86833 47.3432 4.05281 47.8076 4.05281H49.5586V8.02273C48.4804 8.16631 47.4077 8.339 46.3455 8.54802C43.0785 9.19219 39.8808 10.1479 36.7961 11.4021C36.4199 11.5552 36.1087 11.8343 35.9156 12.1916C35.7225 12.5489 35.6597 12.9622 35.7378 13.3607C35.8159 13.7593 36.0301 14.1183 36.3437 14.3763C36.6574 14.6343 37.051 14.7752 37.4571 14.775V14.7754ZM53.0606 4.05281H60.0645V7.67122C58.903 7.59505 57.7357 7.55623 56.5625 7.55477H56.5581C55.3911 7.55477 54.2243 7.59658 53.0606 7.6734V4.05281Z" fill="black"/>
<path d="M31.1717 17.8527C31.4793 17.8529 31.7815 17.7713 32.0472 17.6163L32.0822 17.5966C32.4722 17.3578 32.7535 16.9762 32.8664 16.533C32.9792 16.0899 32.9146 15.6202 32.6863 15.224C32.4532 14.8226 32.0706 14.5299 31.6222 14.4101C31.1738 14.2903 30.6962 14.3532 30.294 14.5849L30.2874 14.5893C29.8877 14.8233 29.5968 15.2061 29.4783 15.6539C29.3598 16.1017 29.4233 16.5782 29.6549 16.9794C29.8095 17.2446 30.0309 17.4648 30.297 17.618C30.5631 17.7712 30.8646 17.8521 31.1717 17.8527V17.8527Z" fill="black"/>
<path d="M5.87475 56.5737C5.9351 56.5798 5.99575 56.5828 6.05642 56.5824C6.48979 56.5831 6.90794 56.4226 7.22954 56.1321C7.55114 55.8416 7.75321 55.4419 7.79646 55.0107C8.48181 48.4409 10.4868 42.0772 13.6912 36.3011C16.8955 30.525 21.2333 25.4555 26.4444 21.3964C26.7321 21.1722 26.9426 20.8637 27.0465 20.514C27.1504 20.1644 27.1425 19.791 27.0239 19.446C26.9053 19.1011 26.6819 18.8018 26.385 18.5899C26.088 18.3781 25.7323 18.2642 25.3676 18.2644C24.9779 18.263 24.5992 18.3934 24.2929 18.6342L24.2885 18.6364C17.905 23.6145 12.7519 29.9942 9.22788 37.282C6.59127 42.7419 4.92769 48.6201 4.312 54.652C4.28837 54.8808 4.31005 55.112 4.37581 55.3324C4.44156 55.5528 4.5501 55.7581 4.69523 55.9366C4.84035 56.115 5.01922 56.2632 5.22161 56.3725C5.42399 56.4818 5.64594 56.5501 5.87475 56.5737V56.5737Z" fill="black"/>
<path d="M62.0956 25.0647C63.5103 25.0587 64.9109 25.3461 66.209 25.9085C67.5072 26.4709 68.6747 27.2962 69.6379 28.3324C69.952 28.6746 70.3891 28.878 70.8532 28.8979C71.3172 28.9178 71.7702 28.7525 72.1124 28.4385C72.4546 28.1244 72.658 27.6872 72.6779 27.2232C72.6978 26.7591 72.5325 26.3062 72.2184 25.964L72.2162 25.962C70.9607 24.5922 69.4343 23.498 67.7337 22.749C65.9588 21.9612 64.0375 21.5569 62.0956 21.5627C58.7199 21.558 55.4621 22.8039 52.951 25.0601C50.44 22.8039 47.1822 21.558 43.8065 21.5627C43.0167 21.5625 42.2282 21.6284 41.4493 21.7597C41.0156 21.832 40.6251 22.0648 40.3551 22.4118C40.0852 22.7589 39.9558 23.1947 39.9924 23.6328C40.0291 24.0709 40.2292 24.4792 40.5531 24.7766C40.8769 25.0739 41.3007 25.2385 41.7404 25.2378C41.8394 25.2385 41.9383 25.2304 42.0359 25.2137C42.6209 25.1145 43.2132 25.0647 43.8065 25.0649C45.2937 25.062 46.7634 25.3861 48.1114 26.0143C49.4595 26.6426 50.6529 27.5595 51.6072 28.7001L52.951 30.3113L54.2949 28.7001C55.2492 27.5594 56.4426 26.6425 57.7906 26.0142C59.1387 25.386 60.6083 25.0618 62.0956 25.0647V25.0647Z" fill="black"/>
<path d="M35.5565 28.3019C35.9587 28.3012 36.3484 28.1617 36.6598 27.9071C36.9712 27.6524 37.1852 27.2982 37.2659 26.9042C37.3466 26.5101 37.2889 26.1003 37.1025 25.7438C36.9162 25.3873 36.6127 25.1059 36.2431 24.9472C35.8735 24.7884 35.4605 24.762 35.0736 24.8722C34.6868 24.9825 34.3499 25.2228 34.1196 25.5526C33.8893 25.8824 33.7798 26.2816 33.8095 26.6827C33.8392 27.0838 34.0063 27.4625 34.2826 27.7548C34.4461 27.9284 34.6435 28.0666 34.8627 28.1608C35.0818 28.2549 35.318 28.3029 35.5565 28.3019V28.3019Z" fill="black"/>
</svg>
