<?xml version="1.0" encoding="UTF-8" ?>
<!DOCTYPE svg PUBLIC "-//W3C//DTD SVG 1.1//EN" "http://www.w3.org/Graphics/SVG/1.1/DTD/svg11.dtd">
<svg width="100%" height="100%" viewBox="0 0 800 300" version="1.1" xmlns="http://www.w3.org/2000/svg">
<g id="#ffffffff">
<path fill="#ffffff" opacity="1.00" d=" M 166.14 68.95 C 166.23 69.57 166.33 70.18 166.43 70.80 C 168.82 71.87 171.17 73.06 173.52 74.23 C 172.14 75.24 170.71 76.18 169.22 77.01 C 150.16 87.87 131.27 99.00 112.16 109.76 C 102.84 104.01 93.11 98.97 83.76 93.29 C 85.53 91.40 87.17 89.41 88.78 87.39 C 95.56 91.69 102.69 95.41 109.56 99.56 C 110.72 100.06 112.02 101.48 113.34 100.56 C 130.09 91.00 146.75 81.29 163.50 71.73 C 164.80 71.20 165.68 70.27 166.14 68.95 Z" />
<path fill="#ffffff" opacity="1.00" d=" M 179.57 79.64 C 179.90 79.51 180.56 79.26 180.89 79.13 C 182.86 80.77 184.67 82.60 186.68 84.21 C 162.80 98.17 138.73 111.80 114.83 125.72 C 113.81 126.14 112.62 127.42 111.48 126.58 C 99.77 119.76 88.05 112.95 76.32 106.18 C 77.57 103.96 78.70 101.67 79.85 99.39 C 90.35 105.64 101.01 111.61 111.61 117.67 C 112.71 118.48 113.83 117.07 114.86 116.74 C 136.42 104.36 158.00 92.01 179.57 79.64 Z" />
<path fill="#ffffff" opacity="1.00" d=" M 242.52 103.41 C 246.30 95.04 255.04 90.06 263.89 88.91 C 272.82 87.92 282.19 88.12 290.66 91.41 C 290.56 96.05 290.62 100.69 290.61 105.33 C 289.25 105.34 287.90 105.35 286.55 105.36 C 285.28 100.97 283.88 95.62 279.10 93.84 C 272.02 91.46 262.63 92.47 258.19 99.13 C 254.20 105.63 254.23 113.58 254.15 120.96 C 254.20 129.45 254.36 139.06 260.32 145.77 C 263.98 149.97 269.71 150.95 275.00 151.10 C 280.43 150.75 285.68 149.30 290.64 147.09 C 291.33 148.44 292.03 149.80 292.73 151.16 C 282.44 157.37 269.58 158.42 258.07 155.52 C 249.43 153.34 242.52 146.15 240.37 137.55 C 237.42 126.40 237.73 114.01 242.52 103.41 Z" />
<path fill="#ffffff" opacity="1.00" d=" M 709.28 89.52 C 714.35 89.60 719.42 89.51 724.49 89.53 C 714.48 96.37 706.60 105.69 698.12 114.24 C 698.20 114.53 698.37 115.09 698.45 115.37 C 708.38 129.42 717.95 143.90 730.10 156.18 C 722.64 156.15 715.19 156.13 707.73 156.18 C 702.26 143.58 694.07 132.50 686.65 121.02 C 694.53 110.79 703.01 100.88 709.28 89.52 Z" />
<path fill="#ffffff" opacity="1.00" d=" M 112.23 135.76 C 138.81 120.50 165.30 105.07 191.93 89.90 C 193.33 91.92 194.80 93.88 196.25 95.86 C 169.03 111.36 141.92 127.08 114.79 142.74 C 113.78 143.20 112.63 144.41 111.48 143.57 C 98.26 136.04 85.11 128.37 71.86 120.89 C 72.54 118.38 73.15 115.86 73.79 113.34 C 86.46 121.07 99.59 128.00 112.23 135.76 Z" />
<path fill="#ffffff" opacity="1.00" d=" M 298.19 89.59 C 314.86 89.50 331.54 89.57 348.22 89.55 C 348.18 94.42 348.21 99.29 348.20 104.16 C 347.32 104.16 345.56 104.16 344.68 104.16 C 343.45 100.84 342.80 96.46 339.24 94.80 C 332.57 93.58 325.76 93.18 319.01 93.75 C 317.52 94.07 316.65 95.47 316.80 96.95 C 316.68 102.44 316.82 107.94 316.74 113.43 C 325.11 113.60 333.82 113.15 341.77 116.22 C 347.46 118.37 350.91 124.22 351.43 130.10 C 352.01 136.83 351.37 144.37 346.68 149.64 C 342.04 154.86 334.61 155.58 328.06 156.03 C 318.13 156.32 308.18 156.09 298.25 156.15 C 298.09 154.00 300.15 153.59 301.55 152.60 C 302.53 151.33 302.33 149.59 302.52 148.08 C 302.58 132.06 302.50 116.03 302.56 100.01 C 302.56 97.96 302.56 95.89 302.05 93.90 C 301.38 91.87 297.90 92.21 298.19 89.59 M 316.76 117.63 C 316.85 127.80 316.59 137.98 316.88 148.14 C 317.52 152.86 323.35 151.71 326.72 151.64 C 332.99 151.11 336.10 144.47 336.43 138.89 C 336.67 132.89 337.27 125.85 332.94 121.05 C 328.61 117.02 322.22 117.65 316.76 117.63 Z" />
<path fill="#ffffff" opacity="1.00" d=" M 358.39 89.69 C 374.05 89.36 389.73 89.65 405.40 89.54 C 405.37 94.46 405.42 99.38 405.37 104.30 C 404.51 104.19 402.80 103.95 401.95 103.83 C 400.70 100.69 399.89 97.01 396.96 94.93 C 390.54 93.94 383.69 92.42 377.35 94.50 C 376.89 102.10 377.25 109.73 377.12 117.34 C 383.96 117.07 391.19 118.28 397.64 115.40 C 397.62 118.17 397.62 120.93 397.65 123.70 C 391.26 120.68 383.98 122.03 377.17 121.62 C 376.89 129.73 377.29 137.87 377.12 145.99 C 377.08 147.67 377.06 150.20 379.12 150.69 C 385.48 152.25 392.18 151.88 398.51 150.34 C 401.35 147.90 401.63 143.86 402.74 140.51 C 404.10 140.52 405.47 140.53 406.84 140.55 C 406.72 145.76 406.86 150.97 406.75 156.19 C 403.16 156.15 399.58 156.15 396.00 156.15 C 394.66 156.14 393.33 156.13 392.00 156.12 C 381.98 156.20 371.97 156.13 361.95 156.17 C 360.58 156.24 359.32 155.90 358.19 155.13 C 359.52 154.12 360.99 153.29 362.24 152.16 C 362.65 150.48 362.73 148.74 362.77 147.03 C 362.77 131.01 362.76 115.00 362.78 98.98 C 362.80 96.98 362.54 94.98 362.20 93.01 C 360.60 92.29 358.83 91.62 358.39 89.69 Z" />
<path fill="#ffffff" opacity="1.00" d=" M 415.18 89.59 C 424.45 89.51 433.73 89.55 443.00 89.57 C 449.14 89.69 456.03 89.99 460.97 94.12 C 464.94 97.59 465.69 103.06 466.16 108.01 C 465.90 114.06 464.78 120.77 459.64 124.69 C 452.20 130.38 442.22 129.56 433.39 129.57 C 433.46 135.75 433.37 141.92 433.43 148.10 C 433.42 149.80 433.93 151.44 434.50 153.03 C 436.11 153.54 437.84 154.04 437.62 156.14 C 430.59 156.12 423.56 156.25 416.55 156.09 C 413.28 155.39 417.11 152.87 418.49 152.20 C 418.83 150.15 419.24 148.10 419.20 146.02 C 419.17 130.33 419.18 114.65 419.19 98.96 C 419.23 96.92 418.76 94.94 418.35 92.96 C 417.12 92.01 414.71 91.77 415.18 89.59 M 433.73 94.87 C 432.99 105.00 433.66 115.24 433.40 125.42 C 436.88 125.23 440.49 125.87 443.89 124.91 C 447.75 123.75 449.86 119.82 450.43 116.05 C 450.88 112.07 451.63 108.00 450.81 104.02 C 450.36 100.26 448.48 96.25 444.81 94.71 C 441.37 93.18 437.04 92.92 433.73 94.87 Z" />
<path fill="#ffffff" opacity="1.00" d=" M 471.46 89.62 C 488.14 89.45 504.83 89.61 521.51 89.54 C 521.44 94.42 521.50 99.30 521.46 104.18 C 520.55 104.17 518.72 104.16 517.81 104.15 C 516.75 100.89 516.13 96.89 512.98 94.92 C 505.60 93.76 497.70 92.42 490.42 94.55 C 489.14 100.75 490.14 107.15 489.79 113.43 C 497.92 113.57 506.31 113.23 514.12 115.92 C 519.70 117.81 523.67 123.08 524.43 128.86 C 525.26 136.23 524.84 144.76 519.27 150.32 C 514.49 155.01 507.44 155.47 501.15 156.14 C 496.10 156.17 491.05 156.17 486.00 156.13 C 481.06 155.68 475.65 157.29 471.06 155.10 C 472.37 153.99 473.79 153.03 475.24 152.10 C 475.93 140.08 475.36 128.01 475.55 115.98 C 475.35 108.35 475.98 100.68 475.14 93.08 C 473.73 92.18 471.43 91.80 471.46 89.62 M 489.81 117.64 C 489.86 127.43 489.75 137.22 489.85 147.01 C 489.79 149.02 490.96 151.22 493.10 151.53 C 497.67 152.05 503.18 152.28 506.47 148.41 C 510.16 143.82 509.74 137.51 509.70 131.97 C 509.70 127.63 508.64 122.75 504.97 120.02 C 500.50 117.05 494.90 117.67 489.81 117.64 Z" />
<path fill="#ffffff" opacity="1.00" d=" M 547.21 89.60 C 553.64 89.48 560.07 89.60 566.50 89.53 C 566.96 92.20 567.43 94.89 568.35 97.46 C 572.27 108.58 576.26 119.69 580.19 130.82 C 583.27 139.34 586.01 148.01 589.99 156.18 C 587.32 156.17 584.66 156.15 582.00 156.12 C 579.17 156.15 576.34 156.15 573.51 156.24 C 570.61 148.38 568.52 140.24 566.04 132.24 C 558.90 132.21 551.77 132.27 544.63 132.21 C 542.33 140.13 539.89 148.03 538.60 156.20 C 534.57 156.13 530.55 156.15 526.53 156.18 C 532.30 143.24 537.79 130.18 543.45 117.19 C 546.26 110.19 550.02 103.45 551.38 95.96 C 552.31 92.55 547.20 92.59 547.21 89.60 M 554.23 104.06 C 551.56 111.84 549.09 119.70 546.22 127.41 C 552.34 127.41 558.45 127.41 564.57 127.42 C 561.50 118.73 558.45 110.03 555.72 101.23 C 555.02 102.07 554.52 103.01 554.23 104.06 Z" />
<path fill="#ffffff" opacity="1.00" d=" M 594.53 89.65 C 602.20 89.48 609.88 89.50 617.55 89.64 C 617.33 92.29 613.39 92.34 613.60 95.15 C 613.07 102.53 613.51 109.95 613.37 117.35 C 621.86 117.31 630.36 117.34 638.86 117.34 C 638.55 109.24 639.39 101.07 638.32 93.02 C 636.74 92.27 634.72 91.77 634.46 89.67 C 642.16 89.51 649.89 89.39 657.60 89.74 C 656.93 91.47 655.43 92.35 653.84 93.04 C 653.48 95.00 653.22 96.99 653.25 98.99 C 653.27 114.67 653.27 130.35 653.26 146.04 C 653.22 148.11 653.44 150.17 653.70 152.22 C 654.75 152.84 655.82 153.46 656.89 154.08 C 656.83 154.61 656.70 155.67 656.63 156.20 C 653.42 156.16 650.21 156.15 647.00 156.12 C 644.33 156.17 641.66 156.16 639.00 156.09 C 637.65 156.13 636.32 156.18 634.99 156.23 C 634.55 153.85 636.90 153.32 638.47 152.35 C 639.27 142.15 638.60 131.90 638.86 121.68 C 630.37 121.66 621.87 121.72 613.38 121.64 C 613.51 131.21 613.06 140.81 613.61 150.36 C 613.48 152.92 616.32 153.72 617.86 155.16 C 616.10 156.28 614.00 156.22 612.01 156.15 C 609.00 156.15 606.00 156.17 603.00 156.12 C 600.04 155.95 596.73 156.92 594.16 155.02 C 595.43 154.18 596.79 153.47 598.18 152.82 C 598.53 151.28 598.84 149.73 599.19 148.19 C 599.15 133.80 599.18 119.41 599.17 105.02 C 599.13 101.15 599.49 97.18 598.37 93.41 C 597.31 91.88 594.52 92.03 594.53 89.65 Z" />
<path fill="#ffffff" opacity="1.00" d=" M 667.18 89.59 C 674.66 89.55 682.15 89.46 689.63 89.64 C 689.43 91.91 686.74 92.08 685.91 93.91 C 685.57 95.22 685.43 96.57 685.42 97.92 C 685.41 112.97 685.42 128.01 685.42 143.06 C 685.47 146.04 685.14 149.11 686.04 152.00 C 687.00 153.42 688.72 154.05 689.98 155.17 C 684.97 157.23 679.29 155.70 674.00 156.12 C 671.77 156.14 669.55 156.17 667.34 156.20 C 666.90 153.94 669.05 153.11 670.65 152.19 C 671.44 148.86 671.15 145.43 671.19 142.05 C 671.19 127.69 671.17 113.33 671.20 98.98 C 671.23 96.94 670.77 94.95 670.35 92.96 C 669.12 92.01 666.71 91.78 667.18 89.59 Z" />
<path fill="#ffffff" opacity="1.00" d=" M 113.80 151.86 C 142.57 135.22 171.49 118.81 200.21 102.08 C 202.07 107.03 204.30 111.87 205.60 117.02 C 210.45 135.82 206.54 156.56 195.55 172.51 C 187.36 184.83 174.76 193.84 160.81 198.51 C 144.44 204.26 125.88 203.14 110.25 195.65 C 96.76 189.39 85.25 178.72 78.50 165.42 C 74.66 158.09 72.37 150.05 71.14 141.89 C 70.01 137.64 70.43 133.19 70.36 128.83 C 84.35 136.57 98.18 144.59 112.06 152.52 C 112.50 152.36 113.36 152.03 113.80 151.86 Z" />
<path fill="#ffffff" opacity="1.00" d=" M 243.70 172.60 C 406.02 172.66 568.34 172.61 730.67 172.62 C 730.66 174.84 730.67 177.06 730.69 179.27 C 568.35 179.30 406.02 179.27 243.68 179.29 C 243.69 177.06 243.69 174.83 243.70 172.60 Z" />
<path fill="#ffffff" opacity="1.00" d=" M 477.50 192.88 C 477.74 192.34 478.22 191.26 478.46 190.72 C 482.88 191.67 487.49 190.55 491.87 191.73 C 495.89 193.18 497.13 198.42 495.37 202.02 C 494.28 204.61 491.42 205.52 489.12 206.67 C 490.86 207.82 493.04 208.86 493.66 211.05 C 495.59 215.80 491.87 221.27 487.01 222.10 C 481.98 222.90 476.85 222.33 471.78 222.47 C 473.97 212.66 475.41 202.70 477.50 192.88 M 480.57 193.76 C 479.72 197.42 479.08 201.12 478.26 204.78 C 482.32 204.55 486.87 205.68 490.50 203.32 C 492.92 201.77 493.44 198.37 492.32 195.88 C 489.22 192.82 484.47 194.05 480.57 193.76 M 475.48 219.65 C 479.14 219.59 482.87 220.01 486.49 219.24 C 490.37 218.20 492.26 212.73 489.18 209.86 C 486.29 206.65 481.59 207.70 477.77 207.51 C 477.12 211.58 476.37 215.63 475.48 219.65 Z" />
<path fill="#ffffff" opacity="1.00" d=" M 507.32 199.89 C 511.71 198.88 516.17 202.31 516.87 206.63 C 513.13 207.90 513.30 202.44 509.95 202.44 C 502.52 201.76 499.14 212.09 502.31 217.64 C 504.87 221.98 511.36 220.16 513.15 216.08 C 514.01 216.34 514.87 216.60 515.74 216.88 C 514.20 218.65 512.91 220.73 510.91 222.02 C 507.13 223.65 502.01 222.89 499.85 219.07 C 496.01 212.35 499.29 201.65 507.32 199.89 Z" />
<path fill="#ffffff" opacity="1.00" d=" M 521.69 220.38 C 516.08 213.06 521.06 199.05 531.20 199.79 C 536.97 200.03 539.41 206.46 538.30 211.43 C 532.95 211.50 527.61 211.40 522.27 211.47 C 521.95 214.96 522.97 219.37 526.89 220.30 C 530.73 221.27 533.29 217.85 535.09 215.06 C 535.71 215.45 536.96 216.22 537.58 216.61 C 535.57 218.52 533.94 220.99 531.39 222.22 C 528.16 223.22 524.04 223.15 521.69 220.38 M 522.81 208.75 C 527.08 208.81 531.37 208.87 535.64 208.68 C 535.71 205.55 533.67 201.96 530.10 202.36 C 526.31 202.19 524.15 205.74 522.81 208.75 Z" />
<path fill="#ffffff" opacity="1.00" d=" M 545.78 200.31 C 549.93 200.31 554.09 200.32 558.25 200.28 C 558.23 200.86 558.20 202.00 558.19 202.58 C 554.92 202.89 551.63 202.79 548.36 202.72 C 546.70 209.21 545.79 215.85 544.26 222.37 C 543.54 222.44 542.11 222.57 541.39 222.64 C 542.97 215.22 544.35 207.76 545.78 200.31 Z" />
<path fill="#ffffff" opacity="1.00" d=" M 565.12 200.36 C 566.52 200.24 567.93 200.26 569.35 200.25 C 570.09 206.74 571.16 213.20 571.75 219.71 C 572.32 219.74 573.46 219.79 574.03 219.82 C 573.05 222.10 574.22 227.57 570.49 226.77 C 570.59 225.33 570.71 223.90 570.83 222.47 C 565.86 222.49 560.88 222.49 555.91 222.48 C 555.35 224.49 555.39 227.30 552.51 226.99 C 552.84 224.68 553.29 222.39 553.69 220.09 C 554.22 219.93 555.28 219.61 555.81 219.45 C 559.17 213.23 561.72 206.57 565.12 200.36 M 558.65 219.73 C 562.02 219.77 565.38 219.77 568.76 219.75 C 568.17 214.08 567.54 208.41 567.13 202.71 C 563.64 208.02 561.81 214.22 558.65 219.73 Z" />
<path fill="#ffffff" opacity="1.00" d=" M 581.30 202.52 C 584.04 200.68 587.54 198.91 590.87 200.20 C 593.80 200.92 595.92 203.96 595.52 206.97 C 595.16 212.20 593.09 217.18 593.21 222.47 C 592.25 222.49 591.30 222.51 590.36 222.53 C 590.34 221.91 590.30 220.66 590.28 220.04 C 587.75 221.83 584.59 223.49 581.41 222.49 C 577.62 221.13 575.95 215.71 578.81 212.68 C 582.30 208.97 587.80 209.23 592.48 209.28 C 592.39 207.12 593.06 204.37 590.78 203.10 C 588.02 201.32 584.78 202.98 582.62 204.91 C 581.81 204.28 581.37 203.48 581.30 202.52 M 581.54 213.65 C 579.35 215.51 580.37 219.36 583.05 220.21 C 585.75 220.99 588.09 218.88 590.44 217.87 C 591.03 215.78 591.49 213.65 591.94 211.52 C 588.45 211.68 584.41 211.25 581.54 213.65 Z" />
<path fill="#ffffff" opacity="1.00" d=" M 616.81 200.39 C 617.67 200.31 618.53 200.23 619.40 200.15 C 619.37 200.86 619.31 202.28 619.28 203.00 C 621.03 200.97 623.49 200.11 626.03 199.61 C 628.52 200.19 631.21 201.27 632.22 203.85 C 634.70 210.08 632.67 218.28 626.74 221.82 C 624.37 223.26 621.50 222.65 618.92 222.32 C 617.93 221.59 616.94 220.86 615.95 220.14 C 615.36 223.96 614.44 227.72 614.00 231.57 C 613.18 231.57 611.53 231.57 610.71 231.57 C 612.96 221.22 614.83 210.79 616.81 200.39 M 618.71 206.46 C 617.88 210.07 617.29 213.72 616.42 217.32 C 618.36 218.90 620.48 220.99 623.25 220.37 C 629.37 218.47 631.66 210.28 629.28 204.78 C 626.94 200.50 620.19 202.42 618.71 206.46 Z" />
<path fill="#ffffff" opacity="1.00" d=" M 637.52 207.06 C 637.10 203.82 640.14 201.17 643.07 200.54 C 647.32 200.07 651.62 200.40 655.90 200.31 C 654.33 207.65 653.17 215.07 651.41 222.36 C 650.66 222.42 649.14 222.56 648.38 222.63 C 649.11 219.19 649.79 215.73 650.57 212.30 C 648.80 212.30 647.05 212.30 645.30 212.31 C 642.85 215.67 640.52 219.10 638.10 222.47 C 636.92 222.49 635.76 222.51 634.61 222.53 C 637.14 219.16 639.54 215.70 642.00 212.28 C 639.97 211.20 637.53 209.66 637.52 207.06 M 641.94 203.82 C 639.85 205.08 640.05 208.71 642.47 209.42 C 645.29 209.96 648.21 209.59 651.08 209.62 C 651.42 207.32 651.87 205.04 652.42 202.78 C 648.96 203.10 645.06 201.89 641.94 203.82 Z" />
<path fill="#ffffff" opacity="1.00" d=" M 668.31 200.33 C 669.73 200.30 671.16 200.29 672.60 200.29 C 673.50 206.70 674.48 213.11 674.94 219.57 C 675.57 219.64 676.82 219.79 677.44 219.86 C 676.91 222.10 676.47 224.35 676.14 226.63 C 675.25 226.66 674.36 226.69 673.49 226.72 C 673.76 225.31 674.05 223.91 674.37 222.51 C 669.29 222.48 664.21 222.44 659.14 222.54 C 658.52 224.49 658.73 227.68 655.75 226.74 C 656.24 224.54 656.58 222.31 656.92 220.08 C 657.49 219.90 658.63 219.53 659.20 219.35 C 662.44 213.12 665.19 206.63 668.31 200.33 M 662.02 219.73 C 665.33 219.78 668.64 219.77 671.95 219.75 C 671.49 214.08 670.92 208.42 670.45 202.75 C 666.93 207.99 665.11 214.21 662.02 219.73 Z" />
<path fill="#ffffff" opacity="1.00" d=" M 689.89 199.80 C 693.72 199.15 697.24 202.02 698.33 205.56 C 699.64 211.00 698.33 217.45 693.68 220.94 C 690.16 223.91 683.86 223.44 681.60 219.16 C 677.90 212.12 681.71 201.45 689.89 199.80 M 684.89 219.20 C 686.53 219.79 688.34 221.12 690.10 220.02 C 695.05 217.93 696.35 211.69 695.64 206.87 C 695.30 203.45 691.00 200.99 688.06 203.08 C 683.24 206.63 681.79 214.09 684.89 219.20 Z" />
<path fill="#ffffff" opacity="1.00" d=" M 706.49 200.24 C 708.06 200.27 709.63 200.30 711.22 200.36 C 711.89 206.70 712.73 213.02 713.68 219.33 C 716.95 213.08 719.74 206.60 722.90 200.30 C 724.52 200.30 726.15 200.30 727.78 200.31 C 726.23 207.65 725.01 215.05 723.38 222.36 C 722.65 222.43 721.19 222.57 720.45 222.64 C 721.82 216.27 722.80 209.83 724.42 203.52 C 720.39 209.41 717.97 216.22 714.55 222.47 C 713.82 222.48 712.34 222.49 711.61 222.50 C 710.70 216.18 709.87 209.86 708.91 203.55 C 707.19 209.74 706.16 216.10 705.06 222.42 C 704.06 222.45 703.06 222.49 702.07 222.52 C 703.59 215.11 704.91 207.65 706.49 200.24 Z" />
</g>
</svg>
