<svg width="100%" height="100%" viewBox="0 0 544 58" fill="none" xmlns="http://www.w3.org/2000/svg">
<g filter="url(#filter0_d)">
<path d="M4.08248 1.60114C4.34444 0.528362 5.5981 0.665573 6.44635 0.640625C17.854 0.665573 29.2679 0.62815 40.6818 0.659336C41.5426 0.547068 42.5654 1.1583 42.4158 2.13753C42.4781 5.31222 42.4594 8.49315 42.422 11.6741C42.5779 12.6096 41.6673 13.3144 40.7879 13.2084C37.7442 13.2583 34.7005 13.2583 31.6567 13.1647C31.3137 24.6909 31.6318 36.2483 31.4946 47.7869C31.6505 48.6165 30.9145 49.3899 30.0912 49.3337C25.719 49.3961 21.3468 49.3587 16.9808 49.3524C16.0764 49.4897 15.0161 48.8909 15.1783 47.8555C15.1222 36.3169 15.1783 24.7782 15.1533 13.2333C11.829 13.171 8.49836 13.3207 5.17398 13.171C4.438 13.1336 3.91408 12.3539 4.03259 11.6554C4.03259 8.2998 3.93279 4.94423 4.08248 1.60114Z" fill="white"/>
<path d="M53.0935 2.71183C56.8794 -0.0137881 61.8067 0.00491862 66.2725 0.0173928C70.0397 0.160846 74.1999 0.516351 77.1999 3.06733C79.2145 4.73887 79.9879 7.35846 80.4744 9.83459C83.1189 22.7454 85.9506 35.625 88.5078 48.5483C88.3581 48.7354 88.0462 49.1034 87.8965 49.2843C83.4058 49.4777 78.8964 49.2906 74.4057 49.3716C73.4701 49.2906 72.1728 49.6086 71.6614 48.5608C70.9753 45.9849 70.757 43.3092 70.1956 40.7021C66.6654 40.7332 63.129 40.6272 59.5988 40.7644C59.1497 43.3216 58.8753 45.9225 58.2329 48.4423C57.5593 49.8955 55.6507 49.1908 54.4033 49.3716C50.0622 49.1533 45.6339 49.7646 41.3428 49.0535C43.5757 36.5918 46.4821 24.2486 48.9708 11.8242C49.6194 8.56223 50.187 4.80126 53.0935 2.71183ZM64.0708 14.6247C63.3223 19.2963 62.499 23.9616 61.7319 28.6395C63.865 28.6519 65.9981 28.652 68.1312 28.6332C67.0584 23.1883 66.5781 17.6123 65.1373 12.2608C64.2018 12.6787 64.2953 13.7952 64.0708 14.6247Z" fill="white"/>
<path d="M95.1942 1.85979C96.8034 0.880564 98.7618 0.774533 100.589 0.612368C106.589 0.17577 112.627 -0.198471 118.639 0.206941C123.704 0.631064 129.205 1.71633 132.848 5.55215C136.378 9.2757 136.839 14.7893 136.347 19.6543C135.885 24.3009 132.779 28.4611 128.544 30.3696C131.625 36.0017 134.843 41.5652 137.937 47.1911C138.642 47.9458 138.274 49.3865 137.133 49.3242C132.236 49.399 127.34 49.3803 122.444 49.3304C121.253 49.4489 120.773 48.2389 120.28 47.3969C117.66 42.4696 114.96 37.5859 112.377 32.6399C111.604 32.6461 110.837 32.6836 110.07 32.7584C110.151 37.7668 110.12 42.7815 110.101 47.7961C110.251 48.6381 109.502 49.399 108.673 49.3367C104.294 49.3928 99.9095 49.3616 95.5248 49.3554C94.6266 49.4863 93.5227 48.8314 93.7098 47.8023C93.6661 34.2803 93.6973 20.752 93.6911 7.22369C93.822 5.40245 93.5102 3.0885 95.1942 1.85979ZM110.101 12.9307C110.138 15.6812 110.088 18.4318 110.145 21.1823C112.565 21.0763 115.041 21.4194 117.429 20.9017C121.128 20.2904 121.253 13.5793 117.436 13.124C115.009 12.7685 112.546 12.9119 110.101 12.9307Z" fill="white"/>
<path d="M147.985 5.36066C152.495 1.20051 158.875 0.00298816 164.819 0.0216995C170.614 0.12773 176.539 0.576806 182.021 2.57892C182.071 6.33366 182.171 10.1071 181.984 13.8556C181.404 14.7288 180.063 14.0489 179.196 14.1612C175.036 13.7683 170.851 13.6186 166.678 13.6747C164.171 13.7995 161.133 14.0739 159.649 16.4128C158.033 19.2944 158.582 22.7622 158.464 25.9307C158.557 29.1116 158.233 32.7353 160.31 35.3986C161.757 37.1512 164.271 36.7396 166.273 36.6023C166.316 32.6418 166.204 28.6812 166.316 24.7269C166.266 23.916 167.146 23.3734 167.888 23.4795C172.079 23.442 176.283 23.4483 180.475 23.4795C181.51 23.2986 182.252 24.3339 182.065 25.282C182.053 32.5669 182.127 39.8456 182.028 47.1243C182.127 48.0661 180.924 48.0287 180.312 48.247C172.678 49.6317 164.745 50.8229 157.054 49.2387C151.659 48.116 146.644 44.6731 144.262 39.6211C141.374 33.8455 141.811 27.2092 141.879 20.9472C142.023 15.2839 143.663 9.27757 147.985 5.36066Z" fill="white"/>
<path d="M193.853 3.79336C197.558 0.687278 202.641 0.138414 207.294 0.0136719C212.259 0.0635687 217.23 0.163358 222.17 0.749646C222.918 0.774594 223.623 1.42326 223.479 2.23408C223.542 5.36511 223.511 8.50238 223.492 11.6334C223.623 12.3881 223.012 13.2239 222.219 13.1864C217.205 13.3611 212.184 13.0742 207.176 13.3174C204.893 13.9536 206.153 17.0722 205.778 18.7874C211.261 19.0369 216.756 18.7437 222.244 18.9246C223.342 18.8747 223.579 20.1034 223.504 20.9516C223.479 23.8644 223.592 26.7833 223.436 29.6961C223.361 30.563 222.35 30.7689 221.652 30.7314C216.375 30.7626 211.099 30.719 205.822 30.7501C206.184 32.6088 204.793 35.9394 207.194 36.6879C212.19 36.9374 217.205 36.6505 222.207 36.8189C223.043 36.7877 223.61 37.611 223.486 38.4156C223.492 41.7399 223.598 45.083 223.423 48.4074C223.274 48.5758 222.974 48.9188 222.824 49.0872C217.903 49.9417 212.851 49.8482 207.862 49.9979C203.022 49.923 197.701 49.4365 193.841 46.2057C190.491 43.4177 189.375 38.8584 189.406 34.667C189.394 28.0183 189.369 21.3695 189.419 14.727C189.462 10.7228 190.672 6.44413 193.853 3.79336Z" fill="white"/>
<path d="M231.525 3.48945C231.313 2.0362 232.491 0.595432 233.982 0.682752C237.157 0.620381 240.338 0.620387 243.512 0.688995C244.86 0.695232 246.169 1.37507 246.893 2.53517C250.074 7.25667 253.167 12.0405 256.305 16.7932C256.666 17.3421 257.122 17.7974 257.671 18.1716C261.251 13.0385 264.544 7.71197 268.074 2.54764C268.785 1.3813 270.101 0.688982 271.461 0.695219C274.598 0.607899 277.742 0.632849 280.879 0.676508C282.407 0.558003 283.673 1.99254 283.449 3.50816C283.442 18.5084 283.498 33.5087 283.424 48.5027C283.58 49.6565 282.133 49.2574 281.496 49.3759C277.068 49.2885 272.627 49.5068 268.211 49.2698C268.093 49.0515 267.856 48.6149 267.737 48.3966C267.55 42.1595 267.694 35.9162 267.669 29.6791C267.6 28.6936 267.856 27.5709 267.232 26.7164C264.719 29.6292 262.978 33.1719 260.24 35.8663C258.4 36.0659 256.523 36.0971 254.689 35.8476C252.138 33.3278 250.51 30.0283 248.19 27.309C247.972 27.2653 247.529 27.1842 247.311 27.1406C247.323 33.8018 247.317 40.463 247.317 47.1305C247.273 47.8665 247.398 49.3135 246.332 49.3322C241.517 49.3572 236.689 49.457 231.886 49.2823C231.232 48.5526 231.618 47.3987 231.506 46.513C231.543 32.1739 231.5 17.8286 231.525 3.48945Z" fill="white"/>
</g>
<path d="M313.018 5.753C317.321 1.47435 323.615 0.108426 329.496 0.0273438C335.365 0.0273438 341.328 0.53255 346.941 2.34755C347.066 2.46605 347.328 2.70306 347.453 2.8278C347.528 6.53264 347.621 10.2624 347.403 13.9673L346.998 14.2729C341.79 13.9735 336.569 13.4683 331.349 13.7178C329.028 13.8675 326.259 14.3415 325.006 16.5619C323.496 19.431 324.026 22.8115 323.908 25.9363C323.989 29.0923 323.702 32.6474 325.692 35.3294C327.126 37.1319 329.715 36.82 331.742 36.5206C331.816 32.3854 331.461 28.1879 331.91 24.0839C332.078 23.9529 332.415 23.6847 332.577 23.5537C336.95 23.3479 341.341 23.5038 345.725 23.4726C346.81 23.2606 347.727 24.2024 347.509 25.2876C347.49 32.7659 347.584 40.2442 347.459 47.7225C341.428 49.3878 335.103 49.9491 328.86 49.9866C322.174 49.9554 314.914 47.6601 311.028 41.8721C306.899 35.9593 307.18 28.4249 307.305 21.5516C307.367 15.8758 308.833 9.83207 313.018 5.753Z" fill="white"/>
<path d="M364.767 2.47341C367.96 0.340321 371.965 0.090848 375.694 0.00976562C379.543 0.0222398 383.622 0.134502 387.083 2.03058C389.503 3.33414 390.994 5.86639 391.524 8.51093C394.256 21.3781 396.907 34.2577 399.626 47.1249C399.726 47.8484 400.206 49.1395 399.102 49.3079C394.219 49.4326 389.322 49.3515 384.439 49.3453C383.672 49.4201 382.961 48.8588 382.855 48.1041C382.349 45.6529 382.019 43.1706 381.563 40.7069C378.04 40.7069 374.509 40.7069 370.985 40.7069C370.48 43.2891 370.218 45.9211 369.582 48.4658C369.177 49.576 367.842 49.3203 366.937 49.3765C362.434 49.3016 357.925 49.4638 353.428 49.3016C352.349 49.1145 352.817 47.8796 352.916 47.1748C355.598 34.4448 358.243 21.7024 360.919 8.97249C361.405 6.4527 362.565 3.9329 364.767 2.47341ZM375.401 14.748C374.653 19.3822 373.842 24.0101 373.075 28.6443C375.208 28.6505 377.341 28.6505 379.474 28.6443C378.701 23.9977 377.896 19.3573 377.141 14.7044C376.961 13.8499 376.898 12.8894 376.249 12.247C375.669 12.9518 375.557 13.8748 375.401 14.748Z" fill="white"/>
<path d="M405.39 3.46848C405.159 1.91544 406.513 0.52457 408.059 0.668024C411.197 0.649313 414.34 0.599408 417.478 0.699202C418.819 0.705439 420.091 1.43519 420.796 2.57658C424.313 7.72843 427.575 13.0487 431.174 18.1506C431.742 17.7951 432.203 17.3273 432.559 16.7535C435.696 12.0071 438.784 7.21699 441.971 2.50174C442.7 1.29797 444.091 0.668017 445.476 0.680491C448.632 0.630594 451.788 0.611889 454.95 0.686734C456.397 0.636838 457.501 2.05889 457.32 3.46224C457.32 18.6995 457.339 33.9305 457.308 49.1678C452.293 49.5669 447.229 49.3299 442.201 49.305C442.052 49.0617 441.752 48.5877 441.596 48.3445C441.285 41.1469 441.846 33.8993 441.322 26.7204C438.522 29.3899 436.956 33.1135 434.193 35.8204C432.347 36.1759 430.444 35.9201 428.58 35.9513C426.128 33.338 424.388 30.1633 422.143 27.3816C421.912 27.2506 421.457 26.9824 421.226 26.8452C421.076 34.0366 421.32 41.2404 421.101 48.4318C420.952 49.673 419.555 49.2925 418.694 49.3736C414.265 49.2364 409.812 49.6044 405.403 49.1678C405.365 33.9367 405.39 18.7057 405.39 3.46848Z" fill="white"/>
<path d="M468.247 4.98652C471.11 1.64967 475.657 0.551952 479.854 0.165251C485.436 -0.171553 491.037 0.159015 496.607 0.614324C497.449 0.701643 498.609 0.657969 499.033 1.59354C499.183 4.93039 499.083 8.27973 499.089 11.6228C499.283 12.6208 498.279 13.3754 497.362 13.2257C492.977 13.2632 488.592 13.2133 484.208 13.232C483.291 13.3006 482.112 13.1197 481.607 14.0802C481.276 15.6458 481.445 17.2549 481.395 18.8454C486.69 18.9327 491.985 18.8454 497.287 18.8828C498.067 18.7393 499.208 19.2945 499.071 20.2363C499.146 23.1926 499.102 26.1553 499.089 29.1117C499.289 30.1595 498.235 30.9017 497.287 30.7333C491.998 30.7583 486.709 30.7271 481.42 30.7458C481.457 32.4672 481.245 34.2323 481.613 35.9351C482.125 36.8893 483.303 36.7022 484.22 36.7833C488.574 36.802 492.933 36.7521 497.293 36.7896C498.198 36.6336 499.264 37.301 499.089 38.3301C499.083 41.6857 499.183 45.0475 499.033 48.403C498.634 49.3698 497.455 49.2825 496.607 49.3947C491.636 49.85 486.634 50.0372 481.644 49.9623C476.985 49.7378 471.84 48.8833 468.503 45.3094C465.839 42.484 465.004 38.4673 465.004 34.7001C464.979 28.4568 464.997 22.2072 464.991 15.9638C464.948 12.1093 465.621 7.9741 468.247 4.98652Z" fill="white"/>
<path d="M516.241 0.757125C522.616 -0.558905 529.19 0.0897515 535.595 0.831967C537.753 1.23114 540.08 1.30599 542.051 2.37878C542.73 5.13558 542.144 8.13563 542.356 10.9922C542.244 12.1024 542.836 14.5037 540.953 14.1919C535.152 13.7553 529.346 13.2501 523.526 13.2937C522.129 13.2064 522.385 15.1773 523.47 15.4143C527.605 17.8031 532.04 19.6431 536.225 21.9633C539.069 23.56 541.658 25.874 542.918 28.9551C545.132 34.45 543.61 41.3233 539.063 45.1903C535.302 48.4772 530.2 49.7434 525.31 49.9617C519.728 50.1176 514.09 49.5812 508.707 48.0656C508.008 47.8286 506.929 47.5167 507.135 46.5437C507.073 43.631 507.129 40.7183 507.11 37.8055C507.011 36.9074 507.198 35.3918 508.489 35.6974C513.684 36.0467 518.867 36.8513 524.088 36.7203C525.847 36.9511 526.957 34.3689 525.329 33.4521C520.695 30.5331 515.58 28.4 511.077 25.269C505.482 21.3583 503.911 13.2625 506.73 7.23749C508.464 3.54512 512.424 1.58666 516.241 0.757125Z" fill="white"/>
<defs>
<filter id="filter0_d" x="0" y="0.0136719" width="287.474" height="57.9842" filterUnits="userSpaceOnUse" color-interpolation-filters="sRGB">
<feFlood flood-opacity="0" result="BackgroundImageFix"/>
<feColorMatrix in="SourceAlpha" type="matrix" values="0 0 0 0 0 0 0 0 0 0 0 0 0 0 0 0 0 0 127 0"/>
<feOffset dy="4"/>
<feGaussianBlur stdDeviation="2"/>
<feColorMatrix type="matrix" values="0 0 0 0 0 0 0 0 0 0 0 0 0 0 0 0 0 0 0.25 0"/>
<feBlend mode="normal" in2="BackgroundImageFix" result="effect1_dropShadow"/>
<feBlend mode="normal" in="SourceGraphic" in2="effect1_dropShadow" result="shape"/>
</filter>
</defs>
</svg>
