<svg width="100%" height="100%" viewBox="0 0 108 108" fill="none" xmlns="http://www.w3.org/2000/svg">
<g filter="url(#filter0_d)">
<path d="M49.9593 0.164164C58.416 -0.523915 67.0484 0.956433 74.7627 4.50319C87.0635 10.0686 96.8855 20.8434 101.255 33.6239C104.856 43.9646 104.917 55.4992 101.422 65.879C98.826 73.6801 94.2417 80.804 88.2486 86.428C82.4488 91.8958 75.3227 95.9526 67.6475 98.1102C56.5037 101.288 44.2528 100.439 33.6755 95.6943C27.6195 93.0049 22.1149 89.0848 17.5783 84.2553C11.6548 77.9801 7.39607 70.1442 5.38827 61.7483C3.34791 53.2743 3.55628 44.2664 6.01557 35.9009C8.47703 27.4616 13.2393 19.7147 19.6339 13.6848C27.8062 5.89454 38.6961 1.01938 49.9593 0.164164ZM75.568 29.2415C61.0663 34.8547 46.5471 40.4222 32.0519 46.0528C30.9319 46.4891 29.7293 46.9883 28.9935 47.9824C28.5247 48.957 29.6512 49.6364 30.4283 49.9012C33.9859 51.0907 37.5847 52.1608 41.1641 53.283C41.6047 53.3764 41.9042 53.7302 42.0128 54.1556C43.4236 58.5511 44.8606 62.94 46.2693 67.3376C46.4147 67.7631 46.6036 68.2645 47.0811 68.4056C48.0774 68.7029 49.1605 68.2905 49.8703 67.5721C51.7913 65.6945 53.7144 63.8169 55.6441 61.948C59.4188 64.7069 63.1631 67.5091 66.9334 70.2723C67.7951 70.9083 69.0237 71.3945 70.0286 70.7911C71.1943 70.0596 71.3592 68.5705 71.6262 67.3441C74.0529 55.9311 76.471 44.516 78.8955 33.103C79.0974 31.9439 79.3969 30.5482 78.5352 29.5736C77.7885 28.7314 76.5166 28.8334 75.568 29.2415Z" fill="#009992"/>
<path d="M67.5759 37.5202C68.3877 36.984 69.2885 36.3502 70.3152 36.6888C70.1134 37.0861 69.9028 37.4898 69.5555 37.7828C62.7529 43.9278 55.9524 50.0727 49.1345 56.2003C48.8307 56.4825 48.5745 56.8363 48.5268 57.2596C48.212 59.9533 48.1339 62.6796 47.7041 65.3581C46.3214 61.4358 45.1363 57.4441 43.784 53.511C43.7211 53.2158 43.5149 52.8381 43.7753 52.5841C44.1986 52.1913 44.7195 51.9286 45.1992 51.6182C52.6618 46.9276 60.1178 42.2217 67.5759 37.5202Z" fill="#009992"/>
</g>
<defs>
<filter id="filter0_d" x="0" y="0" width="108" height="107.999" filterUnits="userSpaceOnUse" color-interpolation-filters="sRGB">
<feFlood flood-opacity="0" result="BackgroundImageFix"/>
<feColorMatrix in="SourceAlpha" type="matrix" values="0 0 0 0 0 0 0 0 0 0 0 0 0 0 0 0 0 0 127 0"/>
<feOffset dy="4"/>
<feGaussianBlur stdDeviation="2"/>
<feColorMatrix type="matrix" values="0 0 0 0 0 0 0 0 0 0 0 0 0 0 0 0 0 0 0.25 0"/>
<feBlend mode="normal" in2="BackgroundImageFix" result="effect1_dropShadow"/>
<feBlend mode="normal" in="SourceGraphic" in2="effect1_dropShadow" result="shape"/>
</filter>
</defs>
</svg>
