<svg width="100%" height="100%" viewBox="0 0 157 200" fill="none" xmlns="http://www.w3.org/2000/svg">
<path d="M76.3301 0H79.6801C99.0401 0.55 118.2 8.29 132.05 21.9C142.83 32.23 150.57 45.72 153.87 60.28C158.56 79.69 155.25 100.9 144.94 117.98C134.56 135.67 116.84 148.79 96.9701 153.78C84.8401 156.73 72.0001 156.75 59.8401 153.99C40.3501 149.29 22.8201 136.85 12.2101 119.82C0.500104 101.66 -2.9399 78.47 2.8101 57.66C7.4601 39.99 18.7201 24.17 33.7901 13.85C46.1901 5.12 61.2301 0.51 76.3301 0ZM46.9201 42.36C46.4501 38.21 46.4801 34.02 46.5501 29.85C42.6201 31.57 40.0601 35.22 37.6701 38.61C35.6101 41.66 37.3001 45.3 37.9501 48.53C31.6801 52.26 27.1701 59.11 27.6001 66.59C29.6001 65.28 31.6101 63.99 33.6801 62.79C32.1001 70.76 32.2201 79.77 37.3001 86.54C39.2701 89.54 43.0101 91.44 43.6801 95.2C44.6301 99.56 44.9701 104.03 45.4701 108.46C48.6401 108.37 52.2001 107.9 54.8401 110.1C63.0501 116.35 68.4301 125.38 74.6201 133.46C80.4801 130.19 86.6201 127.33 93.0401 125.36C96.0301 124.17 99.0101 125.56 101.95 126.08C105.45 125.82 108.79 124.64 112.19 123.87C111.83 119.23 111.67 114.57 112.04 109.92C112.64 109.29 113.23 108.66 113.83 108.04C113.31 106.92 112.8 105.8 112.28 104.69C112.98 104.5 114.39 104.13 115.1 103.94C115.12 101.32 115.11 98.7 115.08 96.08C117.25 94.42 119.34 92.64 121.32 90.75C117.06 85.23 112.35 79.74 110.07 73.04C110.16 68.82 111.31 64.64 111.13 60.37C114.38 59.56 117.57 58.52 120.67 57.28C118.82 51.12 114.92 45.48 109.02 42.62C109.24 39.19 109.97 35.82 110.86 32.51C97.2001 25.57 80.5201 26.93 67.1201 33.8C67.9301 31.81 68.7401 29.82 69.5301 27.82C60.1001 28.41 51.9401 34.65 46.9201 42.36Z" fill="#2AA5A0"/>
<path d="M46.9201 42.3603C51.9401 34.6503 60.1001 28.4103 69.5301 27.8203C68.7401 29.8203 67.9301 31.8103 67.1201 33.8003C80.5201 26.9303 97.2001 25.5703 110.86 32.5103C109.97 35.8203 109.24 39.1903 109.02 42.6203C114.92 45.4803 118.82 51.1203 120.67 57.2803C117.57 58.5203 114.38 59.5603 111.13 60.3703C111.31 64.6403 110.16 68.8203 110.07 73.0403C112.35 79.7403 117.06 85.2303 121.32 90.7503C119.34 92.6403 117.25 94.4203 115.08 96.0803C115.11 98.7003 115.12 101.32 115.1 103.94C114.39 104.13 112.98 104.5 112.28 104.69C112.8 105.8 113.31 106.92 113.83 108.04C113.23 108.66 112.64 109.29 112.04 109.92C111.67 114.57 111.83 119.23 112.19 123.87C108.79 124.64 105.45 125.82 101.95 126.08C99.0101 125.56 96.0301 124.17 93.0401 125.36C86.6201 127.33 80.4801 130.19 74.6201 133.46C68.4301 125.38 63.0501 116.35 54.8401 110.1C52.2001 107.9 48.6401 108.37 45.4701 108.46C44.9701 104.03 44.6301 99.5603 43.6801 95.2003C43.0101 91.4403 39.2701 89.5403 37.3001 86.5403C32.2201 79.7703 32.1001 70.7603 33.6801 62.7903C31.6101 63.9903 29.6001 65.2803 27.6001 66.5903C27.1701 59.1103 31.6801 52.2603 37.9501 48.5303C37.3001 45.3003 35.6101 41.6603 37.6701 38.6103C40.0601 35.2203 42.6201 31.5703 46.5501 29.8503C46.4801 34.0203 46.4501 38.2103 46.9201 42.3603ZM103.73 53.9503C104.27 58.0103 103.85 62.1203 103.94 66.1503C104.31 68.4803 106.78 67.7203 108.48 67.8103C108.66 64.3903 109.1 60.8903 108.35 57.5103C107.29 55.8203 105.35 55.0003 103.73 53.9503ZM82.4601 56.7303C80.8201 60.5703 78.9401 64.2803 76.8401 67.8803C75.9101 69.2703 75.8201 70.9403 75.8501 72.5603C84.9501 71.3403 93.8001 68.1203 103.06 68.2603C103.18 67.8103 103.44 66.9003 103.57 66.4503C100.46 66.1503 97.3901 65.5703 94.3201 65.0103C94.1501 62.5503 93.9301 60.0903 93.5101 57.6703C93.3601 60.2203 93.4401 62.8203 92.6801 65.2903C91.7701 65.1303 89.9401 64.8103 89.0301 64.6403C87.1501 61.7703 85.1301 58.9403 82.4601 56.7303ZM51.3801 72.6703C49.0801 73.8303 48.4901 76.7303 48.8901 79.0703C49.5401 85.5603 53.1201 91.1603 56.6701 96.4403C59.3001 99.9203 56.9801 104.38 56.4201 108.19C63.7201 114.56 69.4401 122.42 74.9401 130.32C80.2701 126.93 86.0701 124.46 91.9201 122.15C84.4301 117.72 75.7001 115.87 67.9401 111.96C65.7901 109.5 65.0401 106.01 63.9601 102.96C62.8001 99.9903 64.3801 97.0503 65.1501 94.2203C66.7301 89.3603 67.1401 84.2403 67.1801 79.1603C66.4601 79.0903 65.0301 78.9403 64.3201 78.8703C62.8501 76.2003 61.1001 73.2103 57.9401 72.3803C55.8001 71.9303 53.4601 71.8803 51.3801 72.6703ZM104.5 72.7203C104.2 76.2603 104.21 79.8103 104.49 83.3403C108.14 81.2703 106.08 75.9603 106.79 72.5003C106.22 72.5603 105.07 72.6703 104.5 72.7203ZM76.6401 76.8703C77.3201 81.7003 76.2801 87.3303 79.7501 91.2903C82.5701 95.1003 85.4201 98.9003 88.5101 102.49C92.2201 100.5 95.9101 98.4203 99.8401 96.8803C104.33 95.1603 109.23 95.5803 113.88 94.6703C115.05 93.9803 116.01 93.0103 117.05 92.1503C114.47 88.4203 112.21 84.4803 109.66 80.7203C109.64 81.5803 109.59 83.3103 109.57 84.1703C107.03 86.3703 105.21 90.2103 101.32 89.8803C100.1 84.4503 100.1 78.8303 100.28 73.2903C92.4001 74.4703 84.4901 75.4903 76.6401 76.8703ZM97.2401 110.64C99.2901 111.89 101.37 113.1 103.5 114.21C103.93 112.73 104.36 111.25 104.78 109.78C107.23 109.22 109.68 108.66 112.14 108.13C111.65 107.1 111.17 106.08 110.68 105.06C105.89 106.04 101.49 108.29 97.2401 110.64Z" fill="#2D3132"/>
<path d="M103.73 53.9492C105.35 54.9992 107.29 55.8192 108.35 57.5092C109.1 60.8892 108.66 64.3892 108.48 67.8092C106.78 67.7192 104.31 68.4792 103.94 66.1492C103.85 62.1192 104.27 58.0092 103.73 53.9492Z" fill="white"/>
<path d="M82.4599 56.7285C85.1299 58.9385 87.1499 61.7685 89.0299 64.6385C89.9399 64.8085 91.7699 65.1285 92.6799 65.2885C93.4399 62.8185 93.3599 60.2185 93.5099 57.6685C93.9299 60.0885 94.1499 62.5485 94.3199 65.0085C97.3899 65.5685 100.46 66.1485 103.57 66.4485C103.44 66.8985 103.18 67.8085 103.06 68.2585C93.7999 68.1185 84.9499 71.3385 75.8499 72.5585C75.8199 70.9385 75.9099 69.2685 76.8399 67.8785C78.9399 64.2785 80.8199 60.5685 82.4599 56.7285Z" fill="white"/>
<path d="M51.3798 72.6691C53.4598 71.8791 55.7998 71.9291 57.9398 72.3791C61.0998 73.2091 62.8498 76.1991 64.3198 78.8691C65.0298 78.9391 66.4598 79.0891 67.1798 79.1591C67.1398 84.2391 66.7298 89.3591 65.1498 94.2191C64.3798 97.0491 62.7998 99.9891 63.9598 102.959C65.0398 106.009 65.7898 109.499 67.9398 111.959C75.6998 115.869 84.4298 117.719 91.9198 122.149C86.0698 124.459 80.2698 126.929 74.9398 130.319C69.4398 122.419 63.7198 114.559 56.4198 108.189C56.9798 104.379 59.2998 99.9191 56.6698 96.4391C53.1198 91.1591 49.5398 85.5591 48.8898 79.0691C48.4898 76.7291 49.0798 73.8291 51.3798 72.6691Z" fill="white"/>
<path d="M104.5 72.72C105.07 72.67 106.22 72.56 106.79 72.5C106.08 75.96 108.14 81.27 104.49 83.34C104.21 79.81 104.2 76.26 104.5 72.72Z" fill="white"/>
<path d="M76.6401 76.8691C84.4901 75.4891 92.4001 74.4691 100.28 73.2891C100.1 78.8291 100.1 84.4491 101.32 89.8791C105.21 90.2091 107.03 86.3691 109.57 84.1691C109.59 83.3091 109.64 81.5791 109.66 80.7191C112.21 84.4791 114.47 88.4191 117.05 92.1491C116.01 93.0091 115.05 93.9791 113.88 94.6691C109.23 95.5791 104.33 95.1591 99.8401 96.8791C95.9101 98.4191 92.2201 100.499 88.5101 102.489C85.4201 98.8991 82.5701 95.0991 79.7501 91.2891C76.2801 87.3291 77.3201 81.6991 76.6401 76.8691Z" fill="white"/>
<path d="M97.2397 110.639C101.49 108.289 105.89 106.039 110.68 105.059C111.17 106.079 111.65 107.099 112.14 108.129C109.68 108.659 107.23 109.219 104.78 109.779C104.36 111.249 103.93 112.729 103.5 114.209C101.37 113.099 99.2897 111.889 97.2397 110.639Z" fill="white"/>
<path d="M1.68994 161.399C10.4199 161.389 19.1399 161.399 27.8599 161.389C27.8599 163.869 27.8599 166.349 27.8499 168.839C30.6099 168.909 33.3799 168.799 36.1399 168.969C36.2699 169.529 36.5199 170.639 36.6399 171.199C38.3099 169.509 40.4999 168.069 43.0099 168.559C47.2999 168.839 50.0199 173.089 50.4399 177.029C50.8999 181.269 50.8199 186.229 47.4899 189.369C44.4799 192.119 39.6799 191.809 36.7199 189.119C36.7599 191.099 36.7699 193.079 36.7799 195.059C37.4899 195.209 38.9299 195.509 39.6499 195.659C39.6499 196.569 39.6499 198.379 39.6599 199.289C35.8099 199.279 31.9699 199.279 28.1299 199.299C28.1199 198.379 28.1199 196.529 28.1099 195.599C28.7899 195.479 30.1599 195.219 30.8399 195.099C30.8299 187.789 30.8799 180.479 30.8099 173.169C29.7699 172.949 28.7299 172.729 27.6899 172.509C27.6899 171.699 27.6799 170.069 27.6799 169.259C26.2499 169.259 24.8199 169.259 23.3899 169.269C23.2799 168.139 23.1799 167.009 23.0799 165.879C21.2999 165.869 19.5099 165.869 17.7299 165.859C17.7399 172.769 17.7399 179.669 17.7399 186.579C18.7799 186.829 19.8199 187.079 20.8599 187.339C20.8499 188.499 20.8399 189.659 20.8299 190.829C16.7799 190.809 12.7299 190.819 8.67994 190.819C8.66994 189.649 8.64994 188.489 8.62994 187.319C9.43994 187.139 11.0699 186.769 11.8799 186.589C11.8299 179.679 11.8699 172.769 11.8599 165.859C10.0399 165.869 8.21994 165.869 6.39994 165.879C6.32994 166.999 6.25994 168.119 6.17994 169.249C4.68994 169.249 3.19994 169.259 1.69994 169.269C1.68994 166.639 1.68994 164.019 1.68994 161.399ZM36.7599 174.809C36.7699 178.289 36.7699 181.769 36.7599 185.249C38.7799 186.879 42.4899 187.619 43.8399 184.779C45.1399 181.579 45.1699 177.479 43.2699 174.509C41.6699 172.269 38.4999 173.279 36.7599 174.809Z" fill="white"/>
<path d="M62.3001 171.86C63.5701 169.58 65.8901 167.95 68.6001 168.53C68.9301 170.4 68.4801 172.29 68.3501 174.16C66.4701 174.41 64.0301 173.77 62.6601 175.43C61.9701 179.04 62.5401 182.79 62.3401 186.46C63.2901 186.76 64.2301 187.09 65.1601 187.47C65.1901 188.3 65.2601 189.97 65.2901 190.81C61.3801 190.82 57.4701 190.83 53.5701 190.8C52.9001 188.2 53.9801 186.72 56.5201 186.44C56.4401 181.98 56.5601 177.51 56.4101 173.05C55.6401 172.93 54.0901 172.69 53.3101 172.57C53.3101 171.64 53.3201 169.79 53.3201 168.87C56.1401 168.89 58.9601 168.89 61.7801 168.87C61.9101 169.62 62.1701 171.12 62.3001 171.86Z" fill="white"/>
<path d="M75.4899 169.679C78.7599 168.009 82.8799 168.109 86.0799 169.909C92.5899 174.319 92.5699 185.599 86.0199 189.969C81.3299 192.589 74.3999 191.439 71.7299 186.479C68.7599 181.079 69.7299 172.849 75.4899 169.679ZM78.4699 173.589C75.5199 176.129 75.7999 180.709 76.7999 184.109C77.5699 186.699 80.7899 187.369 82.9399 186.089C85.4999 183.819 85.0199 179.989 84.7099 176.939C84.4899 173.989 81.0599 172.229 78.4699 173.589Z" fill="white"/>
<path d="M97.8102 169.858C101 167.508 105.46 168.388 107.98 171.268C108.09 170.668 108.31 169.458 108.41 168.858C110.13 168.878 111.85 168.898 113.57 168.928C113.54 176.268 113.64 183.608 113.54 190.938C113.57 194.838 110.62 198.358 106.88 199.268C103.36 200.758 99.6902 199.228 96.3102 198.138C96.6202 196.798 96.9502 195.458 97.2802 194.118C100.04 194.678 102.98 195.688 105.76 194.668C107.5 193.348 107.4 190.968 107.86 189.058C105.63 190.748 102.8 191.988 99.9902 191.008C96.3602 190.148 94.4802 186.368 93.9002 182.988C93.3102 178.398 94.0502 172.978 97.8102 169.858ZM102.37 173.468C100.33 174.388 99.8002 176.958 99.6702 178.988C99.5502 181.508 99.4802 184.718 101.91 186.258C103.78 187.068 106.63 186.708 107.47 184.628C107.66 181.558 107.65 178.458 107.47 175.388C106.86 173.338 104.19 172.818 102.37 173.468Z" fill="white"/>
<path d="M118.91 172.99C122.06 167.19 131.97 166.82 135.02 172.87C136.63 175.53 136.31 178.71 136.36 181.68C131.92 181.73 127.48 181.63 123.04 181.77C123.76 183.32 124.08 185.35 125.78 186.19C128.58 187.41 131.68 186.32 134.3 185.17C134.82 186.4 135.34 187.64 135.86 188.88C131.81 191.41 126.35 192.35 122.05 189.9C116.41 186.51 115.86 178.28 118.91 172.99ZM124.85 173.51C124.24 174.88 123.64 176.27 123.07 177.67C125.67 177.74 128.26 177.75 130.85 177.65C130.45 176.31 130.37 174.72 129.19 173.77C127.93 172.79 126.28 173.46 124.85 173.51Z" fill="white"/>
<path d="M139.31 168.879C142.15 168.909 144.99 168.789 147.82 168.949C147.93 169.669 148.13 171.119 148.24 171.839C149.59 169.469 152 168.019 154.79 168.489C154.62 170.369 154.41 172.249 154.21 174.139C152.33 174.409 149.26 173.699 148.47 175.989C148.2 179.459 148.44 182.959 148.34 186.439C150.92 186.679 151.85 188.269 151.31 190.809C147.38 190.819 143.46 190.829 139.53 190.799C138.98 188.259 139.93 186.689 142.5 186.439C142.47 182.029 142.49 177.619 142.48 173.209C141.43 172.979 140.37 172.749 139.32 172.529C139.31 171.619 139.31 169.789 139.31 168.879Z" fill="white"/>
</svg>
