<svg width="100" height="100" viewBox="0 0 104 104" fill="none" xmlns="http://www.w3.org/2000/svg">
<g clip-path="url(#clip0)">
<path d="M91.8857 62.8933H11.8404C9.09084 62.8933 6.86133 65.122 6.86133 67.8724V72.2336C6.86133 73.3156 7.73893 74.1932 8.82172 74.1932H94.9052C95.9872 74.1932 96.8648 73.3156 96.8648 72.2336V67.8724C96.8648 65.122 94.6361 62.8933 91.8857 62.8933V62.8933Z" fill="#912C2C"/>
<path d="M91.8864 62.8933H85.1797V74.194H94.9059C95.9887 74.194 96.8655 73.3164 96.8655 72.2336V67.8724C96.8655 65.122 94.6368 62.8933 91.8864 62.8933V62.8933Z" fill="#7C1E1E"/>
<path d="M95.2344 56.9451C97.827 56.9451 100.012 59.098 100.015 61.8011C100.017 65.6611 95.6164 67.7036 90.5047 66.9554C85.73 66.2569 85.67 64.0598 80.8346 64.0598C75.9999 64.0598 75.9999 66.9554 71.1644 66.9554C66.3297 66.9554 66.3297 64.0598 61.495 64.0598C56.6604 64.0598 56.6604 66.9554 51.8257 66.9554C46.9902 66.9554 46.991 64.0598 42.1555 64.0598C37.3209 64.0598 37.3209 66.9554 32.4862 66.9554C27.6515 66.9554 27.6515 64.0598 22.816 64.0598C17.9813 64.0598 17.9206 66.2561 13.1467 66.9554C8.03418 67.7036 3.63435 65.6611 3.63672 61.8011C3.6383 59.098 5.82361 56.9451 8.41616 56.9451H95.2344Z" fill="#A0E557"/>
<path d="M100.016 61.8011C100.014 59.098 97.8282 56.9451 95.2357 56.9451H87.9805V66.3311C88.6663 66.5845 89.476 66.8046 90.5059 66.9554C95.6176 67.7036 100.018 65.6611 100.016 61.8011Z" fill="#93CC4A"/>
<path d="M97.972 73.1899H5.71688C3.46527 73.1899 1.64062 75.0154 1.64062 77.2662C1.64062 88.9701 11.1285 98.458 22.8324 98.458H80.8565C92.5604 98.458 102.048 88.9701 102.048 77.2662C102.048 75.0154 100.223 73.1899 97.972 73.1899V73.1899Z" fill="#EFA335"/>
<path d="M97.9741 73.1899H90.3851V81.3432C90.3851 90.7956 82.7219 98.4588 73.2695 98.4588H80.8585C92.5625 98.4588 102.05 88.9701 102.05 77.2662C102.05 75.0154 100.225 73.1899 97.9741 73.1899V73.1899Z" fill="#FD8F31"/>
<path d="M91.8673 51.756H11.8229C9.07247 51.756 6.84375 49.5273 6.84375 46.7769V42.4157C6.84375 41.3329 7.72135 40.4553 8.80335 40.4553H94.8868C95.9689 40.4553 96.8464 41.3329 96.8464 42.4157V46.7769C96.8464 49.5273 94.6177 51.756 91.8673 51.756Z" fill="#FC4E51"/>
<path d="M94.8871 40.4553H85.1964V48.7373C85.1964 50.4041 83.8453 51.756 82.1777 51.756H91.8684C94.618 51.756 96.8475 49.5273 96.8475 46.7769V42.4157C96.8467 41.3329 95.9691 40.4553 94.8871 40.4553V40.4553Z" fill="#EA3942"/>
<path d="M96.0722 50.8099H7.7118C5.708 50.8099 4.00647 52.4499 4.04356 54.4529C4.07987 56.3959 5.66617 57.9594 7.61788 57.9594H63.7589C64.6712 57.9594 65.5528 58.2853 66.2457 58.8788L74.2135 65.7062C76.5409 67.7005 80.015 67.5506 82.1632 65.3645L88.3151 59.1029C89.0332 58.3713 90.0158 57.9594 91.041 57.9594H95.9791C97.9821 57.9594 99.6844 56.3202 99.6465 54.3164C99.6102 52.3734 98.0239 50.8099 96.0722 50.8099V50.8099Z" fill="#FCCF3F"/>
<path d="M51.8444 4.86719C5.1013 4.88455 1.64062 35.7196 1.64062 40.0863C1.64062 42.3379 3.46606 44.1626 5.71688 44.1626H97.972C100.223 44.1626 102.048 42.3379 102.048 40.0863C102.048 35.7196 98.5876 4.88455 51.8444 4.86719Z" fill="#EFA335"/>
<path d="M102.047 39.9703C102.047 39.9577 102.047 39.9443 102.047 39.9309C102.047 39.9017 102.046 39.8717 102.045 39.8409C102.044 39.8267 102.044 39.8117 102.043 39.7967C102.043 39.7651 102.042 39.732 102.04 39.6988C102.04 39.683 102.04 39.668 102.039 39.6523C102.037 39.616 102.036 39.5789 102.034 39.541C102.033 39.5268 102.032 39.5134 102.032 39.4999C102.03 39.455 102.027 39.4092 102.025 39.3618C102.024 39.3532 102.024 39.3453 102.023 39.3374C102.006 39.0422 101.977 38.6989 101.935 38.3146C101.935 38.3138 101.935 38.313 101.935 38.313C101.078 30.4343 94.3937 4.88297 51.8444 4.86719C49.8193 4.86798 47.8771 4.92796 46.0114 5.03923C74.3289 6.73603 84.6817 20.6821 88.3871 30.5945C89.9457 34.7655 86.8268 39.2056 82.3749 39.2056H5.71688C4.03823 39.2056 2.59714 38.1899 1.97209 36.7401C1.71244 38.2869 1.64062 39.4597 1.64062 40.0863C1.64062 42.3379 3.46606 44.1626 5.71688 44.1626H97.972C100.223 44.1626 102.048 42.3379 102.048 40.0863C102.048 40.05 102.048 40.0106 102.047 39.9703V39.9703Z" fill="#FD8F31"/>
<path d="M96.0738 50.8099H87.9805V59.4446L88.3167 59.1029C89.0349 58.3713 90.0174 57.9594 91.0426 57.9594H95.9807C97.9837 57.9594 99.686 56.3194 99.6481 54.3164C99.6118 52.3734 98.0255 50.8099 96.0738 50.8099Z" fill="#EFC03C"/>
<path d="M98.3836 71.689V67.8724C98.3836 67.6435 98.367 67.4155 98.3434 67.1898C98.7198 66.964 99.0694 66.7146 99.3867 66.44C100.792 65.2246 101.534 63.6202 101.533 61.8003C101.532 60.2432 100.959 58.7587 99.9683 57.6119C100.746 56.6886 101.188 55.5126 101.165 54.2878C101.125 52.112 99.6905 50.2573 97.7317 49.5739C98.1382 48.7263 98.3655 47.7776 98.3655 46.7769V45.6649C101.268 45.4629 103.568 43.0384 103.568 40.086C103.568 39.6591 103.478 29.5178 95.6545 19.8886C91.6785 14.9948 86.4153 11.119 80.0093 8.3686C72.2609 5.04209 62.7856 3.35319 51.8457 3.34924C38.0669 3.35398 26.6889 6.01834 18.0274 11.2666C17.31 11.7014 17.0811 12.6343 17.5152 13.3509C17.95 14.0675 18.8829 14.2971 19.5995 13.8623C27.7812 8.90526 38.6304 6.38927 51.8457 6.38453C62.3713 6.38848 71.4432 7.99372 78.8121 11.1577C84.7619 13.7123 89.636 17.2937 93.2987 21.8025C100.451 30.6045 100.533 39.7033 100.533 40.086C100.533 41.4971 99.3851 42.6446 97.974 42.6446H5.7189C4.3078 42.6446 3.16029 41.4971 3.16029 40.086C3.16029 39.7048 3.21001 36.2221 4.94547 31.4355C6.84352 26.1984 9.93168 21.6438 14.1224 17.8991C14.7474 17.3403 14.8019 16.3806 14.2431 15.7564C13.6844 15.1313 12.7255 15.0776 12.1004 15.6356C0.261533 26.2157 0.125 39.5249 0.125 40.086C0.125 43.0384 2.42475 45.4629 5.32666 45.6649V46.7769C5.32666 47.7863 5.55869 48.7428 5.97144 49.596C5.2288 49.8611 4.54456 50.292 3.98422 50.8626C3.01981 51.8452 2.50288 53.1308 2.52813 54.4812C2.54944 55.6516 2.96851 56.7462 3.68353 57.6143C2.69387 58.761 2.12169 60.2455 2.1209 61.8003C2.11933 63.6202 2.86118 65.2246 4.26676 66.44C4.60375 66.7312 4.97783 66.994 5.38033 67.23C5.35902 67.4431 5.34481 67.657 5.34481 67.8724V71.6859C2.43422 71.88 0.125 74.3076 0.125 77.2663C0.125 89.7887 10.3129 99.9758 22.8344 99.9758H80.8585C93.38 99.9758 103.568 89.7887 103.568 77.2663C103.568 74.3202 101.278 71.8997 98.3836 71.689V71.689ZM97.4018 64.1442C96.0065 65.3509 93.4487 65.8528 90.7251 65.4543C88.7971 65.1718 87.7822 64.6351 86.7081 64.0661C86.4611 63.9359 86.2117 63.8033 85.9512 63.6746L89.3985 60.1658C89.8286 59.7278 90.4276 59.4768 91.0424 59.4768H95.9797C96.4516 59.4768 96.9157 59.4129 97.3671 59.2858C98.0758 59.9156 98.4972 60.8327 98.498 61.8026C98.498 62.7268 98.1295 63.5152 97.4018 64.1442V64.1442ZM8.36195 45.6807H95.331V46.7769C95.331 47.9552 94.7383 48.997 93.8362 49.622C93.8109 49.6402 93.7849 49.6567 93.7589 49.6733C93.6941 49.7159 93.6278 49.7562 93.5608 49.7941C93.5371 49.8075 93.5142 49.8209 93.4913 49.8335C93.4053 49.8793 93.3177 49.9219 93.2277 49.9606C93.2222 49.9629 93.2175 49.9653 93.2127 49.9677C93.1125 50.0095 93.0099 50.0474 92.9049 50.0798C92.8931 50.0837 92.8813 50.0869 92.8694 50.09C92.7818 50.1168 92.6926 50.1397 92.6019 50.1587C92.5735 50.165 92.5458 50.1705 92.5174 50.176C92.4393 50.1902 92.3604 50.2029 92.2807 50.2123C92.2507 50.2155 92.2215 50.2194 92.1915 50.2226C92.0849 50.2329 91.9776 50.2392 91.8687 50.2392H11.8234C9.91511 50.2392 8.36195 48.686 8.36195 46.7777V45.6807ZM6.15059 52.9888C6.56335 52.5689 7.13237 52.3274 7.71322 52.3274H8.45034C9.43448 52.9272 10.5891 53.2737 11.8242 53.2737H91.8687C92.0037 53.2737 92.137 53.2681 92.2696 53.2603C92.3122 53.2579 92.3541 53.2539 92.3959 53.2508C92.489 53.2429 92.5821 53.2334 92.6745 53.2216C92.7195 53.2161 92.7652 53.2113 92.8102 53.205C92.9286 53.1876 93.0462 53.1679 93.1622 53.1442C93.2111 53.134 93.2593 53.1221 93.3082 53.1111C93.3879 53.0929 93.4676 53.074 93.5466 53.0527C93.6065 53.0369 93.6665 53.0195 93.7257 53.0022C93.7896 52.9832 93.8528 52.9619 93.9159 52.9414C93.9767 52.9217 94.0367 52.902 94.0966 52.8806C94.2 52.842 94.3026 52.8017 94.4036 52.7591C94.4644 52.7331 94.5244 52.7047 94.5844 52.677C94.6412 52.651 94.6972 52.6242 94.7525 52.5965C94.8117 52.5665 94.8708 52.5373 94.9292 52.5058C94.9955 52.4703 95.061 52.4324 95.1265 52.3945C95.166 52.3716 95.2063 52.3511 95.2457 52.3274H96.0736C97.1872 52.3274 98.1097 53.2326 98.1303 54.3446C98.1453 55.1196 97.6717 55.856 96.9251 56.219C96.9251 56.219 96.9251 56.219 96.9244 56.219C96.6205 56.3666 96.3025 56.4423 95.9797 56.4423H91.0416C89.6187 56.4423 88.2305 57.024 87.2329 58.0397L81.081 64.3013C79.6147 65.7944 77.2897 65.9965 75.5921 64.8482C75.555 64.8229 75.5187 64.7977 75.4824 64.7716C75.3877 64.7038 75.2938 64.6327 75.203 64.5554C75.203 64.5546 75.2022 64.5538 75.2014 64.5538L67.2336 57.7264C66.2668 56.8985 65.0333 56.4423 63.7603 56.4423H7.61931C7.30678 56.4423 7.00373 56.3705 6.71724 56.23H6.71645C6.0188 55.8875 5.57684 55.1954 5.56263 54.4243C5.55237 53.8956 5.76151 53.3857 6.15059 52.9888V52.9888ZM5.15619 61.8018C5.15619 60.8382 5.57368 59.9259 6.27608 59.2961C6.71172 59.4161 7.16078 59.4768 7.61931 59.4768H63.7603C64.3104 59.4768 64.8423 59.6741 65.2598 60.0309L71.5608 65.4306C71.4346 65.4353 71.3028 65.4377 71.1662 65.4377C69.1687 65.4377 68.2604 64.8939 67.1113 64.2058C65.8091 63.426 64.3333 62.5421 61.4961 62.5421C58.6597 62.5421 57.1839 63.426 55.8817 64.2058C54.7326 64.8939 53.825 65.4377 51.8267 65.4377C49.8284 65.4377 48.9209 64.8939 47.7718 64.2058C46.4696 63.426 44.9938 62.5421 42.1574 62.5421C39.3202 62.5421 37.8443 63.426 36.5422 64.2058C35.3931 64.8939 34.4855 65.4377 32.4872 65.4377C30.4889 65.4377 29.5814 64.8939 28.4323 64.2058C27.1301 63.426 25.6543 62.5421 22.8171 62.5421C19.8197 62.5421 18.3573 63.3171 16.943 64.0661C15.8697 64.6343 14.8555 65.1718 12.9275 65.4535C10.204 65.852 7.64614 65.3501 6.25161 64.1442C5.52396 63.5152 5.1554 62.7268 5.15619 61.8018V61.8018ZM80.8585 96.9413H22.8344C11.986 96.9413 3.16029 88.1148 3.16029 77.2663C3.16029 75.8552 4.3078 74.7077 5.7189 74.7077H73.7509C74.589 74.7077 75.2685 74.0282 75.2685 73.1901C75.2685 72.352 74.589 71.6724 73.7509 71.6724H8.3801V68.3491C9.2427 68.529 10.1613 68.6237 11.1155 68.6237C11.8495 68.6237 12.6039 68.5685 13.3679 68.4572C15.8136 68.0989 17.1687 67.3815 18.3644 66.7486C19.5995 66.0943 20.5749 65.5774 22.8178 65.5774C24.8153 65.5774 25.7237 66.1212 26.8728 66.8094C28.175 67.5891 29.6508 68.473 32.488 68.473C35.3244 68.473 36.8002 67.5891 38.1024 66.8094C39.2515 66.1212 40.1591 65.5774 42.1574 65.5774C44.1556 65.5774 45.0632 66.1212 46.2123 66.8094C47.5145 67.5891 48.9903 68.473 51.8275 68.473C54.6639 68.473 56.1397 67.5891 57.4419 66.8094C58.591 66.1212 59.4986 65.5774 61.4969 65.5774C63.4951 65.5774 64.4027 66.1212 65.5518 66.8094C66.854 67.5891 68.3298 68.473 71.1662 68.473C72.5174 68.473 73.6507 68.2773 74.7398 67.8558C75.7665 68.3641 76.8848 68.6182 78.0031 68.6182C79.9138 68.6182 81.8197 67.8811 83.2474 66.4282L83.672 65.9965C84.2426 66.1977 84.7406 66.4589 85.2899 66.7494C86.4855 67.3823 87.8406 68.0989 90.2863 68.4572C91.0503 68.5693 91.8048 68.6237 92.5387 68.6237C93.5205 68.6237 94.4644 68.5235 95.3491 68.3333V71.6724H80.8127C79.9746 71.6724 79.2951 72.352 79.2951 73.1901C79.2951 74.0282 79.9746 74.7077 80.8127 74.7077H97.974C99.3851 74.7077 100.533 75.8552 100.533 77.2663C100.533 88.1148 91.7069 96.9413 80.8585 96.9413V96.9413Z" fill="black"/>
</g>
<defs>
<clipPath id="clip0">
<rect width="103.443" height="103.241" fill="white" transform="translate(0.326172 0.015625)"/>
</clipPath>
</defs>
</svg>
