<svg width="100" height="100" viewBox="0 0 104 104" fill="none" xmlns="http://www.w3.org/2000/svg">
<g clip-path="url(#clip0)">
<path d="M5.01969 56.4834H98.7646C100.55 56.4834 101.997 57.9308 101.997 59.716V98.507C101.997 100.293 100.55 101.74 98.7646 101.74H5.01969C3.23451 101.74 1.78711 100.293 1.78711 98.507V59.716C1.78711 57.9308 3.23451 56.4834 5.01969 56.4834Z" fill="#E2FC85"/>
<path d="M85.8359 75.8792H95.5337V95.2747H85.8359V75.8792Z" fill="#FF8A65"/>
<path d="M24.4162 88.8093H76.1375C77.9227 88.8093 79.3701 90.2567 79.3701 92.0419C79.3701 93.8279 77.9227 95.2745 76.1375 95.2745H24.4162C22.631 95.2745 21.1836 93.8279 21.1836 92.0419C21.1836 90.2567 22.631 88.8093 24.4162 88.8093Z" fill="#8EDF78"/>
<path d="M8.25391 88.8093H14.7191V95.2745H8.25391V88.8093Z" fill="#8EDF78"/>
<path d="M8.25391 75.879H14.7191V82.3442H8.25391V75.879Z" fill="#8EDF78"/>
<path d="M21.1836 75.879H27.6488V82.3442H21.1836V75.879Z" fill="#8EDF78"/>
<path d="M34.1152 75.879H40.5804V82.3442H34.1152V75.879Z" fill="#8EDF78"/>
<path d="M47.0449 75.879H53.5101V82.3442H47.0449V75.879Z" fill="#8EDF78"/>
<path d="M59.9746 75.879H66.4398V82.3442H59.9746V75.879Z" fill="#8EDF78"/>
<path d="M72.9062 75.879H79.3714V82.3442H72.9062V75.879Z" fill="#8EDF78"/>
<path d="M8.25391 62.9492H14.7191V69.4144H8.25391V62.9492Z" fill="#8EDF78"/>
<path d="M21.1836 62.9487H27.6488V69.4139H21.1836V62.9487Z" fill="#8EDF78"/>
<path d="M34.1152 62.9487H40.5804V69.4139H34.1152V62.9487Z" fill="#8EDF78"/>
<path d="M47.0449 62.9487H53.5101V69.4139H47.0449V62.9487Z" fill="#8EDF78"/>
<path d="M59.9746 62.9487H66.4398V69.4139H59.9746V62.9487Z" fill="#8EDF78"/>
<path d="M72.9062 62.9487H95.5343V69.4139H72.9062V62.9487Z" fill="#8EDF78"/>
<path d="M100.383 3.14587L61.5918 16.0762L80.9873 22.5414L87.4525 40.3206L100.383 3.14587Z" fill="#A6E7FF"/>
<path d="M98.7657 54.8673H53.5095V50.0184C53.504 45.5578 49.8894 41.9425 45.4281 41.937H7.44519C5.21332 41.937 3.40446 40.1281 3.40446 37.8962C3.40446 35.6651 5.21332 33.8555 7.44519 33.8555H64.4321C69.2542 33.8689 73.8805 31.9519 77.2804 28.5331L74.9948 26.2476C72.1995 29.0587 68.3963 30.634 64.4321 30.6229H7.44519C3.42814 30.6229 0.171875 33.88 0.171875 37.8962C0.171875 41.9133 3.42814 45.1695 7.44519 45.1695H45.4281C48.1058 45.1695 50.2769 47.3406 50.2769 50.0184V54.8673H5.02075C2.34298 54.8673 0.171875 57.0384 0.171875 59.7162V98.5072C0.171875 101.186 2.34298 103.356 5.02075 103.356H98.7657C101.443 103.356 103.615 101.186 103.615 98.5072V59.7162C103.615 57.0384 101.443 54.8673 98.7657 54.8673ZM100.382 98.5072C100.382 99.3998 99.6583 100.123 98.7657 100.123H5.02075C4.12816 100.123 3.40446 99.3998 3.40446 98.5072V59.7162C3.40446 58.8236 4.12816 58.0999 5.02075 58.0999H98.7657C99.6583 58.0999 100.382 58.8236 100.382 59.7162V98.5072Z" fill="black"/>
<path d="M84.2188 96.8907H97.1491V74.2626H84.2188V96.8907ZM87.4513 77.4952H93.9165V93.6581H87.4513V77.4952Z" fill="black"/>
<path d="M76.1366 87.1932H24.4153C21.7375 87.1932 19.5664 89.3643 19.5664 92.0421C19.5664 94.7207 21.7375 96.891 24.4153 96.891H76.1366C78.8144 96.891 80.9855 94.7207 80.9855 92.0421C80.9855 89.3643 78.8144 87.1932 76.1366 87.1932ZM76.1366 93.6584H24.4153C23.5227 93.6584 22.799 92.9347 22.799 92.0421C22.799 91.1495 23.5227 90.4258 24.4153 90.4258H76.1366C77.0292 90.4258 77.7529 91.1495 77.7529 92.0421C77.7529 92.9347 77.0292 93.6584 76.1366 93.6584Z" fill="black"/>
<path d="M6.63672 96.891H16.3345V87.1932H6.63672V96.891ZM9.8693 90.4258H13.1019V93.6584H9.8693V90.4258Z" fill="black"/>
<path d="M6.63672 83.9603H16.3345V74.2626H6.63672V83.9603ZM9.8693 77.4952H13.1019V80.7277H9.8693V77.4952Z" fill="black"/>
<path d="M29.2642 74.2626H19.5664V83.9603H29.2642V74.2626ZM26.0316 80.7277H22.799V77.4952H26.0316V80.7277Z" fill="black"/>
<path d="M42.1958 74.2626H32.498V83.9603H42.1958V74.2626ZM38.9632 80.7277H35.7306V77.4952H38.9632V80.7277Z" fill="black"/>
<path d="M55.1255 74.2626H45.4277V83.9603H55.1255V74.2626ZM51.8929 80.7277H48.6603V77.4952H51.8929V80.7277Z" fill="black"/>
<path d="M68.0552 74.2626H58.3574V83.9603H68.0552V74.2626ZM64.8226 80.7277H61.59V77.4952H64.8226V80.7277Z" fill="black"/>
<path d="M71.2891 83.9603H80.9868V74.2626H71.2891V83.9603ZM74.5216 77.4952H77.7542V80.7277H74.5216V77.4952Z" fill="black"/>
<path d="M6.63672 71.03H16.3345V61.3323H6.63672V71.03ZM9.8693 64.5649H13.1019V67.7974H9.8693V64.5649Z" fill="black"/>
<path d="M29.2642 61.3323H19.5664V71.03H29.2642V61.3323ZM26.0316 67.7974H22.799V64.5649H26.0316V67.7974Z" fill="black"/>
<path d="M42.1958 61.3323H32.498V71.03H42.1958V61.3323ZM38.9632 67.7974H35.7306V64.5649H38.9632V67.7974Z" fill="black"/>
<path d="M55.1255 61.3323H45.4277V71.03H55.1255V61.3323ZM51.8929 67.7974H48.6603V64.5649H51.8929V67.7974Z" fill="black"/>
<path d="M68.0552 61.3323H58.3574V71.03H68.0552V61.3323ZM64.8226 67.7974H61.59V64.5649H64.8226V67.7974Z" fill="black"/>
<path d="M71.2891 71.03H97.1497V61.3323H71.2891V71.03ZM74.5216 64.5649H93.9172V67.7974H74.5216V64.5649Z" fill="black"/>
<path d="M9.86914 48.402H26.0321V51.6346H9.86914V48.402Z" fill="black"/>
<path d="M56.7422 45.1694H59.9748V51.6346H56.7422V45.1694Z" fill="black"/>
<path d="M29.2656 48.402H38.9634V51.6346H29.2656V48.402Z" fill="black"/>
<path d="M32.498 24.1576H35.7306V27.3902H32.498V24.1576Z" fill="black"/>
<path d="M42.1953 24.1576H58.3582V27.3902H42.1953V24.1576Z" fill="black"/>
<path d="M87.486 45.1426L102.988 0.574585L56.4805 16.0762L79.736 23.8348L87.486 45.1426ZM87.4181 35.4993L82.8573 22.9572L96.5405 9.2732L87.4181 35.4993ZM94.4018 6.84561L80.5504 20.6922L66.7023 16.0762L94.4018 6.84561Z" fill="black"/>
</g>
<defs>
<clipPath id="clip0">
<rect width="103.443" height="103.443" fill="white" transform="translate(0.171875 0.17041)"/>
</clipPath>
</defs>
</svg>
