<svg width="100" height="100" viewBox="0 0 105 104" fill="none" xmlns="http://www.w3.org/2000/svg">
<g clip-path="url(#clip0)">
<path d="M32.9474 44.3139L24.9811 44.3676C20.2917 46.0375 16.9336 50.5147 16.9336 55.7771V65.8695H41.1543V55.7771C41.1543 50.4555 37.7197 45.9381 32.9474 44.3139V44.3139Z" fill="#40A2E7"/>
<path d="M84.9501 85.8922H92.6259C93.9794 84.7818 94.8428 83.0961 94.8428 81.2091V78.1809C94.8428 74.837 92.1326 72.1261 88.788 72.1261C85.4433 72.1261 82.7324 74.837 82.7324 78.1809V81.2091C82.7324 83.0961 83.5966 84.7818 84.9501 85.8922Z" fill="#ECCE93"/>
<path d="M60.7294 85.8922H68.4052C69.7587 84.7818 70.6221 83.0961 70.6221 81.2091V78.1809C70.6221 74.837 67.9112 72.1261 64.5673 72.1261C61.2226 72.1261 58.5117 74.837 58.5117 78.1809V81.2091C58.5117 83.0961 59.3759 84.7818 60.7294 85.8922Z" fill="#ECCE93"/>
<path d="M36.5087 85.8922H44.1845C45.538 84.7818 46.4014 83.0961 46.4014 81.2091V78.1809C46.4014 74.837 43.6904 72.1261 40.3466 72.1261C37.0019 72.1261 34.291 74.837 34.291 78.1809V81.2091C34.291 83.0961 35.1552 84.7818 36.5087 85.8922Z" fill="#ECCE93"/>
<path d="M12.288 85.8922H19.963C21.3173 84.7818 22.1807 83.0961 22.1807 81.2091V78.1809C22.1807 74.837 19.4697 72.1261 16.1259 72.1261C12.7812 72.1261 10.0703 74.837 10.0703 78.1809V81.2091C10.0703 83.0961 10.9345 84.7818 12.288 85.8922Z" fill="#ECCE93"/>
<path d="M36.5968 46.3137C35.5156 45.4504 34.2844 44.7685 32.9475 44.3139L24.9813 44.3676C23.7051 44.8222 22.5292 45.4851 21.4922 46.3137C23.3421 48.402 26.0412 49.7223 29.0441 49.7223C32.047 49.7223 34.7461 48.402 36.5968 46.3137Z" fill="#168DE2"/>
<path d="M29.0439 45.6855C25.6992 45.6855 22.9883 42.9746 22.9883 39.63V36.6026C22.9883 33.2579 25.6992 30.547 29.0439 30.547C32.3877 30.547 35.0986 33.2579 35.0986 36.6026V39.63C35.0986 42.9746 32.3877 45.6855 29.0439 45.6855Z" fill="#ECCE93"/>
<path d="M84.951 85.8921H92.6269C93.701 85.0105 94.4649 83.766 94.7356 82.3462C94.491 82.2491 94.2439 82.156 93.9938 82.0707L93.3608 81.8553H84.0285L83.3718 82.0897C83.1895 82.1544 83.0104 82.2231 82.832 82.2933C83.0933 83.7352 83.8635 84.9995 84.951 85.8921V85.8921Z" fill="#E5BD76"/>
<path d="M92.6915 85.8924H84.7253C80.0358 87.5624 76.6777 92.0932 76.6777 97.3564V103.411H100.898V97.3564C100.898 92.034 97.4638 87.5174 92.6915 85.8924V85.8924Z" fill="#77959E"/>
<path d="M60.7303 85.8921H68.4062C69.4803 85.0105 70.2442 83.766 70.5149 82.3462C70.2703 82.2491 70.0232 82.156 69.7723 82.0707L69.1401 81.8553H59.8078L59.1511 82.0897C58.9688 82.1544 58.7897 82.2231 58.6113 82.2933C58.8726 83.7352 59.6428 84.9995 60.7303 85.8921V85.8921Z" fill="#E5BD76"/>
<path d="M68.4708 85.8924H60.5046C55.8151 87.5624 52.457 92.0932 52.457 97.3564V103.411H76.6777V97.3564C76.6777 92.034 73.2431 87.5174 68.4708 85.8924V85.8924Z" fill="#77959E"/>
<path d="M36.5096 85.8921H44.1855C45.2596 85.0105 46.0235 83.766 46.2942 82.3462C46.0496 82.2491 45.8025 82.156 45.5516 82.0707L44.9194 81.8553H35.5871L34.9304 82.0897C34.7481 82.1544 34.569 82.2231 34.3906 82.2933C34.6519 83.7352 35.4221 84.9995 36.5096 85.8921V85.8921Z" fill="#E5BD76"/>
<path d="M44.2501 85.8924H36.2839C31.5944 87.5624 28.2363 92.0932 28.2363 97.3564V103.411H52.457V97.3564C52.457 92.034 49.0224 87.5174 44.2501 85.8924Z" fill="#77959E"/>
<path d="M12.2889 85.8921H19.964C21.0389 85.0105 21.8028 83.766 22.0735 82.3462C21.8289 82.2491 21.5818 82.156 21.3309 82.0707L20.6987 81.8553H11.3664L10.7097 82.0897C10.5274 82.1544 10.3483 82.2231 10.1699 82.2933C10.4311 83.7352 11.2014 84.9995 12.2889 85.8921V85.8921Z" fill="#E5BD76"/>
<path d="M20.0294 85.8924H12.0631C7.37369 87.5624 4.01562 92.0932 4.01562 97.3564V103.411H28.2363V97.3564C28.2363 92.034 24.8017 87.5174 20.0294 85.8924Z" fill="#77959E"/>
<path d="M50.1367 7.7395H98.5781V51.3368H50.1367V7.7395Z" fill="#FFCB5A"/>
<path d="M36.3102 1.6842H2.19922V22.8775H8.25479L16.3284 31.1531V22.8775H36.3102V1.6842Z" fill="#00DDC2"/>
<path d="M46.0996 1.6842H102.615V7.73978H46.0996V1.6842Z" fill="#77959E"/>
<path d="M46.0996 51.3372H102.615V57.3919H46.0996V51.3372Z" fill="#77959E"/>
<path d="M84.2564 27.5709C83.3409 22.9391 79.2576 19.446 74.3574 19.446V29.5384L84.2564 27.5709Z" fill="#00DDC2"/>
<path d="M74.358 29.5384V19.446C68.7846 19.446 64.2656 23.9642 64.2656 29.5384C64.2656 35.1118 68.7846 39.63 74.358 39.63C79.9313 39.63 84.4495 35.1118 84.4495 29.5384C84.4495 28.8644 84.3825 28.207 84.257 27.5709L74.358 29.5384Z" fill="#A477BD"/>
<path d="M50.1367 7.7395H98.5781V11.7763H50.1367V7.7395Z" fill="#FBA61F"/>
<path d="M21.0703 58.1993H24.0977V65.8696H21.0703V58.1993Z" fill="black"/>
<path d="M33.9883 58.1993H37.0157V65.8696H33.9883V58.1993Z" fill="black"/>
<path d="M36.6132 39.6298V36.6024C36.6132 32.4291 33.2173 29.0331 29.044 29.0331C24.8707 29.0331 21.4747 32.4291 21.4747 36.6024V39.6298C21.4747 41.1395 21.9214 42.5467 22.6861 43.7289C18.2737 46.061 15.4199 50.6866 15.4199 55.7769V65.8693H18.4473V55.7769C18.4473 51.4947 21.043 47.6355 24.9622 45.9987C26.1413 46.7571 27.5413 47.1991 29.044 47.1991C30.5458 47.1991 31.9459 46.7571 33.1242 45.9995C37.0489 47.6355 39.6406 51.4781 39.6406 55.7769V65.8693H42.668V55.7769C42.668 50.6668 39.8206 46.0563 35.4026 43.7274C36.1673 42.5459 36.6132 41.1395 36.6132 39.6298V39.6298ZM33.5851 39.6298C33.5851 42.1339 31.5481 44.1717 29.044 44.1717C26.5398 44.1717 24.5029 42.1339 24.5029 39.6298V36.6024C24.5029 34.0983 26.5398 32.0613 29.044 32.0613C31.5481 32.0613 33.5851 34.0983 33.5851 36.6024V39.6298Z" fill="black"/>
<path d="M95.1499 85.3087C95.9296 84.1012 96.3574 82.6854 96.3574 81.2096V78.1814C96.3574 74.0081 92.9614 70.6129 88.7881 70.6129C84.6148 70.6129 81.2189 74.0081 81.2189 78.1814V81.2096C81.2189 82.6704 81.6371 84.0712 82.4019 85.2708C79.9182 86.5935 77.9318 88.6478 76.673 91.107C75.4103 88.662 73.4199 86.6219 70.9292 85.3087C71.7089 84.1012 72.1367 82.6854 72.1367 81.2096V78.1814C72.1367 74.0081 68.7407 70.6129 64.5674 70.6129C60.3941 70.6129 56.9982 74.0081 56.9982 78.1814V81.2096C56.9982 82.6704 57.4164 84.0712 58.1812 85.2708C55.6975 86.5935 53.7111 88.6478 52.4523 91.107C51.1896 88.662 49.1992 86.6219 46.7085 85.3087C47.4882 84.1012 47.916 82.6854 47.916 81.2096V78.1814C47.916 74.0081 44.52 70.6129 40.3467 70.6129C36.1734 70.6129 32.7774 74.0081 32.7774 78.1814V81.2096C32.7774 82.6704 33.1957 84.0712 33.9597 85.2708C31.4768 86.5935 29.4904 88.6478 28.2316 91.107C26.9689 88.662 24.9785 86.6219 22.4878 85.3087C23.2675 84.1012 23.6953 82.6854 23.6953 81.2096V78.1814C23.6953 74.0081 20.2993 70.6129 16.126 70.6129C11.9519 70.6129 8.55674 74.0081 8.55674 78.1814V81.2096C8.55674 82.6704 8.97501 84.0712 9.73896 85.2708C5.34309 87.6116 2.50195 92.249 2.50195 97.3567V103.411H5.52934V97.3567C5.52934 92.9379 8.25289 88.9714 12.3339 87.4064H19.7706C23.9383 88.9319 26.7227 92.9001 26.7227 97.3567V103.411H29.7501V97.3567C29.7501 92.9379 32.4736 88.9714 36.5546 87.4064H43.9913C48.1598 88.9319 50.9434 92.9001 50.9434 97.3567V103.411H53.9708V97.3567C53.9708 92.9379 56.6943 88.9714 60.7753 87.4064H68.212C72.3805 88.9319 75.1641 92.9001 75.1641 97.3567V103.411H78.1915V97.3567C78.1915 92.9379 80.915 88.9714 84.996 87.4064H92.4327C96.6013 88.9319 99.3848 92.9001 99.3848 97.3567V103.411H102.412V97.3567C102.412 92.2474 99.5663 87.6376 95.1499 85.3087V85.3087ZM20.6671 81.2096C20.6671 82.4044 20.203 83.5338 19.3783 84.379H12.8737C12.049 83.5338 11.5849 82.4044 11.5849 81.2096V78.1814C11.5849 75.6772 13.6219 73.6403 16.126 73.6403C18.6302 73.6403 20.6671 75.6772 20.6671 78.1814V81.2096ZM44.8878 81.2096C44.8878 82.4044 44.4237 83.5338 43.599 84.379H37.0944C36.2697 83.5338 35.8056 82.4044 35.8056 81.2096V78.1814C35.8056 75.6772 37.8426 73.6403 40.3467 73.6403C42.8509 73.6403 44.8878 75.6772 44.8878 78.1814V81.2096ZM69.1085 81.2096C69.1085 82.4044 68.6445 83.5338 67.8197 84.379H61.3151C60.4904 83.5338 60.0263 82.4044 60.0263 81.2096V78.1814C60.0263 75.6772 62.0633 73.6403 64.5674 73.6403C67.0716 73.6403 69.1085 75.6772 69.1085 78.1814V81.2096ZM93.3292 81.2096C93.3292 82.4044 92.8652 83.5338 92.0404 84.379H85.5358C84.7111 83.5338 84.247 82.4044 84.247 81.2096V78.1814C84.247 75.6772 86.284 73.6403 88.7881 73.6403C91.2923 73.6403 93.3292 75.6772 93.3292 78.1814V81.2096Z" fill="black"/>
<path d="M17.8421 34.8726V24.3911H37.824V0.17041H0.685547V24.3911H7.61635L17.8421 34.8726ZM3.71294 3.1978H34.7966V21.3637H14.8147V27.4335L8.89249 21.3637H3.71294V3.1978Z" fill="black"/>
<path d="M104.128 9.25325V0.170288H44.5859V9.25325H48.6227V49.8231H44.5859V58.9053H104.128V49.8231H100.092V9.25325H104.128ZM101.101 52.8505V55.8779H47.6133V52.8505H101.101ZM51.6501 49.8231V9.25325H97.0641V49.8231H51.6501ZM47.6133 6.22586V3.19768H101.101V6.22586H47.6133Z" fill="black"/>
<path d="M74.3561 17.9322C67.9564 17.9322 62.75 23.1386 62.75 29.5382C62.75 35.9371 67.9564 41.1435 74.3561 41.1435C80.7557 41.1435 85.9613 35.9371 85.9613 29.5382C85.9613 23.1386 80.7557 17.9322 74.3561 17.9322V17.9322ZM75.8697 21.0961C78.8285 21.6257 81.2648 23.6752 82.3397 26.4075L75.8697 27.6939V21.0961ZM82.9339 29.5382C82.9339 34.2679 79.0858 38.1161 74.3561 38.1161C69.6256 38.1161 65.7774 34.2679 65.7774 29.5382C65.7774 25.3247 68.8316 21.8135 72.8424 21.0961V31.3826L82.93 29.3765C82.9308 29.4309 82.9339 29.4838 82.9339 29.5382V29.5382Z" fill="black"/>
<path d="M63.7607 15.3083H60.7333V12.2809H63.7607V15.3083ZM57.7051 15.3083H54.6777V12.2809H57.7051V15.3083Z" fill="white"/>
<path d="M94.0373 46.795H91.0099V43.7676H94.0373V46.795ZM87.9825 46.795H84.9551V43.7676H87.9825V46.795Z" fill="white"/>
<path d="M91.1094 12.18H94.1368V20.2536H91.1094V12.18Z" fill="white"/>
<path d="M85.0547 12.18H88.0821V17.2262H85.0547V12.18Z" fill="white"/>
<path d="M54.5762 38.6204H57.6044V46.694H54.5762V38.6204Z" fill="white"/>
<path d="M60.6328 41.6487H63.6602V46.6941H60.6328V41.6487Z" fill="white"/>
<path d="M29.8515 10.0607H26.8241V7.03333H29.8515V10.0607ZM23.7959 10.0607H20.7686V7.03333H23.7959V10.0607ZM17.7412 10.0607H14.7138V7.03333H17.7412V10.0607ZM11.6856 10.0607H8.6582V7.03333H11.6856V10.0607Z" fill="white"/>
<path d="M26.8241 16.5195H23.7959V13.4921H26.8241V16.5195ZM20.7685 16.5195H17.7411V13.4921H20.7685V16.5195ZM14.7137 16.5195H11.6855V13.4921H14.7137V16.5195Z" fill="white"/>
</g>
<defs>
<clipPath id="clip0">
<rect width="103.443" height="103.443" fill="white" transform="translate(0.685547 0.17041)"/>
</clipPath>
</defs>
</svg>
