<svg width="100" height="100" viewBox="0 0 104 104" fill="none" xmlns="http://www.w3.org/2000/svg">
<g clip-path="url(#clip0)">
<path d="M51.8935 103.613C79.231 103.613 101.392 81.452 101.392 54.1145C101.392 26.777 79.231 4.61554 51.8935 4.61554C24.556 4.61554 2.39453 26.777 2.39453 54.1145C2.39453 81.452 24.556 103.613 51.8935 103.613Z" fill="#1A2B63"/>
<path d="M55.4287 73.2664V62.4342C55.0115 62.5364 54.5757 62.5916 54.127 62.5916H49.6591C49.2104 62.5916 48.7746 62.5364 48.3574 62.4342V73.2664H55.4287Z" fill="#FFAF10"/>
<path d="M51.489 73.2664V62.5916H49.6591C49.2104 62.5916 48.7746 62.5364 48.3574 62.4342V73.2664H51.489Z" fill="#EF9614"/>
<path d="M51.892 57.7517C49.1841 57.7517 46.5908 57.253 44.1973 56.3453V57.3413C44.1973 60.3571 46.6421 62.802 49.6581 62.802H54.1259C57.1419 62.802 59.5868 60.3571 59.5868 57.3413V56.3453C57.1931 57.253 54.5999 57.7517 51.892 57.7517Z" fill="#FFD00D"/>
<path d="M50.4581 57.7032C48.2684 57.5597 46.1662 57.0914 44.1992 56.3453V57.3413C44.1992 60.3571 46.6441 62.802 49.6601 62.802H54.1279C54.4307 62.802 54.7275 62.7763 55.0168 62.7288C52.5401 62.3231 50.625 60.2521 50.4581 57.7032Z" fill="#FFAF10"/>
<path d="M59.7725 77.3486V73.914C59.7725 73.3584 59.3179 72.9038 58.7623 72.9038H45.0239C44.4683 72.9038 44.0137 73.3584 44.0137 73.914V77.3486H59.7725Z" fill="#EF8318"/>
<path d="M50.0748 77.3486V73.914C50.0748 73.3584 50.5293 72.9038 51.0849 72.9038H45.0239C44.4683 72.9038 44.0137 73.3584 44.0137 73.914V77.3486H50.0748Z" fill="#DB722C"/>
<path d="M70.9857 94.5219V77.9549C70.9857 77.3993 70.5311 76.9447 69.9755 76.9447H33.811C33.2554 76.9447 32.8008 77.3993 32.8008 77.9549V94.5219H70.9857Z" fill="#A05F33"/>
<path d="M35.9323 94.5219V77.9549C35.9323 77.3993 36.3869 76.9447 36.9425 76.9447H33.811C33.2554 76.9447 32.8008 77.3993 32.8008 77.9549V94.5219H35.9323Z" fill="#87502A"/>
<path d="M65.4333 90.0771C65.4333 90.6327 64.9788 91.0873 64.4232 91.0873H39.3617C38.8061 91.0873 38.3516 90.6327 38.3516 90.0771V81.5916C38.3516 81.036 38.8061 80.5814 39.3617 80.5814H64.4232C64.9788 80.5814 65.4333 81.036 65.4333 81.5916V90.0771Z" fill="#293D7C"/>
<path d="M42.3876 90.0771V81.5916C42.3876 81.036 42.8422 80.5814 43.3978 80.5814H39.3617C38.8061 80.5814 38.3516 81.036 38.3516 81.5916V90.0771C38.3516 90.6327 38.8061 91.0873 39.3617 91.0873H43.3978C42.8422 91.0873 42.3876 90.6327 42.3876 90.0771Z" fill="#1A2B63"/>
<path d="M75.2294 94.3197H28.559C28.0034 94.3197 27.5488 94.7743 27.5488 95.3299V97.2193C34.7377 101.288 43.044 103.613 51.8942 103.613C60.7444 103.613 69.0508 101.288 76.2396 97.2191V95.3299C76.2396 94.7743 75.785 94.3197 75.2294 94.3197Z" fill="#BF7E52"/>
<path d="M33.7109 95.3299C33.7109 94.7743 34.1655 94.3197 34.7211 94.3197H28.559C28.0034 94.3197 27.5488 94.7743 27.5488 95.3299V97.2193C29.5225 98.3364 31.5807 99.3211 33.7109 100.163V95.3299Z" fill="#AA6B3F"/>
<path d="M85.8877 5.34119H78.0577V7.04011C78.0577 7.4858 77.6953 7.84826 77.2496 7.84826H73.8592C73.7475 7.84826 73.6572 7.93877 73.6572 8.05029V10.3921H84.2479C83.8154 19.2419 79.8144 27.1694 73.6572 32.764V35.9889C73.6572 37.1623 73.5624 38.3139 73.3828 39.4375C83.0246 32.6565 89.3378 21.4479 89.3378 8.79136C89.3378 6.88879 87.79 5.34119 85.8877 5.34119Z" fill="#FFAF10"/>
<path d="M30.1301 35.9889V32.764C23.973 27.1694 19.9717 19.2419 19.5393 10.3921H30.1301V8.05029C30.1301 7.93877 30.0396 7.84826 29.928 7.84826H26.5375C26.0918 7.84826 25.7293 7.4858 25.7293 7.04011V5.34119H17.8994C15.997 5.34119 14.4492 6.88899 14.4492 8.79136C14.4492 21.4481 20.7627 32.6567 30.4042 39.4377C30.2246 38.3139 30.1301 37.1623 30.1301 35.9889Z" fill="#FFD00D"/>
<path d="M29.9277 7.84808V35.9887C29.9277 48.1196 39.7619 57.9537 51.8927 57.9537C64.0236 57.9537 73.8579 48.1196 73.8579 35.9887V7.84808H29.9277Z" fill="#EF8318"/>
<path d="M34.3156 35.9888V7.64667H29.9277V35.9888C29.9277 48.1196 39.7619 57.9538 51.8928 57.9538C52.6284 57.9538 53.3543 57.9148 54.0711 57.8437C42.9777 56.7355 34.3156 47.3737 34.3156 35.9888Z" fill="#DB722C"/>
<path d="M51.8921 46.538C60.1492 46.538 66.8428 39.8443 66.8428 31.5873C66.8428 23.3303 60.1492 16.6366 51.8921 16.6366C43.6351 16.6366 36.9414 23.3303 36.9414 31.5873C36.9414 39.8443 43.6351 46.538 51.8921 46.538Z" fill="#DB722C"/>
<path d="M40.7801 31.5874C40.7801 23.9811 46.4616 17.7062 53.8115 16.7635C53.1827 16.6829 52.5431 16.6367 51.8921 16.6367C43.6351 16.6367 36.9414 23.3303 36.9414 31.5874C36.9414 39.8444 43.6351 46.5381 51.8921 46.5381C52.5431 46.5381 53.1827 46.4918 53.8115 46.4112C46.4616 45.4687 40.7801 39.1936 40.7801 31.5874Z" fill="#C95E23"/>
<path d="M57.0963 40.9213C56.8492 40.9215 56.5964 40.8544 56.3453 40.7222L52.2749 38.5825C52.2134 38.5502 52.0765 38.5124 51.8928 38.5124C51.709 38.5124 51.572 38.5502 51.5101 38.5825L47.4401 40.7222C47.1888 40.8544 46.936 40.9213 46.6892 40.9213C46.3142 40.9213 45.9786 40.7683 45.7446 40.4907C45.485 40.183 45.3864 39.7559 45.4666 39.2882L46.2441 34.7561C46.2782 34.5571 46.1523 34.1698 46.0079 34.0288L42.7151 30.819C42.2864 30.401 42.131 29.883 42.2888 29.3977C42.4466 28.9124 42.8767 28.5849 43.4691 28.4988L48.0194 27.8378C48.219 27.8087 48.5487 27.5693 48.638 27.3882L50.6729 23.2647C50.938 22.7279 51.3825 22.4202 51.8928 22.4202C52.4032 22.4202 52.8478 22.7279 53.1125 23.2647L55.1476 27.3882C55.2369 27.5693 55.5664 27.8089 55.766 27.8378L60.3165 28.4988C60.9087 28.5849 61.339 28.9124 61.4966 29.3977C61.6544 29.883 61.4992 30.401 61.0707 30.8188L57.7777 34.0288C57.6331 34.1696 57.5072 34.5571 57.5413 34.7561L58.3186 39.2882C58.3988 39.7559 58.3002 40.183 58.0408 40.4907C57.8066 40.7683 57.471 40.9213 57.0963 40.9213Z" fill="#FFD00D"/>
<path d="M48.8018 38.8553L49.6441 33.9444C49.6811 33.7289 49.5447 33.3088 49.3881 33.1563L45.82 29.6782C45.3818 29.2509 45.211 28.7276 45.3361 28.2282L43.4691 28.4995C42.8767 28.5856 42.4466 28.9131 42.2888 29.3984C42.131 29.8837 42.2864 30.4017 42.7151 30.8197L46.0079 34.0295C46.1523 34.1703 46.2782 34.5578 46.2441 34.7568L45.4666 39.2889C45.3866 39.7566 45.4852 40.1837 45.7446 40.4914C45.9788 40.769 46.3142 40.922 46.6891 40.922C46.9362 40.922 47.1888 40.8551 47.4401 40.723L48.9495 39.9294C48.7871 39.6259 48.7333 39.255 48.8018 38.8553Z" fill="#FFAF10"/>
<path d="M78.2589 7.04008C78.2589 7.59568 77.8043 8.05026 77.2487 8.05026H26.5375C25.9819 8.05026 25.5273 7.59568 25.5273 7.04008V1.18102C25.5273 0.62542 25.9819 0.170837 26.5375 0.170837H77.2487C77.8043 0.170837 78.2589 0.62542 78.2589 1.18102V7.04008Z" fill="#FFD00D"/>
<path d="M31.6895 7.04008V1.18102C31.6895 0.62542 32.144 0.170837 32.6996 0.170837H26.5375C25.9819 0.170837 25.5273 0.62542 25.5273 1.18102V7.04008C25.5273 7.59568 25.9819 8.05026 26.5375 8.05026H32.6996C32.144 8.05026 31.6895 7.59568 31.6895 7.04008Z" fill="#FFAF10"/>
<path d="M25.8304 67.0447C25.5704 67.0447 25.3393 66.8788 25.2562 66.6325C24.0933 63.187 23.2229 62.3166 19.7776 61.1539C19.5311 61.0707 19.3652 60.8395 19.3652 60.5795C19.3652 60.3195 19.5311 60.0884 19.7774 60.0053C23.2227 58.8426 24.0931 57.972 25.256 54.5267C25.3393 54.2804 25.5702 54.1146 25.8302 54.1146C26.0902 54.1146 26.3214 54.2804 26.4044 54.5267C27.5673 57.972 28.4377 58.8426 31.883 60.0053C32.1293 60.0886 32.2954 60.3195 32.2954 60.5795C32.2954 60.8395 32.1295 61.0707 31.883 61.1539C28.4377 62.3166 27.5673 63.187 26.4044 66.6325C26.3216 66.8788 26.0904 67.0447 25.8304 67.0447Z" fill="#FFD00D"/>
<path d="M76.0367 60.3775C75.8296 60.3775 75.6452 60.2454 75.5789 60.0492C74.6523 57.3035 73.9585 56.61 71.2131 55.6834C71.0171 55.6169 70.8848 55.4329 70.8848 55.2256C70.8848 55.0185 71.0171 54.8343 71.2131 54.768C73.9588 53.8414 74.6523 53.1477 75.5789 50.4022C75.6452 50.2058 75.8294 50.0737 76.0367 50.0737C76.244 50.0737 76.4278 50.2058 76.4945 50.4022C77.421 53.1477 78.1148 53.8412 80.8603 54.768C81.0563 54.8343 81.1886 55.0185 81.1886 55.2256C81.1886 55.4329 81.0563 55.6169 80.8603 55.6834C78.1146 56.6102 77.421 57.3035 76.4945 60.0492C76.4278 60.2454 76.2438 60.3775 76.0367 60.3775Z" fill="white"/>
<path d="M57.3479 84.824H46.4379C45.8801 84.824 45.4277 84.3716 45.4277 83.8138C45.4277 83.2559 45.8801 82.8036 46.4379 82.8036H57.3479C57.9059 82.8036 58.3581 83.2559 58.3581 83.8138C58.3581 84.3716 57.9059 84.824 57.3479 84.824Z" fill="white"/>
<path d="M54.9248 88.4607H48.8637C48.3059 88.4607 47.8535 88.0084 47.8535 87.4506C47.8535 86.8927 48.3059 86.4404 48.8637 86.4404H54.9248C55.4828 86.4404 55.935 86.8927 55.935 87.4506C55.935 88.0084 55.4828 88.4607 54.9248 88.4607Z" fill="white"/>
<path d="M39.5696 16.3337C39.3746 16.3337 39.2013 16.2093 39.1388 16.0246C38.2666 13.4406 37.6139 12.7878 35.0298 11.9156C34.8452 11.8532 34.7207 11.6798 34.7207 11.4849C34.7207 11.2899 34.8452 11.1166 35.0298 11.0541C37.6139 10.1821 38.2666 9.52915 39.1388 6.9451C39.2013 6.76044 39.3746 6.63599 39.5696 6.63599C39.7645 6.63599 39.9379 6.76044 40.0003 6.9451C40.8725 9.52915 41.5253 10.1819 44.1093 11.0541C44.294 11.1166 44.4185 11.2899 44.4185 11.4849C44.4185 11.6798 44.294 11.8532 44.1093 11.9156C41.5253 12.7878 40.8725 13.4406 40.0003 16.0246C39.9379 16.2093 39.7645 16.3337 39.5696 16.3337Z" fill="white"/>
</g>
<defs>
<clipPath id="clip0">
<rect width="103.443" height="103.443" fill="white" transform="translate(0.171875 0.170898)"/>
</clipPath>
</defs>
</svg>
