<svg width="1075" height="1779" style="opacity: 0.1" viewBox="0 0 1075 1779" fill="none" xmlns="http://www.w3.org/2000/svg">
<path d="M1 76.2821L131.439 175.495M1 76.2821V203.913M1 76.2821L178.417 163.031M131.439 175.495L28.4872 300.134M131.439 175.495L1 203.913M131.439 175.495L193.41 254.766M131.439 175.495L178.417 163.031M131.439 175.495L93.9567 312.598M28.4872 300.134L93.9567 369.644M28.4872 300.134L1 203.913M28.4872 300.134L1 386.883M28.4872 300.134L93.9567 312.598M168.422 448.704L59.4728 623.199M168.422 448.704L84.6626 386.883M168.422 448.704L160.925 450.974M168.422 448.704L50.4769 510.525M168.422 448.704L141.435 831.097M168.422 448.704L129.94 809.161M168.422 448.704L94.7063 716.18M168.422 448.704L166.623 446.794M28.4872 491.082L59.4728 623.199M28.4872 491.082L1 386.883M28.4872 491.082L1 584.81M28.4872 491.082L84.6626 386.883M28.4872 491.082L50.4769 510.525M28.4872 491.082L160.925 450.974M28.4872 491.082L93.9567 312.598M59.4728 623.199L1 584.81M59.4728 623.199L50.4769 510.525M59.4728 623.199L168.422 831.097M59.4728 623.199L94.7063 716.18M93.9567 369.644L193.41 254.766M93.9567 369.644L1 386.883M93.9567 369.644V312.598M93.9567 369.644L84.6626 386.883M93.9567 369.644L166.623 446.794M1 203.913L93.9567 312.598M193.41 254.766L342.341 175.495M193.41 254.766L178.417 163.031M193.41 254.766L93.9567 312.598M1 386.883H84.6626M1 386.883L93.9567 312.598M1 584.81L50.4769 510.525M1 584.81L129.94 809.161M1 584.81L141.435 831.097M1 584.81L94.7063 716.18M342.341 175.495L313.854 40.386H481.276M342.341 175.495L481.276 40.386M481.276 40.386L679.684 107.372M807.624 150.567L930.067 1M807.624 150.567L888.087 312.598M807.624 150.567L939.585 162.916M807.624 150.567L930.067 175.495M807.624 150.567L679.684 107.372M930.067 1L1074 175.495M930.067 1L939.585 162.916M1074 175.495V345.004M1074 175.495L940.812 163.031M1074 175.495H930.067M1074 345.004L888.087 312.598M1074 345.004L1008.53 510.525M1074 345.004L1060.51 300.134M1074 345.004L939.585 448.704M888.087 312.598L940.812 163.031M888.087 312.598L930.067 175.495M888.087 312.598L1060.51 300.134M888.087 312.598L939.585 448.704M888.087 312.598L680.683 216.377M940.812 163.031L939.585 162.916M939.585 162.916L930.067 175.495M1008.53 510.525L1074 557.888L996.036 675.548M1008.53 510.525L939.585 448.704M996.036 675.548L908.077 875.968M996.036 675.548L989.539 677.458M996.036 675.548L1074 779.247M996.036 675.548V845.057M178.417 163.031L93.9567 312.598M178.417 163.031L160.925 40.386M93.9567 312.598L84.6626 386.883M84.6626 386.883L50.4769 510.525M50.4769 510.525C57.6736 510.525 127.108 470.825 160.925 450.974M160.925 450.974L129.94 809.161M1060.51 300.134L939.585 448.704M168.422 831.097L28.4872 994.624M168.422 831.097L129.94 809.161M168.422 831.097L50.4769 845.057M168.422 831.097L323.35 768.279M168.422 831.097L357.334 1040.49M168.422 831.097L122.443 1062.93M28.4872 994.624L141.435 831.097M28.4872 994.624L129.94 809.161M28.4872 994.624L50.4769 845.057M28.4872 994.624L114.947 1062.93M141.435 831.097L129.94 809.161M141.435 831.097L50.4769 845.057M141.435 831.097L114.947 1062.93M129.94 809.161L50.4769 845.057M129.94 809.161L94.7063 716.18M50.4769 845.057L94.7063 716.18M94.7063 716.18L323.35 768.279M94.7063 716.18L8.49651 740.859M323.35 768.279H680.683M323.35 768.279L463.784 584.81M357.334 1040.49L122.443 1062.93M357.334 1040.49L606.218 1214.99M357.334 1040.49L285.367 1172.61M122.443 1062.93H114.947M122.443 1062.93L285.367 1172.61M114.947 1062.93L28.4872 1260.85M114.947 1062.93L18.4918 1084.86M680.683 768.279L857.857 716.18M680.683 768.279L794.38 822.123M908.077 875.968L857.857 716.18M908.077 875.968V790.216M908.077 875.968L989.539 677.458M908.077 875.968L794.38 822.123M908.077 875.968C944.061 906.546 1017.73 969.397 1024.52 976.177M908.077 875.968L996.036 845.057M908.077 875.968L826.116 976.177M857.857 716.18L908.077 790.216M857.857 716.18L989.539 677.458M857.857 716.18L794.38 822.123M908.077 790.216L989.539 677.458M908.077 790.216L794.38 822.123M908.077 790.216L996.036 845.057M989.539 677.458L794.38 822.123M989.539 677.458L996.036 845.057M989.539 677.458L857.857 572.845M1024.52 976.177C1031.32 982.958 1060.34 847.716 1074 779.247M1024.52 976.177L996.036 845.057M1024.52 976.177L939.585 1125.74M1024.52 976.177L924.07 994.624M1074 779.247L996.036 845.057M996.036 845.057L924.07 994.624M939.585 1125.74L826.116 976.177M939.585 1125.74L924.07 994.624M939.585 1125.74L885.588 1305.23M939.585 1125.74C965.399 1155.49 1015.33 1213.49 1008.53 1207.51M826.116 976.177L924.07 994.624M826.116 976.177L704.672 1040.49M924.07 994.624L704.672 1040.49M704.672 1040.49L606.218 1214.99M166.623 446.794L329.847 395.857M28.4872 1260.85L226.895 1428.87M28.4872 1260.85L285.367 1275.81M28.4872 1260.85L114.947 1323.67M226.895 1428.87L530.753 1418.9M226.895 1428.87L285.367 1275.81M226.895 1428.87L162.925 1584.92M226.895 1428.87L220.398 1431.2M885.588 1305.23L1007.03 1459.78M885.588 1305.23L606.218 1214.99M885.588 1305.23L530.753 1418.9M885.588 1305.23L865.442 1459.78L864.598 1466.26M1007.03 1459.78L939.585 1689.11M1007.03 1459.78L1037.02 1776.86L939.585 1689.11M1007.03 1459.78L864.598 1466.26M939.585 1689.11L775.139 1580.42M939.585 1689.11L864.598 1466.26M939.585 1689.11L775.139 1776.86M98.9544 1474.73V1740.96L162.925 1584.92M98.9544 1474.73L162.925 1584.92M98.9544 1474.73L114.947 1323.67M98.9544 1474.73L220.398 1431.2M98.9544 1474.73L18.4918 1510.63M285.367 1275.81L530.753 1418.9M285.367 1275.81C387.487 1255.54 594.623 1214.99 606.218 1214.99M285.367 1275.81L114.947 1323.67M285.367 1275.81V1172.61M530.753 1418.9L606.218 1214.99M530.753 1418.9L775.139 1580.42M530.753 1418.9L864.598 1466.26M864.598 1466.26L775.139 1580.42M162.925 1584.92L114.947 1323.67M162.925 1584.92L323.35 1659M114.947 1323.67L220.398 1431.2M751.65 31.9105L679.684 107.372" stroke="white"/>
</svg>
