<svg width="50" height="50" viewBox="0 0 70 70" fill="none" xmlns="http://www.w3.org/2000/svg">
<path d="M35 70C15.673 70 0 54.327 0 35C0 15.673 15.673 0 35 0C54.327 0 70 15.673 70 35C70 54.327 54.327 70 35 70Z" fill="#5181B8"/>
<path fill-rule="evenodd" clip-rule="evenodd" d="M57.3304 24.1143C57.6524 23.0293 57.3304 22.2383 55.7834 22.2383H50.6804C49.3854 22.2383 48.7834 22.9243 48.4614 23.6803C48.4614 23.6803 45.8644 30.0083 42.1894 34.1173C40.9994 35.3073 40.4604 35.6853 39.8094 35.6853C39.4874 35.6853 39.0184 35.3073 39.0184 34.2223V24.1143C39.0184 22.8193 38.6404 22.2383 37.5624 22.2383H29.5404C28.7284 22.2383 28.2384 22.8403 28.2384 23.4143C28.2384 24.6463 30.0794 24.9263 30.2684 28.3913V35.9093C30.2684 37.5543 29.9674 37.8553 29.3234 37.8553C27.5944 37.8553 23.3874 31.4993 20.8884 24.2263C20.3984 22.8123 19.9084 22.2453 18.6064 22.2453H13.5034C12.0474 22.2453 11.7534 22.9313 11.7534 23.6873C11.7534 25.0383 13.4824 31.7443 19.8104 40.6133C24.0314 46.6683 29.9674 49.9513 35.3784 49.9513C38.6194 49.9513 39.0254 49.2233 39.0254 47.9633V43.3853C39.0254 41.9293 39.3334 41.6353 40.3624 41.6353C41.1184 41.6353 42.4204 42.0133 45.4444 44.9323C48.9024 48.3903 49.4764 49.9443 51.4224 49.9443H56.5254C57.9814 49.9443 58.7094 49.2163 58.2894 47.7743C57.8274 46.3393 56.1754 44.2603 53.9844 41.7893C52.7944 40.3823 51.0094 38.8703 50.4704 38.1143C49.7144 37.1413 49.9314 36.7073 50.4704 35.8463C50.4634 35.8463 56.6794 27.0893 57.3304 24.1143Z" fill="white"/>
</svg>
