<svg width="100%" height="100%" viewBox="0 0 108 108" fill="none" xmlns="http://www.w3.org/2000/svg">
<g filter="url(#filter0_d)">
<path d="M54 100C26.39 100 4 77.61 4 50C4 22.39 26.39 0 54 0C81.61 0 104 22.39 104 50C104 77.61 81.61 100 54 100Z" fill="#009992"/>
<path fill-rule="evenodd" clip-rule="evenodd" d="M85.9 34.4515C86.36 32.9015 85.9 31.7715 83.69 31.7715H76.4C74.55 31.7715 73.69 32.7515 73.23 33.8315C73.23 33.8315 69.52 42.8715 64.27 48.7415C62.57 50.4415 61.8 50.9815 60.87 50.9815C60.41 50.9815 59.74 50.4415 59.74 48.8915V34.4515C59.74 32.6015 59.2 31.7715 57.66 31.7715H46.2C45.04 31.7715 44.34 32.6315 44.34 33.4515C44.34 35.2115 46.97 35.6115 47.24 40.5615V51.3015C47.24 53.6515 46.81 54.0815 45.89 54.0815C43.42 54.0815 37.41 45.0015 33.84 34.6115C33.14 32.5915 32.44 31.7815 30.58 31.7815H23.29C21.21 31.7815 20.79 32.7615 20.79 33.8415C20.79 35.7715 23.26 45.3515 32.3 58.0215C38.33 66.6715 46.81 71.3615 54.54 71.3615C59.17 71.3615 59.75 70.3215 59.75 68.5215V61.9815C59.75 59.9015 60.19 59.4815 61.66 59.4815C62.74 59.4815 64.6 60.0215 68.92 64.1915C73.86 69.1315 74.68 71.3515 77.46 71.3515H84.75C86.83 71.3515 87.87 70.3115 87.27 68.2515C86.61 66.2015 84.25 63.2315 81.12 59.7015C79.42 57.6915 76.87 55.5315 76.1 54.4515C75.02 53.0615 75.33 52.4415 76.1 51.2115C76.09 51.2115 84.97 38.7015 85.9 34.4515Z" fill="white"/>
</g>
<defs>
<filter id="filter0_d" x="0" y="0" width="108" height="108" filterUnits="userSpaceOnUse" color-interpolation-filters="sRGB">
<feFlood flood-opacity="0" result="BackgroundImageFix"/>
<feColorMatrix in="SourceAlpha" type="matrix" values="0 0 0 0 0 0 0 0 0 0 0 0 0 0 0 0 0 0 127 0"/>
<feOffset dy="4"/>
<feGaussianBlur stdDeviation="2"/>
<feColorMatrix type="matrix" values="0 0 0 0 0 0 0 0 0 0 0 0 0 0 0 0 0 0 0.25 0"/>
<feBlend mode="normal" in2="BackgroundImageFix" result="effect1_dropShadow"/>
<feBlend mode="normal" in="SourceGraphic" in2="effect1_dropShadow" result="shape"/>
</filter>
</defs>
</svg>
