<svg width="50" height="50" viewBox="0 0 64 64" fill="none" xmlns="http://www.w3.org/2000/svg">
<path d="M32 64C49.6731 64 64 49.6731 64 32C64 14.3269 49.6731 0 32 0C14.3269 0 0 14.3269 0 32C0 49.6731 14.3269 64 32 64Z" fill="#C75C5C"/>
<g opacity="0.2">
<path opacity="0.2" d="M16.9541 50.0001C12.5541 50.0001 10.7541 46.8821 12.9541 43.0721L28.0001 17.0121C30.2001 13.2011 33.8001 13.2011 36.0001 17.0121L51.0461 43.0721C53.2461 46.8831 51.4461 50.0001 47.0461 50.0001H16.9541Z" fill="#231F20"/>
</g>
<path d="M16.9541 48.0001C12.5541 48.0001 10.7541 44.8821 12.9541 41.0721L28.0001 15.0121C30.2001 11.2011 33.8001 11.2011 36.0001 15.0121L51.0461 41.0721C53.2461 44.8831 51.4461 48.0001 47.0461 48.0001H16.9541Z" fill="#F5CF87"/>
<path d="M34 32C34 33.105 33.105 34 32 34C30.895 34 30 33.105 30 32V24C30 22.895 30.895 22 32 22C33.105 22 34 22.895 34 24V32Z" fill="#4F5D73"/>
<path d="M34 40C34 41.105 33.105 42 32 42C30.895 42 30 41.105 30 40C30 38.895 30.895 38 32 38C33.105 38 34 38.895 34 40Z" fill="#4F5D73"/>
</svg>
