<svg width="50" height="50" viewBox="0 0 70 70" fill="none" xmlns="http://www.w3.org/2000/svg">
<path d="M35 70C54.33 70 70 54.33 70 35C70 15.67 54.33 0 35 0C15.67 0 0 15.67 0 35C0 54.33 15.67 70 35 70Z" fill="#77B3D4"/>
<g opacity="0.2">
<path opacity="0.2" d="M56.875 35C56.875 24.127 47.0816 15.3125 35 15.3125C22.9184 15.3125 13.125 24.127 13.125 35C13.125 45.4661 22.2064 54.0006 33.6602 54.6263C34.4127 58.6217 35 61.25 35 61.25C35 61.25 40.518 57.9206 45.5427 52.2484C52.2966 48.8972 56.875 42.432 56.875 35Z" fill="#231F20"/>
</g>
<path d="M53.5939 31.5C53.5939 47.8658 35.0001 59.0625 35.0001 59.0625C35.0001 59.0625 24.7309 13.125 35.0001 13.125C45.2694 13.125 53.5939 21.3522 53.5939 31.5Z" fill="white"/>
<path d="M35 52.5C47.0812 52.5 56.875 43.6856 56.875 32.8125C56.875 21.9394 47.0812 13.125 35 13.125C22.9188 13.125 13.125 21.9394 13.125 32.8125C13.125 43.6856 22.9188 52.5 35 52.5Z" fill="white"/>
<path d="M35 35C36.2081 35 37.1875 34.0206 37.1875 32.8125C37.1875 31.6044 36.2081 30.625 35 30.625C33.7919 30.625 32.8125 31.6044 32.8125 32.8125C32.8125 34.0206 33.7919 35 35 35Z" fill="#4F5D73"/>
<path d="M43.75 35C44.9581 35 45.9375 34.0206 45.9375 32.8125C45.9375 31.6044 44.9581 30.625 43.75 30.625C42.5419 30.625 41.5625 31.6044 41.5625 32.8125C41.5625 34.0206 42.5419 35 43.75 35Z" fill="#4F5D73"/>
<path d="M26.25 35C27.4581 35 28.4375 34.0206 28.4375 32.8125C28.4375 31.6044 27.4581 30.625 26.25 30.625C25.0419 30.625 24.0625 31.6044 24.0625 32.8125C24.0625 34.0206 25.0419 35 26.25 35Z" fill="#4F5D73"/>
</svg>
